<svg width="253" height="182" viewBox="0 0 253 182" fill="none" xmlns="http://www.w3.org/2000/svg">
<circle cx="124.881" cy="91" r="91" fill="#FFCACA"/>
<ellipse cx="87.3006" cy="39.118" rx="7.78886" ry="7.89648" transform="rotate(57.9557 87.3006 39.118)" fill="#FFCACA"/>
<ellipse cx="77.4831" cy="52.6523" rx="4.00664" ry="3.9265" transform="rotate(57.9557 77.4831 52.6523)" fill="#FFCACA"/>
<rect x="23.3691" y="140.567" width="4.37027" height="13.3809" rx="2.18514" transform="rotate(44.3663 23.3691 140.567)" fill="#BD2F3D"/>
<rect x="11.3652" y="153.006" width="4.37027" height="13.3809" rx="2.18514" transform="rotate(44.3663 11.3652 153.006)" fill="#BD2F3D"/>
<rect x="14.1895" y="150.033" width="4.37027" height="13.3809" rx="2.18514" transform="rotate(134.366 14.1895 150.033)" fill="#BD2F3D"/>
<rect x="25.7793" y="163.546" width="4.37027" height="13.3809" rx="2.18514" transform="rotate(139.179 25.7793 163.546)" fill="#BD2F3D"/>
<rect x="231.342" y="10.2402" width="4.37027" height="13.3809" rx="2.18514" transform="rotate(-3.16954 231.342 10.2402)" fill="#BD2F3D"/>
<rect x="232.414" y="27.4941" width="4.37027" height="13.3809" rx="2.18514" transform="rotate(-3.16954 232.414 27.4941)" fill="#BD2F3D"/>
<rect x="232.129" y="23.4033" width="4.37027" height="13.3809" rx="2.18514" transform="rotate(86.8305 232.129 23.4033)" fill="#BD2F3D"/>
<rect x="249.92" y="23.9766" width="4.37027" height="13.3809" rx="2.18514" transform="rotate(91.6429 249.92 23.9766)" fill="#BD2F3D"/>
<path fill-rule="evenodd" clip-rule="evenodd" d="M124.881 173C170.168 173 206.881 136.287 206.881 91C206.881 45.7127 170.168 9 124.881 9C79.5935 9 42.8809 45.7127 42.8809 91C42.8809 136.287 79.5935 173 124.881 173ZM102.855 60.8774C100.737 64.0226 102.237 68.3474 105.768 69.8326C108.46 70.9247 111.682 70.1384 113.226 67.6484C115.3 64.4595 118.655 61.7947 123.818 61.7947C135.204 61.7947 137.455 72.3226 133.439 77.9579C131.75 80.3486 129.52 82.3848 127.265 84.4434C124.451 87.0116 121.6 89.6149 119.714 92.9853C118.478 95.1695 117.948 97.4847 117.684 99.7126C117.242 103.513 120.376 106.789 124.215 106.789C127.481 106.789 130.129 104.299 130.526 101.111C130.791 99.1447 131.188 98.1837 131.85 97.0042C133.177 94.5886 135.055 92.7897 137.241 90.6952C139.562 88.4716 142.23 85.9148 144.957 81.9332C149.724 74.9437 147.914 65.5516 144.825 60.5279C141.206 54.6742 134.101 50 123.73 50C114.285 50 107.136 54.5868 102.855 60.8774ZM123.774 133C128.628 133 132.6 129.068 132.6 124.263C132.6 119.458 128.628 115.526 123.774 115.526C118.919 115.526 114.947 119.458 114.947 124.263C114.947 129.068 118.919 133 123.774 133Z" fill="#BD2F3D"/>
<ellipse cx="79.1521" cy="45.7918" rx="7.78886" ry="7.89648" transform="rotate(57.9557 79.1521 45.7918)" fill="#FFCACA"/>
<ellipse cx="69.3347" cy="59.3271" rx="4.00664" ry="3.9265" transform="rotate(57.9557 69.3347 59.3271)" fill="#FFCACA"/>
</svg>
