<svg width="256" height="182" viewBox="0 0 256 182" fill="none" xmlns="http://www.w3.org/2000/svg">
<circle cx="128" cy="91" r="91" fill="#FFFB95"/>
<ellipse cx="90.4197" cy="39.1175" rx="7.78886" ry="7.89648" transform="rotate(57.9557 90.4197 39.1175)" fill="#FFFB95"/>
<ellipse cx="80.6023" cy="52.6523" rx="4.00664" ry="3.9265" transform="rotate(57.9557 80.6023 52.6523)" fill="#FFFB95"/>
<rect x="23.4912" y="142.848" width="4.37027" height="13.3809" rx="2.18514" transform="rotate(44.3663 23.4912 142.848)" fill="#AE7A19"/>
<rect x="11.4863" y="155.286" width="4.37027" height="13.3809" rx="2.18514" transform="rotate(44.3663 11.4863 155.286)" fill="#AE7A19"/>
<rect x="14.3105" y="152.313" width="4.37027" height="13.3809" rx="2.18514" transform="rotate(134.366 14.3105 152.313)" fill="#AE7A19"/>
<rect x="25.8994" y="165.826" width="4.37027" height="13.3809" rx="2.18514" transform="rotate(139.179 25.8994 165.826)" fill="#AE7A19"/>
<rect x="234.463" y="10.2393" width="4.37027" height="13.3809" rx="2.18514" transform="rotate(-3.16954 234.463 10.2393)" fill="#AE7A19"/>
<rect x="235.534" y="27.4927" width="4.37027" height="13.3809" rx="2.18514" transform="rotate(-3.16954 235.534 27.4927)" fill="#AE7A19"/>
<rect x="235.248" y="23.4023" width="4.37027" height="13.3809" rx="2.18514" transform="rotate(86.8305 235.248 23.4023)" fill="#AE7A19"/>
<rect x="253.04" y="23.9756" width="4.37027" height="13.3809" rx="2.18514" transform="rotate(91.6429 253.04 23.9756)" fill="#AE7A19"/>
<ellipse cx="82.2713" cy="45.7918" rx="7.78886" ry="7.89648" transform="rotate(57.9557 82.2713 45.7918)" fill="#FFFB95"/>
<ellipse cx="72.4538" cy="59.3262" rx="4.00664" ry="3.9265" transform="rotate(57.9557 72.4538 59.3262)" fill="#FFFB95"/>
<path fill-rule="evenodd" clip-rule="evenodd" d="M128 174C173.287 174 210 137.287 210 92C210 46.7127 173.287 10 128 10C82.7127 10 46 46.7127 46 92C46 137.287 82.7127 174 128 174ZM122.091 105.806C121.284 104.044 120.708 101.359 120.363 97.7528H120.371L118.528 69.9154C118.183 64.4888 118.01 60.594 118.01 58.2311C118.01 55.0128 118.845 52.5035 120.515 50.7032C122.186 48.9011 124.386 48 127.115 48C127.192 48 127.26 48.0098 127.328 48.0197C127.385 48.028 127.443 48.0363 127.506 48.0389C127.569 48.0363 127.626 48.028 127.682 48.0198C127.751 48.0099 127.819 48 127.897 48C130.622 48.001 132.823 48.902 134.498 50.7032C136.166 52.5025 137 55.0113 137 58.2297C137 60.5926 136.827 64.4873 136.482 69.9139L134.637 97.7528C134.292 101.359 133.717 104.044 132.912 105.806C132.102 107.569 130.66 108.451 128.586 108.452C128.198 108.452 127.853 108.387 127.503 108.321C127.156 108.387 126.806 108.452 126.417 108.452C124.339 108.451 122.897 107.569 122.091 105.806ZM120.798 121.144C122.665 119.463 124.918 118.62 127.557 118.618C130.199 118.619 132.429 119.465 134.249 121.143C136.074 122.833 136.986 124.877 136.986 127.275C136.986 130.03 136.039 132.172 134.131 133.703C132.224 135.232 129.99 135.998 127.43 136C124.919 136 122.718 135.219 120.828 133.67C118.943 132.125 118 129.994 118 127.277C118 124.878 118.933 122.834 120.798 121.144ZM127.557 118.618C127.558 118.618 127.558 118.618 127.559 118.618H127.553C127.554 118.618 127.556 118.618 127.557 118.618Z" fill="#AE7A19"/>
<ellipse cx="82.2713" cy="45.7918" rx="7.78886" ry="7.89648" transform="rotate(57.9557 82.2713 45.7918)" fill="#FFFB95"/>
</svg>
