<svg width="261" height="182" viewBox="0 0 261 182" fill="none" xmlns="http://www.w3.org/2000/svg">
<circle cx="133" cy="91" r="91" fill="#C5F9D7"/>
<path fill-rule="evenodd" clip-rule="evenodd" d="M132.999 173.001C178.288 173.001 215.001 136.288 215.001 90.9995C215.001 45.7113 178.288 8.99805 132.999 8.99805C87.7113 8.99805 50.998 45.7113 50.998 90.9995C50.998 136.288 87.7113 173.001 132.999 173.001ZM169.08 69.9305C169.08 68.5594 168.535 67.2444 167.566 66.2747C167.086 65.7942 166.516 65.413 165.889 65.153C165.262 64.8929 164.589 64.759 163.91 64.759C163.231 64.759 162.559 64.8929 161.931 65.153C161.304 65.413 160.734 65.7942 160.254 66.2747L124.923 101.623L109.085 85.7793C108.609 85.2855 108.038 84.8915 107.408 84.6205C106.777 84.3495 106.099 84.2069 105.412 84.2009C104.726 84.195 104.045 84.3258 103.41 84.5858C102.775 84.8458 102.198 85.2297 101.713 85.7152C101.227 86.2008 100.843 86.7781 100.584 87.4136C100.324 88.0491 100.193 88.73 100.199 89.4165C100.205 90.1031 100.347 90.7817 100.618 91.4125C100.889 92.0434 101.283 92.614 101.777 93.091L121.026 112.344C121.538 112.856 122.145 113.263 122.814 113.54C123.484 113.817 124.201 113.96 124.925 113.96C125.649 113.96 126.366 113.817 127.035 113.54C127.704 113.263 128.312 112.856 128.824 112.344L167.566 73.5864C168.535 72.6167 169.08 71.3017 169.08 69.9305Z" fill="#2D9D47"/>
<ellipse cx="95.4197" cy="39.1175" rx="7.78886" ry="7.89648" transform="rotate(57.9557 95.4197 39.1175)" fill="#C5F9D7"/>
<ellipse cx="85.6023" cy="52.6523" rx="4.00664" ry="3.9265" transform="rotate(57.9557 85.6023 52.6523)" fill="#C5F9D7"/>
<rect x="15.8887" y="139.831" width="4.37027" height="13.3809" rx="2.18514" transform="rotate(-4.09926 15.8887 139.831)" fill="#26BE54"/>
<rect x="17.2393" y="157.065" width="4.37027" height="13.3809" rx="2.18514" transform="rotate(-4.09926 17.2393 157.065)" fill="#26BE54"/>
<rect x="16.8877" y="152.98" width="4.37027" height="13.3809" rx="2.18514" transform="rotate(85.9007 16.8877 152.98)" fill="#26BE54"/>
<rect x="34.6865" y="153.265" width="4.37027" height="13.3809" rx="2.18514" transform="rotate(90.7132 34.6865 153.265)" fill="#26BE54"/>
<rect x="239.463" y="10.2393" width="4.37027" height="13.3809" rx="2.18514" transform="rotate(-3.16954 239.463 10.2393)" fill="#26BE54"/>
<rect x="240.534" y="27.4927" width="4.37027" height="13.3809" rx="2.18514" transform="rotate(-3.16954 240.534 27.4927)" fill="#26BE54"/>
<rect x="240.248" y="23.4023" width="4.37027" height="13.3809" rx="2.18514" transform="rotate(86.8305 240.248 23.4023)" fill="#26BE54"/>
<rect x="258.04" y="23.9756" width="4.37027" height="13.3809" rx="2.18514" transform="rotate(91.6429 258.04 23.9756)" fill="#26BE54"/>
</svg>
