<svg width="11" height="16" viewBox="0 0 11 16" fill="none" xmlns="http://www.w3.org/2000/svg">
<path d="M2.93875 0.862821L10.0269 7.14875C10.5643 7.62535 10.5643 8.39808 10.0269 8.87469L10.0075 8.89192C9.47004 9.36852 8.59869 9.36852 8.06126 8.89192L0.973108 2.60599C0.435676 2.12938 0.435675 1.35665 0.973108 0.880045L0.99253 0.862821C1.52996 0.386214 2.40131 0.386214 2.93875 0.862821Z" fill="#E6A92F"/>
<path d="M10.0075 7.10808L10.0269 7.12531C10.5643 7.60192 10.5643 8.37465 10.0269 8.85125L2.93875 15.1372C2.40131 15.6138 1.52996 15.6138 0.99253 15.1372L0.973108 15.12C0.435675 14.6433 0.435676 13.8706 0.973108 13.394L8.06126 7.10808C8.59869 6.63148 9.47004 6.63148 10.0075 7.10808Z" fill="#E6A92F"/>
</svg>
