<svg width="476" height="238" viewBox="0 0 476 238" fill="none" xmlns="http://www.w3.org/2000/svg">
<path d="M474.907 129.46L470.639 122.03L463.965 123.013L458.466 116.085L461.305 109.211L453.861 104.269L448.301 109.871L440.981 108.593L438.018 99.9805L429.117 100.922L428.616 108.448L421.983 111.775L414.965 106.806L407.845 111.995L411.542 119.961L407.309 126.346L399.617 125.934L397.604 135.426L404.924 138.244L405.556 146.217L397.995 150.581L401.624 158.829L409.48 157.606L414.684 163.613L411.934 171.105L419.131 176.184L424.746 170.108L432.54 172.218L434.967 180.26L443.627 179.676L444.74 172.452L452.17 168.191L458.246 173.036L465.931 167.311L462.033 160.575L465.821 153.791L473.615 154.362L476 145.53L469.312 141.914L468.426 133.866L474.907 129.46ZM444.733 155.448C441.731 157.171 438.284 157.966 434.83 157.731C431.375 157.495 428.068 156.241 425.327 154.127C422.585 152.012 420.532 149.132 419.427 145.85C418.323 142.569 418.216 139.034 419.12 135.692C420.025 132.349 421.9 129.351 424.509 127.074C427.118 124.798 430.343 123.346 433.777 122.903C437.211 122.459 440.699 123.044 443.801 124.583C446.902 126.122 449.477 128.547 451.201 131.549C453.511 135.577 454.127 140.356 452.914 144.837C451.701 149.319 448.759 153.135 444.733 155.448Z" fill="#F5F5F5"/>
<path d="M69.2816 217.16C82.4508 205.778 83.7705 187.048 81.5023 170.56C81.1243 167.81 81.1242 164.868 79.564 162.58C78.0038 160.291 74.7527 158.957 72.4089 160.373C70.4569 161.549 69.8109 164.03 68.8692 166.119C67.6111 168.915 65.5882 171.298 63.0338 172.993C61.3636 174.085 59.2466 174.869 57.4115 174.092C54.8959 173.02 54.2773 169.762 53.9749 167.013L52.5246 151.644C52.2565 148.895 51.9747 146.098 50.8544 143.575C49.7341 141.053 47.5896 138.833 44.9021 138.372C42.2147 137.912 39.1423 139.747 38.8674 142.496C38.7506 143.644 39.1011 144.778 39.1423 145.933C39.1836 147.087 38.7849 148.4 37.7677 148.826C36.7505 149.252 35.527 148.599 34.6197 147.878C31.4993 145.396 29.2105 142.022 27.0592 138.654C24.9078 135.286 22.7771 131.836 19.8903 129.073C17.0036 126.309 13.2027 124.261 9.24365 124.467C5.28465 124.674 1.34627 127.512 0.755174 131.478C0.164073 135.444 2.81715 139.142 5.60082 142.022C9.72596 146.298 14.4488 149.953 19.6223 152.875C20.5502 153.397 21.5537 153.967 21.9936 154.937C22.7771 156.703 21.2306 158.703 19.4848 159.494C17.5053 160.38 15.2646 160.401 13.1477 160.868C11.0307 161.336 8.81064 162.525 8.21266 164.628C7.37413 167.556 10.0272 170.25 12.5359 171.941C17.5708 175.326 23.151 177.818 29.0318 179.309C31.0938 179.838 33.3207 180.271 35.094 181.522C36.8673 182.773 38.1045 185.138 37.3209 187.172C36.5374 189.207 34.0768 190.093 31.9185 189.922C29.7603 189.75 27.7534 188.794 25.657 188.244C21.7324 187.207 16.8867 187.969 14.8041 191.482C13.4295 193.791 13.6082 196.788 14.6735 199.262C15.7389 201.737 17.5947 203.771 19.5398 205.62C26.3168 212.095 34.661 217.009 43.7199 219.14C52.7789 221.27 60.9856 221.257 69.3572 217.181" fill="#F5F5F5"/>
<path d="M70.7602 229.398C69.2046 221.806 66.9213 214.38 63.942 207.225C60.266 198.497 56.0916 189.988 51.4395 181.739C50.2161 179.54 49.0087 177.37 47.8173 175.23C46.6282 173.093 45.446 170.976 44.1607 168.976C41.6856 165.144 39.0009 161.452 36.119 157.916C33.3697 154.521 30.6754 151.394 28.1185 148.493C25.5617 145.593 23.1079 142.94 20.7847 140.644C17.126 136.949 13.1823 133.548 8.99022 130.472C7.5056 129.392 6.33027 128.588 5.55359 128.052C5.16869 127.798 4.86627 127.599 4.63258 127.454C4.53303 127.381 4.42723 127.316 4.31641 127.262C4.40271 127.351 4.49966 127.43 4.60508 127.495L5.49861 128.135C6.28216 128.698 7.43687 129.509 8.93524 130.636C13.0799 133.754 16.9856 137.178 20.6198 140.878C22.9223 143.208 25.3486 145.875 27.8917 148.775C30.4348 151.676 33.1291 154.817 35.8441 158.212C38.7051 161.744 41.3713 165.428 43.8308 169.25C45.1023 171.237 46.2777 173.34 47.4736 175.478C48.6696 177.615 49.8655 179.794 51.089 181.987C55.7306 190.223 59.9069 198.714 63.5983 207.418C66.5774 214.54 68.8786 221.927 70.4716 229.481" fill="#E0E0E0"/>
<path d="M44.0081 168.979C44.1031 168.585 44.1539 168.181 44.1593 167.776C44.2281 167.006 44.283 165.879 44.338 164.491C44.4411 161.741 44.4549 157.885 44.4617 153.651C44.4686 149.418 44.5305 145.596 44.6817 142.833C44.7504 141.458 44.8192 140.331 44.8741 139.554C44.9208 139.155 44.9208 138.751 44.8741 138.352C44.7568 138.736 44.6808 139.133 44.6473 139.534C44.5305 140.304 44.4068 141.424 44.2968 142.805C44.0494 145.555 43.9256 149.418 43.9256 153.651C43.9256 157.885 43.9256 161.597 43.9256 164.484C43.9256 165.79 43.9256 166.889 43.9256 167.769C43.9111 168.174 43.9387 168.58 44.0081 168.979Z" fill="#E0E0E0"/>
<path d="M8.01953 166.016C8.49471 166.067 8.97399 166.067 9.44917 166.016C10.3633 166.016 11.683 165.975 13.3188 166.016C16.5905 166.016 21.1062 166.216 26.0825 166.628C31.0587 167.04 35.5401 167.632 38.7705 168.14C40.3926 168.388 41.6985 168.614 42.5989 168.773C43.0504 168.879 43.5104 168.946 43.9736 168.972C43.5303 168.793 43.0696 168.662 42.5989 168.58C41.7054 168.36 40.4063 168.071 38.7911 167.783C35.5607 167.178 31.0725 166.546 26.0825 166.119C21.8249 165.746 17.551 165.59 13.2776 165.652C11.6349 165.652 10.3083 165.762 9.39418 165.838C8.93182 165.859 8.47203 165.919 8.01953 166.016Z" fill="#E0E0E0"/>
<path d="M63.4395 206.628C63.5239 206.485 63.5908 206.333 63.6388 206.174C63.7625 205.81 63.9206 205.37 64.1062 204.834C64.5117 203.666 65.0547 201.968 65.6939 199.858C66.9861 195.638 68.5738 189.747 70.244 183.231C71.9142 176.715 73.4538 170.818 74.6497 166.577C75.2408 164.515 75.722 162.818 76.0794 161.56C76.2375 161.01 76.3612 160.556 76.4643 160.185C76.5232 160.029 76.5557 159.864 76.5605 159.697C76.48 159.843 76.4154 159.998 76.3681 160.158C76.2375 160.522 76.0794 160.962 75.8938 161.498C75.4883 162.66 74.9453 164.364 74.3061 166.474C73.0208 170.694 71.4262 176.578 69.756 183.101C68.0858 189.623 66.5462 195.514 65.3502 199.755C64.766 201.817 64.278 203.514 63.9206 204.772L63.5426 206.147C63.4895 206.303 63.4549 206.464 63.4395 206.628Z" fill="#E0E0E0"/>
<path d="M14.9629 196.32C15.1148 196.393 15.2771 196.442 15.444 196.465L16.8599 196.781L22.0492 197.894C26.4344 198.829 32.476 200.197 39.143 201.716C45.8101 203.235 51.8792 204.541 56.285 205.386C58.4844 205.812 60.2714 206.142 61.5086 206.342L62.9383 206.561C63.1028 206.598 63.2717 206.612 63.44 206.603C63.2839 206.535 63.12 206.486 62.952 206.458L61.5774 206.142L56.3262 205.056C51.941 204.115 45.8995 202.754 39.2255 201.235C32.5516 199.716 26.5237 198.382 22.118 197.557C19.9185 197.131 18.1315 196.808 16.8943 196.609L15.4646 196.382C15.3002 196.343 15.1319 196.322 14.9629 196.32Z" fill="#E0E0E0"/>
<path d="M381.369 103.044C382.071 102.561 382.737 102.028 383.362 101.45C384.076 100.754 384.681 99.9546 385.156 99.0785C386.323 96.9942 386.726 94.5684 386.297 92.2187C385.868 89.869 384.634 87.7424 382.806 86.2048C382.057 85.5611 381.213 85.0371 380.304 84.6515C379.365 84.2323 378.365 83.9654 377.341 83.8611C375.179 83.6125 372.994 84.063 371.107 85.1465C369.219 86.23 367.729 87.8896 366.853 89.882C366.033 91.735 365.777 93.7886 366.117 95.7862C366.432 97.5919 367.222 99.2811 368.406 100.68C369.351 101.789 370.52 102.687 371.836 103.313C373.152 103.94 374.585 104.282 376.042 104.316C377.04 104.348 378.036 104.23 378.998 103.965C379.816 103.721 380.613 103.413 381.383 103.044C381.383 103.044 381.342 103.086 381.245 103.141L380.806 103.381C380.574 103.518 380.33 103.633 380.077 103.725C379.741 103.875 379.394 103.999 379.039 104.096C378.068 104.391 377.057 104.532 376.042 104.515C374.548 104.504 373.073 104.173 371.717 103.545C370.36 102.917 369.154 102.005 368.179 100.872C366.949 99.4386 366.126 97.7012 365.794 95.8412C365.609 94.839 365.579 93.8144 365.705 92.8032C365.812 91.7456 366.091 90.7125 366.53 89.7446C367.432 87.6797 368.973 85.9597 370.928 84.8383C372.882 83.717 375.145 83.2539 377.383 83.5174C379.461 83.7535 381.422 84.6002 383.019 85.9505C384.46 87.1746 385.547 88.7623 386.167 90.5487C386.649 91.9625 386.825 93.4625 386.684 94.9496C386.543 96.4366 386.088 97.8767 385.349 99.1747C384.852 100.059 384.219 100.859 383.472 101.546C383.21 101.798 382.927 102.028 382.627 102.233C382.414 102.408 382.184 102.56 381.94 102.687L381.514 102.941C381.431 103.024 381.376 103.051 381.369 103.044Z" fill="#E0E0E0"/>
<path d="M399.302 87.5969L399.068 87.7687L398.381 88.2704L395.514 90.2499V90.195C395.666 91.494 395.851 93.1023 396.064 95.0062L396.023 94.9444L400.01 97.0888H400.071V97.1576C399.652 98.7384 399.178 100.512 398.697 102.409V102.498H398.614L393.982 102.168L394.092 102.106L391.741 106.141V106.017C392.463 107.261 393.246 108.629 394.057 110.038L394.119 110.141L394.023 110.21L389.459 113.647L389.377 113.708L389.287 113.64L385.672 110.76H385.837L381.424 113.303L381.5 113.193C381.301 114.519 381.074 115.99 380.813 117.489V117.612H380.744L375.596 117.97H375.465L375.424 117.846L373.98 113.035L374.097 113.152L369.465 111.901L369.637 111.853L366.296 115.461L366.193 115.578L366.069 115.489L361.787 112.471L361.677 112.389L361.726 112.265C362.234 110.89 362.784 109.344 363.341 107.811L363.375 107.99L360.282 104.416L360.44 104.478L355.773 105.206H355.636L355.581 105.076C354.893 103.529 354.158 101.859 353.423 100.189L353.354 100.037L353.498 99.955L353.594 99.9C355.072 99.0546 356.55 98.2092 358.007 97.3638L357.918 97.5356C357.794 95.941 357.67 94.3602 357.547 92.7931L357.663 92.9443L353.251 91.3222L353.113 91.2672V91.1228C353.521 89.2212 353.92 87.3403 354.309 85.4799V85.3356H354.46L359.031 85.5761L358.88 85.6586L361.402 81.8646V82.0295C360.653 80.4212 359.925 78.8472 359.203 77.287L359.148 77.1632L359.258 77.0876L363.492 74.0084L363.588 73.9397L363.684 74.0015L367.85 76.9639H367.691L371.63 74.9638L371.547 75.0944C371.65 73.5548 371.754 72.0702 371.85 70.613V70.4893H371.974L377.259 69.9395H377.376V70.0494L379.135 75.17L379.032 75.0807L383.383 75.8505H383.266L386.579 72.5307L386.648 72.4619L386.73 72.51L391.15 75.4587L391.219 75.5068V75.5893C390.579 77.1289 390.03 78.4486 389.521 79.7132V79.617L392.786 83.741H392.717L396.69 83.1774H396.724V83.2117L398.614 86.5727L399.068 87.3907C399.171 87.5694 399.212 87.6518 399.212 87.6518C399.212 87.6518 399.15 87.5625 399.04 87.3838C398.93 87.2051 398.772 86.9233 398.559 86.5727L396.628 83.2667H396.683L392.717 83.8647H392.676V83.8303L389.384 79.7064V79.6651V79.6101C389.892 78.3798 390.428 77.0533 391.061 75.4862L391.102 75.6099L386.669 72.6888H386.813C385.782 73.7404 384.703 74.8332 383.514 76.0292L383.472 76.0773H383.404L379.108 75.3487H379.032V75.2731C378.462 73.6373 377.878 71.9396 377.259 70.1525L377.41 70.2487L372.118 70.8123L372.255 70.6749C372.159 72.132 372.063 73.6166 371.96 75.1563V75.2387L371.884 75.28L367.946 77.287L367.856 77.3282L367.781 77.2732L363.561 74.2765H363.753L359.526 77.3626L359.581 77.1564L361.78 81.8921L361.822 81.9814L361.767 82.057L359.251 85.8579L359.196 85.9404H359.1L354.522 85.6998L354.701 85.5624C354.307 87.4182 353.911 89.2991 353.512 91.2053L353.402 90.9991L357.753 92.6762L357.856 92.7174V92.8274C357.98 94.3945 358.103 95.9754 358.227 97.57V97.6799L358.124 97.7418L353.711 100.271L353.615 100.333L353.691 100.106L355.842 104.993L355.656 104.89L360.323 104.168H360.42L360.488 104.237C361.554 105.467 362.605 106.691 363.581 107.811L363.65 107.894V107.99C363.086 109.523 362.537 111.042 362.028 112.437L361.966 112.238L366.241 115.262H366.014L369.355 111.653L369.424 111.578H369.527L374.159 112.835H374.249V112.925C374.743 114.588 375.238 116.224 375.685 117.736L375.52 117.619L380.668 117.276L380.524 117.413C380.758 115.915 380.984 114.444 381.211 113.117V113.042L381.273 113.007L385.693 110.478L385.775 110.43L385.858 110.492L389.466 113.378H389.294L393.865 109.983V110.155C393.054 108.78 392.27 107.406 391.562 106.127L391.528 106.065L391.562 106.003L393.817 101.976L393.858 101.914H393.927L398.559 102.264L398.449 102.34C398.965 100.443 399.453 98.6766 399.886 97.0957L399.927 97.1988L395.961 95.0337V94.9925L395.453 90.1812V90.1468L398.333 88.2361L399.075 87.7481L399.302 87.5969Z" fill="#E0E0E0"/>
<path d="M455.937 231.147C455.937 231.251 358.027 231.326 237.277 231.326C116.528 231.326 18.5977 231.251 18.5977 231.147C18.5977 231.044 116.487 230.969 237.277 230.969C358.068 230.969 455.937 231.051 455.937 231.147Z" fill="#263238"/>
<path d="M437.455 136.439L399.652 230.995H293.453L327.201 135.14C327.32 134.801 327.541 134.508 327.834 134.3C328.127 134.092 328.477 133.979 328.837 133.979L435.84 134.047C436.125 134.047 436.406 134.116 436.658 134.25C436.91 134.383 437.125 134.577 437.284 134.813C437.444 135.049 437.543 135.321 437.573 135.605C437.602 135.888 437.562 136.175 437.455 136.439Z" fill="#263238"/>
<path d="M431.605 139.172L396.902 223.885C396.827 224.067 396.699 224.223 396.535 224.332C396.371 224.441 396.178 224.498 395.981 224.497H299.281C299.124 224.5 298.969 224.466 298.829 224.396C298.688 224.326 298.567 224.223 298.475 224.096C298.383 223.969 298.323 223.822 298.301 223.666C298.279 223.511 298.294 223.353 298.347 223.205L329.118 138.492C329.187 138.302 329.314 138.138 329.48 138.022C329.646 137.906 329.844 137.845 330.046 137.846H430.712C430.869 137.847 431.024 137.886 431.163 137.961C431.302 138.036 431.42 138.143 431.508 138.273C431.596 138.404 431.651 138.554 431.668 138.711C431.685 138.867 431.663 139.026 431.605 139.172Z" fill="#455A64"/>
<path d="M399.631 231.149H398.689H255.361V224.496H395.713L399.631 231.149Z" fill="#263238"/>
<path d="M290.091 140.113C290.091 140.113 287.184 174.672 280.922 176.356C263.877 180.934 244.377 177.545 237.531 176.198C236.762 175.511 235.875 174.741 234.871 173.751C234.021 172.89 233.324 171.89 232.809 170.796C232.097 169.455 231.572 168.024 231.249 166.541C231.084 165.166 229.359 164.685 228.747 165.792C228.136 166.898 227.881 171.125 230.177 174.974C230.278 175.217 230.325 175.478 230.315 175.74C230.305 176.002 230.238 176.259 230.119 176.493C230 176.727 229.832 176.932 229.626 177.095C229.42 177.258 229.181 177.374 228.926 177.435C226.032 178.507 215.832 181.676 214.183 182.453C212.719 183.14 211.303 184.391 212.843 184.645C214.382 184.899 222.809 183.683 222.809 183.683C222.809 183.683 211.736 185.058 212.011 186.652C212.196 187.759 215.179 188.288 222.41 186.652C222.41 186.652 213.296 187.841 212.348 188.797C210.196 190.955 221.173 189.628 221.173 189.628C213.489 190.625 213.571 190.226 213.489 191.278C213.427 192.068 215.166 192.384 219.386 192.433C222.823 192.474 226.342 193.202 231.552 193.553C231.552 193.553 297.432 212.186 306.47 183.195C311.357 167.565 311.385 161.62 313.075 151.379" fill="#FFBE9D"/>
<path d="M225.784 189.141C225.784 189.333 223.468 189.739 220.546 190.041C217.625 190.343 215.247 190.44 215.24 190.24C215.233 190.041 217.57 189.642 220.478 189.34C223.385 189.037 225.756 188.948 225.784 189.141Z" fill="#A36957"/>
<path d="M225.716 186.15C225.716 186.343 223.269 186.913 220.218 187.422C217.166 187.93 214.609 188.191 214.575 188.006C214.54 187.82 217.015 187.243 220.073 186.727C223.132 186.212 225.682 185.958 225.716 186.15Z" fill="#A36957"/>
<path d="M225.619 183.043C225.653 183.235 223.323 183.813 220.416 184.335C217.509 184.857 215.117 185.125 215.082 184.94C215.048 184.754 217.378 184.163 220.285 183.641C223.193 183.118 225.585 182.85 225.619 183.043Z" fill="#A36957"/>
<path d="M375.588 199.102L379.87 224.045H313.068L315.625 204.662L375.588 199.102Z" fill="#263238"/>
<path d="M296.889 113.43C296.889 113.43 287.177 142.593 287.802 143.755L309.171 148.71L296.889 113.43Z" fill="#E6A92F"/>
<path opacity="0.2" d="M296.889 113.43C296.889 113.43 287.177 142.593 287.802 143.755L309.171 148.71L296.889 113.43Z" fill="black"/>
<path d="M315.165 168.213L313.103 209.955L377.636 202.648L367.539 162.302C367.539 162.302 360.597 115.523 347.943 110.34C343.557 108.638 339.075 107.194 334.52 106.017C326.459 103.729 318.018 103.102 309.707 104.175L308.408 104.347C305.83 104.631 303.383 105.633 301.346 107.239C299.31 108.846 297.765 110.992 296.889 113.433C296.889 113.433 296.662 127.799 301.075 137.311L315.165 168.213Z" fill="#E6A92F"/>
<path d="M330.444 223.254C330.348 223.254 330.203 219.865 330.128 215.693C330.052 211.521 330.066 208.133 330.128 208.133C330.19 208.133 330.375 211.528 330.451 215.693C330.527 219.859 330.568 223.254 330.444 223.254Z" fill="#455A64"/>
<path d="M334.005 210.002C334.005 210.002 334.073 209.892 334.286 209.816C334.479 209.762 334.681 209.754 334.877 209.793C335.073 209.832 335.257 209.916 335.415 210.039C335.572 210.162 335.698 210.321 335.783 210.502C335.867 210.683 335.908 210.881 335.902 211.081C335.894 211.384 335.795 211.678 335.617 211.923C335.439 212.169 335.191 212.354 334.905 212.456C334.619 212.537 334.316 212.538 334.03 212.458C333.744 212.378 333.485 212.22 333.283 212.002C333.123 211.828 333.005 211.62 332.937 211.394C332.869 211.168 332.853 210.929 332.891 210.696C333.036 209.899 333.524 209.631 333.53 209.672C333.331 209.992 333.2 210.35 333.146 210.724C333.128 210.933 333.162 211.144 333.243 211.338C333.325 211.533 333.452 211.704 333.614 211.839C333.775 211.974 333.967 212.068 334.173 212.113C334.378 212.158 334.592 212.153 334.795 212.098C335.009 212.019 335.196 211.881 335.335 211.699C335.473 211.518 335.558 211.301 335.579 211.074C335.591 210.887 335.55 210.7 335.461 210.535C335.373 210.37 335.24 210.233 335.077 210.139C334.75 209.958 334.366 209.909 334.005 210.002Z" fill="#455A64"/>
<path d="M376.654 214.08C376.576 214.156 376.488 214.223 376.393 214.279C376.144 214.465 375.885 214.637 375.616 214.794C374.631 215.388 373.585 215.874 372.496 216.245C368.884 217.509 364.957 217.557 361.315 216.382C357.673 215.207 354.515 212.873 352.323 209.736C351.659 208.802 351.096 207.8 350.646 206.746C350.474 206.375 350.385 206.058 350.309 205.873C350.233 205.687 350.213 205.564 350.227 205.557C350.24 205.55 350.426 205.962 350.77 206.684C352.004 209.222 353.8 211.445 356.021 213.186C359.269 215.76 363.338 217.073 367.479 216.884C369.158 216.819 370.821 216.523 372.42 216.004C373.5 215.658 374.545 215.212 375.541 214.671C375.899 214.451 376.271 214.253 376.654 214.08Z" fill="#455A64"/>
<path d="M324.548 131.982C324.314 132.254 324.056 132.505 323.778 132.731C323.054 133.387 322.284 133.991 321.475 134.539C320.27 135.387 318.88 135.936 317.42 136.141C315.617 136.244 313.819 135.882 312.196 135.089C310.457 134.326 308.897 133.439 307.385 132.89C306.062 132.351 304.627 132.148 303.206 132.298C302.25 132.405 301.339 132.758 300.56 133.323C300.024 133.735 299.797 134.051 299.77 134.01C299.807 133.924 299.858 133.845 299.921 133.776C300.085 133.564 300.272 133.371 300.477 133.199C301.251 132.57 302.184 132.168 303.172 132.037C304.634 131.845 306.122 132.027 307.495 132.567C309.055 133.11 310.629 133.996 312.341 134.745C313.908 135.518 315.647 135.88 317.393 135.797C318.808 135.617 320.161 135.108 321.345 134.312C322.158 133.787 322.943 133.218 323.695 132.608C323.963 132.378 324.248 132.169 324.548 131.982Z" fill="#FAFAFA"/>
<path d="M307.618 115.658C307.277 116.096 306.858 116.466 306.381 116.751C304.142 118.272 301.401 118.871 298.731 118.421C298.179 118.362 297.642 118.199 297.15 117.94C297.15 117.885 297.776 118.057 298.766 118.174C301.371 118.469 304 117.894 306.244 116.538C307.103 116.022 307.577 115.61 307.618 115.658Z" fill="#FAFAFA"/>
<path d="M365.965 154.981C365.825 155.118 365.676 155.244 365.518 155.359C365.058 155.689 364.562 155.965 364.04 156.184C362.076 156.894 359.962 157.085 357.903 156.741C356.49 156.53 355.09 156.24 353.71 155.875C352.131 155.448 350.523 155.138 348.899 154.947C347.116 154.795 345.321 154.924 343.579 155.332C341.697 155.783 339.857 156.395 338.08 157.16C334.417 158.679 330.952 160.335 327.53 161.043C324.503 161.676 321.371 161.596 318.381 160.81C316.379 160.309 314.411 159.678 312.491 158.92L310.924 158.294C310.741 158.228 310.564 158.147 310.395 158.053C310.585 158.095 310.771 158.153 310.951 158.225L312.539 158.789C314.468 159.495 316.438 160.087 318.436 160.562C321.393 161.301 324.48 161.355 327.461 160.72C330.829 160.033 334.265 158.356 337.943 156.823C339.733 156.053 341.586 155.439 343.482 154.988C345.261 154.578 347.094 154.453 348.912 154.617C350.538 154.82 352.146 155.144 353.724 155.586C355.082 155.958 356.458 156.261 357.848 156.493C359.871 156.854 361.953 156.703 363.903 156.053C364.63 155.779 365.322 155.419 365.965 154.981Z" fill="#FAFAFA"/>
<path d="M314.82 180.507C314.82 180.507 314.82 180.459 314.91 180.376L315.205 179.998C315.613 179.544 316.074 179.143 316.58 178.802C317.384 178.261 318.267 177.848 319.199 177.579C320.434 177.227 321.716 177.069 322.999 177.111C325.873 177.153 329.11 178.342 332.505 179.861C334.272 180.674 336.083 181.39 337.928 182.005C339.894 182.677 341.97 182.969 344.045 182.864C346.109 182.642 348.101 181.981 349.888 180.926C351.668 179.964 353.29 178.864 354.933 177.964C356.475 177.061 358.15 176.407 359.895 176.025C361.772 175.692 363.7 175.782 365.538 176.287C367.376 176.792 369.078 177.701 370.521 178.946C371.15 179.476 371.707 180.086 372.178 180.761C372.132 180.729 372.093 180.689 372.061 180.644C371.971 180.555 371.868 180.438 371.745 180.301C371.579 180.105 371.4 179.921 371.209 179.751C370.964 179.505 370.705 179.276 370.432 179.063C368.716 177.657 366.67 176.71 364.486 176.314C362.987 176.043 361.45 176.043 359.95 176.314C358.241 176.698 356.603 177.35 355.098 178.245C353.469 179.146 351.853 180.252 350.06 181.228C348.23 182.313 346.188 182.991 344.073 183.215C341.953 183.319 339.833 183.02 337.825 182.335C335.97 181.708 334.151 180.981 332.375 180.156C328.993 178.63 325.804 177.441 322.986 177.359C321.728 177.307 320.47 177.446 319.254 177.771C318.336 178.018 317.462 178.405 316.662 178.919C315.983 179.367 315.363 179.9 314.82 180.507Z" fill="#FAFAFA"/>
<path d="M373.106 202.554C372.783 201.772 372.375 201.027 371.89 200.334C370.475 198.498 368.517 197.156 366.295 196.499C364.782 196.013 363.194 195.801 361.607 195.873C359.783 195.96 357.978 196.285 356.239 196.842C354.31 197.456 352.427 198.205 350.603 199.083C348.692 199.97 346.74 200.966 344.678 201.867C342.693 202.773 340.62 203.476 338.492 203.963C336.484 204.361 334.432 204.495 332.389 204.362C328.936 204.075 325.544 203.285 322.32 202.018C319.57 200.98 317.412 199.956 315.921 199.269L314.223 198.444L313.783 198.217L313.639 198.128C313.696 198.137 313.752 198.155 313.804 198.183L314.25 198.375L315.982 199.145C317.481 199.832 319.653 200.774 322.409 201.784C325.614 203.004 328.977 203.761 332.396 204.032C334.408 204.157 336.427 204.019 338.403 203.619C340.53 203.144 342.603 202.454 344.589 201.557C346.651 200.664 348.589 199.674 350.514 198.808C352.353 197.927 354.253 197.179 356.198 196.567C357.964 196.01 359.797 195.691 361.648 195.619C363.28 195.558 364.91 195.791 366.46 196.306C368.716 196.999 370.69 198.399 372.089 200.299C372.451 200.821 372.753 201.381 372.989 201.97C373.051 202.162 373.106 202.313 373.147 202.437C373.137 202.477 373.123 202.516 373.106 202.554Z" fill="#FAFAFA"/>
<g opacity="0.2">
<path d="M323.921 208.573C330.471 208.312 337.028 206.127 342.039 201.9C348.912 196.112 352.287 187.026 353.036 178.077C353.785 169.128 352.191 160.206 350.603 151.34C344.469 159.933 339.485 169.291 335.777 179.177C333.344 185.665 331.207 192.751 325.818 197.102C323.893 198.655 321.598 199.817 320.092 201.776C318.587 203.735 318.264 206.965 320.264 208.422L322.038 209" fill="black"/>
</g>
<path d="M276.591 208.918C277.897 209.551 279.285 209.998 280.715 210.245C281.844 210.489 283.006 210.54 284.152 210.396C284.688 210.327 285.19 210.252 285.671 210.176C287.884 209.819 289.953 208.85 291.644 207.379C299.087 200.911 319.24 180.47 322.835 175.844C327.165 170.284 328.381 133.525 328.381 133.525L352.561 137.484C352.561 137.484 352.128 163.974 346.183 184.587C342.396 197.694 296.696 224.658 296.641 224.685C293.252 228.397 289.444 232.418 287.101 234.377C282.227 238.459 281.856 238.033 281.478 237.38C280.461 235.641 289.774 229.875 287.052 229.95C284.331 230.026 276.481 238.329 275.492 236.466C274.199 234.033 284.069 228.177 284.867 227.62C285.664 227.064 284.867 225.888 284.179 226.431C283.183 227.208 272.495 235.133 271.216 232.762C270.529 231.442 272.983 230.377 272.983 230.377C272.983 230.377 283.52 223.703 282.873 222.603C282.227 221.503 275.904 225.194 273.856 226.596C271.808 227.998 270.364 227.586 270.488 226.184C270.577 225.228 276.729 220.781 278.784 219.441C280.839 218.101 286.523 214.527 282.282 214.011C278.042 213.496 274.983 211.489 274.529 210.375C274.076 209.262 275.457 208.217 276.591 208.918Z" fill="#FFBE9D"/>
<path d="M337.489 109.567C339.765 109.101 342.122 109.214 344.343 109.898C346.564 110.581 348.577 111.812 350.197 113.478C353.015 116.413 355.847 121.327 355.606 129.115C355.132 144.312 353.936 149.494 353.936 149.494L324.141 148.463L325.309 122.929C325.309 122.929 327.612 111.65 337.489 109.567Z" fill="#E6A92F"/>
<path opacity="0.2" d="M337.489 109.567C339.765 109.101 342.122 109.214 344.343 109.898C346.564 110.581 348.577 111.812 350.197 113.478C353.015 116.413 355.888 121.726 355.648 129.5C355.18 144.696 353.936 149.494 353.936 149.494L324.141 148.463L325.35 123.321C325.35 123.321 327.612 111.65 337.489 109.567Z" fill="black"/>
<path d="M355.064 140.644C355.064 140.678 354.721 140.342 354.061 139.874C353.107 139.237 352.048 138.772 350.933 138.5C349.28 138.086 347.559 138.028 345.882 138.328C343.846 138.806 341.871 139.509 339.991 140.424C338.085 141.345 336.099 142.092 334.059 142.658C332.366 143.056 330.614 143.14 328.891 142.905C327.726 142.753 326.602 142.38 325.578 141.806C325.302 141.647 325.04 141.465 324.794 141.263C324.703 141.2 324.62 141.126 324.547 141.043C324.547 141.008 324.918 141.304 325.64 141.682C326.671 142.192 327.782 142.522 328.925 142.658C330.617 142.85 332.33 142.741 333.984 142.335C335.999 141.758 337.96 141.008 339.847 140.094C341.754 139.172 343.76 138.469 345.827 137.998C347.548 137.709 349.312 137.798 350.995 138.259C352.129 138.561 353.195 139.077 354.136 139.778C354.383 139.972 354.613 140.185 354.824 140.417C354.912 140.484 354.992 140.56 355.064 140.644Z" fill="#FAFAFA"/>
<path d="M353.847 119.131C353.531 119.297 353.203 119.437 352.864 119.55C352.548 119.68 352.177 119.811 351.682 119.955C351.187 120.1 350.685 120.265 350.087 120.395C348.689 120.738 347.27 120.988 345.84 121.145C344.083 121.32 342.318 121.384 340.554 121.337C338.792 121.268 337.037 121.076 335.303 120.76C333.887 120.493 332.495 120.116 331.138 119.632C330.612 119.457 330.098 119.251 329.598 119.014C329.211 118.855 328.834 118.671 328.471 118.464C328.148 118.312 327.842 118.128 327.557 117.914C327.893 118.03 328.219 118.172 328.533 118.34C328.903 118.524 329.284 118.687 329.674 118.828C330.178 119.044 330.695 119.232 331.22 119.392C332.569 119.836 333.947 120.185 335.344 120.437C337.065 120.73 338.803 120.911 340.547 120.98C342.295 121.028 344.044 120.973 345.785 120.815C347.204 120.668 348.613 120.439 350.005 120.127C350.61 120.01 351.139 119.873 351.606 119.742C352.074 119.612 352.479 119.509 352.802 119.399C353.141 119.276 353.491 119.187 353.847 119.131Z" fill="#FAFAFA"/>
<path d="M321.77 76.5012C321.728 76.8909 321.799 77.2842 321.973 77.6352C322.148 77.9862 322.418 78.2802 322.754 78.4829C323.089 78.6855 323.475 78.7884 323.867 78.7795C324.259 78.7706 324.64 78.6503 324.966 78.4326C326.189 77.5528 326.065 75.6833 325.577 74.3086C325.089 72.934 324.347 71.4081 324.746 69.9579C325.055 68.8513 325.969 68.0333 326.636 67.0986C327.222 66.2817 327.61 65.3404 327.771 64.3482C327.932 63.3561 327.861 62.3401 327.564 61.38C327.239 60.4293 326.66 59.5858 325.889 58.9412C325.118 58.2966 324.186 57.8754 323.192 57.7235C321.165 57.4898 318.855 58.4589 317.192 57.2767C315.982 56.4244 315.652 54.7611 314.649 53.6682C313.096 51.9774 310.381 52.0943 308.174 52.7541C305.968 53.4139 303.796 54.4999 301.5 54.2937C299.59 54.1287 297.871 53.0771 296.002 52.5548C293.985 51.9978 291.845 52.0829 289.879 52.7981C287.913 53.5133 286.218 54.8233 285.031 56.5458C283.843 58.2684 283.222 60.3181 283.253 62.41C283.284 64.502 283.966 66.5323 285.204 68.2189C286.053 69.4694 287.316 70.3798 288.771 70.7895" fill="#263238"/>
<path d="M318.402 119.626C315.424 120.172 312.351 119.515 309.857 117.799C307.362 116.082 305.65 113.447 305.096 110.471C304.408 106.931 303.886 103.941 303.886 103.941C303.886 103.941 294.683 104.078 293.04 95.1295C291.397 86.1805 289.562 66.5229 289.562 66.5229L289.445 65.3338C299.068 59.0998 311.44 59.5466 321.585 64.9146L321.887 66.7635L327.709 107.096C328.033 109.975 327.252 112.869 325.525 115.195C323.798 117.521 321.252 119.104 318.402 119.626Z" fill="#FFBE9D"/>
<path d="M308.353 88.3223L302.6 91.1128C303.124 91.6954 303.832 92.0812 304.606 92.2063C305.38 92.3313 306.173 92.188 306.854 91.8001C309.37 90.343 308.353 88.3223 308.353 88.3223Z" fill="white"/>
<path d="M303.844 103.817C307.997 103.187 311.87 101.338 314.972 98.5039C314.972 98.5039 313.308 105.425 304.222 106.14L303.844 103.817Z" fill="#EB996E"/>
<path d="M322.319 72.7981C322.504 72.7019 328.917 71.1623 329.13 78.9016C329.343 86.6409 321.453 84.2971 321.432 84.0772C321.411 83.8572 322.319 72.7981 322.319 72.7981Z" fill="#FFBE9D"/>
<path d="M323.757 81.2921C323.791 81.2921 323.894 81.3814 324.128 81.4845C324.453 81.6128 324.814 81.6128 325.138 81.4845C325.943 81.1615 326.596 79.8418 326.596 78.4465C326.596 77.7815 326.451 77.1245 326.169 76.522C326.089 76.2831 325.952 76.067 325.77 75.8923C325.588 75.7176 325.367 75.5894 325.125 75.5185C324.969 75.4825 324.805 75.5019 324.662 75.5734C324.519 75.6449 324.406 75.7641 324.341 75.9103C324.238 76.1303 324.293 76.2815 324.252 76.2952C324.211 76.309 324.08 76.1715 324.135 75.8485C324.176 75.6554 324.28 75.4814 324.43 75.3536C324.638 75.1888 324.902 75.1123 325.166 75.1405C325.486 75.1933 325.787 75.328 326.04 75.5315C326.293 75.7351 326.489 76.0005 326.609 76.3021C326.957 76.9634 327.139 77.6994 327.139 78.4465C327.139 80.0068 326.369 81.4914 325.262 81.8419C325.056 81.9093 324.838 81.9288 324.624 81.8991C324.409 81.8693 324.205 81.791 324.025 81.6701C323.778 81.4777 323.729 81.3058 323.757 81.2921Z" fill="#EB996E"/>
<path d="M288.01 70.5352C288.01 70.5352 293.804 72.4184 300.381 67.9233C304.705 64.9678 309.963 63.112 311.282 63.8681C312.602 64.6242 313.509 69.3667 318.3 70.1503C318.3 70.1503 319.228 79.3192 322.823 78.4944C326.417 77.6696 322.211 63.8543 322.211 63.8543L313.063 58.9881L303.096 58.4863L292.546 61.1463L286.965 65.6689L288.01 70.5352Z" fill="#263238"/>
<path d="M321.825 56.0996C320.456 56.3501 319.209 57.0518 318.285 58.0928C318.571 57.4155 319.074 56.8523 319.715 56.4916C320.355 56.1308 321.097 55.9929 321.825 56.0996Z" fill="#263238"/>
<path d="M317.592 53.0527C318.028 53.9313 318.24 54.904 318.21 55.8845C318.223 56.5871 318.107 57.2861 317.867 57.9465C317.789 58.2265 317.646 58.4836 317.447 58.6957C317.672 57.7807 317.807 56.8462 317.853 55.9051C317.825 54.338 317.509 53.0802 317.592 53.0527Z" fill="#263238"/>
<path d="M292.311 79.5501C292.327 79.8995 292.48 80.2285 292.738 80.4654C292.995 80.7022 293.336 80.8278 293.685 80.8148C293.853 80.8184 294.02 80.7886 294.176 80.7271C294.332 80.6657 294.475 80.5737 294.595 80.4566C294.715 80.3395 294.811 80.1997 294.877 80.0452C294.942 79.8908 294.977 79.7248 294.977 79.557C294.963 79.2148 294.816 78.8918 294.567 78.6568C294.317 78.4218 293.986 78.2935 293.644 78.2991C293.473 78.2889 293.302 78.3135 293.141 78.3717C292.98 78.4299 292.833 78.5203 292.708 78.6374C292.583 78.7545 292.483 78.8958 292.415 79.0528C292.347 79.2097 292.311 79.3789 292.311 79.5501Z" fill="#263238"/>
<path d="M292.277 78.5445C292.449 78.7094 293.405 77.919 294.82 77.8571C296.236 77.7953 297.309 78.4482 297.453 78.2627C297.522 78.1871 297.343 77.8846 296.876 77.5753C296.242 77.1835 295.503 76.9963 294.759 77.0392C294.023 77.0712 293.317 77.3386 292.745 77.8022C292.325 78.1527 292.195 78.4688 292.277 78.5445Z" fill="#263238"/>
<path d="M306.236 78.8223C306.266 79.1608 306.426 79.4746 306.682 79.6976C306.938 79.9206 307.271 80.0356 307.611 80.0183C307.779 80.0157 307.945 79.9794 308.099 79.9115C308.252 79.8437 308.391 79.7457 308.507 79.6233C308.622 79.5009 308.712 79.3566 308.77 79.1989C308.829 79.0413 308.855 78.8735 308.848 78.7055C308.818 78.367 308.658 78.0532 308.402 77.8302C308.145 77.6071 307.812 77.4922 307.473 77.5095C307.305 77.5112 307.138 77.5468 306.984 77.6143C306.83 77.6819 306.69 77.7799 306.575 77.9025C306.459 78.0251 306.37 78.1697 306.312 78.3278C306.253 78.4859 306.228 78.6541 306.236 78.8223Z" fill="#263238"/>
<path d="M305.823 77.7991C306.001 77.9504 306.922 77.1118 308.331 76.9881C309.741 76.8644 310.847 77.4555 310.985 77.2699C311.122 77.0843 310.854 76.8919 310.373 76.5826C309.72 76.2187 308.971 76.0651 308.228 76.1427C307.497 76.2156 306.807 76.5161 306.256 77.0018C305.878 77.4074 305.754 77.7304 305.823 77.7991Z" fill="#263238"/>
<path d="M301.749 88.7463C300.983 88.5868 300.2 88.5245 299.419 88.5607C299.054 88.5607 298.731 88.5195 298.621 88.2789C298.557 87.9091 298.605 87.5284 298.759 87.1861C299.013 86.2857 299.281 85.3371 299.556 84.3405C300.656 80.299 301.412 76.9861 301.247 76.938C301.082 76.8899 300.065 80.1547 298.951 84.1893C298.69 85.1859 298.436 86.1344 298.202 87.0486C298.016 87.5041 297.999 88.0112 298.154 88.4782C298.219 88.5985 298.311 88.7027 298.421 88.7835C298.532 88.8643 298.659 88.9197 298.793 88.9456C298.998 88.9718 299.206 88.9718 299.412 88.9456C300.196 88.9813 300.982 88.9143 301.749 88.7463Z" fill="#263238"/>
<path d="M304.971 73.5849C305.15 73.9561 306.538 73.6399 308.209 73.6743C309.879 73.7087 311.267 74.0386 311.453 73.6743C311.535 73.5025 311.267 73.1657 310.69 72.8495C309.927 72.4634 309.085 72.2566 308.23 72.2447C307.375 72.2328 306.528 72.4161 305.755 72.7808C305.171 73.0832 304.896 73.4131 304.971 73.5849Z" fill="#263238"/>
<path d="M292.077 74.7545C292.359 75.05 293.293 74.6239 294.462 74.4933C295.63 74.3627 296.641 74.4933 296.833 74.1427C296.916 73.9709 296.73 73.6616 296.27 73.4004C295.652 73.0968 294.96 72.9818 294.277 73.0698C293.595 73.1578 292.954 73.4449 292.434 73.8953C292.077 74.2665 291.96 74.6101 292.077 74.7545Z" fill="#263238"/>
<path d="M42.7786 139.059L79.6124 231.161H183L150.153 137.822C150.038 137.49 149.823 137.202 149.537 136.999C149.251 136.796 148.909 136.687 148.558 136.688L44.3457 136.756C44.0717 136.758 43.8021 136.826 43.5602 136.955C43.3183 137.083 43.1113 137.269 42.9571 137.496C42.8029 137.722 42.7061 137.983 42.675 138.255C42.6439 138.528 42.6795 138.803 42.7786 139.059Z" fill="#263238"/>
<path d="M48.4486 141.576L82.2719 224.055C82.3455 224.231 82.4697 224.381 82.6288 224.486C82.7879 224.591 82.9747 224.647 83.1655 224.646H177.329C177.481 224.648 177.631 224.613 177.767 224.544C177.903 224.476 178.02 224.376 178.109 224.252C178.198 224.129 178.256 223.986 178.278 223.836C178.3 223.685 178.286 223.532 178.236 223.388L148.269 140.909C148.199 140.725 148.075 140.566 147.913 140.455C147.751 140.343 147.559 140.283 147.362 140.283H49.3421C49.1865 140.28 49.0326 140.316 48.894 140.386C48.7554 140.457 48.6365 140.561 48.548 140.689C48.4595 140.817 48.4041 140.965 48.3867 141.12C48.3694 141.275 48.3906 141.431 48.4486 141.576Z" fill="#455A64"/>
<path d="M79.6113 231.155H80.5323H220.115V224.674H83.4329L79.6113 231.155Z" fill="#263238"/>
<path d="M241.216 141.46C241.216 141.46 243.794 138.113 242.055 134.257C240.316 130.401 235.635 126.009 235.635 126.009C234.26 125.658 236.075 117.891 236.865 115.314C237.656 112.737 236.769 111.341 235.36 111.877C234.405 112.262 231.8 120.077 231.078 122.634C230.686 124.009 229.951 126.758 229.057 128.284C228.315 129.528 227.463 129.92 226.603 127.968C224.713 123.665 221.675 121.053 220.418 120.909C219.16 120.764 218.5 122.552 219.579 123.528C220.644 124.701 221.544 126.014 222.253 127.432C222.872 128.546 223.3 129.756 223.517 131.013C223.703 132.099 223.834 133.075 223.937 133.941C224.172 136.1 224.153 138.28 223.882 140.436L197.914 171.022L192.265 150.313L191.742 148.718L169.459 157.007C168.772 157.179 174.27 173.4 177.707 183.476C178.551 185.943 179.914 188.201 181.703 190.097C183.492 191.994 185.666 193.486 188.079 194.473C191.871 196.026 196.074 196.26 200.015 195.138C203.956 194.016 207.406 191.604 209.812 188.287L237.532 148.044L236.934 147.639L237.498 147.893L241.216 141.46Z" fill="#B78876"/>
<path d="M237.738 128.009C237.695 128.269 237.622 128.523 237.518 128.765L236.783 130.779L235.662 133.775C235.475 134.392 235.19 134.975 234.817 135.501C234.573 135.789 234.234 135.982 233.861 136.044C233.662 136.07 233.46 136.044 233.273 135.969C233.087 135.895 232.922 135.774 232.796 135.617C232.553 135.322 232.413 134.955 232.397 134.573C232.39 134.225 232.429 133.879 232.514 133.542C232.672 132.903 232.837 132.298 233.002 131.72C233.339 130.566 233.69 129.548 234.013 128.703C234.336 127.858 234.624 127.177 234.837 126.717C234.93 126.472 235.055 126.241 235.209 126.029C235.154 126.286 235.073 126.537 234.968 126.778C234.796 127.253 234.542 127.94 234.281 128.792C234.02 129.645 233.662 130.669 233.346 131.817C233.188 132.394 233.03 132.999 232.885 133.624C232.779 133.915 232.743 134.226 232.78 134.533C232.817 134.84 232.926 135.134 233.098 135.391C233.186 135.501 233.299 135.588 233.429 135.642C233.559 135.696 233.701 135.716 233.841 135.7C234.129 135.649 234.391 135.501 234.583 135.281C234.931 134.785 235.2 134.237 235.38 133.659L236.576 130.717L237.415 128.744C237.497 128.489 237.605 128.242 237.738 128.009Z" fill="#AA6550"/>
<path d="M240.366 131.027C240.335 131.264 240.271 131.496 240.173 131.714C240.029 132.133 239.802 132.731 239.486 133.474C239.17 134.216 238.867 135.096 238.469 136.072C238.274 136.625 237.914 137.105 237.438 137.447C237.167 137.632 236.845 137.729 236.517 137.721C236.171 137.704 235.844 137.557 235.602 137.309C235.383 137.073 235.219 136.792 235.122 136.486C235.024 136.179 234.996 135.855 235.039 135.536C235.1 134.979 235.213 134.429 235.376 133.893C235.623 132.991 235.931 132.107 236.297 131.247C236.606 130.518 236.895 129.941 237.101 129.542C237.193 129.33 237.314 129.132 237.458 128.951C237.513 128.951 237.094 129.865 236.53 131.343C236.203 132.207 235.923 133.088 235.692 133.982C235.548 134.5 235.446 135.029 235.389 135.563C235.353 135.83 235.376 136.102 235.455 136.36C235.535 136.617 235.669 136.855 235.85 137.055C236.032 137.229 236.269 137.333 236.52 137.351C236.771 137.368 237.02 137.298 237.225 137.151C237.643 136.848 237.961 136.427 238.139 135.941L239.225 133.378C239.534 132.649 239.795 132.065 239.981 131.659C240.079 131.431 240.208 131.219 240.366 131.027Z" fill="#AA6550"/>
<path d="M241.808 134.081C241.697 134.749 241.522 135.405 241.286 136.04C241.101 136.644 240.894 137.345 240.599 138.136C240.462 138.599 240.148 138.989 239.726 139.222C239.599 139.277 239.462 139.305 239.324 139.305C239.186 139.305 239.049 139.277 238.922 139.222C238.666 139.12 238.449 138.939 238.303 138.706C238.062 138.264 237.966 137.756 238.028 137.256C238.081 136.06 238.388 134.888 238.929 133.82C239.154 133.374 239.423 132.953 239.733 132.562C239.953 132.287 240.097 132.149 240.118 132.163C240.138 132.177 239.664 132.802 239.155 133.929C238.865 134.59 238.651 135.282 238.516 135.991C238.441 136.407 238.395 136.827 238.379 137.249C238.332 137.677 238.411 138.109 238.606 138.493C238.694 138.664 238.843 138.795 239.024 138.862C239.205 138.928 239.404 138.924 239.582 138.851C239.914 138.656 240.16 138.341 240.269 137.971C240.53 137.222 240.777 136.534 241.004 135.909C241.22 135.278 241.489 134.666 241.808 134.081Z" fill="#AA6550"/>
<path d="M232.97 140.716C232.908 140.716 232.97 140.173 232.901 139.341C232.718 137.101 231.67 135.021 229.98 133.54C229.334 132.976 228.866 132.708 228.894 132.66C229.354 132.795 229.779 133.03 230.138 133.347C231.055 134.056 231.802 134.961 232.324 135.995C232.846 137.03 233.13 138.169 233.155 139.327C233.19 139.798 233.127 140.271 232.97 140.716Z" fill="#AA6550"/>
<path d="M88.6309 224.053L155.838 224.397L156.676 212.541L104.247 189.213C99.7053 194.712 96.6902 201.309 95.5041 208.341L88.6309 224.053Z" fill="#263238"/>
<path d="M120.364 201.235C120.189 201.486 119.986 201.716 119.759 201.922C119.514 202.186 119.252 202.434 118.976 202.664C118.626 202.987 118.259 203.29 117.876 203.572C117.423 203.929 116.948 204.257 116.453 204.554C115.896 204.912 115.32 205.24 114.728 205.537C112.003 206.915 109.01 207.682 105.958 207.785C105.296 207.82 104.633 207.82 103.971 207.785C103.396 207.758 102.822 207.698 102.253 207.606C101.79 207.544 101.331 207.454 100.879 207.338C100.524 207.273 100.175 207.181 99.8338 207.063C99.5358 206.996 99.2473 206.892 98.9746 206.754C98.9746 206.678 100.232 207.098 102.315 207.359C102.831 207.414 103.401 207.482 104.013 207.489C104.624 207.496 105.284 207.489 105.972 207.489C108.963 207.331 111.892 206.572 114.584 205.256C115.196 204.939 115.78 204.651 116.302 204.321C116.792 204.031 117.267 203.717 117.725 203.379C119.423 202.142 120.309 201.18 120.364 201.235Z" fill="#455A64"/>
<path d="M138.641 223.054C138.862 222.277 139.133 221.515 139.452 220.772C140.022 219.288 140.737 217.398 141.514 215.315C142.29 213.232 143.053 211.356 143.637 209.871C143.902 209.106 144.224 208.362 144.6 207.645C144.417 208.434 144.174 209.209 143.871 209.961C143.376 211.335 142.668 213.308 141.85 215.459C141.033 217.611 140.256 219.508 139.665 220.882C139.369 221.57 139.122 222.12 138.936 222.498C138.863 222.695 138.763 222.883 138.641 223.054Z" fill="#455A64"/>
<path d="M139.018 207.096C138.632 207.276 138.316 207.578 138.117 207.955C138.022 208.149 137.978 208.363 137.989 208.578C138 208.794 138.065 209.002 138.179 209.185C138.31 209.416 138.508 209.601 138.747 209.715C138.986 209.83 139.254 209.87 139.516 209.829C139.778 209.788 140.021 209.668 140.213 209.486C140.405 209.303 140.537 209.067 140.592 208.807C140.644 208.599 140.642 208.38 140.587 208.172C140.532 207.964 140.424 207.774 140.275 207.618C139.97 207.325 139.581 207.133 139.162 207.069C139.162 207.069 139.286 207 139.526 207.014C139.875 207.047 140.202 207.197 140.454 207.44C140.652 207.619 140.799 207.848 140.878 208.103C140.958 208.358 140.968 208.63 140.908 208.89C140.846 209.218 140.684 209.52 140.444 209.753C140.204 209.985 139.898 210.138 139.568 210.189C139.238 210.24 138.9 210.188 138.6 210.039C138.301 209.89 138.056 209.652 137.897 209.357C137.761 209.127 137.689 208.865 137.689 208.598C137.689 208.331 137.761 208.068 137.897 207.838C138.063 207.532 138.327 207.29 138.647 207.151C138.873 207.062 139.011 207.075 139.018 207.096Z" fill="#455A64"/>
<path d="M184.47 123.73C184.47 123.73 194.299 152.639 193.742 153.822L173.857 159.272L184.47 123.73Z" fill="#E6A92F"/>
<path opacity="0.2" d="M184.47 123.73C184.47 123.73 194.299 152.639 193.742 153.822L173.857 159.272L184.47 123.73Z" fill="black"/>
<path d="M168.359 171.629L162.084 198.249L158.008 213.144L104.225 189.211L121.298 161.718C121.298 161.718 130.645 123.482 143.835 116.416C153.423 111.275 161.568 113.062 162.785 113.062L174.243 114.65C174.497 114.684 174.744 114.726 174.992 114.774C181.102 115.977 185.247 121.688 184.93 127.902C184.683 132.878 183.851 141.298 181.109 147.594C177.432 156.055 168.359 171.629 168.359 171.629Z" fill="#E6A92F"/>
<path d="M160.001 207.173L159.61 206.994C159.226 206.816 158.854 206.614 158.496 206.389C157.115 205.526 155.907 204.412 154.936 203.104C153.372 201.033 152.454 198.546 152.297 195.956C152.198 194.332 152.512 192.71 153.211 191.241C153.59 190.436 154.122 189.712 154.778 189.11C155.48 188.474 156.347 188.047 157.28 187.88C158.049 187.802 158.826 187.876 159.566 188.099C160.307 188.322 160.996 188.689 161.594 189.179C162.192 189.669 162.688 190.272 163.053 190.953C163.418 191.635 163.644 192.382 163.72 193.151C163.805 194.268 163.601 195.387 163.129 196.402C162.641 197.468 161.923 198.411 161.027 199.166C160.131 199.921 159.079 200.467 157.946 200.767C155.533 201.374 152.985 201.131 150.729 200.08C148.395 198.959 146.353 197.312 144.763 195.268C143.924 194.241 143.165 193.149 142.495 192.004C141.795 190.834 141.271 189.567 140.942 188.244C140.606 186.892 140.59 185.48 140.894 184.12C141.201 182.712 141.956 181.441 143.045 180.498C143.617 180.032 144.277 179.686 144.986 179.481C145.694 179.275 146.437 179.214 147.169 179.302C147.911 179.384 148.62 179.651 149.231 180.078C149.829 180.524 150.302 181.116 150.606 181.797C151.183 183.175 151.21 184.722 150.681 186.12C150.138 187.468 149.225 188.635 148.049 189.488C145.788 191.057 143.172 192.041 140.438 192.352C137.703 192.662 134.934 192.29 132.378 191.268C129.993 190.245 127.939 188.579 126.446 186.457C125.008 184.446 124.197 182.055 124.116 179.584C124.084 178.397 124.275 177.215 124.68 176.099C125.073 175.008 125.755 174.043 126.652 173.308C127.539 172.614 128.62 172.213 129.745 172.16C130.29 172.126 130.836 172.2 131.351 172.378C131.867 172.557 132.342 172.835 132.749 173.198C133.505 173.927 133.973 174.902 134.069 175.948C134.176 176.933 134.029 177.929 133.643 178.841C132.845 180.509 131.419 181.792 129.677 182.409C128.165 182.98 126.563 183.273 124.948 183.275C122.366 183.308 119.806 182.788 117.442 181.749C115.956 181.097 114.568 180.241 113.318 179.206C112.885 178.848 112.576 178.559 112.377 178.36C112.177 178.161 112.074 178.051 112.074 178.051C112.074 178.051 112.191 178.14 112.404 178.333C112.617 178.525 112.927 178.807 113.36 179.151C116.654 181.762 120.752 183.149 124.955 183.075C126.544 183.066 128.118 182.768 129.601 182.195C130.403 181.876 131.149 181.433 131.814 180.883C132.513 180.31 133.063 179.577 133.416 178.745C133.782 177.878 133.919 176.931 133.814 175.996C133.721 175.016 133.279 174.101 132.57 173.418C132.188 173.083 131.744 172.827 131.263 172.664C130.782 172.501 130.273 172.435 129.766 172.47C128.7 172.519 127.676 172.901 126.838 173.563C125.988 174.269 125.342 175.189 124.968 176.229C124.581 177.309 124.401 178.451 124.439 179.597C124.521 182.01 125.315 184.344 126.721 186.306C128.179 188.382 130.188 190.011 132.522 191.007C135.02 192.006 137.726 192.369 140.399 192.064C143.072 191.76 145.627 190.797 147.836 189.261C148.959 188.449 149.831 187.336 150.351 186.051C150.848 184.743 150.824 183.294 150.283 182.003C150.004 181.372 149.563 180.826 149.004 180.422C148.438 180.042 147.786 179.806 147.107 179.735C146.429 179.661 145.743 179.722 145.088 179.914C144.433 180.106 143.823 180.426 143.293 180.855C142.252 181.748 141.529 182.954 141.231 184.292C140.935 185.603 140.949 186.966 141.272 188.271C141.904 190.883 143.423 193.145 145.025 195.145C146.58 197.149 148.577 198.767 150.86 199.873C153.045 200.896 155.515 201.139 157.857 200.561C158.947 200.276 159.96 199.753 160.823 199.029C161.686 198.305 162.377 197.399 162.847 196.375C163.307 195.41 163.506 194.341 163.424 193.275C163.355 192.542 163.143 191.83 162.798 191.179C162.454 190.528 161.984 189.952 161.417 189.482C160.849 189.013 160.195 188.66 159.491 188.444C158.787 188.228 158.047 188.153 157.314 188.223C156.426 188.379 155.599 188.782 154.929 189.385C154.294 189.969 153.776 190.669 153.403 191.447C152.719 192.879 152.405 194.46 152.489 196.045C152.628 198.605 153.517 201.067 155.046 203.125C155.997 204.431 157.178 205.554 158.531 206.437C158.881 206.665 159.244 206.874 159.617 207.063L160.001 207.173Z" fill="#FAFAFA"/>
<path d="M176.142 155.824C176.142 155.824 176.093 155.776 176.011 155.673L175.647 155.219C175.202 154.617 174.818 153.972 174.499 153.295C173.348 150.759 173.044 147.92 173.633 145.198C174.014 143.306 174.889 141.549 176.169 140.105C176.552 139.712 177.024 139.415 177.544 139.239C177.819 139.151 178.11 139.119 178.398 139.146C178.687 139.173 178.967 139.259 179.221 139.397C179.733 139.689 180.142 140.134 180.389 140.669C180.627 141.211 180.751 141.795 180.754 142.387C180.732 144.849 179.871 147.23 178.314 149.137C177.507 150.15 176.521 151.007 175.406 151.666C174.255 152.362 172.943 152.75 171.598 152.793C170.235 152.804 168.914 152.315 167.887 151.419C166.894 150.566 166.144 149.466 165.715 148.229C165.309 147.049 165.112 145.807 165.131 144.559C165.109 143.367 165.257 142.177 165.57 141.026C165.736 140.463 166.002 139.935 166.354 139.466C166.705 138.986 167.217 138.649 167.797 138.517C168.367 138.407 168.958 138.512 169.454 138.813C169.916 139.101 170.31 139.485 170.609 139.94C170.888 140.363 171.099 140.827 171.234 141.315C171.366 141.792 171.437 142.284 171.447 142.779C171.466 143.704 171.312 144.625 170.993 145.494C170.443 146.984 169.537 148.317 168.354 149.377C167.475 150.17 166.519 150.874 165.502 151.48C164.663 151.982 163.996 152.333 163.543 152.566L163.027 152.828C162.969 152.863 162.907 152.891 162.842 152.91L163.007 152.8L163.509 152.505C163.948 152.25 164.608 151.879 165.426 151.364C166.423 150.742 167.357 150.026 168.217 149.226C169.357 148.177 170.227 146.868 170.753 145.411C171.052 144.569 171.194 143.679 171.172 142.786C171.161 142.32 171.087 141.857 170.952 141.411C170.83 140.941 170.63 140.495 170.361 140.091C170.09 139.672 169.725 139.322 169.296 139.067C168.869 138.803 168.358 138.712 167.866 138.813C166.849 139.019 166.203 140.064 165.88 141.109C165.587 142.23 165.449 143.386 165.467 144.545C165.455 145.754 165.651 146.956 166.045 148.099C166.453 149.273 167.164 150.319 168.107 151.13C169.072 151.971 170.312 152.428 171.591 152.415C172.873 152.369 174.122 151.998 175.221 151.336C176.3 150.7 177.254 149.873 178.039 148.896C179.544 147.052 180.382 144.754 180.417 142.373C180.418 141.827 180.305 141.286 180.087 140.786C179.871 140.311 179.513 139.915 179.063 139.652C178.845 139.533 178.606 139.46 178.359 139.435C178.112 139.41 177.863 139.435 177.626 139.507C177.159 139.672 176.735 139.943 176.389 140.298C175.128 141.7 174.256 143.409 173.86 145.253C173.514 146.766 173.448 148.329 173.667 149.865C173.827 151.027 174.141 152.162 174.602 153.24C174.911 153.913 175.272 154.561 175.681 155.178L176.018 155.652C176.114 155.769 176.148 155.817 176.142 155.824Z" fill="#FAFAFA"/>
<path d="M159.68 147.729C159.68 147.729 159.68 172.17 165.797 174.487C182.437 180.782 202.342 179.332 209.346 178.672C210.185 178.088 211.154 177.373 212.254 176.48L214.57 174.548C214.57 174.548 225.567 176.645 225.402 177.222C225.237 177.799 221.113 179.133 216.866 178.177C216.741 178.411 216.668 178.67 216.652 178.934C216.637 179.199 216.679 179.464 216.776 179.711C216.872 179.958 217.021 180.181 217.212 180.365C217.404 180.548 217.632 180.689 217.883 180.776C220.68 182.15 230.591 186.336 232.165 187.285C233.54 188.13 234.86 189.518 233.293 189.615C231.726 189.711 223.388 187.656 223.388 187.656C223.388 187.656 234.386 190.13 233.932 191.711C233.629 192.804 230.585 193.037 223.491 190.68C223.491 190.68 232.516 192.783 233.375 193.842C235.32 196.22 224.44 193.787 224.44 193.787C232.049 195.56 232.001 195.161 232.001 196.213C232.001 197.01 230.207 197.155 225.973 196.783C222.536 196.481 218.914 196.859 213.649 196.687C213.649 196.687 145.679 208.791 139.493 178.803C136.153 162.63 136.744 156.664 136.057 146.217" fill="#B78876"/>
<path d="M219.827 192.837C219.779 193.022 222.095 193.662 224.996 194.266C227.896 194.871 230.267 195.187 230.302 194.995C230.336 194.803 228.02 194.163 225.14 193.565C222.26 192.967 219.909 192.644 219.827 192.837Z" fill="#AA6550"/>
<path d="M220.198 189.839C220.15 190.031 222.576 190.849 225.614 191.674C228.652 192.499 231.168 193.007 231.216 192.815C231.264 192.622 228.845 191.804 225.8 190.986C222.755 190.169 220.253 189.653 220.198 189.839Z" fill="#AA6550"/>
<path d="M220.597 186.732C220.542 186.924 222.824 187.735 225.69 188.553C228.556 189.371 230.927 189.88 230.982 189.687C231.037 189.495 228.755 188.684 225.889 187.866C223.023 187.048 220.659 186.546 220.597 186.732Z" fill="#AA6550"/>
<path d="M147.143 123.819C144.941 123.627 142.728 124.017 140.724 124.949C138.721 125.882 136.997 127.324 135.727 129.132C133.417 132.363 131.293 137.559 132.338 145.264C134.4 160.303 136.043 165.32 136.043 165.32L163.68 160.942L159.9 135.717C159.9 135.717 156.566 124.768 147.143 123.819Z" fill="#E6A92F"/>
<path opacity="0.2" d="M147.143 123.819C144.941 123.627 142.728 124.017 140.724 124.949C138.721 125.882 136.997 127.324 135.727 129.132C133.417 132.363 131.293 137.559 132.338 145.264C134.4 160.303 136.043 165.32 136.043 165.32L163.68 160.942L159.9 135.717C159.9 135.717 156.566 124.768 147.143 123.819Z" fill="black"/>
<path d="M216.777 175.014C216.578 175.006 216.38 174.98 216.186 174.938C215.801 174.876 215.223 174.759 214.502 174.656C214.11 174.689 213.737 174.837 213.429 175.083C213.032 175.353 212.653 175.649 212.295 175.969C211.421 176.757 210.592 177.595 209.814 178.478C207.674 179.106 205.459 179.444 203.229 179.481C200.605 179.512 197.98 179.404 195.366 179.158C189.029 178.712 183.269 178.361 179.132 177.784C177.07 177.509 175.4 177.22 174.259 176.98C173.681 176.87 173.248 176.753 172.946 176.684C172.791 176.654 172.639 176.611 172.492 176.553C172.65 176.555 172.807 176.576 172.96 176.615L174.279 176.842C175.427 177.041 177.097 177.289 179.166 177.529C183.29 178.038 189.043 178.354 195.394 178.801C198.143 179.014 200.789 179.206 203.223 179.145C205.424 179.118 207.612 178.804 209.732 178.21L209.67 178.251C210.464 177.369 211.314 176.538 212.213 175.763C212.583 175.439 212.978 175.144 213.395 174.883C213.737 174.62 214.153 174.471 214.584 174.457C215.326 174.594 215.876 174.732 216.261 174.814C216.439 174.865 216.611 174.931 216.777 175.014Z" fill="#AA6550"/>
<path d="M161.782 146.868C161.714 146.898 161.642 146.918 161.569 146.93L160.93 147.068L159.878 147.171C159.394 147.182 158.909 147.161 158.428 147.109C156.27 146.866 154.236 145.977 152.592 144.559C151.876 143.964 151.248 143.27 150.73 142.497C150.137 141.652 149.702 140.706 149.444 139.706C149.311 139.167 149.267 138.61 149.314 138.057C149.356 137.462 149.582 136.896 149.96 136.435C150.17 136.205 150.425 136.021 150.708 135.892C150.992 135.763 151.298 135.693 151.609 135.686C152.235 135.685 152.851 135.839 153.403 136.132C154.54 136.756 155.455 137.716 156.022 138.882C156.626 140.088 156.897 141.433 156.806 142.779C156.725 144.188 156.22 145.54 155.355 146.655C154.441 147.813 153.249 148.721 151.89 149.294C150.531 149.868 149.049 150.088 147.582 149.934C146.123 149.74 144.722 149.242 143.469 148.471C142.216 147.7 141.14 146.674 140.31 145.459C139.469 144.333 138.94 143.006 138.777 141.61C138.701 140.914 138.781 140.21 139.011 139.548C139.244 138.911 139.626 138.339 140.124 137.878C140.606 137.414 141.217 137.108 141.877 136.998C142.522 136.897 143.182 137.006 143.76 137.308C144.302 137.596 144.774 137.998 145.144 138.487C145.515 138.976 145.774 139.54 145.905 140.139C146.159 141.236 146.159 142.376 145.905 143.473C145.673 144.478 145.276 145.437 144.729 146.312C143.908 147.632 142.75 148.71 141.374 149.435C139.998 150.16 138.454 150.505 136.901 150.436C136.061 150.409 135.229 150.259 134.433 149.989C134.156 149.9 133.887 149.788 133.629 149.652C133.629 149.652 133.911 149.762 134.461 149.92C135.253 150.156 136.074 150.281 136.901 150.291C138.208 150.322 139.507 150.061 140.701 149.528C142.28 148.813 143.607 147.64 144.509 146.16C145.038 145.314 145.419 144.385 145.636 143.411C145.877 142.357 145.877 141.262 145.636 140.208C145.514 139.653 145.273 139.131 144.929 138.679C144.584 138.227 144.146 137.855 143.643 137.589C143.121 137.319 142.526 137.222 141.946 137.315C141.351 137.421 140.801 137.7 140.365 138.119C139.909 138.545 139.561 139.072 139.347 139.658C139.142 140.266 139.069 140.91 139.134 141.548C139.304 142.883 139.813 144.151 140.612 145.233C141.41 146.408 142.446 147.402 143.652 148.152C144.859 148.901 146.209 149.389 147.616 149.583C149.022 149.732 150.444 149.523 151.748 148.975C153.052 148.427 154.196 147.558 155.073 146.449C155.863 145.397 156.343 144.145 156.458 142.834C156.574 141.524 156.32 140.207 155.726 139.033C155.447 138.483 155.094 137.974 154.675 137.521C154.264 137.086 153.786 136.719 153.259 136.435C152.755 136.16 152.19 136.016 151.616 136.015C151.347 136.018 151.081 136.076 150.835 136.186C150.589 136.296 150.368 136.456 150.187 136.655C149.845 137.065 149.641 137.572 149.602 138.105C149.556 138.628 149.593 139.154 149.712 139.665C149.957 140.633 150.371 141.55 150.936 142.373C151.437 143.141 152.043 143.835 152.737 144.435C153.351 144.969 154.024 145.43 154.744 145.81C155.897 146.427 157.152 146.832 158.448 147.006C159.56 147.133 160.684 147.087 161.782 146.868Z" fill="#FAFAFA"/>
<path d="M147.244 70.6231C146.743 69.2107 145.859 67.9658 144.69 67.0284C143.521 66.0911 142.113 65.4984 140.626 65.317C139.139 65.1357 137.63 65.3728 136.27 66.0017C134.91 66.6306 133.752 67.6265 132.927 68.8773C131.882 70.4581 131.435 72.3139 130.776 74.1353C130.116 75.9567 129.147 77.7232 127.476 78.6236C125.524 79.6821 122.954 79.3109 121.18 80.6855C119.201 82.1633 119.119 85.4281 120.809 87.2564C122.5 89.0847 125.353 89.4833 127.683 88.5692C127.12 90.0139 126.801 91.5424 126.741 93.0918C126.718 93.8688 126.886 94.6395 127.232 95.3359C127.577 96.0323 128.088 96.6331 128.72 97.0852C129.413 97.4561 130.19 97.6433 130.975 97.6288C131.761 97.6144 132.53 97.3988 133.209 97.0027C134.561 96.1965 135.722 95.106 136.611 93.8066C136.834 94.8991 137.216 95.9528 137.745 96.9339C138.013 97.4223 138.383 97.8471 138.83 98.1793C139.278 98.5114 139.791 98.7431 140.336 98.8585C141.018 98.9172 141.703 98.7889 142.317 98.4873C142.931 98.1858 143.451 97.7223 143.821 97.147C144.545 95.9819 144.976 94.659 145.079 93.2911C145.477 89.9324 145.258 86.5293 144.433 83.2493C143.917 81.1461 143.189 78.9947 143.594 76.8709C144 74.7471 146.089 72.7469 148.158 73.393" fill="#263238"/>
<path d="M120.15 85.1179C120.257 85.1925 120.375 85.2483 120.501 85.2828C120.849 85.4091 121.205 85.5124 121.566 85.5921C123.241 85.9471 124.977 85.8885 126.623 85.4215C128.27 84.9544 129.778 84.0929 131.017 82.9115C131.893 82.0742 132.622 81.0961 133.175 80.0179C133.738 78.8552 134.144 77.6234 134.385 76.3545C134.609 75.1235 134.944 73.9157 135.388 72.746C135.814 71.6879 136.528 70.7709 137.45 70.0998C138.235 69.5348 139.133 69.147 140.083 68.9631C141.032 68.7791 142.01 68.8035 142.949 69.0344C144.229 69.3664 145.409 70.0058 146.386 70.8971C147.073 71.5294 147.389 71.9693 147.43 71.9349C147.472 71.9006 147.382 71.8043 147.245 71.5913C147.04 71.2888 146.81 71.0037 146.557 70.739C145.593 69.7556 144.386 69.0443 143.059 68.677C142.059 68.4012 141.011 68.35 139.989 68.527C138.967 68.7041 137.997 69.105 137.148 69.7011C136.143 70.4207 135.361 71.4094 134.894 72.5535C134.426 73.7523 134.074 74.9928 133.842 76.2582C133.612 77.4802 133.227 78.6676 132.694 79.7911C131.988 81.1775 130.983 82.39 129.752 83.3409C128.52 84.2918 127.093 84.9574 125.573 85.2897C124.272 85.5677 122.931 85.6096 121.614 85.4134C120.673 85.2347 120.164 85.0697 120.15 85.1179Z" fill="#455A64"/>
<path d="M138.276 97.8156C138.276 97.8156 138.379 97.7675 138.551 97.63C138.812 97.4346 139.043 97.2032 139.238 96.9427C139.938 95.9924 140.361 94.8673 140.462 93.6916C140.616 91.9673 140.417 90.2298 139.878 88.5848C139.355 86.729 138.551 84.7633 138.242 82.6188C137.928 80.6084 138.327 78.5517 139.369 76.804C140.213 75.3708 141.461 74.2184 142.957 73.4911C143.97 72.9977 145.065 72.6926 146.187 72.5907C146.606 72.5839 147.023 72.5541 147.438 72.5013C147.028 72.3805 146.6 72.3362 146.174 72.3708C145.006 72.3915 143.855 72.6511 142.792 73.1337C141.187 73.8467 139.838 75.0309 138.922 76.5291C137.79 78.3794 137.352 80.5716 137.685 82.715C138.008 84.9626 138.84 86.9352 139.383 88.7497C139.929 90.3301 140.162 92.0015 140.07 93.671C140.017 94.7944 139.671 95.8844 139.067 96.8327C138.592 97.4857 138.235 97.7743 138.276 97.8156Z" fill="#455A64"/>
<path d="M184.169 84.7878C189.558 72.3266 182.169 64.7385 177.358 62.0167C174.492 60.3946 171.083 60.0509 167.797 59.9547C164.543 59.7977 161.284 60.0961 158.113 60.8414C154.929 61.5959 152.023 63.2324 149.727 65.5633C145.789 69.7835 144.916 76.0313 145.26 81.7911C145.686 88.6022 147.648 95.2287 150.999 101.174C151.37 101.97 151.952 102.65 152.683 103.139C153.055 103.368 153.499 103.451 153.929 103.372C154.359 103.294 154.745 103.059 155.013 102.713" fill="#263238"/>
<path d="M174.93 115.904L174.731 109.346C174.731 109.346 182.395 108.075 183.982 98.0743C184.773 93.0981 184.525 84.9464 184.106 78.2793C184.017 76.8541 183.64 75.4619 182.997 74.1866C182.355 72.9113 181.461 71.7795 180.369 70.8595C179.276 69.9396 178.009 69.2506 176.643 68.8342C175.277 68.4177 173.841 68.2826 172.422 68.4368L155.08 70.272C154.204 70.3632 153.394 70.7806 152.81 71.4414C152.227 72.1022 151.914 72.9581 151.932 73.8392L154.235 116.763C154.369 119.406 155.514 121.896 157.433 123.717C159.352 125.539 161.899 126.554 164.545 126.55C165.934 126.561 167.311 126.291 168.593 125.757C169.875 125.222 171.036 124.434 172.006 123.44C172.976 122.445 173.735 121.265 174.238 119.97C174.74 118.675 174.976 117.292 174.93 115.904Z" fill="#B78876"/>
<path d="M182.374 83.9301C182.376 84.2647 182.249 84.587 182.018 84.8293C181.787 85.0716 181.471 85.2149 181.137 85.2292C180.973 85.2413 180.809 85.2208 180.653 85.1687C180.498 85.1167 180.354 85.0342 180.231 84.9261C180.107 84.818 180.006 84.6865 179.934 84.5391C179.862 84.3917 179.82 84.2314 179.811 84.0676C179.809 83.7337 179.937 83.4121 180.167 83.1709C180.398 82.9298 180.714 82.7879 181.048 82.7754C181.211 82.7623 181.375 82.782 181.531 82.8332C181.686 82.8845 181.83 82.9663 181.954 83.0738C182.077 83.1814 182.178 83.3125 182.25 83.4596C182.323 83.6066 182.365 83.7666 182.374 83.9301Z" fill="#263238"/>
<path d="M182.339 82.492C182.174 82.657 181.205 81.9353 179.824 81.9422C178.442 81.949 177.432 82.6295 177.287 82.4645C177.143 82.2996 177.37 82.0865 177.817 81.7772C178.421 81.3558 179.142 81.1346 179.879 81.1449C180.595 81.1433 181.293 81.3696 181.872 81.791C182.271 82.114 182.415 82.4164 182.339 82.492Z" fill="#263238"/>
<path d="M168.544 84.287C168.546 84.6216 168.419 84.9439 168.188 85.1862C167.957 85.4285 167.641 85.5718 167.307 85.5861C167.143 85.5982 166.979 85.5777 166.823 85.5256C166.668 85.4736 166.524 85.3912 166.401 85.283C166.277 85.1749 166.176 85.0434 166.104 84.896C166.032 84.7486 165.99 84.5883 165.98 84.4245C165.978 84.0906 166.106 83.769 166.337 83.5278C166.568 83.2867 166.884 83.1448 167.218 83.1323C167.381 83.1202 167.545 83.1405 167.7 83.1921C167.855 83.2437 167.998 83.3255 168.122 83.4329C168.245 83.5403 168.346 83.6711 168.419 83.8177C168.491 83.9643 168.534 84.1238 168.544 84.287Z" fill="#263238"/>
<path d="M168.771 82.746C168.613 82.911 167.637 82.1961 166.262 82.1961C164.888 82.1961 163.87 82.8835 163.719 82.7254C163.568 82.5673 163.808 82.3474 164.248 82.0381C164.853 81.6191 165.574 81.4004 166.31 81.4126C167.028 81.4138 167.728 81.6397 168.31 82.0587C168.702 82.368 168.847 82.6704 168.771 82.746Z" fill="#263238"/>
<path d="M173.783 92.9802C174.509 92.75 175.262 92.6137 176.024 92.5746C176.374 92.5403 176.711 92.4715 176.766 92.231C176.797 91.867 176.715 91.5023 176.532 91.1862L175.487 88.4988C174.044 84.6773 172.992 81.5362 173.15 81.4812C173.309 81.4262 174.601 84.4779 176.051 88.2926C176.395 89.2411 176.738 90.1346 177.048 90.9938C177.266 91.4168 177.332 91.9025 177.233 92.3684C177.183 92.494 177.104 92.6061 177.002 92.6956C176.901 92.7851 176.78 92.8496 176.649 92.8839C176.454 92.9385 176.253 92.9663 176.051 92.9664C175.298 93.0643 174.537 93.0689 173.783 92.9802Z" fill="#263238"/>
<path d="M174.731 109.31C170.023 109.381 165.388 108.144 161.342 105.736C161.342 105.736 164.593 112.61 174.6 111.668L174.731 109.31Z" fill="#AA6550"/>
<path d="M173.171 96.3089C172.907 95.9775 172.564 95.7184 172.174 95.5561C171.783 95.3938 171.357 95.3335 170.937 95.381C170.632 95.41 170.337 95.4998 170.068 95.645C169.798 95.7902 169.561 95.9879 169.37 96.2264C169.185 96.4559 169.076 96.7366 169.056 97.0304C169.036 97.3243 169.107 97.617 169.26 97.8691C169.483 98.1168 169.774 98.2928 170.097 98.3747C170.42 98.4567 170.76 98.441 171.074 98.3296C171.725 98.0958 172.322 97.7362 172.834 97.2711C172.991 97.1628 173.127 97.0251 173.232 96.8656C173.283 96.7891 173.31 96.6995 173.31 96.6079C173.31 96.5162 173.283 96.4266 173.232 96.3501" fill="#AA6550"/>
<path d="M169.735 93.9082C169.955 93.9082 169.962 95.3928 171.24 96.4513C172.519 97.5098 174.12 97.3517 174.134 97.5648C174.134 97.6541 173.777 97.8535 173.103 97.8741C172.225 97.8845 171.37 97.5852 170.691 97.0287C170.037 96.499 169.617 95.7339 169.522 94.898C169.453 94.3 169.618 93.9082 169.735 93.9082Z" fill="#263238"/>
<path d="M169.391 80.3288C169.26 80.7068 167.878 80.5281 166.263 80.7275C164.648 80.9268 163.328 81.3598 163.115 81.023C163.019 80.8649 163.246 80.5075 163.803 80.1501C164.503 79.6964 165.302 79.416 166.133 79.3322C166.962 79.2297 167.804 79.3288 168.586 79.6209C169.15 79.8614 169.452 80.1639 169.391 80.3288Z" fill="#263238"/>
<path d="M181.833 78.4902C181.585 78.8064 180.637 78.4902 179.496 78.4902C178.355 78.4902 177.386 78.6964 177.159 78.3665C177.062 78.2084 177.214 77.8991 177.64 77.5967C178.203 77.2322 178.867 77.0543 179.537 77.088C180.208 77.0985 180.858 77.3171 181.4 77.7135C181.805 78.0159 181.936 78.339 181.833 78.4902Z" fill="#263238"/>
<path d="M184.106 78.2432C182.36 69.7204 179.982 73.0952 177.295 69.0262C173.404 72.9646 164.449 77.5009 158.984 78.3945C158.417 78.4367 157.868 78.6134 157.383 78.9099C156.544 79.5354 156.476 80.7451 156.476 81.7967C156.585 84.7593 156.34 87.7243 155.747 90.6289C155.149 93.5509 153.658 96.2147 151.479 98.2513C148.18 91.3024 147.85 83.2195 149.327 75.6658C149.932 72.5797 150.95 69.3492 153.41 67.4179C155.17 66.0432 157.438 65.4521 159.651 65.0466C165.115 64.0431 170.896 63.8025 176.099 65.7339C181.302 67.6653 185.343 70.0847 186.038 75.597" fill="#263238"/>
<path d="M146.318 72.2612C146.667 72.508 147.043 72.7132 147.439 72.873C147.882 73.0941 148.341 73.2802 148.813 73.4297L149.693 73.739L150.71 73.9933C152.388 74.3917 154.101 74.622 155.824 74.6806C160.056 74.8392 164.277 74.1377 168.23 72.6187C169.124 72.22 169.99 71.897 170.746 71.4639L171.846 70.8728L172.822 70.2474C173.38 69.8906 173.913 69.4956 174.416 69.0652L175.049 68.5566L175.53 68.0686C175.843 67.7822 176.127 67.4644 176.375 67.12C176.286 67.0238 175.069 68.3847 172.602 69.9106L171.633 70.4948L170.533 71.0447C169.784 71.4571 168.925 71.732 168.045 72.1307C166.094 72.8407 164.084 73.3744 162.038 73.7253C159.992 74.0521 157.923 74.2016 155.852 74.172C154.156 74.1331 152.468 73.9422 150.807 73.6015C147.975 73.0104 146.366 72.1513 146.318 72.2612Z" fill="#455A64"/>
<path d="M149.148 65.5254C149.406 65.7884 149.695 66.0191 150.008 66.2127C150.358 66.4736 150.731 66.7035 151.121 66.9L151.843 67.2918L152.688 67.6492C155.819 68.8592 159.154 69.4542 162.51 69.4019C165.847 69.4088 169.175 69.0376 172.428 68.2953C173.679 68.0135 174.676 67.7317 175.349 67.5049C175.711 67.4186 176.06 67.2845 176.387 67.1062C176.387 67.0169 174.841 67.4362 172.353 67.9035C169.108 68.5237 165.813 68.8367 162.51 68.8383C159.218 68.8852 155.943 68.3572 152.833 67.2781C151.576 66.7568 150.346 66.1718 149.148 65.5254Z" fill="#455A64"/>
<path d="M179.88 63.3478C179.88 63.2859 179.536 63.2172 179 63.3478C178.304 63.5535 177.685 63.9623 177.222 64.5218C176.759 65.0813 176.474 65.7662 176.402 66.4889C176.368 67.0387 176.498 67.3618 176.567 67.3549C176.636 67.348 176.663 66.0352 177.653 64.8805C178.643 63.7258 179.908 63.5059 179.88 63.3478Z" fill="#455A64"/>
<path d="M128.22 74.1175C128.147 73.9791 128.046 73.8573 127.924 73.7601C127.577 73.4573 127.145 73.2678 126.687 73.2171C125.965 73.1308 125.236 73.2985 124.625 73.6914C124.206 73.957 123.87 74.3349 123.655 74.782C123.44 75.2291 123.354 75.7275 123.408 76.2207C123.474 76.8138 123.683 77.382 124.017 77.8765C124.351 78.371 124.8 78.7769 125.326 79.0594C125.95 79.3507 126.642 79.4669 127.327 79.3954C128.013 79.324 128.665 79.0677 129.216 78.6539C129.826 78.2309 130.32 77.6613 130.653 76.9974C130.969 76.3052 131.149 75.5584 131.182 74.798C131.285 73.2858 131.024 71.76 131.299 70.2754C131.591 68.8756 132.234 67.5733 133.168 66.491C134.103 65.4087 135.297 64.5822 136.639 64.0894C137.745 63.7112 138.922 63.589 140.082 63.7318C141.241 63.8747 142.353 64.279 143.334 64.9142C144.688 65.7602 145.782 66.9637 146.496 68.3921C146.991 69.4093 147.094 70.0485 147.183 70.0348C147.191 69.8793 147.172 69.7236 147.128 69.5743C147.039 69.137 146.903 68.7106 146.722 68.3027C146.058 66.7829 144.964 65.4905 143.574 64.5843C142.617 63.9494 141.542 63.5124 140.413 63.299C139.103 63.0601 137.753 63.1643 136.495 63.6014C135.057 64.1092 133.774 64.9796 132.771 66.1283C131.768 67.277 131.079 68.6652 130.77 70.1585C130.481 71.7806 130.77 73.3202 130.66 74.7499C130.636 75.4384 130.477 76.1156 130.192 76.7431C129.908 77.3304 129.48 77.8364 128.948 78.214C128.473 78.5796 127.909 78.8113 127.315 78.885C126.72 78.9588 126.116 78.8718 125.567 78.6332C125.101 78.3905 124.701 78.0397 124.4 77.6104C124.099 77.181 123.905 76.6856 123.834 76.1657C123.777 75.7393 123.839 75.3053 124.014 74.9121C124.189 74.5189 124.469 74.1819 124.824 73.9388C125.377 73.5555 126.044 73.3736 126.714 73.4233C127.276 73.4943 127.801 73.7368 128.22 74.1175Z" fill="#263238"/>
<path d="M154.482 78.6269C154.822 78.7059 155.172 78.7337 155.52 78.7093C156.208 78.7093 157.163 78.7093 158.366 78.7093C161.513 78.6568 164.634 78.119 167.617 77.1147C170.633 76.0661 173.266 74.1391 175.178 71.5818C175.737 70.8034 176.188 69.9525 176.518 69.0524C176.657 68.7287 176.745 68.3856 176.779 68.0352C176.243 69.1971 175.598 70.3063 174.855 71.3481C172.915 73.7526 170.341 75.5667 167.425 76.5855C164.49 77.5672 161.436 78.1498 158.345 78.3176C157.053 78.3497 155.763 78.4529 154.482 78.6269Z" fill="#263238"/>
<path d="M140.289 103.061C140.289 103.061 140.323 103.467 140.763 104.01C141.087 104.385 141.483 104.691 141.929 104.909C142.374 105.126 142.859 105.251 143.355 105.274C144.837 105.314 146.275 104.771 147.362 103.762C148.047 103.172 148.484 102.345 148.585 101.446C148.639 100.946 148.544 100.44 148.312 99.9939C148.079 99.5474 147.72 99.1798 147.279 98.9372C146.803 98.7163 146.26 98.6904 145.766 98.8651C145.271 99.0398 144.864 99.4012 144.633 99.8719C144.541 100.107 144.503 100.36 144.521 100.612C144.538 100.864 144.612 101.109 144.736 101.329C144.952 101.742 145.297 102.072 145.719 102.271C146.477 102.589 147.328 102.604 148.097 102.312C148.748 102.086 149.335 101.706 149.809 101.205C150.503 100.503 150.95 99.5933 151.08 98.6141C151.154 98.2643 151.132 97.9012 151.018 97.5625C150.97 97.5625 151.018 97.9405 150.867 98.5797C150.663 99.4753 150.199 100.291 149.534 100.924C149.087 101.359 148.542 101.682 147.946 101.865C147.295 102.097 146.581 102.074 145.946 101.803C145.626 101.664 145.368 101.412 145.22 101.096C145.072 100.78 145.044 100.42 145.142 100.085C145.32 99.7582 145.615 99.5108 145.968 99.3923C146.321 99.2737 146.706 99.2929 147.045 99.4458C147.383 99.6427 147.656 99.9332 147.831 100.282C148.007 100.631 148.078 101.023 148.035 101.412C147.944 102.175 147.578 102.879 147.004 103.391C146.023 104.326 144.724 104.856 143.368 104.876C142.454 104.861 141.58 104.5 140.921 103.865C140.468 103.398 140.337 103.04 140.289 103.061Z" fill="#263238"/>
<path d="M197.632 224.675C197.632 224.771 172.682 224.854 141.91 224.854C111.138 224.854 86.1816 224.771 86.1816 224.675C86.1816 224.579 111.125 224.496 141.91 224.496C172.695 224.496 197.632 224.579 197.632 224.675Z" fill="#455A64"/>
<path d="M51.6685 184.775C52.8639 184.97 54.0075 185.405 55.0304 186.054C56.0534 186.702 56.9345 187.551 57.6208 188.549C58.9823 190.554 59.8663 192.844 60.2051 195.243C60.9887 199.848 59.7584 205.086 58.0675 209.437C53.3593 207.251 50.83 201.821 49.7371 198.927C47.9913 194.419 47.5789 185.181 51.6685 184.775Z" fill="#E6A92F"/>
<path d="M64.5737 215.571C63.9471 214.372 63.6495 213.027 63.7111 211.675C63.7726 210.323 64.1912 209.011 64.9243 207.873C65.6766 206.75 66.644 205.788 67.7707 205.041C68.8974 204.294 70.1609 203.778 71.4882 203.523C72.7117 203.268 74.1001 203.248 75.0692 204.031C75.5017 204.426 75.8205 204.929 75.9922 205.489C76.1638 206.049 76.1821 206.644 76.0452 207.214C75.7594 208.35 75.1757 209.389 74.3544 210.224C71.6807 213.173 68.5602 215.571 64.5737 215.571Z" fill="#E6A92F"/>
<path d="M63.7084 230.6C63.633 230.287 63.5893 229.967 63.5778 229.645C63.5091 228.957 63.4197 228.091 63.3098 227.04C62.9307 224.16 63.0213 221.237 63.5778 218.386C64.1822 215.525 65.5367 212.875 67.5025 210.709C68.1066 210.067 68.7849 209.5 69.5232 209.018C69.7222 208.885 69.9287 208.763 70.1418 208.654C70.2121 208.609 70.2885 208.574 70.3686 208.551C69.3973 209.233 68.4969 210.012 67.6812 210.874C65.8077 213.037 64.5099 215.637 63.9077 218.435C63.1448 221.713 63.4266 224.799 63.5503 226.992C63.6259 228.091 63.6809 228.992 63.7084 229.61C63.7368 229.94 63.7368 230.271 63.7084 230.6Z" fill="#263238"/>
<path d="M52.6094 191.76C52.6722 191.884 52.725 192.012 52.7675 192.145C52.8706 192.44 53.008 192.832 53.173 193.272C53.5098 194.255 53.9909 195.684 54.5476 197.458C55.6955 200.997 57.2145 205.905 58.7747 211.369C60.3349 216.833 61.6271 221.81 62.5138 225.418C62.9605 227.226 63.3042 228.69 63.531 229.707C63.641 230.188 63.7234 230.573 63.7853 230.876C63.824 231.012 63.847 231.153 63.854 231.295C63.8007 231.165 63.757 231.032 63.7234 230.896L63.4073 229.741C63.1323 228.69 62.7199 227.246 62.2801 225.48C61.3384 221.885 60.005 216.923 58.4516 211.459C56.8983 205.994 55.4068 201.087 54.3277 197.526C53.7916 195.781 53.3586 194.351 53.0355 193.313C52.8981 192.846 52.7881 192.461 52.6987 192.165C52.652 192.034 52.622 191.898 52.6094 191.76Z" fill="#263238"/>
<path d="M58.8495 220.132C57.6157 217.562 55.7876 215.324 53.5167 213.601C51.2457 211.879 48.5972 210.722 45.7903 210.227C44.3607 209.987 42.608 210.069 41.8451 211.299C41.0822 212.53 41.8039 214.145 42.6836 215.3C44.5672 217.672 47.1105 219.434 49.9933 220.363C52.8761 221.293 55.9695 221.348 58.8839 220.523" fill="#E6A92F"/>
<path d="M47.6114 214.275C47.9122 214.287 48.2113 214.326 48.505 214.392C48.8546 214.447 49.2011 214.52 49.5428 214.612C49.9415 214.729 50.4089 214.812 50.9175 214.997C51.4619 215.172 51.9965 215.376 52.5189 215.609C53.1207 215.863 53.7081 216.15 54.2785 216.468C55.5873 217.209 56.8092 218.095 57.9213 219.107C59.0108 220.14 59.9793 221.293 60.8081 222.544C61.1662 223.095 61.4921 223.667 61.7841 224.255C62.0471 224.76 62.2767 225.281 62.4714 225.816C62.647 226.251 62.7984 226.697 62.9251 227.149C63.0364 227.484 63.1259 227.826 63.1931 228.173C63.2699 228.466 63.3205 228.765 63.3443 229.067C63.2687 229.067 63.0419 227.809 62.2515 225.905C62.0374 225.383 61.7941 224.874 61.5229 224.379C61.2263 223.807 60.8981 223.252 60.54 222.716C58.8982 220.247 56.6992 218.199 54.1204 216.736C53.5617 216.412 52.9858 216.118 52.3952 215.856C51.8522 215.588 51.3161 215.403 50.835 215.217C48.8761 214.537 47.5977 214.351 47.6114 214.275Z" fill="#263238"/>
<path d="M218.816 6.61817C213.573 6.26491 208.329 7.27141 203.59 9.54018C198.851 11.809 194.778 15.2631 191.766 19.5681C188.753 23.8731 186.904 28.883 186.397 34.1126C185.889 39.3421 186.741 44.6142 188.869 49.418C192.416 57.4391 199.289 63.6663 202.32 71.9142C204.382 77.5365 204.561 83.7362 206.684 89.3379C211.049 100.857 224.376 108.184 236.439 105.703C243.683 104.219 250.185 99.689 257.581 99.2285C265.499 98.7336 274.517 102.761 280.792 97.8951C285.177 94.4928 285.919 87.9632 284.332 82.6502C282.744 77.3372 279.321 72.8008 276.51 68.017C273.699 63.2332 271.41 57.7071 272.455 52.2566C273.396 47.3148 276.902 43.3214 279.101 38.7919C281.176 34.5332 282.092 29.8033 281.759 25.078C281.425 20.3526 279.853 15.7984 277.201 11.8733C274.549 7.94827 270.91 4.79079 266.65 2.71844C262.39 0.646098 257.66 -0.268043 252.935 0.0679537C246.639 0.514716 240.735 3.1403 234.679 4.87924C228.624 6.61817 225.593 6.85186 218.816 6.61817Z" fill="#F5F5F5"/>
<path d="M233.918 26.8223C233.918 26.8223 222.268 26.7055 218.261 36.8298C214.254 46.9541 218.845 51.841 220.639 54.8171C222.433 57.7932 227.251 64.2678 227.292 70.3713L242.943 70.2682C243.754 64.8656 245.623 59.6759 248.441 54.9958C253.122 47.2015 252.565 41.5173 251.287 38.1219C250.008 34.7266 245.836 26.3206 233.918 26.8223Z" fill="#E6A92F"/>
<path d="M237.47 69.8492L237.429 69.6017C237.429 69.4299 237.367 69.1962 237.319 68.9144C237.223 68.2683 237.092 67.3404 236.92 66.1651C236.597 63.7663 236.116 60.2816 235.814 55.9514C235.738 54.8655 235.676 53.7314 235.642 52.5148C235.607 51.2982 235.58 50.0954 235.642 48.817C235.696 47.4826 236.006 46.1712 236.556 44.9542C237.155 43.6461 238.214 42.604 239.532 42.0262C240.24 41.7471 241.014 41.6784 241.76 41.8284C242.506 41.9784 243.193 42.3406 243.738 42.8716C244.021 43.148 244.244 43.4786 244.395 43.8436C244.547 44.2086 244.622 44.6004 244.618 44.9955C244.594 45.7992 244.309 46.5734 243.807 47.2018C243.312 47.8425 242.668 48.3522 241.931 48.6864C241.197 49.029 240.424 49.2784 239.628 49.4287C238.016 49.7488 236.378 49.9236 234.734 49.9511C233.094 49.9957 231.452 49.9014 229.827 49.6693C229.026 49.5428 228.245 49.3117 227.504 48.9819C226.772 48.6583 226.113 48.1908 225.566 47.6073C225.023 47.0295 224.643 46.3179 224.466 45.5453C224.303 44.7709 224.407 43.9641 224.761 43.2565C225.097 42.5534 225.679 41.9981 226.397 41.6963C226.753 41.5678 227.132 41.5125 227.51 41.5337C227.888 41.555 228.257 41.6524 228.597 41.82C229.253 42.1431 229.814 42.6309 230.226 43.2359C230.608 43.8053 230.885 44.4384 231.044 45.1054C231.273 46.4081 231.39 47.728 231.394 49.0507C231.504 51.6007 231.607 53.9719 231.696 56.1439C231.875 60.4672 232.013 63.9725 232.116 66.4057C232.157 67.6154 232.191 68.5501 232.219 69.1962C232.219 69.5124 232.219 69.7529 232.219 69.9248C232.219 70.0966 232.219 70.1722 232.219 70.1722V69.9248C232.219 69.7529 232.219 69.5124 232.178 69.2375C232.178 68.5914 232.088 67.6497 232.026 66.4469C231.91 64.0138 231.745 60.5084 231.532 56.1851C231.435 54.02 231.318 51.6419 231.202 49.0988C231.194 47.7874 231.074 46.479 230.844 45.1879C230.702 44.5244 230.439 43.8929 230.068 43.3253C229.678 42.7523 229.145 42.2923 228.521 41.9918C228.209 41.8357 227.868 41.7448 227.519 41.7247C227.171 41.7046 226.822 41.7557 226.493 41.875C225.83 42.1562 225.294 42.6727 224.988 43.3253C224.655 43.9855 224.558 44.7398 224.713 45.4628C224.881 46.2025 225.244 46.8836 225.765 47.4355C226.872 48.5547 228.326 49.2668 229.889 49.4562C231.498 49.689 233.123 49.7832 234.748 49.738C236.376 49.7102 237.997 49.5377 239.594 49.2225C240.372 49.0757 241.129 48.8333 241.848 48.5008C242.545 48.1888 243.16 47.7181 243.642 47.1262C244.109 46.5375 244.377 45.8152 244.405 45.0642C244.41 44.6987 244.341 44.336 244.201 43.9981C244.062 43.6602 243.855 43.3542 243.594 43.0984C243.081 42.599 242.434 42.2582 241.732 42.1168C241.03 41.9754 240.302 42.0394 239.635 42.3011C238.366 42.8559 237.344 43.8559 236.762 45.1123C236.224 46.3061 235.919 47.5914 235.862 48.8995C235.779 50.1642 235.814 51.3945 235.862 52.5767C235.91 53.7589 235.951 54.893 236.013 55.9721C236.295 60.3022 236.755 63.7801 237.051 66.1926L237.401 68.9419C237.438 69.2489 237.465 69.4895 237.484 69.6636C237.482 69.7256 237.477 69.7875 237.47 69.8492Z" fill="#263238"/>
<path d="M227.285 70.14L242.991 69.8926L243.162 79.8176L238.599 85.2612L232.578 85.5155L227.478 79.4258L227.285 70.14Z" fill="#E0E0E0"/>
<path d="M238.597 85.2622C238.188 84.8443 237.698 84.515 237.156 84.2951C236.614 84.0751 236.033 83.9691 235.449 83.9837C234.872 84.0195 234.308 84.1763 233.795 84.4439C233.283 84.7115 232.832 85.084 232.473 85.5371L238.597 85.2622Z" fill="#455A64"/>
<path d="M242.741 78.9991C242.542 78.9413 242.351 78.8606 242.17 78.7586C241.813 78.5867 241.284 78.3599 240.617 78.1193C237.102 76.8678 233.251 76.9485 229.792 78.3462C229.139 78.6142 228.616 78.8617 228.266 79.0335C228.086 79.1353 227.9 79.2248 227.709 79.3015C227.865 79.1656 228.035 79.048 228.218 78.951C228.703 78.6574 229.208 78.3979 229.73 78.1743C233.206 76.6652 237.136 76.5837 240.672 77.9475C241.199 78.1443 241.713 78.3738 242.212 78.6348C242.398 78.7413 242.575 78.8631 242.741 78.9991Z" fill="#263238"/>
<path d="M242.762 76.5938C242.567 76.5244 242.376 76.4417 242.192 76.3464C241.834 76.1814 241.305 75.9477 240.638 75.714C238.895 75.1004 237.056 74.8025 235.209 74.8343C233.358 74.8755 231.53 75.2504 229.813 75.9408C229.126 76.202 228.638 76.4563 228.287 76.6282C228.113 76.7388 227.926 76.8288 227.73 76.8962C227.89 76.766 228.06 76.6488 228.239 76.5457C228.726 76.2576 229.231 76.0004 229.751 75.7759C233.227 74.2668 237.158 74.1853 240.693 75.5491C241.223 75.74 241.737 75.9698 242.233 76.2364C242.423 76.334 242.601 76.454 242.762 76.5938Z" fill="#263238"/>
<path d="M242.639 74.296C242.443 74.2359 242.255 74.1553 242.076 74.0555C241.711 73.8836 241.182 73.6568 240.515 73.4163C238.772 72.8013 236.933 72.5034 235.086 72.5365C233.238 72.5844 231.414 72.9591 229.697 73.6431C229.01 73.9111 228.522 74.1586 228.171 74.3304C227.991 74.4348 227.802 74.5245 227.607 74.5985C227.765 74.4617 227.938 74.344 228.123 74.2479C228.607 73.9555 229.11 73.696 229.628 73.4712C233.107 71.9646 237.039 71.8832 240.577 73.2444C241.104 73.4412 241.618 73.6708 242.117 73.9318C242.302 74.0368 242.477 74.1587 242.639 74.296Z" fill="#263238"/>
<g opacity="0.2">
<path d="M225.409 54.8329C225.196 55.0734 224.653 55.0322 223.869 54.6267C222.795 54.0167 221.859 53.1905 221.12 52.2004C219.991 50.7324 219.17 49.0515 218.707 47.2585C218.105 45.0118 218.05 42.6533 218.547 40.3809C219.045 38.1086 220.08 35.9888 221.567 34.1993C222.733 32.7609 224.181 31.5752 225.821 30.7146C226.901 30.1228 228.093 29.7623 229.32 29.6561C230.192 29.6149 230.694 29.8004 230.804 30.1097C231.004 30.7971 229.54 31.7181 227.794 33.4914C226.787 34.495 225.899 35.6112 225.147 36.818C224.263 38.2318 223.622 39.7837 223.25 41.4094C222.913 43.0415 222.845 44.718 223.051 46.3719C223.234 47.7805 223.575 49.1639 224.068 50.4958C224.921 52.8396 225.862 54.3105 225.409 54.8329Z" fill="white"/>
</g>
<g opacity="0.2">
<path d="M230.425 60.3845C230.38 60.8083 230.213 61.2099 229.943 61.5403C229.674 61.8707 229.314 62.1157 228.908 62.2455C228.502 62.3754 228.067 62.3844 227.656 62.2716C227.245 62.1588 226.876 61.929 226.593 61.6101C226.31 61.2912 226.126 60.897 226.063 60.4754C226 60.0538 226.061 59.623 226.239 59.2354C226.416 58.8478 226.702 58.5201 227.062 58.2921C227.422 58.0642 227.841 57.9458 228.267 57.9514C228.875 57.9921 229.441 58.2701 229.845 58.7254C230.249 59.1807 230.458 59.7767 230.425 60.3845Z" fill="white"/>
</g>
<path d="M215.131 30.4901C215.09 30.5382 213.069 29.1155 210.677 27.2734C208.285 25.4314 206.333 23.9124 206.368 23.8368C206.402 23.7612 208.43 25.2115 210.822 27.0535C213.213 28.8955 215.172 30.4351 215.131 30.4901Z" fill="#263238"/>
<path d="M218.424 26.1234C217.744 25.4692 217.121 24.7588 216.561 23.9996C215.939 23.2932 215.375 22.5369 214.877 21.7383C215.56 22.3914 216.185 23.1019 216.746 23.8621C217.37 24.5659 217.931 25.3225 218.424 26.1234Z" fill="#263238"/>
<path d="M225.593 25.1207C225.531 25.1207 224.734 22.9281 223.813 20.1788C222.892 17.4295 222.198 15.1751 222.26 15.1544C222.322 15.1338 223.119 17.347 224.04 20.0963C224.961 22.8456 225.655 25.1001 225.593 25.1207Z" fill="#263238"/>
<path d="M234.398 23.2178C234.167 22.3997 234.01 21.5623 233.93 20.7159C233.773 19.8798 233.697 19.0304 233.704 18.1797C233.935 18.9976 234.092 19.8351 234.171 20.6816C234.328 21.5176 234.404 22.367 234.398 23.2178Z" fill="#263238"/>
<path d="M243.036 26.2009C242.967 26.2009 243.634 23.5685 244.521 20.3587C245.407 17.1488 246.184 14.5576 246.246 14.5782C246.308 14.5989 245.641 17.2107 244.754 20.4205C243.868 23.6303 243.098 26.2216 243.036 26.2009Z" fill="#263238"/>
<path d="M250.316 29.7973C250.736 28.9427 251.226 28.1242 251.78 27.3504C252.266 26.5332 252.822 25.7604 253.444 25.041C253.024 25.8957 252.534 26.7141 251.98 27.4879C251.494 28.3051 250.938 29.0779 250.316 29.7973Z" fill="#263238"/>
<path d="M261.836 28.2848C261.87 28.3397 259.849 29.8656 257.313 31.7214C254.777 33.5772 252.694 34.9931 252.653 34.9381C252.612 34.8831 254.639 33.3572 257.176 31.5014C259.712 29.6457 261.836 28.2298 261.836 28.2848Z" fill="#263238"/>
</svg>
