<svg width="320" height="320" viewBox="0 0 320 320" fill="none" xmlns="http://www.w3.org/2000/svg">
<g clip-path="url(#clip0_5824_40255)">
<rect width="320" height="320" rx="160" fill="#D9D9D9"/>
<path d="M320 160C320 204.778 301.622 245.231 271.979 274.281C271.805 274.455 271.595 274.629 271.421 274.839C268.98 277.21 266.469 279.477 263.888 281.674C258.797 286.033 253.426 290.078 247.847 293.74C222.633 310.34 192.432 320 160 320C127.568 320 97.3671 310.34 72.1534 293.74C66.5388 290.044 61.1683 285.998 56.1116 281.674C53.531 279.477 51.0201 277.175 48.5789 274.839C48.4045 274.664 48.1953 274.49 48.0209 274.281C18.3784 245.231 0 204.778 0 160C0 71.6303 71.6304 0 160 0C248.37 0 320 71.6652 320 160Z" fill="#D9D9D9"/>
<path d="M239.497 80.5039H78.4902V241.51H239.497V80.5039Z" fill="#374952"/>
<path d="M174.088 80.5039H143.899V135.593H174.088V80.5039Z" fill="#B8CCCF"/>
<path d="M107.242 204.598H97.8975V230.012H107.242V204.598Z" fill="#B8CCCF"/>
<path d="M86.0889 207.318L102.569 186.012L119.101 207.318H86.0889Z" fill="#B8CCCF"/>
<path d="M140.254 204.598H130.91V230.012H140.254V204.598Z" fill="#B8CCCF"/>
<path d="M119.102 207.318L135.633 186.012L152.114 207.318H119.102Z" fill="#B8CCCF"/>
</g>
<defs>
<clipPath id="clip0_5824_40255">
<rect width="320" height="320" rx="160" fill="white"/>
</clipPath>
</defs>
</svg>
