<svg width="285" height="267" viewBox="0 0 285 267" fill="none" xmlns="http://www.w3.org/2000/svg">
<path d="M155.629 211.596H90.333V261.959H155.629V211.596Z" fill="#EBEBEB"/>
<path d="M139.272 261.608C139.185 261.608 139.109 250.379 139.109 236.53C139.109 222.681 139.185 211.452 139.272 211.452C139.36 211.452 139.435 222.681 139.435 236.53C139.435 250.379 139.36 261.608 139.272 261.608Z" fill="#E0E0E0"/>
<path d="M150.093 250.499H145.09V256.16H150.093V250.499Z" fill="#FAFAFA"/>
<path d="M117.674 211.728H110.257V222.474H117.674V211.728Z" fill="#E0E0E0"/>
<path d="M117.674 251.062H110.257V261.808H117.674V251.062Z" fill="#E0E0E0"/>
<path d="M274.116 198.97H191.779V262.473H274.116V198.97Z" fill="#EBEBEB"/>
<path d="M253.483 262.022C253.395 262.022 253.32 247.872 253.32 230.411C253.32 212.951 253.395 198.801 253.483 198.801C253.571 198.801 253.646 212.951 253.646 230.411C253.646 247.872 253.577 262.022 253.483 262.022Z" fill="#E0E0E0"/>
<path d="M267.132 248.016H260.819V255.15H267.132V248.016Z" fill="#FAFAFA"/>
<path d="M226.249 199.132H216.895V212.681H226.249V199.132Z" fill="#E0E0E0"/>
<path d="M226.249 248.73H216.895V262.279H226.249V248.73Z" fill="#E0E0E0"/>
<path d="M36.6981 200.838C40.0335 199.12 43.9582 198.894 47.6572 199.509C49.6446 199.835 51.7135 200.43 53.0677 201.922C54.4219 203.415 54.6727 206.041 53.1241 207.327C52.1962 208.092 50.911 208.204 49.7073 208.192C46.8108 208.154 43.6008 207.646 41.2874 209.389C39.9645 210.386 39.0868 212.035 37.5257 212.524C35.9646 213.013 34.2405 212.092 33.4255 210.7C32.6715 209.248 32.5053 207.562 32.9615 205.991C33.1461 204.903 33.5793 203.872 34.2274 202.978C34.8754 202.084 35.7209 201.352 36.6981 200.838Z" fill="#EBEBEB"/>
<path d="M29.061 186.099C31.0986 189.008 35.0609 188.048 36.8979 186.268C38.7348 184.487 39.5122 181.917 40.2144 179.465C41.8319 173.854 43.4557 167.967 42.2583 162.256C41.9699 160.524 41.2083 158.905 40.0577 157.579C39.4751 156.927 38.7325 156.44 37.9033 156.163C37.0741 155.887 36.1872 155.833 35.3305 156.005C33.3305 156.532 32.0892 158.513 31.1927 160.35C28.5494 165.841 27.1657 171.854 27.1426 177.948C27.1426 180.788 27.4623 183.76 29.061 186.099Z" fill="#EBEBEB"/>
<path d="M23.469 190.274C25.6822 187.647 26.1022 183.823 25.1179 180.531C24.1336 177.24 21.9079 174.443 19.3437 172.155C16.3278 169.473 12.8185 167.403 9.01166 166.061C7.53622 165.465 5.94921 165.196 4.35972 165.271C3.5668 165.316 2.79697 165.555 2.1173 165.966C1.43762 166.377 0.868705 166.948 0.460113 167.629C-0.630773 169.704 0.416227 172.218 1.54473 174.274C3.53203 177.892 5.80018 181.349 8.32829 184.613C10.3659 187.233 12.7169 189.822 15.7952 191.007C18.8735 192.192 22.1211 192.054 23.7637 189.904" fill="#EBEBEB"/>
<path d="M28.9233 229.997C29.0322 229.566 29.0952 229.125 29.1114 228.68C29.2055 227.715 29.3183 226.505 29.4625 225.069C29.6422 223.293 29.9122 221.527 30.2713 219.778C30.7424 217.639 31.386 215.543 32.196 213.508C32.9904 211.487 34.0646 209.588 35.3871 207.866C36.4684 206.465 37.8447 205.32 39.4184 204.512C40.4887 203.984 41.6354 203.629 42.8165 203.458C43.261 203.441 43.7024 203.376 44.133 203.264C43.6893 203.215 43.2414 203.215 42.7977 203.264C41.5712 203.356 40.3714 203.669 39.2554 204.186C37.5936 204.97 36.1364 206.128 34.9984 207.571C33.6142 209.316 32.4985 211.258 31.6882 213.333C30.8792 215.392 30.2499 217.516 29.8073 219.684C29.4662 221.455 29.2297 223.245 29.0989 225.044C28.986 226.58 28.9421 227.821 28.9233 228.68C28.8771 229.118 28.8771 229.559 28.9233 229.997Z" fill="#E0E0E0"/>
<path d="M29.1744 227.226C29.2116 227.019 29.2242 226.809 29.212 226.599C29.212 226.135 29.212 225.552 29.212 224.844C29.212 223.32 29.212 221.114 29.2872 218.393C29.4252 212.951 29.9142 207.108 30.7982 198.838C31.6571 191.07 32.8044 182.036 34.0207 176.161C34.2777 174.826 34.541 173.622 34.7918 172.569C35.0426 171.516 35.2244 170.6 35.4188 169.867C35.6131 169.133 35.7197 168.613 35.8325 168.162C35.8939 167.958 35.9297 167.747 35.9391 167.535C35.8447 167.717 35.7731 167.911 35.726 168.111C35.588 168.557 35.4188 169.108 35.2119 169.792C35.005 170.475 34.7542 171.428 34.4909 172.475C34.2276 173.522 33.9266 174.726 33.6445 176.061C32.1384 183.009 31.0062 190.032 30.2527 197.101C29.3499 205.377 28.9424 212.913 28.9048 218.367C28.9048 221.095 28.9048 223.308 28.9988 224.831C29.0427 225.54 29.0803 226.123 29.1054 226.58C29.1024 226.798 29.1255 227.015 29.1744 227.226Z" fill="#E0E0E0"/>
<path d="M29.2118 212.694C29.2596 212.082 29.2596 211.468 29.2118 210.857C29.1428 209.678 28.9798 207.979 28.6475 205.891C28.2375 203.451 27.6891 201.035 27.0049 198.656C26.2143 195.729 25.202 192.866 23.9768 190.092C21.8792 184.981 18.8688 180.295 15.093 176.262C14.4378 175.569 13.7383 174.92 12.999 174.318C12.6792 174.043 12.372 173.773 12.1087 173.56L11.3313 173.002C10.8434 172.629 10.3254 172.298 9.78273 172.011C9.69496 172.13 11.9708 173.472 14.8422 176.525C18.4946 180.596 21.4249 185.261 23.5066 190.318C24.7107 193.074 25.7265 195.908 26.5473 198.801C27.2367 201.157 27.8079 203.547 28.2588 205.96C28.635 208.023 28.8858 209.722 28.9861 210.876C29.0129 211.487 29.0884 212.095 29.2118 212.694Z" fill="#E0E0E0"/>
<path d="M14.1899 236.116L15.6445 256.072H41.2803L42.7348 236.116H14.1899Z" fill="#EBEBEB"/>
<path d="M45.7884 228.254H11.7139V236.116H45.7884V228.254Z" fill="#EBEBEB"/>
<path d="M11.7139 255.308V257.483H13.3188H45.2304V255.308H11.7139Z" fill="#E0E0E0"/>
<path d="M14.8862 261.081L13.3188 257.244H44.0079L42.1772 261.081H14.8862Z" fill="#E0E0E0"/>
<path d="M42.2588 242.637C42.2268 242.704 42.1868 242.767 42.1397 242.825C42.0394 242.956 41.9078 243.126 41.7573 243.332L40.2652 245.213L40.1962 245.301L40.1335 245.213L36.4659 240.141H36.6728L33.0615 245.251L32.9487 245.414L32.8233 245.264L28.5413 240.166H28.7858L28.5538 240.467L24.7232 245.264L24.5915 245.426L24.4786 245.257L20.8612 240.148H21.0743L16.623 245.213L16.5478 245.307L16.4851 245.201L15.0933 242.894C14.9428 242.643 14.8299 242.436 14.7359 242.267C14.6886 242.197 14.6507 242.121 14.623 242.041C14.6817 242.101 14.7323 242.168 14.7735 242.242L15.1685 242.837L16.6293 245.138H16.4913L20.88 240.01L20.9866 239.878L21.0869 240.016L24.7357 245.107H24.4975L28.3156 240.298C28.3971 240.198 28.4786 240.097 28.5475 240.003L28.6729 239.847L28.7983 239.997L33.0678 245.107H32.8296L36.4784 240.022L36.585 239.872L36.6853 240.022C38.1335 242.085 39.3624 243.834 40.2777 245.151H40.146L41.7009 243.27C41.8701 243.075 42.0081 242.919 42.1146 242.787C42.159 242.733 42.2072 242.683 42.2588 242.637Z" fill="#F5F5F5"/>
<path d="M43.0929 235.985C43.0929 236.072 36.6667 236.148 28.7483 236.148C20.83 236.148 14.4038 236.072 14.4038 235.985C14.4038 235.897 20.8237 235.828 28.7483 235.828C36.6729 235.828 43.0929 235.897 43.0929 235.985Z" fill="#F5F5F5"/>
<path d="M222.876 9.7516L217.623 9.78003L217.764 35.9233L223.018 35.8949L222.876 9.7516Z" fill="#E0E0E0"/>
<path d="M185.713 9.82117L172.108 9.89478L172.186 24.3269L185.791 24.2533L185.713 9.82117Z" fill="#EBEBEB"/>
<path d="M199.253 9.74792L185.649 9.82153L185.727 24.2536L199.332 24.18L199.253 9.74792Z" fill="#F5F5F5"/>
<path d="M172.124 13.8891C181.169 13.9643 190.218 13.9225 199.271 13.7637C199.309 13.7637 199.346 13.7485 199.373 13.7215C199.4 13.6944 199.415 13.6578 199.415 13.6195C199.415 13.5813 199.4 13.5446 199.373 13.5175C199.346 13.4905 199.309 13.4753 199.271 13.4753C190.23 13.4252 181.164 13.4753 172.124 13.6446C172.096 13.6509 172.071 13.6664 172.054 13.6886C172.036 13.7109 172.026 13.7384 172.026 13.7668C172.026 13.7953 172.036 13.8228 172.054 13.845C172.071 13.8672 172.096 13.8828 172.124 13.8891Z" fill="#E0E0E0"/>
<path d="M188.348 24.0132L163.627 24.147L163.691 35.9083L188.411 35.7746L188.348 24.0132Z" fill="#EBEBEB"/>
<path d="M212.948 23.8802L188.228 24.0139L188.291 35.7753L213.011 35.6415L212.948 23.8802Z" fill="#F5F5F5"/>
<path d="M163.642 27.4307C180.061 27.6125 196.537 27.4307 212.963 27.1862C213.002 27.1862 213.038 27.171 213.065 27.144C213.092 27.1169 213.108 27.0803 213.108 27.042C213.108 27.0038 213.092 26.9671 213.065 26.9401C213.038 26.913 213.002 26.8978 212.963 26.8978C196.544 26.81 180.061 26.8163 163.642 27.1799C163.608 27.1799 163.576 27.1932 163.553 27.2167C163.529 27.2402 163.516 27.2721 163.516 27.3053C163.516 27.3386 163.529 27.3705 163.553 27.394C163.576 27.4175 163.608 27.4307 163.642 27.4307Z" fill="#E0E0E0"/>
<path d="M250.166 35.9197H154.394V40.1328H250.166V35.9197Z" fill="#E0E0E0"/>
<path d="M173.961 37.9446H170.074V52.3205H173.961V37.9446Z" fill="#E0E0E0"/>
<path d="M231.997 37.9446H228.11V52.3205H231.997V37.9446Z" fill="#E0E0E0"/>
<path d="M228.003 -0.000105419L222.749 0.0283203L222.944 35.9832L228.197 35.9547L228.003 -0.000105419Z" fill="#EBEBEB"/>
<path d="M236.208 6.69485L228.045 6.73901L228.203 35.8791L236.365 35.8349L236.208 6.69485Z" fill="#F5F5F5"/>
<path d="M236.154 12.3213C233.441 12.513 230.717 12.513 228.004 12.3213C230.718 12.138 233.441 12.138 236.154 12.3213Z" fill="#E0E0E0"/>
<path d="M236.154 11.1301C234.798 11.2673 233.435 11.3134 232.073 11.268C230.711 11.3131 229.347 11.267 227.991 11.1301C230.705 10.9384 233.428 10.9384 236.142 11.1301H236.154Z" fill="#E0E0E0"/>
<path d="M236.154 31.4622C233.441 31.6539 230.717 31.6539 228.004 31.4622C230.718 31.2789 233.441 31.2789 236.154 31.4622Z" fill="#E0E0E0"/>
<path d="M236.154 30.2397C233.441 30.423 230.718 30.423 228.004 30.2397C230.717 30.048 233.441 30.048 236.154 30.2397Z" fill="#E0E0E0"/>
<path d="M232.204 27.5686C232.129 27.5686 232.066 24.6282 232.066 21.0045C232.066 17.3807 232.129 14.4341 232.204 14.4341C232.28 14.4341 232.349 17.3745 232.349 21.0045C232.349 24.6345 232.286 27.5686 232.204 27.5686Z" fill="#E0E0E0"/>
<path d="M245.132 13.8638H236.248V35.857H245.132V13.8638Z" fill="#EBEBEB"/>
<path d="M225.295 7.66299C226.13 7.66299 226.806 6.98652 226.806 6.15205C226.806 5.31758 226.13 4.64111 225.295 4.64111C224.461 4.64111 223.784 5.31758 223.784 6.15205C223.784 6.98652 224.461 7.66299 225.295 7.66299Z" fill="#E0E0E0"/>
<path d="M225.766 10.3088H224.832V31.7002H225.766V10.3088Z" fill="#E0E0E0"/>
<path d="M276.944 262.128C276.944 262.222 216.682 262.291 142.37 262.291C68.0578 262.291 7.7832 262.222 7.7832 262.128C7.7832 262.034 68.0328 261.965 142.37 261.965C216.707 261.965 276.944 262.041 276.944 262.128Z" fill="#263238"/>
<path d="M79.1722 32.0386C82.1288 35.6568 83.7297 40.1935 83.6988 44.8659C83.6674 47.5116 83.1784 50.4269 84.7207 52.5773C85.8868 54.2074 88.0185 55.0287 88.9651 56.7967C90.1062 58.922 89.1344 61.6116 89.8366 63.9188C90.8272 67.1915 94.6641 68.5645 96.9399 71.1161C97.91 72.2445 98.5887 73.5935 98.9166 75.045C99.2445 76.4964 99.2116 78.0062 98.8207 79.442C98.4062 80.8718 97.6563 82.182 96.6334 83.2637C95.6106 84.3455 94.3444 85.1674 92.94 85.6613C91.4404 86.2524 89.7677 86.2254 88.288 85.5861C86.752 84.8212 85.7803 83.2476 85.0279 81.7115C83.517 78.6897 70.2445 62.3577 69.4922 59.06" fill="#263238"/>
<path d="M69.5176 28.1891C64.0883 27.3114 58.8595 30.9163 56.5837 35.9193C54.3079 40.9224 54.2327 46.5774 54.0759 52.0945C53.9192 57.6117 53.518 63.3294 50.7155 68.0566C48.935 71.0597 46.1764 73.6991 45.7438 77.1536C45.3551 80.2507 46.9601 83.3729 46.4272 86.4512C45.9632 89.1345 43.9194 91.4668 44.0009 94.1815C44.1012 97.4541 47.4679 99.918 50.7343 100.006C54.0007 100.094 57.0602 98.382 59.6244 96.3507C63.8022 93.0336 67.1453 88.7845 69.386 83.9434" fill="#263238"/>
<path d="M60.5841 41.1293C60.4135 39.7636 60.5191 38.3775 60.8945 37.0534C61.2699 35.7292 61.9075 34.4939 62.7694 33.4209C63.6313 32.3479 64.7 31.4589 65.9121 30.8069C67.1242 30.1548 68.4549 29.7528 69.8253 29.6249C75.2985 29.0982 80.1699 33.1797 80.9912 38.6215C81.7122 43.3926 82.3266 48.2076 82.3078 49.9567C82.2388 55.2294 79.173 57.2795 77.9192 57.9002C77.4681 58.062 77.0018 58.1776 76.5273 58.245V58.2826L77.6935 64.3389C78.2264 68.3075 76.0132 71.8622 72.0509 72.4202C68.0886 72.9782 64.9727 69.9501 64.3646 65.9815L60.5841 41.1293Z" fill="#FFBE9D"/>
<path d="M79.9127 40.929C79.8249 41.0544 79.129 40.6845 78.2387 40.8161C77.3485 40.9478 76.7529 41.487 76.64 41.3929C76.5272 41.2989 76.64 41.1421 76.9159 40.8914C77.2587 40.5574 77.6969 40.3383 78.1698 40.2644C78.6337 40.1929 79.1083 40.272 79.524 40.4901C79.8375 40.6907 79.9566 40.8788 79.9127 40.929Z" fill="#263238"/>
<path d="M71.9752 42.8596C71.8874 42.985 71.1915 42.6088 70.295 42.7405C69.3984 42.8721 68.8154 43.4176 68.7025 43.3235C68.5897 43.2295 68.7025 43.0665 68.9784 42.822C69.3212 42.488 69.7594 42.2689 70.2323 42.195C70.6968 42.1289 71.1704 42.21 71.5865 42.427C71.8937 42.6213 72.0191 42.8032 71.9752 42.8596Z" fill="#263238"/>
<path d="M75.2298 47.6436C75.6782 47.4279 76.1522 47.2699 76.6404 47.1734C76.8661 47.117 77.073 47.0417 77.0918 46.8787C77.0715 46.6497 76.9843 46.4316 76.841 46.2518L75.9069 44.5841C74.6091 42.2519 73.6373 40.3209 73.7314 40.2644C73.8254 40.208 74.9853 42.07 76.2392 44.4023C76.5589 44.9791 76.8661 45.5308 77.142 46.0511C77.3242 46.3061 77.4127 46.6161 77.3928 46.9289C77.3721 47.0144 77.3319 47.094 77.2753 47.1615C77.2188 47.2289 77.1474 47.2823 77.0667 47.3176C76.9445 47.3711 76.816 47.409 76.6843 47.4304C76.2108 47.5646 75.7218 47.6363 75.2298 47.6436Z" fill="#263238"/>
<path d="M76.4777 58.2514C76.4777 58.2514 73.0733 59.0351 68.3838 57.0728C68.3838 57.0728 70.4088 61.43 76.7974 59.8815L76.4777 58.2514Z" fill="#EB996E"/>
<path d="M71.5181 40.5213C71.468 40.7784 70.5589 40.7909 69.5307 41.073C68.5025 41.3552 67.6937 41.7564 67.5245 41.5621C67.4492 41.468 67.5621 41.2172 67.8693 40.9351C68.2829 40.5813 68.7717 40.3263 69.2985 40.1894C69.8254 40.0526 70.3764 40.0374 70.91 40.1452C71.3238 40.2392 71.5181 40.4022 71.5181 40.5213Z" fill="#263238"/>
<path d="M79.1786 38.954C79.0533 39.1797 78.4075 39.0606 77.6677 39.1546C76.9279 39.2487 76.3198 39.4932 76.1442 39.2988C76.069 39.2048 76.1442 38.9916 76.3825 38.7597C76.7112 38.4682 77.1238 38.2882 77.5611 38.2456C77.993 38.1935 78.4304 38.2745 78.815 38.4775C79.116 38.6468 79.2351 38.8412 79.1786 38.954Z" fill="#263238"/>
<path d="M70.0385 44.0133C70.0523 44.1103 70.0852 44.2037 70.1354 44.2879C70.1855 44.3721 70.2519 44.4454 70.3306 44.5038C70.4094 44.5621 70.4989 44.6042 70.5941 44.6276C70.6892 44.6511 70.7881 44.6554 70.8849 44.6403C70.9791 44.6294 71.0701 44.6 71.1528 44.5536C71.2354 44.5073 71.308 44.4449 71.3664 44.3703C71.4247 44.2956 71.4676 44.21 71.4926 44.1186C71.5176 44.0272 71.5241 43.9318 71.5119 43.8378C71.4825 43.6426 71.3769 43.467 71.2182 43.3494C71.0596 43.2319 70.8608 43.1821 70.6655 43.2108C70.571 43.2209 70.4795 43.2498 70.3964 43.2959C70.3134 43.342 70.2404 43.4043 70.1819 43.4792C70.1234 43.5541 70.0806 43.6399 70.056 43.7317C70.0313 43.8235 70.0254 43.9192 70.0385 44.0133Z" fill="#263238"/>
<path d="M77.9443 42.3021C77.9737 42.4974 78.0793 42.673 78.238 42.7905C78.3966 42.908 78.5954 42.9578 78.7907 42.9291C78.8848 42.9183 78.9759 42.8888 79.0585 42.8424C79.1412 42.7961 79.2138 42.7338 79.2721 42.6591C79.3305 42.5844 79.3734 42.4989 79.3984 42.4075C79.4233 42.316 79.4299 42.2206 79.4176 42.1266C79.3882 41.9314 79.2826 41.7558 79.124 41.6383C78.9653 41.5207 78.7666 41.4709 78.5713 41.4997C78.4768 41.5097 78.3853 41.5386 78.3022 41.5847C78.2191 41.6308 78.1462 41.6931 78.0877 41.768C78.0292 41.8429 77.9863 41.9287 77.9617 42.0205C77.9371 42.1123 77.9312 42.208 77.9443 42.3021Z" fill="#263238"/>
<path d="M76.6338 49.3738C76.3877 49.2972 76.1225 49.3092 75.8843 49.4077C75.6461 49.5062 75.4499 49.685 75.3297 49.913C75.2149 50.1224 75.1684 50.3624 75.1964 50.5995C75.2245 50.8366 75.3259 51.0591 75.4865 51.2358C75.6573 51.4037 75.8823 51.5053 76.1212 51.5225C76.3601 51.5398 76.5973 51.4715 76.7905 51.3299C77.0324 51.1097 77.1786 50.8037 77.198 50.4772C77.2406 50.1779 77.169 49.8735 76.9974 49.6246C76.9093 49.5029 76.7836 49.4136 76.6397 49.3705C76.4957 49.3275 76.3416 49.333 76.2012 49.3863" fill="#EB996E"/>
<path d="M80.2954 34.3272C79.8032 32.3408 78.5752 30.6154 76.8597 29.4997C75.4554 28.4854 73.7874 27.8996 72.0573 27.8132C70.3164 27.7383 68.6167 28.3559 67.3301 29.5311C66.4171 30.436 65.895 31.6626 65.8756 32.9479L65.9759 32.0702C65.7125 32.7844 65.7125 33.5691 65.9759 34.2833C66.1201 34.6658 66.2956 35.0545 66.4461 35.4369C66.8949 36.5421 67.7275 37.4481 68.7909 37.9886C69.2725 38.2469 69.8118 38.3785 70.3583 38.371C70.6318 38.3655 70.9009 38.3004 71.1467 38.1802C71.3925 38.06 71.6091 37.8876 71.7814 37.6751C72.1707 36.9955 72.2915 36.1948 72.12 35.4306C72.5314 36.1858 73.1184 36.8309 73.8315 37.3115C74.1956 37.5442 74.6288 37.6444 75.0581 37.5953C75.4874 37.5462 75.8867 37.3508 76.1889 37.0419C76.703 36.4149 76.5023 35.4244 76.1889 34.647C76.6739 35.3802 77.3533 35.9642 78.1512 36.3334C78.3611 36.4539 78.5938 36.5294 78.8345 36.5553C79.0751 36.5812 79.3185 36.5569 79.5493 36.4839C79.7338 36.3924 79.8951 36.2602 80.0211 36.0973C80.1471 35.9344 80.2344 35.7451 80.2765 35.5435C80.3696 35.1441 80.376 34.7293 80.2954 34.3272Z" fill="#263238"/>
<path d="M75.7622 35.9946C75.7057 35.9946 75.7183 35.2485 75.4738 34.1137C75.1917 32.6058 74.4336 31.2281 73.3108 30.1828C72.6937 29.6216 71.9491 29.2192 71.1416 29.0104C70.4802 28.8481 69.7914 28.831 69.1228 28.9602C68.5065 29.1043 67.9178 29.3478 67.3799 29.6812C67.3799 29.6812 67.4865 29.5245 67.7623 29.3239C68.1582 29.0469 68.6028 28.847 69.0726 28.7345C69.7758 28.5699 70.5074 28.5699 71.2105 28.7345C72.0769 28.9508 72.8747 29.3821 73.5302 29.9884C74.7059 31.0768 75.4736 32.5348 75.7057 34.12C75.7803 34.5886 75.8181 35.0624 75.8186 35.5369C75.8263 35.6916 75.8072 35.8464 75.7622 35.9946Z" fill="#455A64"/>
<path d="M133.504 109.09L109.398 99.5295C109.398 99.5295 97.0533 83.3354 97.3103 83.022L88.6396 92.5139L101.241 109.561L130.451 116.407L135.466 115.015C134.363 109.692 133.504 109.09 133.504 109.09Z" fill="#FFBE9D"/>
<path d="M80.9657 62.8906L77.6805 61.6367L63.499 63.4361V65.9438L63.0915 65.994C60.0345 66.644 57.1024 67.7829 54.4083 69.367C51.8847 70.9075 49.8795 73.1676 48.6505 75.8568C47.4216 78.546 47.025 81.5413 47.5119 84.4576C48.0887 88.0437 49.2046 92.401 51.3613 94.9213C55.4804 99.7425 59.242 93.7865 59.242 93.7865C59.242 93.7865 61.8251 99.6798 61.6746 102.47C61.5492 104.808 60.521 109.673 60.1887 111.191C60.1751 111.251 60.1739 111.314 60.1853 111.375C60.1967 111.436 60.2205 111.494 60.2551 111.546C60.2897 111.598 60.3345 111.642 60.3866 111.675C60.4388 111.709 60.4973 111.732 60.5586 111.742L90.4765 117.278L90.6207 109.962L89.6677 79.8683L88.3198 68.182C88.3198 68.182 88.3637 62.6022 80.9657 62.8906Z" fill="#FFBD39"/>
<path d="M87.8623 66.2385L99.2727 82.721L90.088 93.9057L87.8623 66.2385Z" fill="#FFBD39"/>
<path d="M90.326 100.921C90.285 100.568 90.2704 100.211 90.2821 99.8556C90.2821 99.1158 90.2821 98.144 90.2445 96.9591C90.189 93.7788 89.9609 90.6039 89.5611 87.4483C89.0909 83.7493 88.3699 80.4453 87.8245 78.0441L87.1599 75.2229C87.0636 74.8816 86.9923 74.5338 86.9468 74.1821C87.0894 74.5079 87.2027 74.8457 87.2853 75.1915C87.4797 75.8184 87.743 76.8028 88.0439 77.994C88.8534 81.0873 89.469 84.2281 89.8872 87.3982C90.2902 90.5669 90.4871 93.7585 90.4765 96.9528C90.4765 98.2067 90.4451 99.1722 90.4075 99.8556C90.4107 100.213 90.3835 100.569 90.326 100.921Z" fill="#263238"/>
<path d="M62.2392 75.8624C62.2392 75.9125 61.374 75.9062 59.9885 75.9752C58.1806 76.0733 56.3826 76.3059 54.6093 76.6711C52.8364 77.0432 51.0931 77.544 49.3931 78.1695C48.089 78.6523 47.3054 79.0096 47.2803 78.9595C47.441 78.8335 47.6182 78.7302 47.8069 78.6523C48.1517 78.4642 48.6658 78.2259 49.3116 77.9564C52.6946 76.5593 56.3101 75.8107 59.9697 75.7495C60.6719 75.7495 61.2236 75.7495 61.6311 75.7871C61.8365 75.7805 62.0416 75.8059 62.2392 75.8624Z" fill="#FAFAFA"/>
<path d="M88.665 83.4044C88.2065 83.571 87.728 83.6764 87.2418 83.7178C84.9235 84.0563 82.5748 84.1362 80.2389 83.9561C79.751 83.9477 79.2663 83.876 78.7969 83.7429C79.2808 83.6999 79.7675 83.6999 80.2514 83.7429C81.1416 83.7429 82.3767 83.7429 83.7372 83.7429C85.0977 83.7429 86.3265 83.605 87.2168 83.5235C87.6949 83.44 88.1797 83.4001 88.665 83.4044Z" fill="#FAFAFA"/>
<path d="M93.8997 75.9499C93.2087 76.7483 92.3807 77.4171 91.4547 77.9247C90.5805 78.5157 89.605 78.9407 88.577 79.1786C88.5394 79.0909 89.8309 78.5517 91.2854 77.6238C92.7399 76.6959 93.837 75.8746 93.8997 75.9499Z" fill="#FAFAFA"/>
<path d="M89.2921 68.3075C87.3141 70.0869 84.7938 71.1471 82.1387 71.3169C82.1387 71.2165 83.8628 70.9532 85.8439 70.1069C87.8251 69.2605 89.2294 68.226 89.2921 68.3075Z" fill="#FAFAFA"/>
<path d="M89.9123 96.169C89.7279 96.293 89.5302 96.396 89.323 96.4762C88.928 96.6643 88.3575 96.8963 87.6302 97.1658C85.7408 97.8448 83.7903 98.3403 81.8059 98.6454C79.8216 98.9518 77.812 99.0631 75.806 98.9777C75.0349 98.9464 74.4142 98.89 73.9879 98.8335C73.7647 98.8187 73.5438 98.7788 73.3296 98.7144C73.3296 98.658 74.2825 98.7144 75.8374 98.752C79.8235 98.7892 83.7893 98.1794 87.5801 96.9464C89.0095 96.4762 89.8935 96.1189 89.9123 96.169Z" fill="#FAFAFA"/>
<path d="M90.1448 104.664C90.1448 104.664 90.057 104.727 89.8752 104.821L89.0727 105.172C88.383 105.498 87.3611 105.924 86.0821 106.426C84.8032 106.928 83.2546 107.41 81.5117 107.887C77.7226 108.907 73.8334 109.511 69.9132 109.686C68.1076 109.755 66.4838 109.749 65.1171 109.686C63.7503 109.623 62.6532 109.523 61.8946 109.417L61.0231 109.297C60.9205 109.29 60.8193 109.269 60.7222 109.235C60.8239 109.219 60.9276 109.219 61.0294 109.235L61.9071 109.291C62.6657 109.354 63.7879 109.417 65.1233 109.454C66.4587 109.492 68.1076 109.454 69.9007 109.391C71.6937 109.329 73.6623 109.103 75.7125 108.765C77.7626 108.426 79.6936 108.018 81.4365 107.58C83.1794 107.141 84.7217 106.645 86.0007 106.188C87.2796 105.73 88.3203 105.348 89.0225 105.059L89.8376 104.74C89.937 104.704 90.04 104.679 90.1448 104.664Z" fill="#FAFAFA"/>
<path d="M35.1547 237.947L31.7629 253.263L25.5749 264.605C25.4697 264.798 25.4053 265.011 25.3858 265.231C25.3662 265.45 25.3919 265.672 25.4612 265.881C25.5306 266.09 25.6421 266.283 25.7889 266.447C25.9357 266.612 26.1147 266.744 26.3147 266.836C26.547 266.943 26.8014 266.992 27.0566 266.98C27.3119 266.968 27.5605 266.895 27.7818 266.768C30.6532 265.112 41.1921 258.949 41.374 257.815C41.5934 256.504 46.0259 241.897 46.0259 241.897L35.1547 237.947Z" fill="#FFBD39"/>
<g opacity="0.6">
<path d="M26.3149 266.836L41.6312 256.805L41.4682 257.432C41.3342 257.992 41.0053 258.485 40.5403 258.824C39.2865 259.72 35.7944 262.128 27.8322 266.78C27.6036 266.914 27.3454 266.989 27.0806 266.999C26.8159 267.009 26.5528 266.953 26.3149 266.836Z" fill="white"/>
</g>
<g opacity="0.6">
<path d="M39.7067 251.107C39.4855 251.199 39.3062 251.37 39.2032 251.586C39.1002 251.802 39.0808 252.049 39.1487 252.279C39.2324 252.503 39.3986 252.686 39.6132 252.791C39.8278 252.896 40.0744 252.914 40.3023 252.843C40.5392 252.745 40.7309 252.562 40.8399 252.33C40.9489 252.099 40.9674 251.834 40.8917 251.589C40.7806 251.367 40.5889 251.196 40.3557 251.111C40.1226 251.026 39.8657 251.033 39.6378 251.132" fill="white"/>
</g>
<path d="M31.4309 261.031C31.178 260.467 30.823 259.955 30.3839 259.52C29.8782 259.168 29.3101 258.915 28.71 258.774C28.71 258.73 28.9294 258.661 29.2993 258.699C29.7806 258.761 30.2336 258.961 30.6033 259.276C30.9759 259.578 31.2507 259.984 31.3933 260.442C31.4999 260.799 31.4685 261.031 31.4309 261.031Z" fill="#263238"/>
<path d="M29.8446 262.805C29.7568 262.855 29.3869 262.241 28.6534 261.821C28.1855 261.604 27.7038 261.417 27.2114 261.263C27.4821 261.174 27.77 261.151 28.0512 261.196C28.3325 261.241 28.5991 261.352 28.8289 261.52C29.6628 262.003 29.9324 262.786 29.8446 262.805Z" fill="#263238"/>
<path d="M34.089 258.912C33.5559 258.32 32.9773 257.771 32.3587 257.269C31.677 256.853 30.9644 256.491 30.2271 256.184C31.075 256.167 31.9015 256.452 32.5593 256.987C33.2845 257.423 33.8278 258.107 34.089 258.912Z" fill="#263238"/>
<path d="M35.5118 254.341C35.4491 254.423 34.6905 253.865 33.631 253.558C32.5715 253.251 31.6122 253.301 31.606 253.194C32.3038 253.013 33.0374 253.025 33.7294 253.227C34.4213 253.429 35.0459 253.814 35.5369 254.341H35.5118Z" fill="#263238"/>
<path d="M36.6216 249.871C36.01 249.493 35.3499 249.2 34.6593 249C33.9479 248.903 33.2266 248.903 32.5151 249C32.5151 248.962 32.7095 248.811 33.1107 248.692C33.6382 248.549 34.1918 248.531 34.7274 248.64C35.263 248.749 35.7657 248.982 36.1953 249.319C36.5151 249.62 36.6467 249.846 36.6216 249.871Z" fill="#263238"/>
<path d="M34.8915 248.153C34.892 247.955 34.9347 247.758 35.0169 247.577C35.1945 247.059 35.4762 246.583 35.8445 246.179C36.0854 245.858 36.4244 245.625 36.81 245.514C36.9412 245.493 37.0759 245.511 37.1967 245.567C37.3174 245.623 37.4185 245.713 37.4871 245.828C37.6023 246.061 37.6269 246.329 37.556 246.58C37.3953 247.083 37.0647 247.514 36.6209 247.8C36.1772 248.086 35.6478 248.209 35.1235 248.147C34.6064 248.074 34.1227 247.848 33.7334 247.5C33.344 247.152 33.0663 246.697 32.9354 246.191C32.9053 246.063 32.9026 245.929 32.9275 245.8C32.9523 245.67 33.0041 245.547 33.0796 245.439C33.1663 245.338 33.2828 245.267 33.4125 245.236C33.5421 245.206 33.678 245.218 33.8006 245.27C34.155 245.446 34.4574 245.712 34.6783 246.041C35.0106 246.476 35.2632 246.966 35.4244 247.489C35.5008 247.676 35.5371 247.877 35.531 248.078C35.2782 247.402 34.9253 246.768 34.484 246.197C34.2785 245.929 34.012 245.715 33.7066 245.57C33.6394 245.541 33.5646 245.535 33.4934 245.552C33.4222 245.569 33.3584 245.608 33.3116 245.664C33.2678 245.738 33.2396 245.82 33.2288 245.906C33.218 245.991 33.2249 246.077 33.2489 246.16C33.3797 246.585 33.628 246.965 33.9651 247.256C34.3023 247.546 34.7147 247.736 35.1548 247.802C35.5983 247.854 36.0461 247.754 36.4252 247.518C36.8044 247.282 37.0925 246.925 37.2426 246.505C37.3033 246.334 37.3033 246.148 37.2426 245.978C37.207 245.914 37.1522 245.862 37.0858 245.831C37.0195 245.799 36.9449 245.789 36.8727 245.802C36.5459 245.892 36.2548 246.08 36.0388 246.342C35.5579 246.877 35.1701 247.49 34.8915 248.153Z" fill="#263238"/>
<g opacity="0.3">
<path d="M34.7413 239.608L34.0078 243.119L45.0985 244.962L46.0264 241.897L35.1363 237.947L34.7413 239.608Z" fill="black"/>
</g>
<path d="M84.6838 243.614L83.7684 255.852C83.7684 255.852 95.9061 260.868 95.9563 263.175L72.1323 262.254L72.7593 243.119L84.6838 243.614Z" fill="#FFBD39"/>
<g opacity="0.6">
<path d="M76.464 254.535C76.2328 254.597 76.0323 254.742 75.9006 254.942C75.7689 255.142 75.7151 255.383 75.7493 255.62C75.8021 255.853 75.9416 256.057 76.1396 256.191C76.3376 256.325 76.5791 256.379 76.8151 256.341C77.061 256.276 77.274 256.122 77.413 255.909C77.5519 255.696 77.607 255.439 77.5675 255.187C77.4882 254.949 77.32 254.751 77.098 254.634C76.876 254.517 76.6174 254.491 76.3763 254.56" fill="white"/>
</g>
<g opacity="0.6">
<path d="M72.145 262.254L72.2829 260.323L95.0725 261.909C95.0725 261.909 96.1194 262.41 95.969 263.163L72.145 262.254Z" fill="white"/>
</g>
<path d="M84.1699 255.745C84.1699 255.865 83.5805 255.896 82.9975 256.247C82.4144 256.598 82.0884 257.075 81.9818 257.024C81.8752 256.974 82.0759 256.31 82.7906 255.896C83.5053 255.482 84.2012 255.639 84.1699 255.745Z" fill="#263238"/>
<path d="M86.6271 256.893C86.6271 257.012 86.138 257.188 85.7243 257.664C85.3105 258.14 85.1788 258.655 85.0597 258.648C84.9406 258.642 84.8967 257.977 85.4233 257.394C85.9499 256.811 86.6271 256.767 86.6271 256.893Z" fill="#263238"/>
<path d="M87.9317 259.921C87.8251 259.921 87.6872 259.351 88.0069 258.73C88.3267 258.109 88.8847 257.871 88.9285 257.971C88.9724 258.072 88.6276 258.398 88.3706 258.912C88.1135 259.426 88.0445 259.915 87.9317 259.921Z" fill="#263238"/>
<path d="M84.0569 252.937C84.0068 253.037 83.4801 252.855 82.803 252.874C82.1259 252.893 81.6244 253.081 81.5491 252.981C81.4739 252.88 82.0005 252.485 82.803 252.473C83.6055 252.46 84.1321 252.849 84.0569 252.937Z" fill="#263238"/>
<g opacity="0.3">
<path d="M84.5142 246.04L84.3512 248.222L72.6587 247.658L72.7402 245.138L84.5142 246.04Z" fill="black"/>
</g>
<path d="M84.2133 250.46C83.8194 250.556 83.4066 250.538 83.0221 250.41C82.5874 250.32 82.1661 250.175 81.7682 249.978C81.5361 249.863 81.312 249.733 81.0974 249.589C80.9665 249.509 80.8482 249.409 80.7463 249.294C80.6771 249.204 80.6396 249.094 80.6396 248.981C80.6396 248.867 80.6771 248.757 80.7463 248.667C80.8072 248.588 80.8863 248.524 80.9768 248.482C81.0673 248.439 81.1667 248.419 81.2666 248.423C81.4176 248.429 81.5672 248.454 81.7118 248.498C81.9627 248.571 82.2061 248.668 82.439 248.786C82.8349 248.98 83.197 249.236 83.5111 249.545C84.044 250.078 84.2133 250.523 84.1757 250.542C84.1381 250.561 83.8685 250.203 83.323 249.758C83.0028 249.508 82.6533 249.297 82.2823 249.131C82.0611 249.04 81.8351 248.96 81.6052 248.893C81.3544 248.818 81.1413 248.812 81.0723 248.893C81.0033 248.975 81.0723 248.956 81.0723 249.031C81.1475 249.114 81.234 249.186 81.3293 249.244C81.5304 249.384 81.7398 249.512 81.9563 249.627C82.3178 249.826 82.6979 249.99 83.0911 250.116C83.4729 250.204 83.8479 250.319 84.2133 250.46Z" fill="#263238"/>
<path d="M84.0563 250.624C83.848 250.272 83.7538 249.865 83.7867 249.458C83.7892 249.016 83.8611 248.578 83.9999 248.16C84.0898 247.914 84.201 247.677 84.3321 247.451C84.4026 247.296 84.5116 247.162 84.6488 247.061C84.786 246.96 84.9468 246.896 85.1158 246.875C85.2229 246.881 85.3257 246.919 85.4123 246.982C85.499 247.045 85.5657 247.132 85.6048 247.232C85.6593 247.373 85.6931 247.52 85.7052 247.671C85.7464 247.937 85.7464 248.207 85.7052 248.473C85.6213 248.916 85.4297 249.332 85.1472 249.683C84.6582 250.31 84.1691 250.404 84.1566 250.367C84.1441 250.329 84.5328 250.097 84.9152 249.514C85.1347 249.182 85.2781 248.805 85.3352 248.411C85.367 248.182 85.367 247.95 85.3352 247.721C85.3039 247.47 85.2161 247.257 85.1221 247.282C85.028 247.307 84.7961 247.458 84.6895 247.658C84.5671 247.859 84.4602 248.068 84.3698 248.285C84.2246 248.664 84.1318 249.06 84.0939 249.464C84.0124 250.166 84.119 250.624 84.0563 250.624Z" fill="#263238"/>
<path d="M60.0574 111.63C60.0574 111.63 56.2957 111.799 53.7879 124.664C51.2801 137.529 32.1646 241.771 32.1646 241.771L46.0263 241.896L72.1449 142.789L70.4083 244.981L84.4895 246.059C84.4895 246.059 95.0535 133.027 95.1476 126.451C95.273 118.25 90.5646 109.956 90.5646 109.956L60.0574 111.63Z" fill="#263238"/>
<path d="M79.1106 110.533C79.1984 110.533 77.7564 117.899 75.8944 126.946C74.0323 135.993 72.4524 143.316 72.3647 143.297C72.2769 143.278 73.7126 135.93 75.5746 126.883C77.4367 117.836 79.0416 110.514 79.1106 110.533Z" fill="#455A64"/>
<path d="M81.2669 112.369C81.2669 112.332 81.6431 112.219 82.0757 112.601C82.1986 112.713 82.2958 112.849 82.3608 113.002C82.4257 113.155 82.4568 113.32 82.4519 113.485C82.4362 113.695 82.3613 113.896 82.2358 114.065C82.1104 114.233 81.9396 114.363 81.7434 114.438C81.552 114.525 81.34 114.557 81.1316 114.529C80.9232 114.501 80.7268 114.415 80.5648 114.282C80.4435 114.168 80.3478 114.03 80.2841 113.876C80.2203 113.723 80.1899 113.557 80.1949 113.391C80.1949 112.815 80.5836 112.614 80.5898 112.652C80.4841 112.882 80.4286 113.132 80.4268 113.385C80.4352 113.512 80.469 113.637 80.526 113.751C80.5831 113.865 80.6623 113.967 80.7591 114.05C80.8828 114.135 81.026 114.188 81.1754 114.203C81.3248 114.219 81.4758 114.196 81.6143 114.138C81.7529 114.08 81.8747 113.988 81.9684 113.871C82.0622 113.754 82.1249 113.615 82.1509 113.467C82.1602 113.34 82.1438 113.212 82.1029 113.091C82.062 112.971 81.9973 112.86 81.9127 112.764C81.6055 112.407 81.2607 112.42 81.2669 112.369Z" fill="#455A64"/>
<path d="M80.6718 117.46C80.6718 117.423 81.0605 117.46 81.2987 117.981C81.3593 118.129 81.3867 118.289 81.3792 118.449C81.3716 118.61 81.3291 118.766 81.2548 118.908C81.147 119.077 80.9952 119.214 80.8157 119.303C80.6361 119.392 80.4357 119.431 80.2359 119.415C80.0361 119.399 79.8444 119.328 79.6815 119.212C79.5186 119.095 79.3906 118.936 79.3113 118.752C79.2612 118.601 79.2448 118.44 79.2632 118.282C79.2816 118.124 79.3344 117.972 79.4179 117.836C79.7125 117.366 80.1138 117.379 80.1012 117.416C80.0887 117.454 79.8003 117.542 79.6185 117.943C79.5265 118.168 79.5265 118.42 79.6185 118.645C79.684 118.77 79.7798 118.875 79.8971 118.953C80.0145 119.03 80.1495 119.077 80.2896 119.088C80.4297 119.099 80.5705 119.075 80.6986 119.017C80.8268 118.96 80.9384 118.87 81.0229 118.758C81.1409 118.544 81.1702 118.292 81.1043 118.056C80.9225 117.629 80.6404 117.504 80.6718 117.46Z" fill="#455A64"/>
<path d="M67.3865 112.495C67.3607 112.71 67.3059 112.921 67.2235 113.122C67.0276 113.696 66.7822 114.252 66.4899 114.783C65.5334 116.557 64.1518 118.065 62.469 119.173C60.7861 120.282 58.8546 120.956 56.8475 121.134C56.2447 121.187 55.6385 121.187 55.0356 121.134C54.8232 121.127 54.6126 121.094 54.4087 121.034C54.4087 120.971 55.3554 121.078 56.8538 120.889C58.8067 120.653 60.678 119.966 62.3206 118.883C63.9633 117.801 65.3325 116.352 66.3207 114.651C67.0542 113.385 67.3301 112.476 67.3865 112.495Z" fill="#455A64"/>
<path d="M94.358 121.642C94.358 121.642 94.195 121.567 93.9379 121.391C93.5788 121.133 93.2431 120.843 92.9348 120.526C91.9037 119.482 91.0993 118.237 90.5717 116.868C90.0442 115.499 89.805 114.036 89.8691 112.57C89.8834 112.129 89.9401 111.69 90.0383 111.26C90.1073 110.952 90.1512 110.789 90.1763 110.796C90.2013 110.802 90.101 111.479 90.101 112.576C90.1021 115.456 91.1722 118.233 93.1041 120.369C93.8376 121.178 94.3893 121.592 94.358 121.642Z" fill="#455A64"/>
<path d="M142.989 122.005C143.196 121.504 143.14 121.704 139.817 119.498C139.817 119.498 144.582 122.632 144.086 121.14C143.658 120.575 143.134 120.089 142.538 119.704C143.792 120.444 144.519 120.526 144.738 120.225C145.115 119.704 142.387 117.717 141.09 116.82C142.276 117.669 143.52 118.434 144.814 119.109C145.585 119.347 145.215 118.444 144.695 117.786C144.174 117.128 140.137 113.241 139.052 112.081C138.949 111.992 138.866 111.883 138.809 111.76C138.752 111.636 138.723 111.502 138.723 111.366C138.723 111.23 138.752 111.096 138.809 110.973C138.866 110.849 138.949 110.74 139.052 110.651C140.996 109.397 141.848 107.397 141.823 106.739C141.802 106.591 141.734 106.453 141.629 106.346C141.524 106.239 141.388 106.168 141.241 106.143C141.093 106.118 140.941 106.14 140.807 106.207C140.673 106.273 140.563 106.381 140.494 106.513C140.003 107.123 139.432 107.663 138.795 108.118C138.301 108.504 137.746 108.803 137.152 109.002C136.463 109.228 133.071 109.04 132.344 108.67L130.03 116.513C130.03 116.513 138.425 120.438 140.018 121.203C141.974 122.131 142.845 122.388 142.989 122.005Z" fill="#FFBE9D"/>
<path d="M138.306 118.338C138.237 118.432 139.328 119.228 140.739 120.125C142.15 121.021 143.334 121.667 143.391 121.573C143.447 121.479 142.356 120.676 140.952 119.786C139.548 118.896 138.369 118.219 138.306 118.338Z" fill="#EB996E"/>
<path d="M139.096 116.802C139.034 116.896 140.15 117.811 141.604 118.852C143.059 119.893 144.262 120.664 144.325 120.576C144.388 120.488 143.278 119.567 141.817 118.526C140.356 117.485 139.165 116.714 139.096 116.802Z" fill="#EB996E"/>
<path d="M139.93 115.247C139.867 115.335 140.908 116.225 142.256 117.228C143.604 118.231 144.764 118.971 144.814 118.883C144.864 118.796 143.842 117.905 142.494 116.902C141.146 115.899 139.999 115.159 139.93 115.247Z" fill="#EB996E"/>
<path d="M54.5463 86.8402L60.7029 87.1788C61.139 88.8975 61.7221 90.5755 62.4458 92.1943C67.405 83.5926 71.2231 72.0631 72.2011 67.4299C72.0632 66.9744 71.8939 66.4603 71.6933 65.8877C71.5431 65.022 71.5687 64.1351 71.7685 63.2796C71.9378 62.2514 72.2262 60.8595 72.3077 60.2201C72.5773 58.264 72.8907 57.9505 73.5616 58.1762C74.4895 58.4771 73.1791 63.6745 73.9378 63.7874C74.3515 63.8438 74.8468 62.0633 74.9973 60.6025C75.1478 59.1417 75.7998 54.6528 76.2825 54.333C76.991 53.8942 77.6054 54.5901 77.4298 56.0446C77.2543 57.4991 77.0223 61.9065 77.7935 61.963C78.5646 62.0194 79.1916 54.5713 79.1916 54.5713C79.1916 54.5713 79.0724 52.9538 79.9627 52.9914C81.574 53.0603 80.3201 60.916 80.1821 61.662C80.0818 62.1761 80.9219 62.289 80.9972 61.7122C81.0724 61.1354 81.4611 54.2578 83.0974 54.3142C84.3513 54.3581 82.1257 60.7843 82.8341 62.2764C83.5426 63.7686 84.0316 57.217 85.2353 57.3048C85.6805 57.3424 86.0127 57.4301 85.1914 61.1354C84.3899 64.0818 83.4293 66.9825 82.3138 69.8249C80.4329 80.1068 72.0381 112.996 58.9224 106.978C51.5871 103.611 48.1577 86.9154 48.1577 86.9154L54.5463 86.8402Z" fill="#FFBE9D"/>
<path d="M82.3261 69.8812C82.3369 69.8035 82.358 69.7276 82.3888 69.6555C82.4452 69.4925 82.5142 69.2793 82.6083 69.0285C82.8151 68.4329 83.0973 67.6053 83.4672 66.5207C83.8371 65.4361 84.2822 64.1195 84.7211 62.5647C84.9468 61.7935 85.1349 60.9534 85.3041 60.0569C85.3919 59.6055 85.4734 59.1416 85.5298 58.6651C85.5454 58.4292 85.5454 58.1925 85.5298 57.9566C85.5298 57.7121 85.4734 57.5115 85.279 57.5052C85.0847 57.499 84.9468 57.6181 84.8088 57.825C84.684 58.0464 84.5811 58.2794 84.5016 58.5209C84.3261 59.0162 84.1882 59.5428 84.0502 60.0757C83.9123 60.6086 83.7869 61.1666 83.6239 61.7309C83.5528 62.0399 83.4253 62.3333 83.2477 62.596C83.2031 62.6475 83.1442 62.6846 83.0785 62.7026C83.0371 62.7117 82.9941 62.7114 82.9529 62.7016C82.9117 62.6918 82.8731 62.6729 82.8402 62.6462C82.7682 62.5801 82.7087 62.5015 82.6647 62.4142C82.5984 62.2603 82.5541 62.0978 82.533 61.9315C82.5044 60.6669 82.6308 59.4036 82.9092 58.1698C83.0158 57.5429 83.1286 56.9159 83.2101 56.289C83.2477 55.9692 83.2854 55.662 83.2916 55.3235C83.2979 54.9849 83.2477 54.6276 83.1161 54.5711C82.9844 54.5147 82.6647 54.6902 82.4891 54.9536C82.3158 55.2317 82.1789 55.5309 82.0816 55.8438C81.8678 56.4987 81.7064 57.1696 81.5989 57.8501C81.4798 58.5397 81.3857 59.2419 81.3042 59.9566C81.2729 60.314 81.2352 60.6713 81.2039 61.035L81.1537 61.5804C81.1604 61.6969 81.1414 61.8134 81.0981 61.9218C81.0548 62.0301 80.9881 62.1276 80.903 62.2073C80.7956 62.2858 80.666 62.3281 80.5331 62.3281C80.4001 62.3281 80.2705 62.2858 80.1632 62.2073C80.1024 62.1672 80.0508 62.1145 80.0119 62.0529C79.973 61.9913 79.9476 61.9221 79.9375 61.85C79.9279 61.7834 79.9279 61.7159 79.9375 61.6494V61.5177L80.1067 60.4205C80.2133 59.6807 80.3011 58.9409 80.3701 58.1886C80.439 57.4363 80.4954 56.6777 80.508 55.9191C80.5447 55.168 80.4686 54.4156 80.2823 53.6871C80.239 53.5023 80.1269 53.3408 79.9688 53.2357C79.8932 53.2114 79.8118 53.2117 79.7364 53.2365C79.6609 53.2612 79.5952 53.3093 79.5488 53.3737C79.3458 53.7448 79.2625 54.1696 79.3105 54.5899C79.1726 56.0633 79.0158 57.5115 78.8027 58.9347C78.6961 59.6431 78.577 60.3516 78.4014 61.0475C78.3513 61.2168 78.3011 61.3923 78.2384 61.5678C78.1788 61.7806 78.0538 61.9692 77.8811 62.107C77.8047 62.1445 77.7178 62.155 77.6347 62.1368C77.5516 62.1186 77.4771 62.0727 77.4234 62.0067C77.3469 61.9263 77.289 61.83 77.2541 61.7246C77.1865 61.5507 77.1381 61.3699 77.1099 61.1854C76.963 59.8211 76.9504 58.4457 77.0723 57.0789C77.165 56.4418 77.2006 55.7977 77.1789 55.1542C77.1586 54.8795 77.0328 54.6234 76.8278 54.4395C76.7797 54.4095 76.726 54.3897 76.6699 54.3811C76.6139 54.3724 76.5567 54.3752 76.5018 54.3893C76.4432 54.4091 76.3865 54.4343 76.3325 54.4645C76.2761 54.5147 76.2824 54.4645 76.2447 54.5711C76.018 55.1349 75.852 55.7213 75.7495 56.3203C75.6241 56.9473 75.5175 57.5178 75.4234 58.1071C75.3294 58.6964 75.2416 59.2732 75.1664 59.85C75.0912 60.4268 75.0536 60.9911 74.9407 61.5553C74.8433 62.1066 74.6964 62.6479 74.5018 63.1728C74.4502 63.3064 74.3894 63.4363 74.32 63.5615C74.2322 63.6807 74.1821 63.8311 73.9439 63.9064C73.8829 63.9176 73.82 63.9104 73.7631 63.8859C73.7062 63.8613 73.6578 63.8205 73.6241 63.7684C73.5803 63.6961 73.5465 63.618 73.5238 63.5365C73.4956 63.4002 73.4788 63.2618 73.4736 63.1227C73.4736 62.0506 73.6178 61.0726 73.6743 60.1259C73.7152 59.6733 73.7152 59.218 73.6743 58.7654C73.6743 58.5648 73.5802 58.3265 73.4674 58.2827C73.3883 58.2439 73.3015 58.2238 73.2135 58.2238C73.1254 58.2238 73.0386 58.2439 72.9596 58.2827C72.6964 58.5653 72.5334 58.9265 72.4956 59.3108C72.4016 59.6933 72.364 60.082 72.295 60.4519C72.0317 61.9315 71.7558 63.2104 71.6242 64.2512C71.5623 64.7089 71.5623 65.1728 71.6242 65.6305C71.7119 66.0066 71.8436 66.3452 71.9126 66.6085C71.9815 66.8718 72.0505 67.0599 72.0944 67.2354C72.1177 67.3026 72.1345 67.3719 72.1445 67.4423C72.1069 67.3816 72.0774 67.3163 72.0567 67.248L71.8436 66.621C71.7558 66.3514 71.6242 66.0505 71.5176 65.6367C71.4505 65.1668 71.4505 64.6897 71.5176 64.2198C71.6367 63.1603 71.8875 61.8939 72.1445 60.408C72.2135 60.0381 72.2511 59.6494 72.3326 59.2481C72.3775 59.0362 72.434 58.8269 72.5019 58.6212C72.5646 58.3932 72.7013 58.1925 72.8906 58.0507C73.0045 57.9903 73.1315 57.9587 73.2605 57.9587C73.3894 57.9587 73.5164 57.9903 73.6304 58.0507C73.753 58.128 73.8537 58.2354 73.9228 58.3627C73.992 58.4901 74.0273 58.633 74.0254 58.7779C74.0693 59.2492 74.0693 59.7236 74.0254 60.1948C73.9815 61.1478 73.831 62.1446 73.8561 63.1603C73.8607 63.2804 73.8753 63.4 73.9 63.5177C73.9 63.6368 73.9877 63.6869 73.9752 63.6618C73.9627 63.6368 74.0943 63.5615 74.1445 63.4612C74.2063 63.35 74.2607 63.2348 74.3075 63.1164C74.4932 62.6082 74.6297 62.0833 74.715 61.549C74.8216 61.0036 74.8592 60.4393 74.9344 59.8563C75.0097 59.2732 75.0849 58.6964 75.1789 58.1008C75.273 57.5052 75.3796 56.9096 75.4987 56.3015C75.6006 55.6664 75.7774 55.0456 76.0253 54.452C76.0754 54.3525 76.1512 54.268 76.2447 54.2075C76.3281 54.1618 76.4164 54.126 76.5081 54.1009C76.6132 54.0709 76.7236 54.0637 76.8317 54.0799C76.9399 54.0961 77.0433 54.1354 77.135 54.195C77.2805 54.3105 77.4007 54.4547 77.488 54.6186C77.5754 54.7826 77.6281 54.9627 77.6428 55.1479C77.6899 55.489 77.6899 55.835 77.6428 56.1761C77.6115 56.4959 77.5801 56.8031 77.5613 57.1542C77.4392 58.4895 77.4518 59.8338 77.5989 61.1666C77.6258 61.3249 77.6678 61.4803 77.7243 61.6305C77.7432 61.6912 77.7753 61.7469 77.8184 61.7935C77.8184 61.7935 77.8184 61.7935 77.8497 61.7935C77.8497 61.9377 77.8497 61.7935 77.8497 61.85C77.8497 61.9064 77.8497 61.85 77.8497 61.7998C77.9279 61.6951 77.9893 61.5787 78.0315 61.455C78.0901 61.3004 78.1402 61.1374 78.182 60.966C78.3513 60.3014 78.4641 59.5992 78.5707 58.8971C78.7839 57.4864 78.9406 56.0382 79.0723 54.5711V54.6025C79.0165 54.0857 79.1286 53.5647 79.392 53.1166C79.4926 52.9885 79.6305 52.895 79.7867 52.8489C79.9429 52.8028 80.1095 52.8066 80.2635 52.8596C80.395 52.9325 80.5105 53.0312 80.6031 53.1496C80.6957 53.2681 80.7636 53.404 80.8026 53.5492C81.0034 54.3201 81.0859 55.1171 81.0472 55.9128C81.0472 56.6902 80.9782 57.4551 80.9092 58.2137C80.8403 58.9723 80.7462 59.7184 80.6396 60.4582C80.5832 60.8343 80.5268 61.198 80.4704 61.5678C80.4202 61.7998 80.4327 61.8061 80.4704 61.8751C80.5139 61.9044 80.5652 61.9201 80.6177 61.9201C80.6702 61.9201 80.7215 61.9044 80.765 61.8751C80.8403 61.8186 80.8528 61.7121 80.8716 61.5052L80.9155 60.9597L81.0283 59.8751C81.1036 59.1604 81.2039 58.4457 81.323 57.7497C81.439 57.0507 81.6067 56.3613 81.8246 55.6871C81.9384 55.3463 82.092 55.0201 82.2822 54.7153C82.3858 54.551 82.5224 54.4101 82.6835 54.3015C82.7728 54.2369 82.8764 54.1946 82.9855 54.1782C83.0946 54.1618 83.206 54.1719 83.3104 54.2075C83.4065 54.2667 83.4875 54.3473 83.5474 54.443C83.6072 54.5387 83.6441 54.6469 83.6553 54.7592C83.6811 54.9356 83.6916 55.1139 83.6866 55.2921C83.6866 55.6369 83.6427 55.9692 83.6051 56.3015C83.5173 56.9284 83.3982 57.593 83.2854 58.2262C83.0161 59.4172 82.8856 60.6353 82.8966 61.8562C82.9143 61.9873 82.948 62.1158 82.997 62.2387C83.0197 62.2832 83.047 62.3252 83.0785 62.3641C83.0785 62.3641 83.0785 62.3641 83.0785 62.3202C83.2192 62.0936 83.3229 61.8459 83.3857 61.5867C83.5487 61.0412 83.6803 60.4895 83.8245 59.9503C83.9538 59.4139 84.1108 58.8844 84.2947 58.3642C84.3816 58.1065 84.495 57.8585 84.6333 57.6244C84.7081 57.4967 84.8059 57.3841 84.9217 57.2921C84.9847 57.2374 85.06 57.1987 85.1411 57.1792C85.2221 57.1665 85.3046 57.1665 85.3856 57.1792C85.4712 57.1878 85.5529 57.219 85.6223 57.2697C85.6918 57.3204 85.7464 57.3887 85.7806 57.4676C85.833 57.5994 85.8606 57.7396 85.8621 57.8814C85.867 58.135 85.8523 58.3886 85.8182 58.64C85.7618 59.129 85.6677 59.593 85.58 60.0506C85.3982 60.9472 85.1975 61.7998 84.953 62.5584C84.4828 64.1133 84.0126 65.4298 83.6302 66.5019C83.2477 67.574 82.9217 68.3828 82.7023 68.9596C82.5957 69.2229 82.5079 69.4298 82.4452 69.5865C82.4172 69.689 82.3772 69.7879 82.3261 69.8812Z" fill="#EB996E"/>
<path d="M48.1016 87.5488C49.2928 91.7556 51.625 98.2445 54.1265 105.103C54.2054 105.324 54.348 105.517 54.5364 105.657C54.7249 105.796 54.9505 105.877 55.1849 105.889C55.4192 105.9 55.6517 105.842 55.8528 105.721C56.0539 105.6 56.2146 105.422 56.3146 105.21L62.4461 92.2383C62.4461 92.2383 60.9665 81.5803 61.0919 81.9627C61.2173 82.3451 48.4401 83.342 48.4401 83.342L48.1016 87.5488Z" fill="#FFBD39"/>
<path d="M61.9191 85.4607C61.9191 85.5108 61.1542 85.7365 59.9442 86.2005C58.3629 86.8007 56.8394 87.5436 55.3926 88.4199C53.9477 89.3003 52.584 90.3073 51.3174 91.4292C50.3457 92.2881 49.7877 92.8775 49.7501 92.8398C49.7125 92.8022 49.8567 92.6643 50.0949 92.3822C50.4307 91.9901 50.7865 91.6155 51.1607 91.2599C52.3965 90.07 53.7588 89.0188 55.2233 88.1252C56.6883 87.2425 58.2436 86.5195 59.8627 85.9685C60.3521 85.7999 60.8502 85.6576 61.3549 85.5422C61.5374 85.4851 61.7279 85.4576 61.9191 85.4607Z" fill="#FAFAFA"/>
<path d="M64.3521 88.696C63.9538 88.2943 63.6082 87.8435 63.3239 87.3543C62.5918 86.2128 61.9624 85.0085 61.4431 83.7557C60.9235 82.4991 60.5185 81.1981 60.2331 79.8686C60.087 79.3248 60.0132 78.764 60.0137 78.2009C60.2007 78.7266 60.3494 79.2651 60.4588 79.8122C60.7947 81.1104 61.2135 82.3857 61.7127 83.6303C62.2342 84.8683 62.8331 86.0723 63.5058 87.2352C63.8189 87.7035 64.1016 88.1915 64.3521 88.696Z" fill="#263238"/>
<path d="M68.4397 31.2553C67.3761 33.0084 66.7167 34.9765 66.5096 37.0165C66.3024 39.0565 66.5527 41.1171 67.2422 43.0482C67.8692 44.7723 68.8723 46.4713 68.6905 48.302C68.5087 50.1326 67.0792 51.9445 67.5808 53.7501C67.8817 54.8222 68.7971 55.631 69.1544 56.6717C69.5619 57.9256 69.1544 59.2484 68.935 60.5337C68.4335 63.8189 69.4867 67.1229 69.7438 70.4332C70.0008 73.7434 69.1168 77.6242 66.1576 79.0662C65.2611 79.5051 64.0887 79.6305 63.3426 78.9596C62.3897 78.1133 62.653 76.5835 62.9163 75.3296C65.5119 62.7907 57.4932 50.5527 59.3239 37.8633C59.6186 35.832 60.7534 32.3838 62.2141 30.9669C63.6749 29.55 67.7313 29.713 69.1106 31.2177" fill="#263238"/>
<path d="M56.0884 67.6304C56.0884 67.6304 56.4708 67.179 57.0351 66.2887C57.8269 65.0314 58.3815 63.6395 58.6714 62.1822C58.8606 61.1783 58.9258 60.155 58.8658 59.1352C58.7561 57.9495 58.7121 56.7585 58.7341 55.5679C58.7715 54.9159 58.8916 54.2712 59.0915 53.6495C59.3206 53.0089 59.6103 52.3917 59.9566 51.8062C60.6588 50.6213 61.5428 49.5179 62.3578 48.3392C63.1948 47.2253 63.7769 45.9412 64.0631 44.5775C64.2021 43.2931 64.128 41.9946 63.8437 40.7344C63.6065 39.5631 63.5139 38.3671 63.5678 37.1733C63.6424 36.1305 63.8532 35.1019 64.1948 34.1138C64.6737 32.68 65.4276 31.3533 66.4142 30.2079C66.6762 29.8966 66.9613 29.6053 67.2668 29.3365C67.3637 29.2332 67.4733 29.1427 67.5928 29.0669C67.5928 29.0669 67.1728 29.4744 66.5082 30.3208C64.9254 32.2855 63.9999 34.6979 63.8625 37.2172C63.8205 38.3915 63.9237 39.5665 64.1697 40.7156C64.4688 42.0097 64.5493 43.3447 64.408 44.6653C64.1108 46.0669 63.5117 47.387 62.6525 48.5336C61.8312 49.731 60.9472 50.8282 60.2576 51.9818C59.9184 52.5455 59.6369 53.1421 59.4175 53.7623C59.2191 54.3587 59.099 54.9783 59.0601 55.6055C59.0324 56.783 59.0659 57.9612 59.1604 59.1352C59.2102 60.1756 59.1302 61.2181 58.9222 62.2386C58.608 63.7158 58.012 65.1186 57.1667 66.3702C56.9379 66.7085 56.6865 67.0311 56.4144 67.3357C56.3168 67.4456 56.2075 67.5444 56.0884 67.6304Z" fill="#455A64"/>
<path d="M50.1455 68.5646C50.196 68.4184 50.2611 68.2777 50.3399 68.1446C50.4966 67.8499 50.6972 67.4612 50.9668 66.9722C51.4934 65.9502 52.2771 64.4644 53.0483 62.5835C53.9916 60.3868 54.5147 58.0327 54.5906 55.6432C54.5909 54.9548 54.5385 54.2673 54.4338 53.5869C54.3272 52.8847 54.1642 52.1762 54.0577 51.4364C53.9273 50.6712 53.9443 49.8881 54.1078 49.1293C54.3198 48.3502 54.7558 47.6504 55.3617 47.1168C56.5404 46.0447 57.9635 45.3425 58.7033 44.0824C59.3443 42.8328 59.722 41.465 59.813 40.0636C59.9457 38.7789 60.2363 37.5155 60.6782 36.302C61.672 33.6967 63.4426 31.4598 65.7502 29.8946C66.1181 29.6469 66.5013 29.4229 66.8975 29.2237C67.0313 29.1436 67.1745 29.0804 67.3238 29.0356C67.3238 29.0356 66.7596 29.3366 65.8254 30.0011C64.5088 30.9407 63.369 32.106 62.4587 33.4431C61.8275 34.3596 61.3136 35.3517 60.929 36.396C60.5065 37.6124 60.2328 38.8755 60.114 40.1577C59.9259 41.4931 59.7754 42.9852 58.9729 44.3081C58.1704 45.6309 56.7034 46.3832 55.5811 47.4428C55.0092 47.9391 54.5969 48.5935 54.3962 49.3236C54.2438 50.0416 54.2289 50.7819 54.3523 51.5054C54.4526 52.2264 54.6094 52.9411 54.7159 53.6496C54.8244 54.3464 54.8747 55.051 54.8664 55.7561C54.7812 58.1894 54.23 60.5837 53.2426 62.8092C52.6013 64.3133 51.8728 65.7786 51.0608 67.1979L50.3963 68.1822C50.3264 68.3182 50.2424 68.4464 50.1455 68.5646Z" fill="#455A64"/>
<path d="M257.578 245.721C257.607 245.63 257.645 245.542 257.691 245.458C257.778 245.27 257.898 245.019 258.042 244.699C258.478 243.72 258.828 242.705 259.089 241.665C259.778 238.969 260.023 234.85 259.001 229.96C258.446 227.293 257.719 224.665 256.825 222.092C255.91 219.302 254.838 216.343 253.967 213.139C252.983 209.798 252.507 206.327 252.556 202.845C252.688 199.202 253.766 195.572 254.951 191.948C256.136 188.324 257.358 184.795 257.722 181.221C258.126 177.794 257.437 174.327 255.753 171.315C254.186 168.425 252.211 165.949 250.738 163.391C249.358 161.014 248.342 158.444 247.722 155.767C246.833 151.891 246.766 147.871 247.528 143.968C247.805 142.54 248.225 141.143 248.782 139.799C248.765 139.893 248.74 139.985 248.706 140.075L248.456 140.871C248.243 141.573 247.96 142.626 247.691 144.006C246.99 147.891 247.095 151.88 247.998 155.723C248.627 158.368 249.648 160.904 251.026 163.247C252.499 165.754 254.481 168.262 256.086 171.165C257.811 174.238 258.519 177.778 258.111 181.278C257.741 184.901 256.512 188.469 255.327 192.086C254.142 195.704 253.076 199.296 252.945 202.876C252.889 206.324 253.354 209.761 254.324 213.07C255.183 216.255 256.236 219.214 257.145 222.017C258.031 224.604 258.743 227.247 259.277 229.929C260.274 234.856 259.992 239.019 259.277 241.721C258.997 242.763 258.621 243.777 258.155 244.75L257.766 245.496C257.712 245.578 257.649 245.654 257.578 245.721Z" fill="#263238"/>
<path d="M252.744 165.917C252.744 165.917 249.747 156.319 255.126 150.701C255.168 150.656 255.222 150.623 255.281 150.607C255.34 150.59 255.403 150.59 255.462 150.607C255.521 150.624 255.574 150.657 255.616 150.702C255.657 150.748 255.685 150.804 255.697 150.864C255.985 152.45 256.343 157.278 252.744 165.917Z" fill="#FFBD39"/>
<path d="M254.543 153.899C254.534 154.493 254.467 155.085 254.343 155.667C254.142 156.889 253.91 158.319 253.659 159.899C253.408 161.478 253.177 162.914 252.982 164.13C252.927 164.723 252.822 165.311 252.669 165.886C252.61 165.293 252.622 164.695 252.706 164.105C252.807 163.008 253.001 161.504 253.271 159.848C253.54 158.193 253.835 156.714 254.067 155.629C254.158 155.036 254.318 154.455 254.543 153.899Z" fill="#263238"/>
<path d="M256.268 188.556C256.268 188.556 258.105 178.669 265.49 176.224C265.548 176.204 265.611 176.2 265.671 176.213C265.731 176.227 265.787 176.256 265.831 176.299C265.875 176.342 265.907 176.397 265.922 176.457C265.937 176.516 265.935 176.579 265.916 176.638C265.427 178.161 263.49 182.594 256.268 188.556Z" fill="#FFBD39"/>
<path d="M263.477 178.763C263.191 179.286 262.855 179.779 262.474 180.237L259.885 183.654L257.314 187.083C256.991 187.581 256.624 188.048 256.217 188.481C256.446 187.929 256.741 187.407 257.095 186.926C257.722 186.005 258.575 184.763 259.603 183.428C260.631 182.093 261.565 180.92 262.274 180.067C262.626 179.59 263.029 179.153 263.477 178.763Z" fill="#263238"/>
<path d="M254.274 213.339C254.274 213.339 253.158 203.346 259.515 198.863C259.564 198.825 259.623 198.801 259.685 198.795C259.747 198.79 259.809 198.801 259.865 198.83C259.92 198.858 259.966 198.902 259.998 198.955C260.029 199.009 260.044 199.071 260.042 199.133C260.023 200.744 259.453 205.546 254.274 213.339Z" fill="#FFBD39"/>
<path d="M258.349 201.885C258.233 202.469 258.054 203.038 257.816 203.584L256.337 207.609C255.785 209.114 255.29 210.474 254.87 211.634C254.709 212.205 254.499 212.761 254.243 213.295C254.301 212.701 254.431 212.115 254.631 211.553C254.939 210.499 255.415 209.045 255.998 207.477C256.581 205.91 257.152 204.499 257.584 203.49C257.784 202.93 258.04 202.393 258.349 201.885Z" fill="#263238"/>
<path d="M259.835 238.279C259.835 238.279 259.083 228.248 265.59 223.998C265.641 223.962 265.701 223.942 265.763 223.939C265.825 223.936 265.886 223.951 265.94 223.981C265.994 224.011 266.039 224.055 266.069 224.109C266.099 224.163 266.114 224.224 266.111 224.286C266.036 225.897 265.296 230.681 259.835 238.279Z" fill="#FFBD39"/>
<path d="M264.298 226.982C264.158 227.561 263.958 228.124 263.703 228.662C263.239 229.803 262.687 231.17 262.079 232.631C261.471 234.092 260.938 235.452 260.474 236.6C260.288 237.165 260.051 237.713 259.766 238.236C259.849 237.643 260.002 237.062 260.223 236.505C260.568 235.465 261.095 234.035 261.734 232.487C262.374 230.938 262.988 229.546 263.458 228.556C263.682 228.003 263.963 227.475 264.298 226.982Z" fill="#263238"/>
<path d="M248.431 157.485C248.431 157.485 239.541 152.82 239.346 145.053C239.346 144.992 239.362 144.932 239.392 144.879C239.423 144.827 239.467 144.783 239.521 144.754C239.574 144.724 239.634 144.709 239.695 144.711C239.756 144.713 239.815 144.731 239.867 144.764C241.189 145.679 244.863 148.839 248.431 157.485Z" fill="#FFBD39"/>
<path d="M241.196 147.723C241.613 148.15 241.985 148.618 242.305 149.121C243.033 150.118 243.879 151.297 244.813 152.595L247.321 156.056C247.703 156.511 248.043 157 248.337 157.516C247.878 157.135 247.468 156.699 247.114 156.219C246.406 155.378 245.478 154.175 244.5 152.814C243.522 151.454 242.663 150.194 242.074 149.272C241.728 148.788 241.434 148.269 241.196 147.723Z" fill="#263238"/>
<path d="M258.004 178.092C258.004 178.092 248.826 173.986 248.18 166.231C248.175 166.17 248.186 166.109 248.214 166.054C248.241 165.999 248.283 165.953 248.335 165.921C248.387 165.888 248.447 165.871 248.508 165.87C248.569 165.87 248.629 165.886 248.681 165.917C250.054 166.751 253.91 169.673 258.004 178.092Z" fill="#FFBD39"/>
<path d="M250.199 168.789C250.641 169.187 251.04 169.63 251.39 170.112L254.111 173.428L256.838 176.732C257.247 177.165 257.616 177.632 257.942 178.13C257.46 177.775 257.023 177.365 256.637 176.908C255.885 176.105 254.882 174.964 253.822 173.666C252.763 172.369 251.835 171.159 251.183 170.275C250.801 169.817 250.471 169.319 250.199 168.789Z" fill="#263238"/>
<path d="M252.706 201.095C252.706 201.095 246.437 193.259 249.365 186.049C249.388 185.992 249.426 185.943 249.476 185.907C249.525 185.871 249.583 185.849 249.644 185.843C249.705 185.838 249.766 185.85 249.821 185.877C249.876 185.905 249.922 185.947 249.954 185.999C250.826 187.359 252.913 191.723 252.706 201.095Z" fill="#FFBD39"/>
<path d="M249.999 189.233C250.213 189.79 250.368 190.368 250.462 190.958C250.726 192.161 251.033 193.578 251.372 195.146C251.71 196.713 252.03 198.124 252.293 199.327C252.461 199.899 252.576 200.484 252.638 201.076C252.363 200.543 252.152 199.979 252.011 199.396C251.704 198.337 251.328 196.888 250.977 195.221C250.625 193.553 250.35 192.086 250.174 191.008C250.051 190.424 249.992 189.829 249.999 189.233Z" fill="#263238"/>
<path d="M258.976 228.123C258.976 228.123 249.867 223.866 249.353 216.104C249.347 216.042 249.358 215.98 249.386 215.924C249.413 215.869 249.456 215.822 249.509 215.789C249.562 215.757 249.623 215.739 249.685 215.74C249.747 215.74 249.808 215.758 249.86 215.791C251.208 216.65 255.014 219.64 258.976 228.123Z" fill="#FFBD39"/>
<path d="M251.308 218.687C251.739 219.098 252.129 219.55 252.474 220.035L255.139 223.389L257.81 226.744C258.211 227.182 258.572 227.656 258.888 228.16C258.421 227.794 258 227.373 257.634 226.907C256.888 226.092 255.91 224.932 254.869 223.615C253.828 222.298 252.926 221.076 252.286 220.179C251.903 219.722 251.575 219.221 251.308 218.687Z" fill="#263238"/>
<path d="M277.101 188.6C277.101 188.6 277.101 188.676 277.101 188.82C277.101 188.964 277.101 189.202 277.101 189.447C277.101 190.074 277.038 190.87 276.994 191.886C276.882 194.03 276.712 197.02 276.518 200.594C275.891 204.23 274.01 208.261 271.502 212.18C269.678 215.064 267.741 217.684 266.111 220.123C264.623 222.264 263.286 224.505 262.111 226.832C261.332 228.404 260.703 230.045 260.23 231.734C260.073 232.33 259.948 232.8 259.879 233.12C259.849 233.286 259.805 233.45 259.747 233.609C259.749 233.44 259.77 233.272 259.81 233.107C259.854 232.781 259.948 232.305 260.092 231.697C260.514 229.978 261.113 228.308 261.879 226.712C263.044 224.368 264.379 222.111 265.872 219.96C267.515 217.503 269.415 214.876 271.233 212.011C273.709 208.111 275.552 204.142 276.248 200.562C276.499 196.995 276.706 194.011 276.875 191.867C276.957 190.851 277.026 190.042 277.076 189.434C277.076 189.183 277.12 188.97 277.139 188.807C277.117 188.74 277.105 188.671 277.101 188.6Z" fill="#263238"/>
<path d="M271.678 211.459C271.678 211.459 275.533 202.18 270.687 196.092C270.649 196.044 270.599 196.006 270.541 195.984C270.484 195.963 270.421 195.957 270.361 195.969C270.3 195.981 270.244 196.009 270.199 196.051C270.154 196.092 270.121 196.146 270.104 196.205C269.671 197.76 268.875 202.531 271.678 211.459Z" fill="#FFBD39"/>
<path d="M270.975 199.333C271.142 199.906 271.245 200.494 271.283 201.089C271.42 202.18 271.571 203.691 271.69 205.365C271.809 207.039 271.866 208.556 271.866 209.659C271.903 210.255 271.867 210.853 271.759 211.44C271.651 210.855 271.598 210.261 271.602 209.666C271.521 208.412 271.42 206.989 271.314 205.39C271.207 203.791 271.107 202.343 271.019 201.114C270.946 200.523 270.931 199.927 270.975 199.333Z" fill="#263238"/>
<g opacity="0.3">
<path d="M271.678 211.459C271.678 211.459 275.533 202.18 270.687 196.092C270.649 196.044 270.599 196.006 270.541 195.984C270.484 195.963 270.421 195.957 270.361 195.969C270.3 195.981 270.244 196.009 270.199 196.051C270.154 196.092 270.121 196.146 270.104 196.205C269.671 197.76 268.875 202.531 271.678 211.459Z" fill="black"/>
</g>
<path d="M259.734 233.835C259.734 233.835 262.825 224.267 257.496 218.6C257.455 218.555 257.402 218.522 257.343 218.505C257.284 218.488 257.222 218.487 257.163 218.504C257.104 218.52 257.051 218.552 257.009 218.597C256.967 218.641 256.938 218.697 256.926 218.756C256.625 220.336 256.217 225.164 259.734 233.835Z" fill="#FFBD39"/>
<path d="M258.048 221.784C258.265 222.342 258.417 222.922 258.499 223.515C258.725 224.587 258.995 226.085 259.252 227.74C259.509 229.396 259.684 230.906 259.778 232.004C259.86 232.596 259.87 233.196 259.81 233.79C259.661 233.215 259.56 232.627 259.509 232.035C259.327 230.812 259.114 229.383 258.882 227.797C258.65 226.211 258.424 224.781 258.255 223.559C258.128 222.975 258.058 222.381 258.048 221.784Z" fill="#263238"/>
<g opacity="0.3">
<path d="M259.734 233.835C259.734 233.835 262.825 224.267 257.496 218.6C257.455 218.555 257.402 218.522 257.343 218.505C257.284 218.488 257.222 218.487 257.163 218.504C257.104 218.52 257.051 218.552 257.009 218.597C256.967 218.641 256.938 218.697 256.926 218.756C256.625 220.336 256.217 225.164 259.734 233.835Z" fill="black"/>
</g>
<path d="M276.593 200.117C276.593 200.117 284.825 194.349 283.997 186.613C283.991 186.552 283.968 186.494 283.931 186.445C283.894 186.397 283.844 186.36 283.787 186.338C283.73 186.315 283.668 186.31 283.608 186.321C283.547 186.332 283.491 186.359 283.446 186.4C282.248 187.478 279.038 191.064 276.593 200.117Z" fill="#FFBD39"/>
<g opacity="0.3">
<path d="M276.593 200.117C276.593 200.117 284.825 194.349 283.997 186.613C283.991 186.552 283.968 186.494 283.931 186.445C283.894 186.397 283.844 186.36 283.787 186.338C283.73 186.315 283.668 186.31 283.608 186.321C283.547 186.332 283.491 186.359 283.446 186.4C282.248 187.478 279.038 191.064 276.593 200.117Z" fill="black"/>
</g>
<path d="M282.505 189.503C282.342 190.077 282.112 190.63 281.822 191.152C281.351 192.142 280.668 193.497 279.872 194.976C279.076 196.456 278.311 197.766 277.721 198.694C277.431 199.215 277.08 199.699 276.674 200.136C276.895 199.584 277.167 199.055 277.489 198.556C278.079 197.471 278.775 196.205 279.539 194.794L281.583 191.033C281.84 190.494 282.149 189.982 282.505 189.503Z" fill="#263238"/>
<path d="M263.057 224.348C263.057 224.348 272.988 222.8 275.646 215.49C275.668 215.433 275.673 215.371 275.662 215.311C275.651 215.251 275.623 215.195 275.582 215.15C275.542 215.105 275.489 215.071 275.431 215.054C275.372 215.037 275.31 215.035 275.251 215.051C273.703 215.515 269.214 217.302 263.057 224.348Z" fill="#FFBD39"/>
<g opacity="0.3">
<path d="M263.057 224.348C263.057 224.348 272.988 222.8 275.646 215.49C275.668 215.433 275.673 215.371 275.662 215.311C275.651 215.251 275.623 215.195 275.582 215.15C275.542 215.105 275.489 215.071 275.431 215.054C275.372 215.037 275.31 215.035 275.251 215.051C273.703 215.515 269.214 217.302 263.057 224.348Z" fill="black"/>
</g>
<path d="M273.038 217.427C272.636 217.866 272.186 218.26 271.697 218.6C270.838 219.289 269.628 220.205 268.267 221.183C266.907 222.161 265.634 222.995 264.694 223.571C264.203 223.913 263.673 224.193 263.114 224.405C263.559 224.009 264.039 223.654 264.549 223.346L268.048 220.875L271.54 218.368C272.005 218.002 272.507 217.687 273.038 217.427Z" fill="#263238"/>
<path d="M253.577 242.63L250.681 262.128H268.737L266.398 242.63H253.577Z" fill="#455A64"/>
<path d="M267.126 248.668C267.126 248.774 263.866 248.856 259.847 248.856C255.828 248.856 252.562 248.774 252.562 248.668C254.986 248.482 257.417 248.419 259.847 248.48C262.275 248.419 264.704 248.482 267.126 248.668Z" fill="#263238"/>
<path d="M267.477 250.223C267.477 250.329 264.111 250.411 259.954 250.411C255.797 250.411 252.431 250.329 252.431 250.223C252.431 250.116 255.797 250.035 259.954 250.035C264.111 250.035 267.477 250.116 267.477 250.223Z" fill="#263238"/>
<path d="M197.265 53.4745C197.265 53.4745 197.096 53.4745 196.77 53.4745C196.294 53.4463 195.816 53.4463 195.34 53.4745C193.499 53.5823 191.69 54.0065 189.992 54.7284C187.302 55.8562 184.96 57.6805 183.209 60.0136C182.129 61.4704 181.326 63.113 180.839 64.8599C179.742 69.021 180.334 73.4473 182.488 77.1731C183.075 78.2047 183.791 79.157 184.619 80.0069C185.455 80.9074 186.428 81.6692 187.503 82.2639C188.606 82.8846 189.855 83.1985 191.121 83.173C192.426 83.1573 193.677 82.6515 194.625 81.7561C195.084 81.2754 195.444 80.7092 195.684 80.0895C195.924 79.4699 196.039 78.8091 196.024 78.1449C196.014 76.7648 195.576 75.4219 194.77 74.3017C193.146 72.0133 190.513 70.4773 187.71 69.6498C184.804 68.8336 181.735 68.7904 178.808 69.5244C177.313 69.9132 175.873 70.486 174.519 71.2297C173.153 72.0007 171.912 72.9753 170.839 74.1199C170.582 74.4146 170.287 74.6841 170.055 75.0102L169.347 75.9631C168.916 76.6346 168.531 77.3342 168.193 78.0571C167.523 79.5249 167.065 81.0807 166.833 82.6777C166.378 85.8681 166.812 89.1222 168.087 92.0819C169.306 94.9739 171.428 97.3934 174.137 98.9783C175.45 99.7287 176.916 100.172 178.425 100.276C179.905 100.359 181.376 100.006 182.657 99.2604C183.928 98.5578 184.933 97.4562 185.516 96.1257C186.066 94.8144 186.104 93.3446 185.623 92.0067C185.127 90.7158 184.317 89.5692 183.265 88.6713C182.245 87.7899 181.069 87.1073 179.798 86.6588C177.319 85.8772 174.667 85.8314 172.162 86.5272C169.819 87.1622 167.666 88.3611 165.893 90.0192C164.277 91.5669 163.047 93.4714 162.3 95.5803C160.994 99.2393 161.054 103.247 162.469 106.865C163.573 109.566 165.349 111.941 167.629 113.762C169.065 114.914 170.665 115.845 172.375 116.527C172.964 116.746 173.422 116.909 173.736 116.997L174.2 117.147C174.2 117.147 174.037 117.116 173.723 117.028C173.26 116.904 172.804 116.756 172.356 116.583C170.624 115.932 169.003 115.014 167.554 113.862C165.235 112.042 163.424 109.656 162.294 106.934C160.854 103.282 160.78 99.2324 162.087 95.5301C162.835 93.3893 164.079 91.4558 165.717 89.8876C167.516 88.1962 169.7 86.9694 172.081 86.314C174.638 85.6006 177.347 85.6441 179.88 86.4394C181.188 86.8957 182.399 87.5956 183.447 88.502C184.54 89.4294 185.381 90.6176 185.892 91.9565C186.408 93.3543 186.385 94.8939 185.829 96.2762C185.211 97.659 184.162 98.8049 182.839 99.5426C181.511 100.317 179.986 100.687 178.45 100.608C176.904 100.501 175.404 100.042 174.062 99.2667C171.291 97.6596 169.116 95.1982 167.861 92.2512C166.559 89.2372 166.112 85.9227 166.57 82.6714C166.809 81.0421 167.278 79.4549 167.961 77.9568C168.306 77.2185 168.7 76.5043 169.14 75.8189L169.867 74.8472C170.099 74.5149 170.4 74.2202 170.664 73.9318C171.762 72.7655 173.03 71.772 174.425 70.9852C175.81 70.2273 177.284 69.6459 178.814 69.2548C181.798 68.5071 184.925 68.5524 187.886 69.3864C190.745 70.2391 193.422 71.8002 195.108 74.17C195.956 75.337 196.416 76.7402 196.425 78.1825C196.455 79.6019 195.921 80.9752 194.939 82.0006C193.936 82.9422 192.616 83.4725 191.24 83.4865C189.924 83.5163 188.624 83.1892 187.478 82.5398C186.378 81.9326 185.383 81.1513 184.532 80.2264C183.692 79.3574 182.966 78.3863 182.369 77.3361C180.177 73.5411 179.582 69.031 180.714 64.7972C181.215 63.0301 182.038 61.3704 183.14 59.9007C184.924 57.55 187.305 55.7205 190.036 54.603C191.748 53.8951 193.571 53.496 195.422 53.4244C195.902 53.3927 196.384 53.3927 196.864 53.4244L197.265 53.4745Z" fill="#263238"/>
<path d="M218.199 116.207H130.294V184.005H218.199V116.207Z" fill="#FFBD39"/>
<path d="M130.294 116.207L146.532 131.354H232.944L218.199 116.207H130.294Z" fill="#FFBD39"/>
<path d="M130.294 116.207L218.224 116.05H218.293L218.343 116.094L232.938 131.084L233.089 131.241L233.358 131.517H232.969L146.557 131.448H146.52L130.294 116.207L146.595 131.253H146.526L232.938 131.191L232.825 131.466L232.669 131.31L218.079 116.319L218.192 116.37L130.294 116.207Z" fill="#263238"/>
<path d="M156.701 147.472C156.225 147.49 155.774 147.693 155.447 148.039C155.119 148.385 154.94 148.846 154.949 149.322C154.958 149.799 155.153 150.253 155.493 150.587C155.833 150.92 156.29 151.108 156.767 151.108C157.243 151.108 157.701 150.92 158.041 150.587C158.381 150.253 158.576 149.799 158.585 149.322C158.593 148.846 158.415 148.385 158.087 148.039C157.759 147.693 157.309 147.49 156.833 147.472" fill="#263238"/>
<path d="M177.472 147.472C176.998 147.49 176.549 147.694 176.224 148.039C175.898 148.384 175.72 148.843 175.729 149.317C175.738 149.792 175.933 150.244 176.272 150.576C176.611 150.909 177.066 151.095 177.541 151.095C178.015 151.095 178.471 150.909 178.81 150.576C179.149 150.244 179.343 149.792 179.352 149.317C179.361 148.843 179.184 148.384 178.858 148.039C178.532 147.694 178.084 147.49 177.61 147.472" fill="#263238"/>
<path d="M177.591 163.698C177.229 162.313 176.64 160.997 175.849 159.805C174.968 158.529 173.838 157.445 172.526 156.62C170.943 155.569 169.097 154.985 167.198 154.933C165.299 154.881 163.424 155.363 161.786 156.325C160.433 157.08 159.246 158.099 158.294 159.322C157.437 160.471 156.778 161.755 156.344 163.121C156.349 163.019 156.366 162.918 156.394 162.82C156.454 162.538 156.532 162.259 156.626 161.986C156.97 160.979 157.471 160.033 158.112 159.184C159.057 157.904 160.26 156.836 161.642 156.049C163.322 155.046 165.253 154.542 167.209 154.595C169.165 154.648 171.066 155.257 172.689 156.35C174.023 157.208 175.164 158.335 176.037 159.66C176.632 160.545 177.083 161.518 177.372 162.544C177.449 162.823 177.51 163.105 177.554 163.391C177.575 163.492 177.588 163.595 177.591 163.698Z" fill="#263238"/>
<path opacity="0.5" d="M130.495 116.953L146.043 136.664H218.199V131.354H146.532L130.495 116.953Z" fill="black"/>
<path d="M200.863 183.854C200.775 183.854 200.7 172.061 200.7 157.522C200.7 142.984 200.775 131.191 200.863 131.191C200.951 131.191 201.032 142.977 201.032 157.522C201.032 172.068 200.957 183.854 200.863 183.854Z" fill="#263238"/>
<path d="M214.669 168.481H206.92V177.24H214.669V168.481Z" fill="#F5F5F5"/>
<path d="M130.294 116.207L112.25 131.354H130.294V116.207Z" fill="#FFBD39"/>
<g opacity="0.4">
<path d="M130.294 116.207L112.25 131.354H130.294V116.207Z" fill="black"/>
</g>
<path d="M220.794 184.005H119.724V261.959H220.794V184.005Z" fill="#FFBD39"/>
<path opacity="0.3" d="M220.794 184.005H119.724V261.959H220.794V184.005Z" fill="black"/>
<path d="M195.472 261.407C195.384 261.407 195.309 244.035 195.309 222.606C195.309 201.177 195.384 183.798 195.472 183.798C195.559 183.798 195.635 201.17 195.635 222.606C195.635 244.041 195.559 261.407 195.472 261.407Z" fill="#263238"/>
<path d="M212.224 244.217H204.475V252.975H212.224V244.217Z" fill="#F5F5F5"/>
<path d="M162.037 184.211H150.558V200.844H162.037V184.211Z" fill="#263238"/>
<path d="M162.037 245.094H150.558V261.727H162.037V245.094Z" fill="#263238"/>
<path d="M219.916 184.005H219.653H218.895L215.979 184.036L205.24 184.086L169.823 184.168L134.395 184.124L123.661 184.074L120.746 184.043L123.661 184.011L134.395 183.961L169.823 183.911L205.24 183.961L215.979 184.011L218.895 184.043H219.653L219.916 184.005Z" fill="#263238"/>
<path d="M46.7029 49.0417L35.6938 46.3333H35.7753C32.9326 48.1414 29.6455 49.1287 26.277 49.1859C24.2828 49.195 22.2985 48.9055 20.39 48.327C17.0347 47.2496 14.0579 45.2342 11.8115 42.519C9.56507 39.8037 8.14293 36.5021 7.71314 33.0044C7.37558 30.3591 7.62408 27.6719 8.44101 25.1333C9.25794 22.5948 10.6233 20.267 12.4403 18.315C13.3955 17.2659 14.466 16.3279 15.6315 15.5189C16.2208 15.149 16.8101 14.7665 17.4245 14.4468L18.3587 13.9954L18.8226 13.7697L19.3116 13.5941C21.8291 12.6183 24.5297 12.2053 27.2237 12.3841C30.8343 12.6186 34.2946 13.9165 37.1687 16.1145C40.0427 18.3124 42.2018 21.3119 43.3738 24.735C44.025 26.6498 44.3678 28.656 44.3895 30.6784C44.4052 34.0395 43.4918 37.3396 41.7501 40.2143V40.114C44.8096 45.6374 46.3518 48.4273 46.6967 49.0417C46.3393 48.4147 44.7406 45.675 41.5745 40.208V40.1579V40.1077C43.2537 37.2609 44.121 34.0084 44.0823 30.7035C44.0532 28.7134 43.7061 26.7408 43.0541 24.8604C41.8948 21.5073 39.7721 18.5708 36.9517 16.4184C34.1314 14.2661 30.7388 12.9936 27.1986 12.7603C24.5576 12.5882 21.9109 12.9947 19.4433 13.9515L18.9668 14.1208L18.5092 14.3465L17.5938 14.7853C16.9669 15.1051 16.4152 15.475 15.8321 15.8386C14.6891 16.626 13.6376 17.5386 12.6974 18.5596C10.9136 20.4758 9.57283 22.7607 8.77002 25.2525C7.96722 27.7443 7.72199 30.3822 8.05169 32.9793C8.63294 37.7374 11.074 42.0719 14.8415 45.0355C16.5259 46.3701 18.4374 47.3896 20.484 48.0448C22.3582 48.6242 24.309 48.918 26.2708 48.9163C29.5989 48.8806 32.8528 47.9283 35.6749 46.164H35.7126H35.7815L46.7029 49.0417Z" fill="#263238"/>
<path d="M24.497 22.603L25.055 31.8191C25.0773 32.1826 25.2317 32.5254 25.4893 32.783C25.7468 33.0405 26.0896 33.1949 26.4531 33.2172C26.8356 33.2388 27.2118 33.1131 27.5045 32.8659C27.7972 32.6187 27.9841 32.2688 28.0267 31.8881L29.0487 22.6532C29.0665 22.4879 29.0489 22.3208 28.9972 22.1629C28.9455 22.005 28.8609 21.8598 28.7488 21.7371C28.6368 21.6144 28.4999 21.5169 28.3473 21.4511C28.1947 21.3853 28.0299 21.3527 27.8637 21.3554H25.6255C25.4685 21.3601 25.314 21.3964 25.1713 21.4623C25.0287 21.5282 24.9008 21.6222 24.7954 21.7387C24.69 21.8553 24.6093 21.9919 24.558 22.1404C24.5067 22.2889 24.486 22.4463 24.497 22.603Z" fill="#FFBD39"/>
<path d="M28.886 38.3647C28.7457 38.7857 28.4838 39.1557 28.1333 39.4278C27.7828 39.7 27.3595 39.8622 26.9169 39.8939C26.4742 39.9255 26.0321 39.8253 25.6465 39.6058C25.2608 39.3863 24.9489 39.0574 24.75 38.6606C24.5512 38.2639 24.4745 37.8171 24.5295 37.3768C24.5846 36.9365 24.7689 36.5223 25.0592 36.1867C25.3495 35.8511 25.7328 35.6091 26.1606 35.4912C26.5885 35.3734 27.0416 35.385 27.4629 35.5246C27.7429 35.6175 28.0019 35.7646 28.2251 35.9576C28.4482 36.1507 28.6311 36.3858 28.7633 36.6496C28.8955 36.9134 28.9744 37.2006 28.9954 37.4949C29.0165 37.7892 28.9793 38.0848 28.886 38.3647Z" fill="#FFBD39"/>
</svg>
