<svg width="25" height="25" viewBox="0 0 25 25" fill="none" xmlns="http://www.w3.org/2000/svg">
<path d="M12.5 8.99999C12.9173 8.99999 13.2789 8.85588 13.568 8.56677C13.8572 8.27763 14.001 7.9162 14 7.49941C13.999 7.08327 13.855 6.72242 13.5671 6.43353C13.2787 6.14413 12.9173 6 12.5 6C12.0827 6 11.7213 6.14413 11.4329 6.43353C11.145 6.72242 11.001 7.08327 11 7.49941C10.999 7.91647 11.1434 8.27823 11.4332 8.56802C11.7228 8.85757 12.0839 9.00169 12.5 8.99999ZM12.5 8.99999V8.74999L12.5012 8.99999C12.5008 8.99999 12.5004 8.99999 12.5 8.99999ZM11 18.75V19H11.25H13.75H14V18.75V11.25V11H13.75H11.25H11V11.25V18.75ZM12.5002 24.75H12.5C10.8034 24.75 9.21227 24.428 7.7241 23.7855C6.231 23.1408 4.93472 22.2678 3.83296 21.1669C2.73129 20.066 1.85842 18.7699 1.21459 17.276C0.572784 15.7869 0.250819 14.1957 0.250002 12.4999C0.249184 10.8042 0.571116 9.21314 1.21449 7.72416C1.86004 6.23016 2.733 4.93387 3.83309 3.83296C4.93309 2.73214 6.22928 1.85924 7.72401 1.21456C9.21393 0.571942 10.8051 0.25 12.5 0.25C14.1949 0.25 15.7861 0.571942 17.276 1.21456C18.7707 1.85924 20.0669 2.73214 21.1669 3.83296C22.267 4.93389 23.1404 6.23022 23.7868 7.72426C24.4309 9.21314 24.7524 10.8041 24.75 12.4996C24.7475 14.1956 24.4255 15.787 23.7853 17.2763C23.1432 18.7699 22.2704 20.066 21.1672 21.1668C20.0636 22.2679 18.7672 23.1413 17.2757 23.7868C15.7894 24.4301 14.1984 24.7516 12.5002 24.75Z" fill="#1A1A1A" stroke="#C5F9D7" stroke-width="0.5"/>
</svg>
