<svg width="239" height="239" viewBox="0 0 239 239" fill="none" xmlns="http://www.w3.org/2000/svg">
<path d="M139.295 35.305L139.864 32.7121C144.295 33.7187 148.649 35.0433 152.893 36.6756L151.944 39.1657C147.827 37.5678 143.599 36.2774 139.295 35.305Z" fill="#E6A92F"/>
<path d="M78.8312 42.6641L77.5034 40.1779C94.0323 31.8491 112.724 28.6985 131.151 31.1349L130.828 33.7777C112.955 31.4471 94.8364 34.5436 78.8312 42.6641Z" fill="#E6A92F"/>
<path d="M64.0049 182.129C97.0705 213.239 148.896 211.865 179.76 179.06C210.625 146.256 208.84 94.4426 175.775 63.3329C142.709 32.2232 90.8838 33.5973 60.0194 66.4021C29.155 99.2068 30.9394 151.02 64.0049 182.129Z" fill="#E6A92F"/>
<path opacity="0.6" d="M169.899 169.782C159.004 181.353 144.375 188.721 128.543 190.61C112.711 192.5 96.672 188.791 83.2034 180.126C69.7348 171.462 59.6839 158.387 54.7905 143.165C49.897 127.943 50.4691 111.531 56.4076 96.772C62.3461 82.0126 73.2773 69.8338 87.3091 62.3439C101.341 54.854 117.59 52.5243 133.243 55.7582C148.897 58.9921 162.97 67.5859 173.026 80.0522C183.083 92.5184 188.489 108.072 188.31 124.022C188.332 124.029 188.352 124.041 188.369 124.057C188.386 124.073 188.399 124.092 188.408 124.113C188.18 141.158 181.577 157.449 169.899 169.782Z" fill="white"/>
<path d="M169.893 169.777C160.819 179.421 149.109 186.191 136.194 189.257C123.28 192.324 109.722 191.555 97.1783 187.044C84.6345 182.534 73.6491 174.477 65.5657 163.86C57.4824 153.243 52.6515 140.526 51.6641 127.264C51.8139 109.607 58.7934 92.7461 71.1409 80.2129C83.4884 67.6798 100.246 60.446 117.905 60.0264C135.565 59.6069 152.755 66.034 165.878 77.962C179 89.8899 187.037 106.394 188.304 124.017C188.326 124.024 188.346 124.036 188.363 124.052C188.38 124.068 188.393 124.087 188.402 124.109C188.174 141.153 181.571 157.445 169.893 169.777Z" fill="white"/>
<path d="M117.162 125.621C116.778 125.262 116.469 124.83 116.252 124.351C116.035 123.872 115.915 123.356 115.899 122.833L114.275 75.6843C114.238 75.1496 114.309 74.6137 114.483 74.1086C114.658 73.6035 114.933 73.1395 115.291 72.7444C115.65 72.3492 116.086 72.0309 116.571 71.8085C117.057 71.5862 117.584 71.4642 118.119 71.45C118.655 71.4358 119.189 71.5297 119.689 71.7259C120.19 71.9221 120.646 72.2167 121.031 72.5922C121.417 72.9676 121.723 73.4162 121.932 73.9111C122.141 74.4061 122.248 74.9372 122.248 75.4729L123.734 118.636L148.668 117.975C149.702 117.984 150.696 118.394 151.439 119.118C152.183 119.842 152.618 120.825 152.653 121.858C152.689 122.891 152.322 123.895 151.63 124.657C150.938 125.42 149.974 125.882 148.943 125.945L120.023 126.712C118.966 126.738 117.938 126.346 117.162 125.621Z" fill="#542D0A"/>
</svg>
