<svg width="31" height="27" viewBox="0 0 31 27" fill="none" xmlns="http://www.w3.org/2000/svg">
<path d="M15.2605 8.52632L19.7273 13.0168V12.7895C19.7273 11.6588 19.2819 10.5745 18.4891 9.77497C17.6964 8.97547 16.6211 8.52632 15.5 8.52632H15.2605ZM9.20136 9.66316L11.3855 11.8658C11.315 12.1642 11.2727 12.4626 11.2727 12.7895C11.2727 13.9201 11.7181 15.0045 12.5109 15.804C13.3036 16.6035 14.3789 17.0526 15.5 17.0526C15.81 17.0526 16.12 17.01 16.4159 16.9389L18.6 19.1416C17.6559 19.6105 16.6132 19.8947 15.5 19.8947C13.6314 19.8947 11.8394 19.1461 10.5181 17.8137C9.19683 16.4812 8.45455 14.6739 8.45455 12.7895C8.45455 11.6668 8.73636 10.6153 9.20136 9.66316ZM1.40909 1.80474L4.62182 5.04474L5.25591 5.68421C2.93091 7.53158 1.09909 9.94737 0 12.7895C2.43773 19.0279 8.45455 23.4474 15.5 23.4474C17.6841 23.4474 19.7695 23.0211 21.6718 22.2537L22.2777 22.8505L26.3923 27L28.1818 25.1953L3.19864 0M15.5 5.68421C17.3686 5.68421 19.1606 6.4328 20.4819 7.76529C21.8032 9.09779 22.5455 10.905 22.5455 12.7895C22.5455 13.6989 22.3623 14.58 22.0382 15.3758L26.1668 19.5395C28.2805 17.7632 29.9714 15.4326 31 12.7895C28.5623 6.55105 22.5455 2.13158 15.5 2.13158C13.5273 2.13158 11.6391 2.48684 9.86364 3.12632L12.9214 6.18158C13.7245 5.86895 14.5841 5.68421 15.5 5.68421Z" fill="#8B8B8B"/>
</svg>
