<svg width="15" height="10" viewBox="0 0 15 10" fill="none" xmlns="http://www.w3.org/2000/svg">
<path d="M13.7455 2.90443L8.24534 8.70382C7.8283 9.14354 7.15216 9.14354 6.73513 8.70382L6.72006 8.68793C6.30303 8.24821 6.30303 7.53529 6.72006 7.09557L12.2202 1.29618C12.6373 0.856461 13.3134 0.856461 13.7304 1.29618L13.7455 1.31207C14.1626 1.75179 14.1626 2.46471 13.7455 2.90443Z" fill="#542D0A"/>
<path d="M8.27994 8.68793L8.26487 8.70382C7.84784 9.14354 7.1717 9.14354 6.75466 8.70382L1.25448 2.90443C0.837448 2.46471 0.837448 1.75179 1.25448 1.31207L1.26955 1.29618C1.68658 0.856461 2.36272 0.856461 2.77975 1.29618L8.27994 7.09557C8.69697 7.53529 8.69697 8.24821 8.27994 8.68793Z" fill="#542D0A"/>
</svg>
