<svg width="206" height="206" viewBox="0 0 206 206" fill="none" xmlns="http://www.w3.org/2000/svg">
<path fill-rule="evenodd" clip-rule="evenodd" d="M103 206C159.885 206 206 159.885 206 103C206 46.1147 159.885 0 103 0C46.1147 0 0 46.1147 0 103C0 159.885 46.1147 206 103 206ZM148.32 76.5358C148.32 74.8136 147.636 73.1618 146.419 71.9438C145.816 71.3403 145.1 70.8615 144.312 70.5348C143.524 70.2081 142.68 70.04 141.827 70.04C140.974 70.04 140.129 70.2081 139.341 70.5348C138.553 70.8615 137.837 71.3403 137.234 71.9438L92.8557 116.344L72.9625 96.4431C72.3636 95.8228 71.6472 95.3279 70.8551 94.9875C70.063 94.6472 69.211 94.468 68.349 94.4605C67.4869 94.453 66.6319 94.6173 65.834 94.9439C65.0361 95.2705 64.3112 95.7528 63.7016 96.3626C63.092 96.9724 62.6099 97.6976 62.2835 98.4958C61.957 99.294 61.7928 100.149 61.8002 101.012C61.8077 101.874 61.9868 102.726 62.3271 103.519C62.6674 104.311 63.162 105.028 63.7821 105.627L87.9603 129.81C88.6034 130.454 89.3669 130.964 90.2072 131.312C91.0476 131.661 91.9482 131.84 92.8578 131.84C93.7674 131.84 94.6681 131.661 95.5084 131.312C96.3487 130.964 97.1123 130.454 97.7554 129.81L146.419 81.1278C147.636 79.9098 148.32 78.2581 148.32 76.5358Z" fill="#2D9D47"/>
</svg>
