<svg width="338" height="252" viewBox="0 0 338 252" fill="none" xmlns="http://www.w3.org/2000/svg">
<path d="M338 221.454H0V221.623H338V221.454Z" fill="#193442"/>
<path d="M304.133 232.337H281.744V232.506H304.133V232.337Z" fill="#193442"/>
<path d="M223.906 234.177H218.031V234.346H223.906V234.177Z" fill="#A1A1A1"/>
<path d="M281.068 226.06H268.096V226.229H281.068V226.06Z" fill="#193442"/>
<path d="M64.6593 227.196H35.4629V227.365H64.6593V227.196Z" fill="#193442"/>
<path d="M74.9607 227.196H70.6816V227.365H74.9607V227.196Z" fill="#193442"/>
<path d="M152.201 230.051H88.873V230.22H152.201V230.051Z" fill="#193442"/>
<path d="M160.212 191.286H29.6833C28.6607 191.284 27.6807 190.877 26.9582 190.153C26.2358 189.428 25.8301 188.447 25.8301 187.424V3.82843C25.839 2.81114 26.2487 1.83844 26.9701 1.12162C27.6916 0.404798 28.6666 0.00174267 29.6833 0H160.212C161.236 0 162.218 0.406915 162.942 1.13123C163.665 1.85554 164.072 2.83792 164.072 3.86225V187.424C164.072 188.448 163.665 189.431 162.942 190.155C162.218 190.879 161.236 191.286 160.212 191.286ZM29.6833 0.135281C28.7055 0.137073 27.7685 0.52696 27.0777 1.21937C26.387 1.91177 25.9991 2.85012 25.9991 3.82843V187.424C25.9991 188.402 26.387 189.341 27.0777 190.033C27.7685 190.725 28.7055 191.115 29.6833 191.117H160.212C161.19 191.115 162.128 190.726 162.82 190.033C163.512 189.341 163.901 188.403 163.903 187.424V3.82843C163.901 2.84949 163.512 1.91117 162.82 1.21895C162.128 0.526741 161.19 0.137069 160.212 0.135281H29.6833Z" fill="#193442"/>
<path d="M306.439 191.286H175.903C174.88 191.284 173.899 190.877 173.176 190.153C172.452 189.429 172.045 188.448 172.043 187.424V3.82843C172.054 2.81052 172.465 1.83783 173.187 1.1212C173.91 0.404561 174.886 0.00172367 175.903 0H306.439C307.454 0.00352033 308.427 0.407362 309.147 1.12399C309.867 1.84063 310.276 2.81231 310.285 3.82843V187.424C310.285 188.446 309.88 189.426 309.159 190.15C308.438 190.874 307.46 191.283 306.439 191.286ZM175.903 0.135281C174.925 0.137069 173.987 0.526741 173.295 1.21895C172.603 1.91117 172.214 2.84949 172.212 3.82843V187.424C172.214 188.403 172.603 189.341 173.295 190.033C173.987 190.726 174.925 191.115 175.903 191.117H306.439C307.417 191.115 308.355 190.726 309.046 190.033C309.738 189.341 310.128 188.403 310.129 187.424V3.82843C310.128 2.84949 309.738 1.91117 309.046 1.21895C308.355 0.526741 307.417 0.137069 306.439 0.135281H175.903Z" fill="#193442"/>
<path d="M45.1496 221.454H136.883L136.883 27.4686H45.1496L45.1496 221.454Z" fill="#E6E6E6"/>
<path d="M43.1145 221.454H134.848L134.848 27.4686H43.1145L43.1145 221.454Z" fill="#B8CCCF"/>
<path d="M131.191 217.341V31.5813L46.7793 31.5813L46.7793 217.341H131.191Z" fill="#FAFAFA"/>
<path d="M111.75 217.341L90.3616 31.5813H66.2148L87.6035 217.341H111.75Z" fill="white"/>
<path d="M48.3203 217.341L48.3203 31.5813H46.779L46.779 217.341H48.3203Z" fill="#E6E6E6"/>
<path d="M44.6293 53.1921L133.334 53.1921V47.6727L44.6293 47.6727V53.1921Z" fill="#B8CCCF"/>
<path d="M185.379 221.454V108.901H148.341V221.454H185.379Z" fill="#A1A1A1"/>
<path d="M183.344 145.176V112.188H150.375V145.176H183.344Z" fill="#B8CCCF"/>
<path d="M183.344 181.127V148.139H150.375V181.127H183.344Z" fill="#B8CCCF"/>
<path d="M183.344 217.077V184.089H150.375V217.077H183.344Z" fill="#B8CCCF"/>
<path d="M174.157 111.755H159.535C159.531 112.205 159.616 112.651 159.786 113.067C159.956 113.484 160.207 113.862 160.525 114.18C160.843 114.498 161.221 114.75 161.637 114.92C162.054 115.09 162.5 115.175 162.949 115.171H170.71C171.161 115.174 171.608 115.089 172.025 114.919C172.443 114.749 172.823 114.498 173.143 114.18C173.464 113.863 173.718 113.485 173.892 113.069C174.066 112.653 174.156 112.206 174.157 111.755Z" fill="#E6E6E6"/>
<path d="M174.157 147.706H159.535C159.535 148.612 159.895 149.482 160.535 150.124C161.175 150.765 162.043 151.127 162.949 151.128H170.709C171.161 151.131 171.608 151.045 172.026 150.874C172.443 150.703 172.823 150.452 173.144 150.134C173.464 149.816 173.718 149.437 173.892 149.021C174.066 148.604 174.156 148.157 174.157 147.706Z" fill="#E6E6E6"/>
<path d="M174.157 183.656H159.535C159.535 184.563 159.895 185.433 160.535 186.074C161.175 186.716 162.043 187.077 162.949 187.079H170.709C171.161 187.082 171.608 186.995 172.026 186.825C172.443 186.654 172.823 186.402 173.144 186.084C173.464 185.766 173.718 185.388 173.892 184.971C174.066 184.555 174.156 184.108 174.157 183.656Z" fill="#E6E6E6"/>
<path d="M203.875 221.454V108.901H185.373V221.454H203.875Z" fill="#B8CCCF"/>
<path d="M284.251 218.687H294.52V133.948H284.251V218.687Z" fill="#A1A1A1"/>
<path d="M194.498 221.454H293.1V218.687H194.498V221.454Z" fill="#A1A1A1"/>
<path d="M284.251 133.948H193.072V218.687H284.251V133.948Z" fill="#FAFAFA"/>
<path d="M210.912 183.467H266.384C269.003 183.467 271.516 182.426 273.368 180.573C275.22 178.719 276.26 176.206 276.26 173.585C276.26 170.964 275.22 168.45 273.368 166.597C271.516 164.744 269.003 163.703 266.384 163.703H210.912C208.292 163.703 205.78 164.744 203.928 166.597C202.076 168.45 201.035 170.964 201.035 173.585C201.035 176.206 202.076 178.719 203.928 180.573C205.78 182.426 208.292 183.467 210.912 183.467ZM266.398 164.366C267.608 164.366 268.806 164.604 269.924 165.067C271.041 165.531 272.057 166.21 272.913 167.066C273.768 167.922 274.447 168.938 274.91 170.057C275.373 171.175 275.611 172.374 275.611 173.585C275.611 174.796 275.373 175.994 274.91 177.113C274.447 178.232 273.768 179.248 272.913 180.104C272.057 180.96 271.041 181.639 269.924 182.102C268.806 182.566 267.608 182.804 266.398 182.804H210.912C208.468 182.804 206.124 181.833 204.396 180.104C202.668 178.375 201.698 176.03 201.698 173.585C201.698 171.14 202.668 168.795 204.396 167.066C206.124 165.337 208.468 164.366 210.912 164.366H266.398Z" fill="#A1A1A1"/>
<path d="M210.912 208.054H266.384C269.003 208.054 271.516 207.013 273.368 205.16C275.22 203.307 276.26 200.793 276.26 198.172C276.26 195.551 275.22 193.038 273.368 191.184C271.516 189.331 269.003 188.29 266.384 188.29H210.912C208.292 188.29 205.78 189.331 203.928 191.184C202.076 193.038 201.035 195.551 201.035 198.172C201.035 200.793 202.076 203.307 203.928 205.16C205.78 207.013 208.292 208.054 210.912 208.054ZM266.384 188.953C267.615 188.919 268.839 189.133 269.986 189.581C271.133 190.029 272.178 190.703 273.06 191.562C273.942 192.421 274.643 193.448 275.122 194.583C275.601 195.718 275.847 196.937 275.847 198.169C275.847 199.4 275.601 200.62 275.122 201.754C274.643 202.889 273.942 203.916 273.06 204.775C272.178 205.634 271.133 206.308 269.986 206.756C268.839 207.204 267.615 207.418 266.384 207.385H210.912C209.681 207.418 208.456 207.204 207.31 206.756C206.163 206.308 205.118 205.634 204.236 204.775C203.353 203.916 202.652 202.889 202.174 201.754C201.695 200.62 201.448 199.4 201.448 198.169C201.448 196.937 201.695 195.718 202.174 194.583C202.652 193.448 203.353 192.421 204.236 191.562C205.118 190.703 206.163 190.029 207.31 189.581C208.456 189.133 209.681 188.919 210.912 188.953H266.384Z" fill="#A1A1A1"/>
<path d="M230.292 171.454H247.03C247.576 171.452 248.1 171.234 248.486 170.848C248.872 170.461 249.09 169.938 249.092 169.391C249.09 168.845 248.872 168.321 248.486 167.934C248.1 167.548 247.576 167.33 247.03 167.328H230.292C229.746 167.33 229.223 167.548 228.836 167.934C228.45 168.321 228.232 168.845 228.23 169.391C228.232 169.938 228.45 170.461 228.836 170.848C229.223 171.234 229.746 171.452 230.292 171.454Z" fill="#A1A1A1"/>
<path d="M210.912 158.88H266.384C269.003 158.88 271.516 157.839 273.368 155.985C275.22 154.132 276.26 151.619 276.26 148.998C276.26 146.377 275.22 143.863 273.368 142.01C271.516 140.157 269.003 139.115 266.384 139.115H210.912C208.292 139.115 205.78 140.157 203.928 142.01C202.076 143.863 201.035 146.377 201.035 148.998C201.035 151.619 202.076 154.132 203.928 155.985C205.78 157.839 208.292 158.88 210.912 158.88ZM266.384 139.778C268.828 139.778 271.171 140.75 272.899 142.479C274.627 144.208 275.598 146.553 275.598 148.998C275.598 151.443 274.627 153.788 272.899 155.517C271.171 157.246 268.828 158.217 266.384 158.217H210.912C208.468 158.217 206.124 157.246 204.396 155.517C202.668 153.788 201.698 151.443 201.698 148.998C201.698 146.553 202.668 144.208 204.396 142.479C206.124 140.75 208.468 139.778 210.912 139.778H266.384Z" fill="#A1A1A1"/>
<path d="M230.292 146.867H247.03C247.576 146.865 248.1 146.647 248.486 146.261C248.872 145.874 249.09 145.35 249.092 144.804C249.083 144.263 248.862 143.747 248.476 143.367C248.09 142.987 247.571 142.775 247.03 142.775H230.292C229.751 142.775 229.232 142.987 228.846 143.367C228.46 143.747 228.239 144.263 228.23 144.804C228.232 145.35 228.45 145.874 228.836 146.261C229.223 146.647 229.746 146.865 230.292 146.867Z" fill="#A1A1A1"/>
<path d="M230.292 196.034H247.03C247.571 196.035 248.09 195.822 248.476 195.442C248.862 195.063 249.083 194.547 249.092 194.005C249.081 193.465 248.86 192.949 248.474 192.57C248.089 192.191 247.571 191.978 247.03 191.976H230.292C229.752 191.978 229.233 192.191 228.848 192.57C228.463 192.949 228.241 193.465 228.23 194.005C228.239 194.547 228.46 195.063 228.846 195.442C229.232 195.822 229.751 196.035 230.292 196.034Z" fill="#A1A1A1"/>
<path d="M191.193 133.948H284.244V129.639H191.193V133.948Z" fill="#A1A1A1"/>
<path d="M296.535 129.646H284.252V133.954H296.535V129.646Z" fill="#E6E6E6"/>
<path d="M217.672 61.8163C219.748 62.858 225.372 61.7351 223.5 65.5433C222.421 67.5381 221.132 69.4112 219.653 71.1303C217.558 73.721 217.956 76.5415 220.431 77.5426C220.961 77.7247 221.43 78.0529 221.783 78.4896C222.925 80.1265 220.234 82.318 218.91 83.9549C217.585 85.5918 217.057 87.2016 218.031 88.4192C219.112 89.772 221.357 89.2647 223.141 89.6705C227.427 90.6513 223.02 96.5698 223.473 99.6068C223.783 101.69 225.501 102.272 227.765 102.563C229.638 102.806 232.132 102.975 232.233 104.89C232.328 106.553 230.165 108.434 229.597 110.179C229.328 110.93 229.225 111.731 229.298 112.525C229.37 113.32 229.615 114.089 230.016 114.779C230.397 115.36 230.893 115.856 231.475 116.236C232.057 116.615 232.711 116.87 233.396 116.984C235.519 117.43 238.73 116.984 238.885 119.365C238.953 120.433 238.209 121.394 238.723 122.368C239.008 122.779 239.378 123.123 239.809 123.376C240.24 123.63 240.72 123.786 241.218 123.836C243.25 124.146 245.321 124.109 247.342 123.727C249.837 123.267 253.521 121.069 252.169 118.952C251.936 118.648 251.645 118.394 251.313 118.204C250.981 118.013 250.615 117.89 250.235 117.843C249.64 117.721 247.896 117.91 247.673 117.504C247.45 117.099 248.052 115.536 248.072 114.975C248.134 113.416 247.888 111.86 247.349 110.395C246.66 108.481 245.562 106.741 244.131 105.295C243.536 104.693 242.597 104.254 242.475 103.381C242.353 102.509 242.901 101.548 243.509 100.676C244.462 99.3227 245.943 98.0511 246.477 96.6171C247.315 94.358 245.28 93.641 243.394 93.1269C241.691 92.6602 239.446 92.065 240.014 89.9952C240.433 88.5003 242.319 87.2896 242.88 85.815C243.644 83.8602 241.792 83.7858 240.474 83.1094C238.75 82.203 238.317 80.5797 238.939 78.5302C239.974 75.1482 246.173 70.366 242.995 68.1677C242.191 67.6063 241.441 67.4237 240.967 66.5782C240.494 65.7327 240.373 64.549 239.697 63.7508C238.628 62.4589 236.418 62.2424 235.269 61.0452C232.896 58.5831 238.013 54.2203 233.342 53.1787C232.356 53.0516 231.422 52.6615 230.638 52.0491C230.212 51.65 229.861 49.7222 229.381 49.587C227.238 48.9917 223.378 53.1516 222.161 54.43C220.681 55.9722 215.212 60.5717 217.672 61.8163Z" fill="#A1A1A1"/>
<path d="M254.44 119.189C253.17 116.828 247.606 114.454 251.297 111.748C253.288 110.393 255.429 109.274 257.678 108.414C260.91 107.061 262.059 103.949 260.423 101.372C260.047 100.831 259.814 100.202 259.747 99.546C259.612 97.1651 263.161 96.5969 265.202 95.7379C267.244 94.8788 268.582 93.5666 268.359 91.7133C268.129 89.6841 265.885 88.7777 264.526 87.2558C261.268 83.5897 268.325 80.2686 269.549 76.873C270.387 74.5462 269.211 72.9026 267.345 71.1777C265.824 69.7641 263.708 68.046 264.641 66.0168C265.453 64.2582 268.366 63.6765 269.799 62.2425C270.46 61.5942 270.986 60.8208 271.346 59.9673C271.706 59.1138 271.892 58.1972 271.895 57.2709C271.863 55.648 271.223 54.0961 270.103 52.9217C268.467 51.1428 265.371 49.6208 266.527 47.0708C267.041 45.9345 268.211 45.4272 268.278 44.0946C268.258 43.5177 268.122 42.9506 267.879 42.4267C267.637 41.9029 267.292 41.4328 266.865 41.0441C265.282 39.4917 263.432 38.2382 261.403 37.3442C258.956 36.2619 254.528 36.2281 254.589 39.2381C254.665 40.1243 255.059 40.9531 255.698 41.5717C256.164 42.0722 257.8 42.9583 257.78 43.5129C257.76 44.0676 256.428 45.2919 256.07 45.8533C255.174 47.4487 254.563 49.1883 254.265 50.9939C253.846 53.3876 253.885 55.8388 254.38 58.2179C254.576 59.1987 255.177 60.2471 254.812 61.2076C254.447 62.1681 253.46 62.8174 252.467 63.3112C250.905 64.0958 248.911 64.4949 247.674 65.6313C245.72 67.4237 247.133 69.4259 248.525 71.1236C249.783 72.6591 251.439 74.6612 249.823 76.4266C248.654 77.6983 246.335 77.7794 245.091 78.9225C243.374 80.458 244.963 81.6823 245.767 83.2244C246.795 85.2537 246.315 87.1476 244.665 88.8589C241.961 91.6862 233.917 92.7279 235.546 96.9757C235.959 98.0512 236.513 98.7073 236.493 99.8707C236.472 101.034 235.938 102.306 236.101 103.557C236.351 105.546 238.183 107.142 238.561 109.083C239.332 113.081 232.477 114.373 236.046 118.336C236.88 119.118 237.499 120.101 237.845 121.191C238.014 121.867 237.284 124.052 237.635 124.492C239.21 126.433 244.841 124.58 246.599 124.018C248.674 123.308 255.961 121.996 254.44 119.189Z" fill="#B8CCCF"/>
<path d="M268.69 113.865C268.69 113.865 268.014 129.646 242.204 129.646C216.395 129.646 215.719 113.865 215.719 113.865H268.69Z" fill="#A1A1A1"/>
<path d="M168.999 252C241.387 252 300.069 248.572 300.069 244.343C300.069 240.114 241.387 236.686 168.999 236.686C96.6116 236.686 37.9297 240.114 37.9297 244.343C37.9297 248.572 96.6116 252 168.999 252Z" fill="#B8CCCF"/>
<g opacity="0.2">
<path d="M243.855 238.682L200.801 159.056L157.746 238.682H243.855Z" fill="#E6A92F"/>
<path d="M243.855 103.977L200.801 183.596L157.746 103.977H243.855Z" fill="#E6A92F"/>
</g>
<path d="M208.688 150.986L202.388 162.634C202.233 162.921 202.004 163.16 201.724 163.327C201.445 163.494 201.125 163.582 200.799 163.582C200.474 163.582 200.154 163.494 199.874 163.327C199.595 163.16 199.365 162.921 199.211 162.634L192.91 150.986C192.342 149.933 192.058 148.751 192.084 147.555C192.11 146.359 192.446 145.19 193.059 144.163C193.673 143.136 194.542 142.286 195.583 141.696C196.623 141.107 197.799 140.798 198.994 140.8H202.638C203.831 140.804 205.002 141.117 206.038 141.709C207.074 142.301 207.939 143.151 208.548 144.177C209.157 145.203 209.491 146.37 209.515 147.563C209.54 148.757 209.255 149.936 208.688 150.986Z" fill="#E6A92F"/>
<path d="M201.482 218.579L221.052 226.628C221.434 226.789 221.749 227.077 221.944 227.443C222.139 227.809 222.202 228.231 222.123 228.638C222.043 229.045 221.827 229.412 221.509 229.678C221.191 229.944 220.791 230.093 220.376 230.098H181.256C180.842 230.093 180.442 229.944 180.124 229.678C179.806 229.412 179.589 229.045 179.51 228.638C179.431 228.231 179.494 227.809 179.689 227.443C179.884 227.077 180.198 226.789 180.58 226.628L200.096 218.579C200.316 218.487 200.551 218.44 200.789 218.44C201.027 218.44 201.263 218.487 201.482 218.579Z" fill="#E6A92F"/>
<path d="M200.799 203.265C202.184 203.265 203.307 202.142 203.307 200.756C203.307 199.37 202.184 198.247 200.799 198.247C199.414 198.247 198.291 199.37 198.291 200.756C198.291 202.142 199.414 203.265 200.799 203.265Z" fill="#E6A92F"/>
<path d="M200.799 175.837C201.512 175.837 202.09 175.259 202.09 174.545C202.09 173.832 201.512 173.253 200.799 173.253C200.086 173.253 199.508 173.832 199.508 174.545C199.508 175.259 200.086 175.837 200.799 175.837Z" fill="#E6A92F"/>
<path d="M200.801 188.506C201.611 188.506 202.268 187.849 202.268 187.039C202.268 186.228 201.611 185.571 200.801 185.571C199.991 185.571 199.334 186.228 199.334 187.039C199.334 187.849 199.991 188.506 200.801 188.506Z" fill="#E6A92F"/>
<path d="M243.638 234.752H157.962C156.922 234.755 155.926 235.171 155.191 235.907C154.456 236.644 154.043 237.641 154.041 238.682C154.045 239.721 154.459 240.717 155.193 241.452C155.928 242.187 156.923 242.601 157.962 242.605H243.638C244.677 242.601 245.672 242.187 246.407 241.452C247.141 240.717 247.555 239.721 247.559 238.682C247.557 237.641 247.144 236.644 246.409 235.907C245.674 235.171 244.678 234.755 243.638 234.752Z" fill="#E6A92F"/>
<path d="M243.638 100.053H157.962C156.923 100.057 155.928 100.471 155.193 101.206C154.459 101.941 154.045 102.937 154.041 103.976C154.045 105.016 154.459 106.012 155.193 106.746C155.928 107.481 156.923 107.896 157.962 107.899H243.638C244.677 107.896 245.672 107.481 246.407 106.746C247.141 106.012 247.555 105.016 247.559 103.976C247.555 102.937 247.141 101.941 246.407 101.206C245.672 100.471 244.677 100.057 243.638 100.053Z" fill="#E6A92F"/>
<path d="M131.569 237.2L126.803 235.651L129.764 224.403L134.529 225.952L131.569 237.2Z" fill="#FF8B7B"/>
<path d="M126.73 235.016L132.084 236.754C132.174 236.781 132.251 236.841 132.297 236.923C132.344 237.005 132.357 237.102 132.334 237.194L131.218 241.523C131.147 241.745 130.99 241.931 130.783 242.039C130.575 242.146 130.333 242.168 130.11 242.097C128.258 241.462 127.406 241.063 125.047 240.298C123.593 239.825 118.821 238.594 116.82 237.944C114.819 237.295 115.515 235.333 116.421 235.428C120.477 235.854 124.127 235.665 125.817 235.043C126.11 234.933 126.431 234.923 126.73 235.016Z" fill="#542D0A"/>
<path opacity="0.2" d="M134.53 225.959L129.764 224.403L128.236 230.206L133.009 231.755L134.53 225.959Z" fill="#1A1A1A"/>
<path d="M147.557 112.093C147.557 112.093 139.006 151.696 136.998 165.935C134.801 181.526 126.547 228.346 126.547 228.346L135.396 230.795C135.396 230.795 147.658 185.388 151.241 170.23C155.128 153.773 165.437 112.059 165.437 112.059L147.557 112.093Z" fill="#E6A92F"/>
<path opacity="0.3" d="M158.129 125.08C154.749 132.75 153.079 149.431 154.391 157.108C156.784 147.266 159.663 135.564 161.887 126.561C161.137 123.951 159.893 121.076 158.129 125.08Z" fill="#1A1A1A"/>
<path d="M135.618 230.97L126.141 228.36L126.33 224.497L136.997 228.184L135.618 230.97Z" fill="#542D0A"/>
<path d="M124.768 235.299C125.209 235.427 125.662 235.509 126.12 235.542C126.143 235.543 126.165 235.538 126.185 235.528C126.205 235.517 126.222 235.501 126.233 235.481C126.244 235.461 126.25 235.439 126.249 235.416C126.248 235.394 126.241 235.372 126.228 235.353C126.107 235.197 125.059 233.839 124.403 233.879C124.328 233.883 124.254 233.906 124.19 233.946C124.126 233.986 124.074 234.042 124.038 234.109C123.97 234.207 123.93 234.321 123.92 234.44C123.911 234.558 123.933 234.677 123.984 234.785C124.176 235.044 124.454 235.226 124.768 235.299ZM125.843 235.299C124.937 235.191 124.315 234.961 124.166 234.67C124.135 234.601 124.123 234.526 124.132 234.451C124.14 234.376 124.168 234.304 124.214 234.244C124.231 234.212 124.256 234.184 124.287 234.164C124.318 234.144 124.353 234.132 124.39 234.129C124.741 234.089 125.404 234.751 125.843 235.278V235.299Z" fill="#542D0A"/>
<path d="M126.073 235.536H126.128C126.147 235.532 126.165 235.523 126.181 235.51C126.196 235.497 126.208 235.48 126.215 235.462C126.215 235.408 126.79 234.068 126.459 233.433C126.418 233.353 126.358 233.283 126.285 233.23C126.213 233.178 126.128 233.143 126.04 233.128C125.944 233.099 125.841 233.104 125.748 233.141C125.654 233.177 125.576 233.244 125.526 233.331C125.249 233.818 125.634 235.042 126.019 235.482L126.073 235.536ZM126.073 233.392C126.119 233.405 126.161 233.427 126.197 233.458C126.233 233.488 126.262 233.526 126.283 233.568C126.396 234.112 126.332 234.679 126.1 235.184C125.773 234.678 125.65 234.067 125.756 233.473C125.756 233.412 125.85 233.345 126.019 233.378L126.073 233.392Z" fill="#542D0A"/>
<path d="M156.655 74.4919C156.398 75.1006 156.182 75.5606 155.945 76.0746C155.709 76.5887 155.452 77.0622 155.202 77.5492C154.701 78.53 154.174 79.4837 153.627 80.4374C152.52 82.3525 151.301 84.2001 149.976 85.9704C148.62 87.8011 147.116 89.518 145.481 91.1043C143.738 92.8203 141.763 94.2822 139.613 95.4468L139.444 95.5347C139.171 95.6761 138.88 95.7807 138.579 95.8458C137.039 96.1662 135.444 96.1035 133.935 95.6632C132.68 95.2876 131.487 94.7317 130.392 94.0128C128.556 92.7772 126.908 91.2827 125.498 89.5756C124.189 88.0189 122.998 86.3661 121.936 84.6311C120.887 82.9261 119.954 81.1522 119.144 79.3214C118.935 78.8371 118.908 78.2939 119.067 77.7912C119.227 77.2886 119.562 76.8603 120.011 76.5849C120.461 76.3095 120.994 76.2055 121.514 76.2919C122.034 76.3783 122.505 76.6494 122.841 77.0554L122.909 77.1366C124.024 78.4894 125.235 79.9301 126.451 81.2423C127.637 82.5489 128.896 83.7864 130.223 84.949C131.396 86.0127 132.7 86.922 134.104 87.6546C134.628 87.9246 135.192 88.1117 135.773 88.2093C136.099 88.2699 136.435 88.2418 136.747 88.1281L135.713 88.5272C137.11 87.5847 138.384 86.4712 139.505 85.2128C140.726 83.841 141.855 82.3904 142.885 80.8703C143.953 79.3146 144.967 77.6845 145.92 76.007C146.407 75.175 146.873 74.3295 147.313 73.4705L147.989 72.1921C148.198 71.7795 148.428 71.306 148.59 70.9746L148.631 70.8799C149.124 69.8393 150.005 69.0337 151.085 68.6362C152.165 68.2387 153.358 68.2811 154.407 68.7542C155.456 69.2272 156.278 70.0933 156.696 71.1662C157.114 72.2391 157.094 73.4332 156.641 74.4919H156.655Z" fill="#542D0A"/>
<path opacity="0.3" d="M145.604 83.6774C147.726 78.0362 152.235 77.9415 154.189 79.4364C154.047 79.7002 153.898 79.964 153.75 80.2278C152.689 82.0744 151.527 83.8606 150.268 85.5781C148.976 87.3451 147.555 89.0136 146.016 90.5699C145.529 91.0502 145.029 91.5237 144.509 91.9836C144.329 89.1699 144.701 86.3484 145.604 83.6774Z" fill="#1A1A1A"/>
<path d="M118.976 79.6734L114.582 79.8358L115.677 75.1348C117.19 75.2099 118.691 75.4365 120.159 75.8112C120.426 75.8921 120.671 76.0349 120.872 76.228C121.074 76.421 121.228 76.6589 121.321 76.9224C121.413 77.1858 121.443 77.4675 121.407 77.7445C121.37 78.0215 121.27 78.286 121.112 78.5168C120.874 78.8664 120.556 79.1539 120.185 79.3552C119.813 79.5564 119.399 79.6655 118.976 79.6734Z" fill="#FF8B7B"/>
<path d="M121.437 75.7027C121.005 75.3605 120.512 75.1055 119.983 74.9519C119.618 76.8729 117.279 80.1128 117.279 80.1128H119.111C119.347 80.1135 119.58 80.0624 119.794 79.963C120.007 79.8637 120.197 79.7186 120.348 79.5379L121.633 77.9957C121.773 77.8337 121.88 77.645 121.947 77.441C122.013 77.2369 122.038 77.0216 122.02 76.8077C122.001 76.5939 121.94 76.3859 121.84 76.196C121.74 76.0062 121.603 75.8385 121.437 75.7027Z" fill="#E6A92F"/>
<path d="M111.215 77.6711L112.445 74.3567L115.663 75.1413L114.568 79.8355L111.215 77.6711Z" fill="#FF8B7B"/>
<path d="M166.464 239.392H161.455L161.279 227.778H166.288L166.464 239.392Z" fill="#FF8B7B"/>
<path d="M161.191 238.81H166.822C166.869 238.808 166.916 238.816 166.96 238.832C167.004 238.848 167.045 238.873 167.079 238.905C167.114 238.937 167.142 238.976 167.161 239.019C167.181 239.062 167.192 239.108 167.194 239.155L167.464 243.613C167.464 243.847 167.372 244.072 167.208 244.239C167.043 244.406 166.82 244.502 166.585 244.505C164.625 244.472 163.692 244.357 161.177 244.357C159.656 244.357 154.566 244.512 152.464 244.512C150.361 244.512 150.436 242.429 151.308 242.239C155.31 241.401 158.879 240.21 160.292 239.121C160.546 238.916 160.864 238.806 161.191 238.81Z" fill="#542D0A"/>
<path opacity="0.2" d="M166.295 227.785H161.279L161.374 233.771H166.383L166.295 227.785Z" fill="#1A1A1A"/>
<path d="M157.332 112.093C157.332 112.093 155.419 155.66 156.23 170.02C157.122 185.74 158.988 232.323 158.988 232.323H168.168C168.168 232.323 170.48 187.004 171.034 171.447C171.636 154.537 174.36 112.093 174.36 112.093H157.332Z" fill="#E6A92F"/>
<path d="M168.539 232.323H158.622L157.865 228.63L168.81 229.178L168.539 232.323Z" fill="#542D0A"/>
<path d="M159.414 239.682C159.87 239.67 160.323 239.612 160.766 239.506C160.788 239.499 160.807 239.486 160.822 239.47C160.838 239.453 160.849 239.433 160.854 239.411C160.857 239.39 160.854 239.368 160.846 239.348C160.837 239.328 160.824 239.31 160.807 239.297C160.645 239.182 159.225 238.215 158.61 238.458C158.542 238.486 158.481 238.53 158.434 238.587C158.387 238.643 158.354 238.711 158.34 238.783C158.309 238.893 158.306 239.009 158.332 239.12C158.358 239.231 158.412 239.333 158.488 239.418C158.754 239.617 159.084 239.711 159.414 239.682ZM160.428 239.337C159.529 239.513 158.874 239.486 158.637 239.256C158.588 239.199 158.555 239.131 158.541 239.057C158.527 238.984 158.532 238.908 158.556 238.837C158.561 238.801 158.575 238.767 158.598 238.738C158.621 238.71 158.65 238.688 158.684 238.675C159.016 238.546 159.847 238.965 160.428 239.337Z" fill="#542D0A"/>
<path d="M160.724 239.507C160.742 239.512 160.761 239.512 160.778 239.507C160.795 239.497 160.81 239.483 160.82 239.467C160.831 239.45 160.838 239.432 160.839 239.412C160.839 239.351 160.954 237.91 160.447 237.423C160.383 237.36 160.305 237.313 160.219 237.285C160.134 237.257 160.043 237.249 159.954 237.261C159.855 237.265 159.76 237.301 159.684 237.365C159.608 237.429 159.556 237.516 159.535 237.613C159.413 238.161 160.163 239.209 160.664 239.507C160.683 239.513 160.705 239.513 160.724 239.507ZM160.048 237.478C160.095 237.476 160.141 237.485 160.184 237.502C160.227 237.52 160.266 237.546 160.299 237.579C160.578 238.062 160.694 238.621 160.63 239.175C160.197 238.803 159.697 238.005 159.771 237.647C159.771 237.579 159.825 237.498 159.994 237.478H160.048Z" fill="#542D0A"/>
<path d="M176.868 71.6578C176.943 71.2349 176.932 70.8013 176.836 70.3828C176.739 69.9643 176.56 69.5696 176.307 69.2222C176.055 68.8749 175.735 68.5821 175.367 68.3614C174.998 68.1406 174.589 67.9965 174.164 67.9376H174.11C172.495 67.7009 170.467 67.4573 168.479 67.3626C164.685 67.146 160.882 67.146 157.088 67.3626C155.338 67.525 153.627 67.8158 152.262 68.0796H152.208C151.354 68.2522 150.564 68.6545 149.922 69.2433C149.279 69.8321 148.81 70.5851 148.564 71.4211C146.928 76.9337 144.975 88.189 147.53 112.086H174.333C174.523 109.692 173.988 101.9 174.381 91.9769C174.772 85.1574 175.603 78.3703 176.868 71.6578Z" fill="#542D0A"/>
<path opacity="0.3" d="M176.611 73.1323C176.057 76.3384 175.374 80.7012 174.901 85.3075C174.901 85.3075 172.454 80.505 172.008 76.3993C171.561 72.2935 175.083 71.9824 176.611 73.1323Z" fill="#1A1A1A"/>
<g opacity="0.2">
<path d="M158.636 73.7681C158.58 73.7656 158.527 73.745 158.484 73.7094C158.441 73.6739 158.411 73.6254 158.398 73.5712C158.385 73.5171 158.39 73.4601 158.412 73.409C158.434 73.3579 158.472 73.3154 158.521 73.2879L166.876 68.9522C166.935 68.9232 167.004 68.9183 167.067 68.9385C167.13 68.9587 167.182 69.0023 167.214 69.0604C167.245 69.1206 167.251 69.1905 167.231 69.2551C167.211 69.3197 167.166 69.3737 167.106 69.4054L158.75 73.7276C158.715 73.7484 158.676 73.7622 158.636 73.7681Z" fill="white"/>
<path d="M162.462 74.1604C162.429 74.1618 162.396 74.1559 162.366 74.143C162.335 74.1301 162.308 74.1107 162.286 74.086L157.703 69.5338C157.658 69.4851 157.633 69.4211 157.633 69.3546C157.633 69.2881 157.658 69.2241 157.703 69.1754C157.751 69.1287 157.815 69.1025 157.882 69.1025C157.949 69.1025 158.013 69.1287 158.061 69.1754L162.638 73.7343C162.684 73.7823 162.711 73.8466 162.711 73.9135C162.711 73.9805 162.684 74.0448 162.638 74.0928C162.614 74.1152 162.587 74.1327 162.557 74.1443C162.527 74.1559 162.494 74.1614 162.462 74.1604Z" fill="white"/>
<path d="M168.499 67.3558C164.708 67.1392 160.907 67.1392 157.115 67.3558H156.926C156.834 67.7039 156.812 68.0668 156.862 68.4234C156.912 68.78 157.033 69.123 157.217 69.4324C157.852 70.447 159.184 71.0151 161.185 71.1234H161.935C167.343 71.1234 169.432 67.8361 169.52 67.694L169.709 67.3896L168.499 67.3558Z" fill="white"/>
</g>
<path d="M157.656 67.3154C160.968 66.5308 161.55 64.4813 161.327 62.2289C161.274 61.6647 161.186 61.1045 161.063 60.5514L165.214 57.1018L168.262 54.572C167.417 58.2449 166.464 64.9345 168.938 67.3831C168.938 67.3831 166.91 70.7651 161.212 70.4674C156.432 70.2037 157.656 67.3154 157.656 67.3154Z" fill="#FF8B7B"/>
<path opacity="0.2" d="M161.062 60.5515C161.186 61.1045 161.274 61.6648 161.326 62.2289C162.874 61.9178 164.943 60.2674 165.159 58.6846C165.235 58.1606 165.253 57.6298 165.213 57.1018L161.062 60.5515Z" fill="#1A1A1A"/>
<path d="M158.859 42.9514C156.608 44.3042 156.966 47.6862 156.357 50.1077C157.791 50.2498 160.048 47.6997 160.048 47.6997L161.4 43.824L158.859 42.9514Z" fill="#542D0A"/>
<path d="M170.832 49.7559C169.392 54.5313 168.804 57.3925 165.749 59.3879C164.766 60.0454 163.622 60.4216 162.442 60.4757C161.261 60.5298 160.088 60.2598 159.049 59.695C158.01 59.1301 157.146 58.2918 156.549 57.2708C155.952 56.2498 155.646 55.085 155.663 53.9023C155.663 49.3501 158.002 42.302 163.22 41.328C164.345 41.0875 165.514 41.1472 166.608 41.5013C167.703 41.8553 168.685 42.4912 169.456 43.3451C170.227 44.199 170.76 45.2409 171.002 46.3662C171.243 47.4914 171.185 48.6605 170.832 49.7559Z" fill="#FF8B7B"/>
<path d="M166.336 53.8076C169.716 49.8845 165.491 47.95 168.945 45.2241C165.058 45.4067 158.656 45.1294 157.514 42.4644C156.372 39.7994 159.887 36.1874 162.814 35.8492C166.194 35.4569 165.464 39.6438 165.464 39.6438C165.464 39.6438 178.396 38.8389 174.292 44.3786C177.402 44.1892 176.543 49.2216 171.135 53.4694C169.777 53.9226 166.336 53.8076 166.336 53.8076Z" fill="#542D0A"/>
<path d="M173.516 44.4462C173.516 44.4462 176.179 43.6548 176.091 41.5444C177.051 42.2073 177.153 44.223 173.516 44.4462Z" fill="#542D0A"/>
<path d="M171.622 54.7411C170.844 55.7026 169.757 56.3648 168.546 56.6147C167.012 56.892 166.653 55.4716 167.417 54.085C168.093 52.8404 169.736 51.1967 171.115 51.5417C172.494 51.8867 172.602 53.5303 171.622 54.7411Z" fill="#FF8B7B"/>
<path d="M163.131 49.634C163.036 50.0261 162.752 50.31 162.489 50.2491C162.225 50.1883 162.097 49.8368 162.191 49.4447C162.286 49.0526 162.57 48.7687 162.827 48.8228C163.083 48.8769 163.225 49.2351 163.131 49.634Z" fill="#542D0A"/>
<path d="M158.651 48.7341C158.556 49.1262 158.272 49.4101 158.015 49.3561C157.758 49.302 157.616 48.9437 157.711 48.5516C157.806 48.1595 158.09 47.8756 158.347 47.9297C158.603 47.9838 158.745 48.3421 158.651 48.7341Z" fill="#542D0A"/>
<path d="M160.028 49.2151C159.265 50.3287 158.356 51.3343 157.324 52.2048C157.554 52.4527 157.835 52.6472 158.148 52.7745C158.461 52.9019 158.798 52.9591 159.136 52.9421L160.028 49.2151Z" fill="#FF5652"/>
<path d="M160.515 54.321C160.983 54.3649 161.455 54.3133 161.903 54.1692C162.35 54.0251 162.764 53.7915 163.118 53.4827C163.13 53.4726 163.139 53.4601 163.145 53.4461C163.151 53.4321 163.155 53.417 163.155 53.4016C163.155 53.3863 163.151 53.3711 163.145 53.3571C163.139 53.3431 163.13 53.3306 163.118 53.3205C163.095 53.2986 163.065 53.2864 163.034 53.2864C163.002 53.2864 162.972 53.2986 162.949 53.3205C162.561 53.6508 162.101 53.8868 161.606 54.01C161.111 54.1331 160.594 54.1401 160.096 54.0303C160.081 54.0274 160.066 54.0275 160.051 54.0308C160.036 54.034 160.021 54.0402 160.009 54.049C159.996 54.0578 159.985 54.0691 159.977 54.0821C159.969 54.0952 159.964 54.1097 159.961 54.1249C159.955 54.1563 159.962 54.1887 159.979 54.2153C159.997 54.2418 160.025 54.2604 160.056 54.2669L160.515 54.321Z" fill="#542D0A"/>
<path d="M164.862 48.5376C164.9 48.55 164.94 48.55 164.977 48.5376C165.006 48.5253 165.031 48.5073 165.053 48.4848C165.074 48.4623 165.09 48.4357 165.101 48.4066C165.112 48.3776 165.116 48.3467 165.115 48.3158C165.113 48.2848 165.106 48.2545 165.092 48.2267C164.947 47.881 164.719 47.5767 164.427 47.3408C164.136 47.1049 163.791 46.9447 163.422 46.8747C163.36 46.8669 163.297 46.8836 163.246 46.9215C163.196 46.9593 163.162 47.0152 163.152 47.0775C163.148 47.1086 163.151 47.1401 163.159 47.1703C163.168 47.2004 163.182 47.2286 163.202 47.2531C163.221 47.2776 163.245 47.298 163.273 47.3131C163.3 47.3283 163.331 47.3378 163.362 47.3411C163.648 47.4016 163.915 47.5302 164.141 47.7162C164.367 47.9021 164.545 48.1399 164.66 48.4092C164.679 48.4463 164.708 48.4777 164.744 48.5002C164.78 48.5227 164.82 48.5356 164.862 48.5376Z" fill="#542D0A"/>
<path d="M157.542 46.042C157.578 46.0552 157.617 46.0584 157.655 46.0513C157.693 46.0442 157.729 46.027 157.758 46.0015C157.991 45.8071 158.267 45.6699 158.563 45.6007C158.858 45.5315 159.166 45.5321 159.462 45.6026C159.491 45.6124 159.523 45.6162 159.554 45.6138C159.585 45.6115 159.616 45.603 159.643 45.5889C159.671 45.5748 159.696 45.5553 159.717 45.5315C159.737 45.5078 159.753 45.4803 159.762 45.4505C159.772 45.4208 159.776 45.3894 159.774 45.3582C159.771 45.327 159.763 45.2966 159.749 45.2686C159.734 45.2407 159.715 45.2158 159.691 45.1954C159.668 45.175 159.64 45.1595 159.61 45.1497C159.24 45.0583 158.854 45.0541 158.482 45.1374C158.11 45.2207 157.763 45.3892 157.467 45.6297C157.418 45.6683 157.386 45.7248 157.379 45.7869C157.371 45.849 157.388 45.9115 157.427 45.9609C157.454 46.0008 157.495 46.0296 157.542 46.042Z" fill="#542D0A"/>
<path d="M177.111 69.7302L177.672 70.4945L178.179 71.2115C178.517 71.6917 178.822 72.172 179.139 72.6522C179.754 73.6195 180.336 74.6002 180.897 75.5878C182.021 77.562 183.041 79.594 183.952 81.6754C184.426 82.7035 184.831 83.7722 185.264 84.8207C185.696 85.8691 186.062 86.9581 186.393 88.0539C187.105 90.2348 187.692 92.4548 188.15 94.7029L188.204 94.9599C188.304 95.4139 188.312 95.883 188.23 96.3403C188.148 96.7976 187.976 97.2342 187.725 97.6249C186.854 98.9625 185.82 100.187 184.649 101.271C183.444 102.376 182.076 103.288 180.593 103.976C179.129 104.659 177.562 105.093 175.955 105.262C175.169 105.343 174.378 105.356 173.589 105.302C173.197 105.302 172.805 105.228 172.413 105.167L171.818 105.052L171.142 104.883C171.063 104.863 170.994 104.814 170.951 104.744C170.908 104.674 170.894 104.59 170.912 104.511L171.845 100.588C171.845 100.554 172.021 100.547 172.129 100.52L172.501 100.446C172.758 100.391 173.008 100.331 173.265 100.263C173.766 100.127 174.256 99.9554 174.732 99.7488C175.653 99.3704 176.516 98.8625 177.294 98.2405C178.816 96.9869 180.032 95.4022 180.85 93.6071L180.424 96.5292C179.842 94.615 179.227 92.721 178.484 90.8474C177.74 88.9738 176.929 87.134 176.043 85.3212C175.158 83.5084 174.211 81.716 173.191 79.9709C172.69 79.0983 172.163 78.2393 171.636 77.387L170.831 76.1289L170.432 75.5201L170.061 74.979L169.925 74.7761C169.257 73.8226 168.994 72.6424 169.195 71.495C169.396 70.3477 170.044 69.3272 170.997 68.6581C171.95 67.9889 173.129 67.726 174.276 67.927C175.423 68.1281 176.443 68.7767 177.111 69.7302Z" fill="#542D0A"/>
<path d="M168.174 104.49L166.721 106.871L173.028 106.621C173.028 106.621 174.684 102.373 172.426 101.704L171.547 101.94C170.142 102.334 168.937 103.245 168.174 104.49Z" fill="#FF8B7B"/>
<path d="M170.77 101.156C170.316 101.463 169.926 101.856 169.621 102.312C171.338 103.246 173.731 106.425 173.731 106.425L174.286 104.68C174.356 104.455 174.376 104.217 174.345 103.983C174.313 103.749 174.231 103.525 174.103 103.327L173.055 101.636C172.941 101.45 172.789 101.289 172.611 101.163C172.432 101.037 172.23 100.949 172.016 100.905C171.802 100.86 171.581 100.859 171.367 100.902C171.153 100.945 170.95 101.031 170.77 101.156Z" fill="#E6A92F"/>
<path d="M167.275 110.537L172.473 110.078L173.028 106.621L166.721 106.871L167.275 110.537Z" fill="#FF8B7B"/>
<path d="M103.47 27.9625L103.125 27.3808C104.116 26.793 105.149 26.2776 106.214 25.8386L106.471 26.4677C105.435 26.8908 104.432 27.3905 103.47 27.9625Z" fill="#E6A92F"/>
<path d="M93.5998 39.9077L92.9238 39.6777C94.5263 35.2378 97.4256 31.3824 101.245 28.6118L101.644 29.1597C97.945 31.8529 95.1419 35.5981 93.5998 39.9077Z" fill="#E6A92F"/>
<path d="M115.055 68.4315C126.547 68.4315 135.863 59.1102 135.863 47.6119C135.863 36.1135 126.547 26.7922 115.055 26.7922C103.564 26.7922 94.248 36.1135 94.248 47.6119C94.248 59.1102 103.564 68.4315 115.055 68.4315Z" fill="#E6A92F"/>
<path opacity="0.6" d="M132.436 47.6118C132.434 51.669 131.015 55.598 128.424 58.7187C125.833 61.8395 122.233 63.9555 118.248 64.7006C114.262 65.4457 110.141 64.7729 106.599 62.7987C103.056 60.8246 100.315 57.6732 98.8502 53.8902C97.385 50.1072 97.2878 45.9307 98.5755 42.0835C99.8631 38.2364 102.455 34.9608 105.901 32.8238C109.348 30.6868 113.433 29.8228 117.449 30.3815C121.465 30.9402 125.16 32.8863 127.893 35.883C127.898 35.8806 127.904 35.8793 127.91 35.8793C127.916 35.8793 127.921 35.8806 127.927 35.883C130.841 39.0918 132.45 43.2759 132.436 47.6118Z" fill="white"/>
<path d="M132.436 47.6119C132.436 50.9923 131.451 54.2994 129.602 57.1286C127.753 59.9578 125.12 62.1866 122.026 63.5422C118.931 64.8978 115.508 65.3216 112.176 64.7616C108.845 64.2016 105.748 62.6822 103.266 60.3891C100.231 57.08 98.5935 52.7243 98.6959 48.2341C98.7984 43.7439 100.633 39.4675 103.816 36.3004C106.998 33.1333 111.282 31.3211 115.77 31.2433C120.258 31.1656 124.602 32.8282 127.893 35.8831C127.898 35.8807 127.904 35.8794 127.91 35.8794C127.916 35.8794 127.921 35.8807 127.927 35.8831C130.841 39.092 132.45 43.276 132.436 47.6119Z" fill="white"/>
<path d="M115.055 48.6267C114.922 48.6269 114.79 48.6007 114.667 48.5497C114.544 48.4986 114.433 48.4236 114.339 48.329L105.862 39.847C105.762 39.7541 105.682 39.6421 105.627 39.5176C105.571 39.3932 105.542 39.2588 105.539 39.1226C105.537 38.9864 105.562 38.851 105.613 38.7247C105.664 38.5984 105.74 38.4836 105.836 38.3873C105.932 38.2909 106.047 38.215 106.173 38.1639C106.3 38.1129 106.435 38.0878 106.571 38.0902C106.707 38.0926 106.841 38.1225 106.966 38.1779C107.09 38.2334 107.202 38.3133 107.295 38.413L115.055 46.1781L119.537 41.6936C119.729 41.5143 119.984 41.4168 120.246 41.4214C120.509 41.426 120.76 41.5325 120.946 41.7184C121.131 41.9043 121.238 42.1551 121.242 42.418C121.247 42.6808 121.15 42.9352 120.97 43.1275L115.772 48.329C115.582 48.5188 115.324 48.6257 115.055 48.6267Z" fill="#542D0A"/>
</svg>
