<svg width="337" height="233" viewBox="0 0 337 233" fill="none" xmlns="http://www.w3.org/2000/svg">
<path d="M64.4086 199.105C76.5747 188.434 77.6843 171.007 75.465 155.69C75.097 153.138 75.0798 150.401 73.6079 148.285C72.136 146.169 69.1233 144.945 66.9442 146.278C65.1388 147.382 64.5524 149.694 63.6899 151.643C62.5342 154.243 60.6691 156.465 58.3084 158.054C56.7675 159.083 54.8011 159.824 53.0878 159.111C50.742 158.134 50.144 155.087 49.8795 152.551L48.3961 138.275C48.1259 135.722 47.8499 133.1 46.7863 130.801C45.7226 128.501 43.7218 126.408 41.2207 126C38.7196 125.592 35.8736 127.316 35.6321 129.869C35.5344 130.933 35.8679 131.991 35.9139 133.054C35.9599 134.118 35.5919 135.354 34.6202 135.757C33.6485 136.159 32.5331 135.556 31.688 134.894C28.7729 132.595 26.6168 129.484 24.5815 126.368C22.5462 123.252 20.5568 120.043 17.8545 117.508C15.1523 114.972 11.6048 113.098 7.92507 113.293C4.24536 113.489 0.600148 116.168 0.0711893 119.865C-0.457769 123.562 2.04903 126.983 4.67083 129.639C8.53354 133.585 12.947 136.951 17.774 139.632C18.6422 140.115 19.5852 140.638 19.9934 141.547C20.7351 143.191 19.3092 145.054 17.6936 145.801C15.8594 146.646 13.7781 146.675 11.8118 147.129C9.84542 147.584 7.78708 148.699 7.21213 150.66C6.45894 153.385 8.93699 155.88 11.2828 157.433C15.9796 160.544 21.1762 162.825 26.6456 164.177C28.6004 164.654 30.6415 165.039 32.2974 166.195C33.9533 167.351 35.1262 169.535 34.4075 171.433C33.6888 173.33 31.4062 174.169 29.3996 174.02C27.393 173.871 25.5187 173.002 23.5638 172.502C19.9129 171.565 15.411 172.307 13.4964 175.584C12.243 177.74 12.4155 180.528 13.4274 182.823C14.4393 185.117 16.1757 186.991 17.9925 188.699C24.317 194.672 32.1192 199.192 40.5653 201.112C49.0113 203.032 56.664 202.969 64.3971 199.123" fill="#EBEBEB"/>
<path d="M65.8577 210.479C64.3611 203.429 62.1892 196.54 59.3722 189.907C55.8941 181.816 51.9569 173.93 47.5799 166.288C46.4299 164.252 45.2935 162.242 44.1704 160.256C43.0205 158.279 41.9338 156.318 40.7206 154.467C38.3972 150.917 35.8768 147.5 33.1715 144.232C30.6129 141.093 28.0716 138.207 25.6971 135.522C23.3225 132.837 20.9997 130.393 18.7976 128.249C15.3755 124.841 11.6859 121.713 7.76424 118.894C6.3786 117.894 5.28043 117.169 4.52724 116.663L3.67056 116.088C3.57571 116.021 3.47574 115.962 3.37158 115.91C3.45459 115.991 3.54506 116.064 3.64181 116.129L4.4755 116.704C5.21144 117.221 6.29236 117.98 7.655 119.003C11.5276 121.874 15.1793 125.032 18.5791 128.45C20.7352 130.606 23.0063 133.05 25.3924 135.746C27.7784 138.443 30.3025 141.329 32.8668 144.468C35.5403 147.735 38.0354 151.144 40.3412 154.679C41.5428 156.525 42.641 158.468 43.7909 160.429L47.1601 166.529C51.5337 174.159 55.4745 182.029 58.964 190.102C61.7958 196.697 64.0037 203.542 65.5587 210.548" fill="#E0E0E0"/>
<path d="M40.5883 154.455C40.669 154.089 40.7113 153.715 40.7148 153.34C40.7723 152.621 40.8182 151.581 40.8585 150.287C40.939 147.705 40.9275 144.141 40.9045 140.208C40.8815 136.275 40.9045 132.734 41.0367 130.141C41.0942 128.853 41.146 127.812 41.1977 127.093C41.2413 126.711 41.2413 126.325 41.1977 125.943C41.0908 126.303 41.0234 126.673 40.9965 127.047C40.893 127.76 40.7838 128.801 40.686 130.089C40.479 132.665 40.387 136.241 40.4158 140.179C40.4445 144.118 40.4848 147.567 40.5078 150.252C40.5078 151.466 40.5078 152.489 40.5078 153.305C40.4894 153.691 40.5164 154.077 40.5883 154.455Z" fill="#E0E0E0"/>
<path d="M7.10303 151.948C7.54288 151.989 7.98557 151.989 8.42542 151.948C9.27635 151.948 10.5068 151.896 12.0246 151.902C15.0662 151.902 19.2691 152.034 23.8975 152.385C28.5258 152.736 32.7 153.259 35.7128 153.713C37.2192 153.926 38.4323 154.133 39.2717 154.288C39.7037 154.39 40.1448 154.448 40.5884 154.461C40.1723 154.306 39.7432 154.188 39.3062 154.11C38.4726 153.914 37.2652 153.656 35.7645 153.391C32.7575 152.856 28.5718 152.293 23.932 151.931C19.9714 151.611 15.9971 151.494 12.0246 151.58C10.4953 151.62 9.26486 151.701 8.41392 151.775C7.97274 151.794 7.53407 151.852 7.10303 151.948Z" fill="#E0E0E0"/>
<path d="M58.9004 189.348C58.977 189.214 59.0369 189.071 59.0786 188.923C59.1994 188.583 59.3374 188.169 59.5098 187.669C59.8778 186.588 60.3723 185.001 60.953 183.035C62.1029 179.102 63.569 173.617 65.0754 167.546C66.5818 161.474 67.9789 155.978 69.0656 152.022C69.5946 150.096 70.0373 148.521 70.3592 147.342C70.503 146.836 70.6122 146.411 70.71 146.066C70.759 145.919 70.788 145.766 70.7962 145.611C70.7227 145.747 70.663 145.889 70.618 146.037C70.503 146.376 70.3592 146.79 70.1868 147.284C69.8188 148.371 69.3243 149.958 68.7436 151.924C67.5937 155.857 66.1333 161.342 64.6212 167.419C63.1091 173.497 61.7177 178.982 60.6368 182.943C60.102 184.869 59.6651 186.45 59.3374 187.623L58.9924 188.9C58.9412 189.044 58.9102 189.195 58.9004 189.348Z" fill="#E0E0E0"/>
<path d="M13.7495 180.105C13.8941 180.169 14.047 180.214 14.2037 180.237L15.5146 180.519L20.35 181.519C24.4379 182.364 30.061 183.595 36.2762 184.969C42.4915 186.343 48.1376 187.516 52.237 188.28C54.2896 188.66 55.9512 188.947 57.1011 189.126L58.4293 189.321C58.5845 189.351 58.7426 189.365 58.9007 189.361C58.7561 189.297 58.6033 189.252 58.4465 189.229L57.1356 188.942L52.3002 187.947C48.2181 187.102 42.5892 185.871 36.374 184.497C30.1587 183.123 24.5184 181.95 20.4132 181.191C18.3664 180.812 16.7048 180.519 15.5491 180.346L14.221 180.145C14.0666 180.108 13.9078 180.095 13.7495 180.105Z" fill="#E0E0E0"/>
<path d="M70.0259 9.78516L104.558 31.6967L90.4483 55.6838L55.0713 32.4039L70.0259 9.78516Z" fill="#EBEBEB"/>
<path d="M104.557 31.6965C104.517 31.7141 104.475 31.7257 104.431 31.731L104.046 31.8057L102.574 32.0759L97.1463 32.9959L79.1157 35.9569H78.9893L78.949 35.8361C78.857 35.5774 78.7593 35.2612 78.6615 35.0082C76.2525 28.0512 74.0619 21.7842 72.4923 17.1846C71.7276 14.9193 71.1009 13.0737 70.6582 11.7743C70.4512 11.1476 70.2902 10.6244 70.1752 10.2966C70.1235 10.1414 70.089 10.0092 70.0545 9.90568C70.0483 9.86182 70.0483 9.8173 70.0545 9.77344C70.0762 9.8144 70.0954 9.85664 70.112 9.89993L70.2614 10.2736C70.3879 10.6301 70.5719 11.1188 70.7962 11.734C71.2619 13.0277 71.9173 14.8618 72.7223 17.1156C74.3264 21.7152 76.5342 27.9765 78.972 34.9392L79.2595 35.7729L79.0927 35.6751L97.1406 32.8004L102.557 31.9897L104.04 31.7769L104.425 31.731C104.466 31.7105 104.511 31.6987 104.557 31.6965Z" fill="#E0E0E0"/>
<path d="M55.0713 32.4039C55.0713 32.3234 59.7342 31.0872 65.5355 29.6326C71.3368 28.1779 76.0571 27.074 76.0744 27.1545C76.0916 27.235 71.4115 28.4769 65.6102 29.9258C59.8089 31.3747 55.0885 32.4844 55.0713 32.4039Z" fill="#E0E0E0"/>
<path d="M90.4482 55.6827C90.3677 55.6827 89.5742 51.0256 88.6773 45.253C87.7804 39.4805 87.1249 34.7889 87.2054 34.7774C87.2859 34.7659 88.0793 39.4345 88.9763 45.207C89.8732 50.9796 90.5287 55.6655 90.4482 55.6827Z" fill="#E0E0E0"/>
<path d="M299.048 75.411L332.114 70.0352L336.529 92.4009L302.199 97.403L299.048 75.411Z" fill="#F5F5F5"/>
<path d="M332.113 70.0352C332.042 70.1593 331.959 70.2767 331.866 70.3859L331.113 71.3518C330.435 72.2372 329.463 73.3871 328.313 74.8763L318.889 86.5076L318.809 86.6054L318.7 86.5479L318.067 86.1971L304.596 78.625L300.525 76.3252L299.416 75.687C299.285 75.6136 299.16 75.531 299.042 75.4397C299.181 75.4929 299.315 75.5563 299.444 75.6295L300.594 76.2044L304.711 78.4467L318.228 85.9212L318.855 86.2719L318.665 86.3121L328.163 74.7325L331.038 71.2828C331.372 70.8995 331.636 70.589 331.832 70.3514C331.917 70.2391 332.012 70.1333 332.113 70.0352Z" fill="#E0E0E0"/>
<path d="M302.199 97.4025C302.13 97.3565 304.315 94.039 307.08 89.9971C309.846 85.9552 312.134 82.7067 312.203 82.7584C312.272 82.8102 310.087 86.1162 307.327 90.1638C304.568 94.2115 302.268 97.4485 302.199 97.4025Z" fill="#E0E0E0"/>
<path d="M336.529 92.4001C336.477 92.4633 333.442 90.0427 329.75 86.9955C326.059 83.9482 323.138 81.4357 323.167 81.3667C323.196 81.2977 326.255 83.7182 329.946 86.7655C333.637 89.8128 336.581 92.3598 336.529 92.4001Z" fill="#E0E0E0"/>
<path d="M207.043 47.8882L263.59 32.7324L275.193 70.8404L216.386 85.5592L207.043 47.8882Z" fill="#D99D29"/>
<path d="M216.387 85.5599C216.312 85.5254 219.428 79.6666 223.338 72.4855C227.247 65.3043 230.479 59.5145 230.553 59.549C230.628 59.5835 227.512 65.4423 223.602 72.6292C219.693 79.8161 216.461 85.6002 216.387 85.5599Z" fill="#263238"/>
<path d="M275.193 70.8405C275.147 70.9095 269.443 67.1838 262.486 62.5209C255.529 57.858 249.906 54.0231 249.952 53.9541C249.998 53.8851 255.702 57.605 262.653 62.2737C269.604 66.9423 275.239 70.7715 275.193 70.8405Z" fill="#263238"/>
<path d="M207.043 47.8882C207.108 47.9086 207.172 47.9336 207.233 47.963L207.774 48.216L209.832 49.2106L217.398 52.9076L242.294 65.2116L242.599 65.3611L242.403 65.4128L257.352 42.2594C259.267 39.3214 260.802 36.9353 261.9 35.2737L263.148 33.3821L263.481 32.8934C263.516 32.8358 263.556 32.7819 263.602 32.7324C263.574 32.7942 263.541 32.8538 263.504 32.9107L263.199 33.4166L261.998 35.337L257.53 42.3744L242.645 65.5738L242.576 65.6888L242.455 65.6256L242.15 65.4761L217.289 53.0973L209.769 49.3141L207.733 48.2677L207.204 47.9917C207.147 47.9638 207.093 47.929 207.043 47.8882Z" fill="#263238"/>
<path d="M11.9787 63.8613L67.4675 69.4096L64.9665 107.27L7.61475 100.578L11.9787 63.8613Z" fill="#D99D29"/>
<path d="M7.61478 100.577C7.55728 100.514 12.3007 96.3452 18.2054 91.2626C24.1102 86.18 28.9456 82.1094 28.9973 82.1726C29.0491 82.2358 24.3115 86.4043 18.4009 91.4869C12.4904 96.5695 7.66652 100.64 7.61478 100.577Z" fill="#263238"/>
<path d="M64.9836 107.269C64.9204 107.321 61.1026 102.095 56.4628 95.5804C51.8229 89.0661 48.1202 83.765 48.1834 83.7191C48.2467 83.6731 52.0701 88.8936 56.71 95.4079C61.3499 101.922 65.0353 107.223 64.9836 107.269Z" fill="#263238"/>
<path d="M11.9785 63.8613C11.9785 63.8613 12.0303 63.9016 12.1223 63.9936L12.519 64.396L14.0254 65.9772L19.5162 71.8187L37.5583 91.1659L37.7767 91.4017H37.5813L58.6878 75.8089L65.0986 71.0885L66.8235 69.8294L67.2834 69.5074C67.3326 69.4663 67.3867 69.4316 67.4444 69.4039C67.4444 69.4039 67.3984 69.4499 67.3007 69.5304L66.858 69.8754L65.1331 71.1863C63.6152 72.3362 61.4534 73.946 58.8086 75.9526L37.7537 91.6201L37.6445 91.7006L37.5525 91.6029L37.334 91.3672L19.3552 71.9567L13.9334 66.0519L12.4672 64.4305L12.0935 64.0051C12.0514 63.9603 12.0129 63.9122 11.9785 63.8613Z" fill="#263238"/>
<path d="M328.808 120.897C328.808 120.897 323.829 117.665 317.884 129.561C311.939 141.457 309.714 148.305 309.714 148.305C309.714 148.305 308.138 150.8 306.419 149.19C304.7 147.58 302.325 143.004 299.439 143.854C296.438 144.74 295.478 148.103 296.093 153.025C296.708 157.947 297.657 168.784 297.737 169.768C297.818 170.751 297.277 172.154 295.932 171.245C294.586 170.337 286.813 161.828 282.995 165.754C279.178 169.681 283.145 183.118 283.57 184.596C283.996 186.073 283.691 186.712 282.995 187.08C282.3 187.448 279.954 184.348 277.643 182.014C275.331 179.68 272.249 177.415 270.237 179.841C268.225 182.267 267.656 192.404 277.413 208.738L282.426 216.011L291.281 215.436C310.162 213.067 317.78 206.398 318.476 203.305C319.172 200.211 315.457 199.188 312.197 198.803C308.937 198.418 305.051 198.487 304.913 197.705C304.775 196.923 305.102 196.308 306.517 195.715C307.931 195.123 320.96 189.966 321.707 184.555C322.455 179.145 310.961 178.231 309.42 177.737C307.879 177.242 308.667 175.937 309.472 175.408C310.277 174.879 319.425 168.945 323.679 166.398C327.934 163.851 330.004 161.028 328.854 158.119C327.75 155.319 322.679 156.268 320.35 155.9C318.022 155.532 319.022 152.76 319.022 152.76C319.022 152.76 323.047 146.787 328.796 134.782C334.546 122.777 328.75 120.828 328.75 120.828" fill="#E6A92F"/>
<path d="M323.466 131.539C323.436 131.627 323.402 131.713 323.363 131.798L323.023 132.545L321.695 135.391C320.545 137.864 318.82 141.434 316.716 145.832C312.484 154.629 306.528 166.732 299.91 180.082C293.292 193.433 287.307 205.524 283.024 214.298C280.891 218.673 279.166 222.227 277.964 224.693C277.389 225.906 276.906 226.861 276.584 227.516L276.216 228.246L276.084 228.494C276.114 228.406 276.148 228.319 276.188 228.235L276.527 227.493L277.855 224.618C279.005 222.146 280.73 218.581 282.834 214.183C287.066 205.38 293.022 193.278 299.646 179.927C306.269 166.577 312.243 154.491 316.526 145.717L321.592 135.317L322.972 132.493L323.334 131.763L323.466 131.539Z" fill="#263238"/>
<path d="M302.503 150.396C302.606 150.577 302.685 150.771 302.739 150.971C302.871 151.362 303.043 151.926 303.25 152.633C303.664 154.042 304.188 156.002 304.722 158.176C305.257 160.349 305.705 162.252 306.062 163.747C306.229 164.408 306.367 164.972 306.476 165.432C306.547 165.633 306.59 165.844 306.602 166.058C306.502 165.876 306.423 165.683 306.367 165.483C306.234 165.098 306.062 164.529 305.861 163.822C305.458 162.407 304.964 160.441 304.429 158.268C303.894 156.094 303.417 154.203 303.049 152.708C302.882 152.047 302.739 151.489 302.624 151.029C302.559 150.824 302.518 150.611 302.503 150.396Z" fill="#263238"/>
<path d="M307.413 166.231C307.413 166.15 311.386 164.897 316.336 163.431C321.287 161.965 325.317 160.838 325.34 160.918C325.363 160.999 321.367 162.252 316.417 163.718C311.467 165.184 307.436 166.311 307.413 166.231Z" fill="#263238"/>
<path d="M296.322 186.274C296.538 186.233 296.758 186.22 296.978 186.233H298.749C300.243 186.233 302.313 186.199 304.59 186.095C306.867 185.992 308.931 185.825 310.42 185.699L312.191 185.549C312.407 185.525 312.625 185.525 312.841 185.549C312.635 185.623 312.42 185.669 312.203 185.687C311.789 185.756 311.191 185.842 310.443 185.934C308.954 186.118 306.89 186.314 304.607 186.417C302.325 186.521 300.243 186.515 298.749 186.469C297.995 186.469 297.392 186.417 296.972 186.389C296.752 186.374 296.534 186.335 296.322 186.274Z" fill="#263238"/>
<path d="M288.733 172.93C288.871 173.077 288.988 173.241 289.084 173.418C289.297 173.74 289.596 174.218 289.952 174.81C290.677 175.988 291.677 177.627 292.729 179.45C293.782 181.272 294.747 182.899 295.426 184.136L296.214 185.573C296.318 185.745 296.403 185.928 296.467 186.119C296.326 185.973 296.206 185.809 296.11 185.63C295.897 185.308 295.604 184.831 295.242 184.245C294.517 183.066 293.517 181.422 292.471 179.599C291.424 177.777 290.447 176.121 289.774 174.913C289.435 174.31 289.165 173.821 288.986 173.476C288.873 173.309 288.788 173.124 288.733 172.93Z" fill="#263238"/>
<path d="M276.693 189.379C276.861 189.573 277.01 189.783 277.136 190.006L278.286 191.788C279.223 193.294 280.494 195.387 281.885 197.704C283.277 200.021 284.524 202.137 285.41 203.672C285.824 204.408 286.174 205.018 286.45 205.501C286.586 205.72 286.701 205.951 286.795 206.191C286.623 205.997 286.473 205.785 286.347 205.558L285.191 203.782C284.254 202.275 282.978 200.182 281.586 197.859C280.195 195.537 278.953 193.427 278.068 191.891L277.027 190.069C276.892 189.851 276.78 189.62 276.693 189.379Z" fill="#263238"/>
<path d="M286.641 205.719C286.921 205.666 287.206 205.635 287.492 205.627L289.74 205.529C291.637 205.449 294.253 205.328 297.145 205.115C300.037 204.902 302.642 204.644 304.533 204.448L306.77 204.218C307.041 204.17 307.317 204.153 307.592 204.167C307.329 204.244 307.059 204.3 306.787 204.333C306.258 204.42 305.499 204.535 304.556 204.655C302.67 204.908 300.06 205.201 297.168 205.414C294.276 205.627 291.648 205.713 289.745 205.742C288.797 205.742 288.021 205.742 287.492 205.742C287.208 205.767 286.922 205.759 286.641 205.719Z" fill="#263238"/>
<path d="M39.6855 199.545C36.9487 199.919 34.5109 201.448 32.5158 203.38C31.4579 204.421 30.4575 205.68 30.2735 207.129C30.0895 208.577 31.0497 210.291 32.5273 210.406C33.4176 210.395 34.2754 210.069 34.9479 209.486C36.6727 208.238 38.3976 206.577 40.5364 206.646C41.7553 206.686 42.98 207.313 44.1414 206.939C44.7001 206.719 45.1714 206.323 45.483 205.81C45.7946 205.297 45.9292 204.696 45.8663 204.099C45.7008 202.905 45.0833 201.82 44.1414 201.069C43.566 200.489 42.8646 200.05 42.0917 199.785C41.3188 199.521 40.4954 199.439 39.6855 199.545Z" fill="#E6A92F"/>
<g opacity="0.3">
<path d="M39.6855 199.545C36.9487 199.919 34.5109 201.448 32.5158 203.38C31.4579 204.421 30.4575 205.68 30.2735 207.129C30.0895 208.577 31.0497 210.291 32.5273 210.406C33.4176 210.395 34.2754 210.069 34.9479 209.486C36.6727 208.238 38.3976 206.577 40.5364 206.646C41.7553 206.686 42.98 207.313 44.1414 206.939C44.7001 206.719 45.1714 206.323 45.483 205.81C45.7946 205.297 45.9292 204.696 45.8663 204.099C45.7008 202.905 45.0833 201.82 44.1414 201.069C43.566 200.489 42.8646 200.05 42.0917 199.785C41.3188 199.521 40.4954 199.439 39.6855 199.545Z" fill="black"/>
</g>
<path d="M38.0643 187.429C38.0643 190.046 35.27 191.138 33.4129 190.845C31.5558 190.551 29.9977 189.327 28.5315 188.148C25.1853 185.446 21.7126 182.588 20.0222 178.633C19.4624 177.467 19.2356 176.17 19.3668 174.884C19.4422 174.244 19.6834 173.634 20.0666 173.116C20.4498 172.598 20.9617 172.189 21.5516 171.929C22.9832 171.406 24.5586 172.061 25.8867 172.803C29.8052 174.995 33.184 178.036 35.776 181.703C36.9834 183.428 38.0413 185.342 38.0758 187.452" fill="#E6A92F"/>
<g opacity="0.3">
<path d="M38.0643 187.429C38.0643 190.046 35.27 191.138 33.4129 190.845C31.5558 190.551 29.9977 189.327 28.5315 188.148C25.1853 185.446 21.7126 182.588 20.0222 178.633C19.4624 177.467 19.2356 176.17 19.3668 174.884C19.4422 174.244 19.6834 173.634 20.0666 173.116C20.4498 172.598 20.9617 172.189 21.5516 171.929C22.9832 171.406 24.5586 172.061 25.8867 172.803C29.8052 174.995 33.184 178.036 35.776 181.703C36.9834 183.428 38.0413 185.342 38.0758 187.452" fill="white"/>
</g>
<path d="M43.2042 187.579C40.7607 186.936 38.8863 184.802 38.0872 182.405C37.3843 179.966 37.3644 177.38 38.0297 174.93C38.7125 172.036 39.9526 169.302 41.6806 166.881C42.3188 165.9 43.1599 165.067 44.1472 164.438C44.6455 164.13 45.2113 163.949 45.7954 163.91C46.3795 163.871 46.9643 163.975 47.4992 164.213C49.0343 165.001 49.4655 166.962 49.6552 168.675C49.9875 171.699 50.0817 174.744 49.937 177.782C49.822 180.226 49.5115 182.773 48.1431 184.797C46.7747 186.821 44.7739 188.103 42.8708 187.505" fill="#E6A92F"/>
<path d="M56.7213 213.843C56.4729 213.627 56.2474 213.386 56.0486 213.124L54.3238 211.095C53.4639 210.099 52.5523 209.149 51.5927 208.249C50.4073 207.163 49.1364 206.175 47.7923 205.293C46.4563 204.409 45.0029 203.716 43.4744 203.235C42.2297 202.845 40.9138 202.737 39.6222 202.919C38.7539 203.054 37.9121 203.324 37.1269 203.718C36.8519 203.896 36.559 204.044 36.2529 204.161C36.4992 203.942 36.767 203.75 37.0521 203.586C37.8326 203.123 38.6893 202.804 39.5819 202.643C40.9148 202.416 42.282 202.498 43.5779 202.884C45.1492 203.355 46.6428 204.055 48.0108 204.96C49.3764 205.854 50.6616 206.866 51.8515 207.984C52.8062 208.907 53.7048 209.886 54.5422 210.916C55.2609 211.796 55.8071 212.526 56.1866 213.032C56.3934 213.282 56.5727 213.554 56.7213 213.843Z" fill="#263238"/>
<path d="M55.399 212.274C55.2916 212.166 55.197 212.047 55.1172 211.917L54.3756 210.859C53.7374 209.939 52.8002 208.611 51.6043 207.007C49.2182 203.782 45.757 199.447 41.7151 194.853C37.6731 190.259 33.7979 186.286 30.8772 183.538C30.1585 182.842 29.4915 182.227 28.8936 181.698C28.2956 181.169 27.8011 180.697 27.3757 180.335L26.404 179.478C26.2853 179.385 26.1773 179.279 26.082 179.162C26.2175 179.229 26.3433 179.314 26.4558 179.415L27.4734 180.214C27.9161 180.559 28.4394 181.008 29.0431 181.531C29.6468 182.054 30.3367 182.646 31.0726 183.331C34.9127 186.883 38.5593 190.639 41.9968 194.582C46.0215 199.182 49.4712 203.563 51.8055 206.835C52.9554 208.468 53.8811 209.824 54.4848 210.773L55.1632 211.877C55.2564 212 55.3355 212.133 55.399 212.274Z" fill="#263238"/>
<path d="M49.2243 203.529C48.9414 203.177 48.6858 202.804 48.4596 202.413C47.9996 201.677 47.3787 200.579 46.6945 199.182C45.9059 197.541 45.2091 195.858 44.6074 194.14C43.8581 192.036 43.2587 189.882 42.8136 187.694C41.9156 183.724 41.7462 179.623 42.3134 175.592C42.4154 174.896 42.5633 174.209 42.7561 173.533C42.8308 173.234 42.8883 172.958 42.9745 172.7L43.2275 172.021C43.3623 171.591 43.5334 171.174 43.7392 170.773C43.8427 170.808 43.0378 172.579 42.5893 175.632C42.1124 179.632 42.3185 183.683 43.1988 187.614C43.6338 189.782 44.21 191.92 44.9236 194.013C45.5039 195.728 46.1698 197.413 46.9187 199.061C47.5627 200.47 48.1434 201.58 48.5574 202.338C48.816 202.714 49.0393 203.112 49.2243 203.529Z" fill="#263238"/>
<path d="M276.647 78.1875H62.4249C57.7984 78.1875 54.0479 81.938 54.0479 86.5646V222.553C54.0479 227.179 57.7984 230.93 62.4249 230.93H276.647C281.274 230.93 285.024 227.179 285.024 222.553V86.5646C285.024 81.938 281.274 78.1875 276.647 78.1875Z" fill="#263238"/>
<path d="M44.3887 219.633H294.632V222.766C294.632 225.481 293.554 228.084 291.634 230.003C289.715 231.922 287.112 233.001 284.398 233.001H54.6344C53.2904 233.001 51.9596 232.736 50.7179 232.221C49.4762 231.707 48.348 230.953 47.3977 230.003C46.4474 229.053 45.6935 227.924 45.1792 226.683C44.6649 225.441 44.4002 224.11 44.4002 222.766V219.633H44.3887Z" fill="#263238"/>
<path d="M278.177 84.2539H60.2461V213.245H278.177V84.2539Z" fill="#455A64"/>
<path d="M146.765 219.633L149.87 224.572H193.566L196.453 219.633H146.765Z" fill="#455A64"/>
<path d="M272.255 88.623H66.6164C65.5781 88.623 64.7363 89.4648 64.7363 90.5032V210.95C64.7363 211.989 65.5781 212.83 66.6164 212.83H272.255C273.293 212.83 274.135 211.989 274.135 210.95V90.5032C274.135 89.4648 273.293 88.623 272.255 88.623Z" fill="#EBEBEB"/>
<path d="M274.135 97.7246H64.7363V212.831H274.135V97.7246Z" fill="#FAFAFA"/>
<path d="M81.9102 93.4173C81.9102 93.7482 81.8121 94.0717 81.6282 94.3468C81.4444 94.6219 81.1831 94.8364 80.8774 94.963C80.5716 95.0897 80.2352 95.1228 79.9107 95.0582C79.5861 94.9937 79.288 94.8343 79.054 94.6003C78.82 94.3663 78.6607 94.0682 78.5961 93.7437C78.5316 93.4191 78.5647 93.0827 78.6913 92.777C78.818 92.4713 79.0324 92.21 79.3075 92.0261C79.5827 91.8423 79.9062 91.7441 80.2371 91.7441C80.6808 91.7441 81.1064 91.9204 81.4202 92.2342C81.7339 92.548 81.9102 92.9735 81.9102 93.4173Z" fill="#455A64"/>
<path d="M71.774 93.4173C71.774 93.7482 71.6758 94.0717 71.492 94.3468C71.3082 94.6219 71.0469 94.8364 70.7411 94.963C70.4354 95.0897 70.099 95.1228 69.7744 95.0582C69.4499 94.9937 69.1518 94.8343 68.9178 94.6003C68.6838 94.3663 68.5244 94.0682 68.4599 93.7437C68.3953 93.4191 68.4285 93.0827 68.5551 92.777C68.6817 92.4713 68.8962 92.21 69.1713 92.0261C69.4465 91.8423 69.7699 91.7441 70.1008 91.7441C70.5446 91.7441 70.9702 91.9204 71.2839 92.2342C71.5977 92.548 71.774 92.9735 71.774 93.4173Z" fill="#455A64"/>
<path d="M76.6377 93.4173C76.6377 93.7484 76.5395 94.0721 76.3554 94.3474C76.1713 94.6227 75.9096 94.8371 75.6036 94.9636C75.2975 95.09 74.9608 95.1228 74.6361 95.0578C74.3114 94.9928 74.0133 94.8329 73.7795 94.5983C73.5458 94.3637 73.3869 94.0651 73.323 93.7401C73.259 93.4152 73.293 93.0786 73.4205 92.773C73.548 92.4674 73.7634 92.2065 74.0393 92.0233C74.3152 91.8402 74.6392 91.743 74.9704 91.7442C75.1898 91.7441 75.4071 91.7875 75.6098 91.8716C75.8125 91.9558 75.9965 92.0791 76.1514 92.2345C76.3063 92.39 76.429 92.5745 76.5125 92.7774C76.5959 92.9804 76.6385 93.1978 76.6377 93.4173Z" fill="#455A64"/>
<path d="M283.041 219.632C283.041 219.712 231.772 219.781 168.55 219.781C105.328 219.781 54.0596 219.712 54.0596 219.632C54.0596 219.551 105.317 219.482 168.562 219.482C231.807 219.482 283.041 219.551 283.041 219.632Z" fill="#455A64"/>
<path d="M106.006 171.957C105.956 170.559 106.004 169.158 106.15 167.766C106.192 166.366 106.338 164.97 106.587 163.592C106.637 164.992 106.589 166.395 106.443 167.789C106.398 169.187 106.252 170.58 106.006 171.957Z" fill="#FAFAFA"/>
<path d="M252.89 160.781C241.127 142.595 228.915 122.19 228.915 122.19C218.289 109.23 209.705 104.7 192.957 103.998L160.374 103.86C153.969 104.222 139.101 100.922 125.302 120.712L125.239 120.614C125.239 120.614 113.021 141.019 101.263 159.211C88.0794 179.605 95.9678 200.78 110.054 202.016C124.296 203.264 133.127 203.644 137.859 203.741L137.635 212.872L213.178 212.751L212.408 202.522C219.986 202.522 240.966 202.442 244.065 202.057C258.099 200.349 266.074 181.197 252.89 160.781ZM138.928 156.756L138.457 177.949L125.233 177.989L138.928 156.756ZM213.839 179.507L215.903 159.384L228.915 179.564L213.839 179.507Z" fill="#E6A92F"/>
<path d="M191.692 103.043C191.706 103.202 191.706 103.361 191.692 103.52C191.687 103.972 191.655 104.423 191.594 104.871C191.504 105.585 191.367 106.291 191.186 106.987C190.93 107.906 190.603 108.804 190.208 109.672C189.159 111.935 187.61 113.93 185.678 115.508C183.284 117.433 180.35 118.564 177.283 118.745C174.211 118.962 171.154 118.153 168.59 116.445C166.532 115.028 164.864 113.113 163.743 110.88C162.991 109.383 162.492 107.773 162.266 106.113C162.2 105.664 162.163 105.211 162.156 104.756C162.141 104.6 162.141 104.442 162.156 104.285C162.189 104.44 162.208 104.598 162.214 104.756C162.214 105.067 162.289 105.515 162.381 106.096C162.649 107.73 163.172 109.311 163.933 110.782C165.059 112.968 166.713 114.837 168.745 116.221C171.267 117.872 174.26 118.65 177.266 118.435C180.273 118.258 183.15 117.155 185.505 115.278C187.415 113.735 188.955 111.784 190.013 109.569C190.737 108.078 191.232 106.487 191.479 104.848C191.552 104.403 191.601 103.954 191.629 103.503C191.637 103.348 191.658 103.194 191.692 103.043Z" fill="#263238"/>
<path d="M215.668 162.235C215.581 162.235 215.897 153.53 216.369 142.807C216.84 132.084 217.289 123.408 217.346 123.408C217.404 123.408 217.116 132.113 216.645 142.842C216.173 153.57 215.748 162.241 215.668 162.235Z" fill="#263238"/>
<path d="M140.469 123.408C140.495 123.523 140.507 123.641 140.504 123.759V124.754C140.504 125.616 140.532 126.864 140.504 128.41C140.504 131.504 140.423 135.77 140.205 140.484C139.986 145.199 139.67 149.454 139.388 152.558C139.25 154.099 139.124 155.341 139.02 156.204C138.974 156.606 138.934 156.934 138.899 157.187C138.89 157.303 138.871 157.419 138.842 157.532C138.827 157.415 138.827 157.297 138.842 157.181C138.842 156.922 138.882 156.606 138.905 156.192C138.974 155.289 139.066 154.053 139.175 152.541C139.405 149.465 139.687 145.205 139.906 140.502C140.124 135.798 140.233 131.532 140.297 128.428C140.297 126.91 140.343 125.674 140.36 124.771C140.36 124.363 140.36 124.035 140.389 123.776C140.406 123.652 140.433 123.529 140.469 123.408Z" fill="#263238"/>
<path d="M209.619 201.769C209.587 201.629 209.568 201.487 209.562 201.343C209.562 201.039 209.493 200.625 209.441 200.096C209.349 198.986 209.217 197.417 209.05 195.45C208.734 191.466 208.297 185.906 207.791 179.507V179.346H207.952L215.38 179.466L236.435 179.852L242.817 180.001L244.542 180.059H244.991C245.042 180.051 245.094 180.051 245.146 180.059C245.094 180.067 245.042 180.067 244.991 180.059H244.542H242.817L236.435 180.001L215.369 179.754L207.935 179.627L208.078 179.472C208.544 185.871 208.947 191.437 209.228 195.427C209.355 197.394 209.464 198.969 209.533 200.079C209.568 200.608 209.591 201.021 209.608 201.326C209.621 201.473 209.625 201.621 209.619 201.769Z" fill="#263238"/>
<path d="M242.265 175.728C242.265 175.78 241.448 175.728 240.149 175.797C238.453 175.893 236.774 176.188 235.147 176.677C233.524 177.18 231.965 177.871 230.501 178.735C229.38 179.402 228.736 179.885 228.707 179.856C228.679 179.828 228.845 179.707 229.127 179.471C229.529 179.14 229.951 178.835 230.392 178.557C231.84 177.622 233.411 176.894 235.061 176.395C236.708 175.894 238.416 175.621 240.137 175.584C240.659 175.575 241.181 175.594 241.701 175.642C241.892 175.647 242.081 175.676 242.265 175.728Z" fill="#263238"/>
<path d="M142.183 203.902C142.174 203.858 142.174 203.813 142.183 203.77C142.183 203.666 142.183 203.54 142.223 203.384C142.269 203.022 142.332 202.533 142.407 201.901C142.585 200.59 142.838 198.727 143.149 196.416C143.81 191.741 144.718 185.267 145.753 177.943L145.897 178.115L141.872 178.058C133.53 178 125.969 178.155 120.495 178.127C117.759 178.127 115.545 178.086 114.016 178.046L112.256 177.989H111.796H111.641C111.692 177.98 111.745 177.98 111.796 177.989H114.016H120.495C125.963 177.96 133.524 177.776 141.878 177.833L145.903 177.891H146.052V178.058C144.983 185.371 144.034 191.856 143.35 196.514C142.999 198.813 142.717 200.682 142.522 201.987C142.418 202.614 142.338 203.103 142.28 203.459C142.28 203.614 142.234 203.741 142.211 203.844C142.188 203.948 142.188 203.902 142.183 203.902Z" fill="#263238"/>
<path d="M124.911 178.213C124.492 177.928 124.106 177.596 123.761 177.224C123.083 176.574 122.18 175.637 121.249 174.545C120.317 173.452 119.524 172.411 119.006 171.635C118.694 171.232 118.43 170.794 118.219 170.33C118.572 170.695 118.893 171.089 119.179 171.509C119.754 172.25 120.553 173.234 121.479 174.355C122.404 175.476 123.273 176.39 123.917 177.074C124.279 177.426 124.611 177.807 124.911 178.213Z" fill="#263238"/>
<path d="M158.701 129.088C157.823 127.681 157.032 126.222 156.332 124.719C155.544 123.26 154.842 121.757 154.228 120.217C155.106 121.624 155.897 123.083 156.597 124.586C157.388 126.044 158.091 127.547 158.701 129.088Z" fill="#FAFAFA"/>
<path d="M191.043 128.652C190.705 129.094 190.319 129.497 189.893 129.854C187.936 131.668 185.775 133.249 183.453 134.563C182.984 134.853 182.487 135.096 181.97 135.287C182.405 134.948 182.866 134.645 183.35 134.379C184.206 133.838 185.385 133.068 186.638 132.154C187.892 131.24 188.973 130.354 189.749 129.693C190.157 129.318 190.589 128.971 191.043 128.652Z" fill="#FAFAFA"/>
<path d="M206.595 125.84C205.421 124.54 204.323 123.173 203.306 121.747C202.208 120.382 201.188 118.956 200.253 117.475C201.427 118.777 202.526 120.143 203.547 121.568C204.645 122.932 205.662 124.359 206.595 125.84Z" fill="#FAFAFA"/>
<path d="M205.525 146.049C204.45 146.803 203.32 147.475 202.144 148.061C201.014 148.734 199.834 149.32 198.614 149.815C199.69 149.058 200.822 148.385 202.001 147.802C203.129 147.129 204.307 146.543 205.525 146.049Z" fill="#FAFAFA"/>
<path d="M227.943 147.722C227.834 145.896 227.822 144.065 227.909 142.237C227.899 140.407 227.987 138.578 228.173 136.758C228.283 138.584 228.295 140.415 228.208 142.243C228.221 144.073 228.133 145.902 227.943 147.722Z" fill="#FAFAFA"/>
<path d="M237.24 163.408C235.279 163.675 233.307 163.844 231.329 163.914C228.058 164.109 225.407 164.201 225.401 164.121C227.362 163.853 229.334 163.684 231.312 163.615C234.595 163.42 237.234 163.328 237.24 163.408Z" fill="#FAFAFA"/>
<path d="M252.286 175.044C252.011 173.179 251.838 171.3 251.769 169.415C251.595 167.537 251.524 165.65 251.556 163.764C251.824 165.632 251.995 167.512 252.068 169.398C252.238 171.275 252.311 173.16 252.286 175.044Z" fill="#FAFAFA"/>
<path d="M245.945 189.648C244.621 191.122 243.222 192.527 241.753 193.857C240.359 195.261 238.893 196.593 237.361 197.847C237.303 197.789 239.178 195.903 241.546 193.638C243.915 191.373 245.887 189.59 245.945 189.648Z" fill="#FAFAFA"/>
<path d="M220.923 194.335C220.542 194.243 220.18 194.086 219.853 193.869C218.204 192.947 216.793 191.654 215.731 190.092C215.481 189.787 215.286 189.44 215.156 189.068C215.958 190.101 216.826 191.08 217.755 192.001C218.757 192.849 219.815 193.629 220.923 194.335Z" fill="#FAFAFA"/>
<path d="M155.251 142.168C154.058 143.392 152.793 144.544 151.462 145.618C150.197 146.762 148.866 147.833 147.478 148.826C148.671 147.602 149.937 146.45 151.267 145.376C152.533 144.232 153.863 143.161 155.251 142.168Z" fill="#FAFAFA"/>
<path d="M171.166 150.028C169.895 148.575 169.093 146.771 168.866 144.854C168.952 144.854 169.263 146.078 169.901 147.504C170.539 148.93 171.241 149.982 171.166 150.028Z" fill="#FAFAFA"/>
<path d="M143.235 110.281C143.287 110.35 141.148 112.161 138.451 114.306C135.755 116.45 133.536 118.187 133.484 118.123C133.432 118.06 135.571 116.243 138.267 114.099C140.964 111.954 143.178 110.218 143.235 110.281Z" fill="#FAFAFA"/>
<path d="M132.184 140.525C132.098 140.553 131.442 138.633 130.344 136.397C129.246 134.16 128.136 132.464 128.211 132.412C128.527 132.728 128.799 133.083 129.022 133.47C129.609 134.368 130.141 135.301 130.614 136.264C131.087 137.227 131.497 138.22 131.839 139.237C132.009 139.649 132.125 140.082 132.184 140.525Z" fill="#FAFAFA"/>
<path d="M127.602 153.207C127.151 153.466 126.671 153.669 126.17 153.811C123.785 154.613 121.287 155.024 118.771 155.03C118.251 155.058 117.729 155.021 117.218 154.92C117.731 154.849 118.248 154.815 118.765 154.817C120.009 154.765 121.249 154.644 122.479 154.455C123.704 154.246 124.917 153.974 126.113 153.638C126.597 153.455 127.095 153.311 127.602 153.207Z" fill="#FAFAFA"/>
<path d="M115.476 185.209C113.876 186.391 112.219 187.493 110.508 188.509C107.72 190.234 105.426 191.631 105.38 191.562C106.978 190.376 108.636 189.272 110.347 188.256C112.005 187.155 113.717 186.138 115.476 185.209Z" fill="#FAFAFA"/>
<path d="M131.207 196.817C131.132 196.846 129.971 193.833 128.619 190.09C127.268 186.347 126.228 183.289 126.32 183.26C126.412 183.231 127.556 186.244 128.913 189.987C130.27 193.73 131.287 196.789 131.207 196.817Z" fill="#FAFAFA"/>
<path d="M148.139 172.664C147.43 171.482 146.806 170.253 146.27 168.984C145.646 167.755 145.113 166.48 144.678 165.172C145.386 166.354 146.009 167.586 146.541 168.857C147.166 170.085 147.7 171.357 148.139 172.664Z" fill="#FAFAFA"/>
<path d="M212.12 162.229C212.005 162.675 211.845 163.108 211.643 163.522C211.321 164.31 210.872 165.391 210.407 166.598C209.941 167.806 209.544 168.898 209.257 169.709C209.128 170.152 208.957 170.581 208.745 170.991C208.794 170.532 208.898 170.08 209.056 169.645C209.297 168.823 209.665 167.708 210.136 166.495C210.608 165.282 211.085 164.195 211.459 163.436C211.634 163.01 211.855 162.605 212.12 162.229Z" fill="#FAFAFA"/>
<path d="M158.362 208.949C157.833 208.984 157.303 208.984 156.775 208.949C155.506 208.933 154.237 208.993 152.974 209.127C151.712 209.265 150.459 209.474 149.22 209.754C148.712 209.899 148.196 210.011 147.673 210.087C148.146 209.843 148.649 209.662 149.168 209.547C150.405 209.204 151.669 208.963 152.946 208.828C154.219 208.691 155.502 208.66 156.781 208.736C157.314 208.741 157.846 208.812 158.362 208.949Z" fill="#FAFAFA"/>
<path d="M173.863 210.059C173.782 210.105 172.891 208.489 171.408 206.799C169.924 205.108 168.458 203.987 168.533 203.924C168.9 204.094 169.239 204.319 169.539 204.591C170.305 205.195 171.012 205.871 171.649 206.609C172.296 207.344 172.873 208.137 173.374 208.978C173.586 209.314 173.75 209.678 173.863 210.059Z" fill="#FAFAFA"/>
<path d="M190.985 205.541C189.868 206.39 188.692 207.159 187.466 207.841C186.293 208.604 185.067 209.285 183.798 209.876C184.911 209.024 186.085 208.256 187.311 207.576C188.485 206.811 189.713 206.13 190.985 205.541Z" fill="#FAFAFA"/>
<path d="M209.148 209.254C208.295 209.312 207.438 209.272 206.595 209.133C205.74 209.095 204.893 208.956 204.071 208.719C204.924 208.661 205.78 208.701 206.624 208.84C207.479 208.876 208.326 209.015 209.148 209.254Z" fill="#FAFAFA"/>
<path d="M187.19 63.7909C187.074 64.2765 187.102 64.7855 187.272 65.2551C187.442 65.7247 187.746 66.1341 188.146 66.4328C188.546 66.7314 189.025 66.9061 189.524 66.9352C190.022 66.9644 190.518 66.8467 190.951 66.5967C192.583 65.648 192.675 63.3194 192.227 61.4853C191.778 59.6512 191.048 57.7079 191.732 55.9485C192.25 54.6031 193.492 53.7004 194.435 52.6138C195.269 51.6671 195.871 50.5398 196.196 49.3206C196.52 48.1015 196.557 46.8237 196.303 45.5878C196.021 44.3584 195.405 43.2309 194.522 42.3299C193.639 41.4289 192.525 40.7895 191.301 40.4822C188.794 39.9073 185.799 40.8675 183.861 39.1828C182.453 37.9639 182.251 35.8481 181.136 34.359C179.411 32.0592 175.996 31.8637 173.167 32.4156C170.338 32.9676 167.475 34.0485 164.641 33.5138C162.272 33.0653 160.259 31.5417 158.011 30.639C155.558 29.6901 152.871 29.5295 150.322 30.1794C147.774 30.8293 145.491 32.2574 143.792 34.265C142.093 36.2727 141.062 38.76 140.843 41.3809C140.624 44.0018 141.227 46.6259 142.568 48.8881C143.473 50.5539 144.937 51.8468 146.702 52.539" fill="#263238"/>
<path d="M177.675 117.222C173.883 117.541 170.119 116.343 167.209 113.891C164.299 111.439 162.48 107.933 162.151 104.142C161.76 99.634 161.444 95.8393 161.444 95.8393C161.444 95.8393 149.944 94.8677 148.996 83.4893C148.047 72.111 148.191 47.3362 148.191 47.3362V45.8355C160.972 39.2465 176.398 41.3394 188.38 49.2853L188.524 51.6311L190.818 102.71C190.866 106.342 189.538 109.858 187.099 112.55C184.661 115.242 181.294 116.911 177.675 117.222Z" fill="#FFBE9D"/>
<path d="M153.774 65.1138C154.084 64.9817 154.347 64.7591 154.528 64.4751C154.709 64.1911 154.801 63.859 154.79 63.5223C154.78 63.1856 154.668 62.8598 154.469 62.5878C154.27 62.3157 153.994 62.11 153.676 61.9976C153.303 61.8596 152.891 61.872 152.526 62.0321C152.215 62.1632 151.95 62.3858 151.767 62.6705C151.584 62.9552 151.492 63.2885 151.503 63.6266C151.513 63.9648 151.626 64.2917 151.826 64.5644C152.027 64.8371 152.305 65.0427 152.624 65.1541C152.998 65.2902 153.41 65.2758 153.774 65.1138Z" fill="#263238"/>
<path d="M149.686 62.7335C149.875 62.9175 150.933 61.9803 152.503 61.8653C154.073 61.7504 155.263 62.4748 155.424 62.2621C155.504 62.1643 155.297 61.8251 154.774 61.4801C154.069 61.04 153.24 60.8393 152.411 60.9076C151.583 60.976 150.798 61.3098 150.174 61.8596C149.737 62.2793 149.594 62.653 149.686 62.7335Z" fill="#263238"/>
<path d="M168.579 62.4166C168.311 62.606 168.105 62.8707 167.988 63.1771C167.871 63.4835 167.847 63.8179 167.92 64.1377C167.993 64.4576 168.16 64.7485 168.398 64.9736C168.637 65.1987 168.937 65.3478 169.261 65.402C169.584 65.4562 169.917 65.4131 170.216 65.278C170.515 65.143 170.767 64.9222 170.94 64.6436C171.114 64.365 171.2 64.0412 171.189 63.7133C171.178 63.3854 171.07 63.0682 170.878 62.8018C170.622 62.4486 170.238 62.2101 169.807 62.1381C169.377 62.066 168.936 62.166 168.579 62.4166Z" fill="#263238"/>
<path d="M166.394 62.9972C166.584 63.1812 167.642 62.244 169.211 62.129C170.781 62.014 171.971 62.7385 172.132 62.5257C172.207 62.428 172.006 62.0888 171.483 61.7438C170.777 61.3037 169.948 61.1029 169.12 61.1713C168.291 61.2397 167.507 61.5735 166.883 62.1233C166.446 62.543 166.302 62.9167 166.394 62.9972Z" fill="#263238"/>
<path d="M161.001 76.3759C161.001 76.2552 160.018 76.1344 158.425 76.0309C158.017 76.0309 157.672 75.9504 157.62 75.7205C157.574 75.3046 157.645 74.8841 157.827 74.5073L158.845 71.2358C160.236 66.5729 161.191 62.7437 160.967 62.6805C160.742 62.6172 159.431 66.3314 158.034 70.9943C157.707 72.1442 157.39 73.2194 157.086 74.2831C156.854 74.8289 156.816 75.4372 156.976 76.0079C157.046 76.1542 157.149 76.2823 157.277 76.3821C157.404 76.4818 157.554 76.5506 157.712 76.5829C157.943 76.6286 158.179 76.6421 158.414 76.6231C160.024 76.5829 161.001 76.4909 161.001 76.3759Z" fill="#263238"/>
<path d="M166.227 77.7504C167.791 76.6638 161.898 80.4527 158.695 80.5217C158.695 80.5217 160.731 83.3217 163.927 81.8901C167.251 80.401 166.227 77.7504 166.227 77.7504Z" fill="white"/>
<path d="M161.432 95.6731C161.432 95.6731 168.665 95.7593 175.978 90.418C175.978 90.418 173.046 98.8583 161.605 98.6283L161.432 95.6731Z" fill="#EB996E"/>
<path d="M188.374 59.2371C188.622 59.1394 196.815 58.0067 196.125 67.7005C195.435 77.3942 185.868 73.4845 185.868 73.2085C185.868 72.9326 188.374 59.2371 188.374 59.2371Z" fill="#FFBE9D"/>
<path d="M189.082 70.0172C189.128 70.0172 189.243 70.1494 189.519 70.2989C189.909 70.4952 190.359 70.5363 190.778 70.4139C191.83 70.1149 192.807 68.5453 192.98 66.8032C193.067 65.9746 192.965 65.1371 192.681 64.3539C192.612 64.0438 192.469 63.7552 192.263 63.5128C192.058 63.2704 191.797 63.0816 191.502 62.9625C191.311 62.898 191.104 62.9024 190.916 62.9748C190.728 63.0473 190.571 63.1833 190.473 63.3592C190.324 63.6179 190.375 63.8192 190.324 63.8307C190.272 63.8422 190.122 63.6524 190.232 63.2557C190.304 63.0213 190.454 62.8186 190.657 62.6808C190.938 62.4995 191.278 62.4355 191.606 62.5025C191.999 62.6083 192.357 62.8137 192.647 63.0987C192.937 63.3838 193.149 63.7389 193.262 64.1296C193.616 64.9996 193.753 65.9432 193.658 66.8779C193.457 68.827 192.324 70.5806 190.893 70.9026C190.628 70.9614 190.352 70.9589 190.088 70.8951C189.824 70.8313 189.578 70.708 189.369 70.5346C189.082 70.2529 189.047 70.0344 189.082 70.0172Z" fill="#EB996E"/>
<path d="M173.018 56.8685C172.765 57.2135 171.057 56.3568 168.826 56.3798C166.595 56.4028 164.876 57.1675 164.629 56.8168C164.52 56.6558 164.836 56.1901 165.578 55.7301C166.57 55.1655 167.693 54.872 168.834 54.879C169.976 54.8861 171.095 55.1935 172.08 55.7704C172.816 56.2418 173.127 56.7133 173.018 56.8685Z" fill="#263238"/>
<path d="M155.171 57.5298C155.079 57.938 153.86 58.0013 152.428 58.0473C150.997 58.0933 149.772 58.076 149.657 57.6736C149.542 57.2711 150.738 56.5869 152.388 56.5237C154.038 56.4604 155.251 57.1389 155.171 57.5298Z" fill="#263238"/>
<path d="M145.776 52.1644C145.776 52.1644 152.779 55.2347 161.564 50.4395C167.314 47.2888 174.121 45.6042 175.679 46.7253C177.238 47.8465 177.772 53.895 183.66 55.4416C183.66 55.4416 183.66 67.004 188.259 66.4233C192.859 65.8426 189.306 48.0592 189.306 48.0592L178.485 40.8608L166.106 38.9922L152.601 41.0045L145.069 45.9664L145.776 52.1644Z" fill="#263238"/>
<path d="M189.789 38.3604C188.921 38.4302 188.067 38.6238 187.253 38.9354C186.477 39.328 185.759 39.8273 185.12 40.4188C185.092 40.4188 185.23 40.1255 185.563 39.7633C186.008 39.2938 186.543 38.9181 187.135 38.6584C187.728 38.3987 188.366 38.2603 189.013 38.2512C189.496 38.2397 189.795 38.3144 189.789 38.3604Z" fill="#263238"/>
<path d="M184.879 33.9961C185.02 34.3245 185.106 34.6743 185.132 35.031C185.27 35.8804 185.303 36.7436 185.229 37.6011C185.158 38.4629 184.937 39.3056 184.574 40.0906C184.444 40.4268 184.249 40.7336 183.999 40.9933C184.099 40.6559 184.226 40.3271 184.378 40.0101C184.679 39.2271 184.873 38.4071 184.953 37.5723C185.027 36.7345 185.027 35.8918 184.953 35.054C184.89 34.7052 184.864 34.3504 184.879 33.9961Z" fill="#263238"/>
<path d="M184.425 38.941C184.405 39.0437 184.38 39.1454 184.35 39.2457C184.267 39.5454 184.159 39.8377 184.028 40.1196C183.588 41.0585 182.948 41.89 182.154 42.5563C181.359 43.2226 180.429 43.7077 179.428 43.9776C178.423 44.2484 177.367 44.2682 176.352 44.0351C175.184 43.7697 174.099 43.2185 173.196 42.4309C172.173 41.5548 171.434 40.3938 171.074 39.0962C170.879 38.3947 170.836 37.6596 170.948 36.9401C171.066 36.1779 171.427 35.4741 171.977 34.9335C172.26 34.6472 172.599 34.4219 172.973 34.2716C173.347 34.1212 173.747 34.0491 174.15 34.0596C174.57 34.0907 174.977 34.2178 175.34 34.4312C175.703 34.6445 176.012 34.9383 176.243 35.29C176.741 35.9971 176.98 36.8537 176.921 37.7163C176.822 38.5961 176.486 39.4325 175.95 40.1369C174.812 41.5609 173.298 42.6383 171.58 43.2474C169.797 43.9207 167.884 44.1783 165.986 44.0006C164.001 43.8181 162.096 43.1335 160.449 42.0112C159.595 41.4313 158.881 40.6669 158.362 39.7746C158.103 39.3146 157.928 38.8124 157.844 38.2913C157.77 37.762 157.798 37.2235 157.925 36.7044C158.061 36.1812 158.304 35.6919 158.638 35.267C158.985 34.8385 159.445 34.5158 159.966 34.3356C160.497 34.1914 161.054 34.1682 161.595 34.2677C162.136 34.3672 162.649 34.5869 163.094 34.9105C163.989 35.5339 164.671 36.4169 165.049 37.4403C165.426 38.4389 165.543 39.5175 165.388 40.5738C165.197 41.5971 164.78 42.5649 164.169 43.4072C163.557 44.2496 162.766 44.9452 161.852 45.4437C160.1 46.4075 158.074 46.7499 156.102 46.4154C154.205 46.1513 152.416 45.374 150.928 44.1673C150.216 43.5701 149.646 42.8218 149.26 41.9767C148.891 41.1434 148.754 40.2254 148.864 39.3204C148.975 38.4382 149.394 37.6236 150.048 37.0206C150.364 36.7233 150.74 36.4971 151.15 36.3572C151.561 36.2174 151.997 36.1672 152.428 36.2099C152.842 36.2796 153.236 36.4353 153.586 36.6671C153.936 36.8989 154.233 37.2015 154.458 37.5553C154.895 38.2387 155.097 39.0463 155.033 39.8551C154.979 40.6 154.75 41.3217 154.366 41.962C153.981 42.6022 153.451 43.143 152.819 43.5406C151.651 44.2176 150.299 44.5074 148.956 44.3685C147.767 44.2609 146.615 43.9023 145.575 43.3164C143.62 42.2297 142.464 40.4416 142.344 38.8605C142.268 38.2554 142.313 37.6414 142.477 37.0541C142.641 36.4668 142.92 35.918 143.298 35.4395C143.494 35.1981 143.722 34.9852 143.976 34.807L144.247 34.6403C143.907 34.8752 143.603 35.1579 143.344 35.4797C142.623 36.4303 142.299 37.624 142.441 38.8087C142.579 40.3381 143.718 42.0802 145.638 43.1324C146.659 43.6973 147.787 44.0402 148.95 44.1385C150.253 44.2644 151.562 43.9767 152.693 43.3164C153.292 42.9355 153.794 42.4192 154.157 41.8091C154.521 41.1989 154.736 40.5119 154.786 39.8034C154.83 39.0488 154.629 38.3001 154.211 37.6703C154.007 37.3499 153.739 37.0755 153.423 36.8646C153.107 36.6537 152.751 36.5111 152.377 36.4457C151.981 36.4082 151.581 36.456 151.205 36.586C150.829 36.7159 150.486 36.9249 150.197 37.1988C149.584 37.7637 149.196 38.5317 149.105 39.3607C149.001 40.2171 149.132 41.0856 149.485 41.8732C149.853 42.6808 150.399 43.3944 151.083 43.9603C152.533 45.1294 154.274 45.8826 156.12 46.1394C158.035 46.4636 160.005 46.1314 161.708 45.1965C162.582 44.7183 163.34 44.052 163.925 43.2457C164.511 42.4393 164.91 41.513 165.095 40.5336C165.244 39.5277 165.133 38.5005 164.773 37.5496C164.411 36.5867 163.768 35.7551 162.927 35.1635C162.521 34.8603 162.052 34.6513 161.554 34.5519C161.057 34.4524 160.544 34.4649 160.052 34.5885C159.585 34.7556 159.175 35.0504 158.868 35.4395C158.558 35.8291 158.335 36.2798 158.212 36.7619C158.096 37.2416 158.07 37.7389 158.138 38.228C158.218 38.7143 158.381 39.183 158.621 39.6137C159.117 40.4673 159.799 41.1983 160.616 41.7525C162.222 42.8481 164.079 43.5187 166.014 43.7016C167.869 43.8782 169.739 43.6284 171.482 42.9714C173.152 42.3828 174.625 41.3417 175.737 39.9644C176.252 39.2981 176.573 38.502 176.663 37.6646C176.715 36.8738 176.496 36.0888 176.042 35.4395C175.832 35.1161 175.552 34.8446 175.223 34.6453C174.893 34.4461 174.522 34.3245 174.139 34.2896C173.768 34.2812 173.399 34.3483 173.056 34.4866C172.712 34.625 172.399 34.8318 172.138 35.0945C171.619 35.5996 171.278 36.2593 171.166 36.9746C171.058 37.6627 171.095 38.3659 171.275 39.0387C171.621 40.2985 172.334 41.4271 173.322 42.2814C174.197 43.0535 175.25 43.5967 176.387 43.8626C177.372 44.1111 178.403 44.1111 179.388 43.8626C180.215 43.6537 180.995 43.2909 181.688 42.7932C182.666 42.1081 183.456 41.1889 183.988 40.1196C184.124 39.843 184.239 39.5566 184.333 39.2629C184.384 39.0387 184.425 38.941 184.425 38.941Z" fill="#455A64"/>
<path d="M195.7 50.3027C195.7 50.3027 195.7 50.3372 195.625 50.3889C195.55 50.4407 195.493 50.5154 195.372 50.6017C195.032 50.857 194.659 51.064 194.262 51.2169C193.632 51.4601 192.959 51.5735 192.284 51.5503C191.381 51.5249 190.504 51.2373 189.76 50.7224C188.854 50.0958 188.176 49.1919 187.829 48.1466C187.609 47.5649 187.561 46.9322 187.691 46.324C187.759 45.9875 187.942 45.6849 188.208 45.4673C188.355 45.356 188.528 45.2857 188.711 45.2635C188.894 45.2412 189.08 45.2679 189.249 45.3408C189.576 45.5004 189.835 45.7716 189.979 46.1055C190.135 46.4267 190.222 46.7775 190.232 47.1347C190.232 48.2487 189.832 49.3257 189.105 50.1698C188.378 51.0139 187.372 51.5691 186.27 51.7343C185.523 51.8388 184.761 51.7576 184.052 51.4979C183.343 51.2382 182.709 50.808 182.205 50.2452C181.964 49.9694 181.786 49.6429 181.687 49.2898C181.587 48.9366 181.568 48.5657 181.63 48.2041C181.684 47.8462 181.849 47.5142 182.102 47.2552C182.355 46.9962 182.683 46.8233 183.039 46.761C183.377 46.72 183.72 46.7661 184.035 46.8949C184.35 47.0237 184.626 47.2309 184.839 47.4969C185.221 47.99 185.423 48.5982 185.414 49.2218C185.397 49.779 185.258 50.3258 185.006 50.8228C184.753 51.3198 184.394 51.7548 183.953 52.0965C183.244 52.6739 182.342 52.9597 181.429 52.8957C180.751 52.8389 180.099 52.6071 179.538 52.223C179.186 51.9825 178.88 51.6807 178.635 51.3319C178.546 51.2134 178.472 51.0839 178.417 50.9466C178.736 51.4007 179.138 51.7908 179.601 52.0965C180.152 52.453 180.786 52.661 181.441 52.7002C182.306 52.7423 183.156 52.457 183.821 51.9011C184.221 51.5792 184.547 51.1747 184.776 50.7152C185.005 50.2558 185.133 49.7522 185.149 49.239C185.165 48.6689 184.985 48.1105 184.638 47.6579C184.454 47.4292 184.215 47.2511 183.943 47.1404C183.672 47.0297 183.376 46.9902 183.085 47.0254C182.79 47.0859 182.52 47.2369 182.314 47.4573C182.108 47.6778 181.976 47.9568 181.935 48.2558C181.887 48.5775 181.911 48.906 182.005 49.2172C182.1 49.5285 182.262 49.8149 182.481 50.0555C182.952 50.5789 183.545 50.9785 184.207 51.2191C184.868 51.4598 185.579 51.534 186.276 51.4353C187.308 51.2788 188.25 50.7578 188.932 49.9669C189.613 49.1759 189.988 48.1671 189.99 47.1232C190 46.818 189.931 46.5156 189.79 46.2447C189.649 45.9739 189.441 45.7438 189.185 45.5766C189.061 45.5212 188.923 45.5005 188.788 45.5167C188.652 45.5328 188.523 45.5853 188.415 45.6686C188.199 45.8507 188.049 46.0994 187.989 46.3757C187.868 46.9354 187.91 47.5182 188.11 48.0546C188.436 49.0532 189.073 49.9214 189.927 50.5327C190.634 51.0357 191.47 51.3251 192.336 51.3664C192.992 51.4013 193.648 51.3076 194.268 51.0904C194.778 50.8933 195.26 50.6283 195.7 50.3027Z" fill="#455A64"/>
<path d="M153.089 165.828L201.432 166.662L201.978 199.555L151.939 197.865L153.089 165.828Z" fill="#455A64"/>
<path d="M153.089 165.827L178.111 146.572L201.432 166.661" fill="#263238"/>
<path d="M151.94 197.866C151.876 197.808 155.855 193.68 160.811 188.666C165.767 183.653 169.838 179.593 169.896 179.651C169.953 179.708 165.986 183.837 161.024 188.879C156.062 193.921 151.997 197.923 151.94 197.866Z" fill="#263238"/>
<path d="M201.978 199.556C201.915 199.607 198.247 195.376 193.785 190.103C189.323 184.831 185.764 180.513 185.827 180.461C185.891 180.41 189.553 184.636 194.015 189.914C198.477 195.192 202.041 199.504 201.978 199.556Z" fill="#263238"/>
<path d="M201.432 166.662L176.686 185.457L153.089 165.828" fill="#263238"/>
<path d="M155.481 167.684L155.752 153.621H198.114L198.195 169.018L176.692 185.203L155.481 167.684Z" fill="#EBEBEB"/>
<path d="M166.107 169.111C166.064 169.31 165.961 169.413 165.796 169.421C165.739 169.416 165.684 169.398 165.635 169.369C165.586 169.332 165.547 169.283 165.522 169.227C165.497 169.17 165.486 169.109 165.491 169.047L166.25 163.804C166.245 163.768 166.245 163.731 166.25 163.694C166.269 163.637 166.307 163.588 166.357 163.555C166.407 163.522 166.466 163.506 166.526 163.51C166.577 163.509 166.627 163.523 166.67 163.551C166.718 163.572 166.758 163.607 166.786 163.651C166.815 163.695 166.83 163.746 166.831 163.798C166.371 167.213 166.13 168.984 166.107 169.111Z" fill="#263238"/>
<path d="M171.264 169.169C171.235 169.365 171.132 169.462 170.959 169.462C170.89 169.458 170.824 169.435 170.767 169.395C170.71 169.356 170.665 169.301 170.637 169.238L168.751 164.811C168.751 165.018 168.694 165.254 168.659 165.512C168.383 167.623 168.217 168.83 168.165 169.123C168.113 169.416 168.021 169.434 167.849 169.434C167.791 169.434 167.734 169.416 167.688 169.382C167.637 169.346 167.597 169.297 167.571 169.24C167.545 169.184 167.533 169.122 167.538 169.06C168.033 165.576 168.286 163.828 168.286 163.816C168.296 163.774 168.311 163.734 168.332 163.696C168.36 163.647 168.402 163.607 168.451 163.581C168.501 163.555 168.557 163.543 168.613 163.546C168.676 163.537 168.739 163.547 168.796 163.573C168.853 163.6 168.902 163.642 168.935 163.696L170.81 168.025L171.413 163.868C171.413 163.822 171.425 163.776 171.448 163.736C171.467 163.684 171.503 163.64 171.55 163.61C171.596 163.58 171.651 163.565 171.707 163.569C171.759 163.569 171.811 163.583 171.856 163.609C171.901 163.637 171.938 163.676 171.963 163.723C171.988 163.769 172.001 163.821 172 163.874C172 163.96 171.971 164.052 171.96 164.15C171.553 167.155 171.321 168.828 171.264 169.169Z" fill="#263238"/>
<path d="M174.07 163.597C174.121 163.598 174.171 163.614 174.213 163.643C174.259 163.669 174.298 163.706 174.325 163.752C174.352 163.797 174.367 163.849 174.369 163.902C174.259 164.724 174.167 165.374 174.11 165.839C173.949 167.018 173.868 167.685 173.863 167.84C173.863 168.484 174.018 168.812 174.351 168.818C174.671 168.809 174.984 168.728 175.268 168.58C175.552 168.433 175.799 168.223 175.99 167.967C176.43 167.415 176.753 166.779 176.939 166.098C176.538 166.096 176.149 165.965 175.829 165.724C175.67 165.592 175.544 165.424 175.461 165.235C175.378 165.045 175.341 164.839 175.352 164.632C175.353 164.477 175.389 164.325 175.457 164.186C175.524 164.046 175.622 163.924 175.743 163.827C175.946 163.647 176.208 163.549 176.479 163.551C176.642 163.548 176.804 163.577 176.955 163.639C177.106 163.7 177.244 163.791 177.358 163.908C177.492 164.047 177.595 164.212 177.662 164.393C177.729 164.574 177.759 164.767 177.749 164.96C177.749 165.057 177.749 165.218 177.715 165.443L177.881 165.397C178.063 165.329 178.236 165.243 178.399 165.138C178.503 165.062 178.627 165.016 178.755 165.006C178.798 165.006 178.84 165.018 178.876 165.04C178.92 165.064 178.957 165.1 178.981 165.144C179.005 165.188 179.017 165.237 179.014 165.287C179.014 165.448 178.882 165.598 178.629 165.742C178.301 165.92 177.942 166.034 177.571 166.075C177.367 166.88 177.002 167.636 176.496 168.294C176.243 168.664 175.904 168.967 175.509 169.177C175.113 169.387 174.673 169.499 174.225 169.502C174.111 169.501 173.999 169.482 173.891 169.444C173.454 169.272 173.242 168.754 173.253 167.898C173.273 167.29 173.336 166.685 173.443 166.087C173.564 165.339 173.644 164.822 173.667 164.528C173.414 164.689 173.213 164.81 173.092 164.896C172.958 164.999 172.809 165.081 172.649 165.138C172.59 165.138 172.532 165.12 172.483 165.086C172.438 165.058 172.401 165.019 172.376 164.973C172.351 164.927 172.338 164.874 172.339 164.822C172.344 164.761 172.364 164.703 172.397 164.652C172.43 164.6 172.476 164.558 172.529 164.528H172.557C173.034 164.176 173.54 163.864 174.07 163.597ZM175.967 164.747C175.966 164.863 175.994 164.977 176.047 165.08C176.203 165.368 176.548 165.512 177.088 165.517C177.126 165.328 177.147 165.136 177.151 164.942C177.157 164.831 177.141 164.72 177.105 164.615C177.08 164.496 177.013 164.39 176.918 164.316C176.822 164.241 176.703 164.202 176.582 164.206C176.46 164.206 176.339 164.235 176.231 164.293C176.148 164.335 176.078 164.399 176.028 164.478C175.978 164.557 175.951 164.648 175.95 164.741L175.967 164.747Z" fill="#263238"/>
<path d="M178.824 169.238C178.784 169.445 178.681 169.548 178.52 169.548C178.462 169.549 178.405 169.531 178.359 169.496C178.307 169.461 178.266 169.412 178.24 169.356C178.214 169.299 178.203 169.237 178.209 169.174L178.968 163.937V163.827C178.988 163.77 179.027 163.721 179.078 163.687C179.129 163.654 179.189 163.639 179.25 163.643C179.3 163.643 179.349 163.655 179.394 163.678C179.44 163.7 179.48 163.735 179.507 163.779C179.535 163.823 179.549 163.873 179.549 163.925C179.066 167.348 178.824 169.119 178.824 169.238Z" fill="#263238"/>
<path d="M185.017 164.011C185.016 164.062 185 164.112 184.971 164.155C184.938 164.2 184.895 164.236 184.844 164.26C184.794 164.284 184.739 164.295 184.683 164.293H182.958C182.514 167.501 182.282 169.164 182.263 169.283C182.263 169.283 182.263 169.312 182.263 169.329C182.255 169.405 182.219 169.475 182.161 169.524C182.103 169.574 182.028 169.599 181.952 169.594C181.894 169.595 181.837 169.577 181.791 169.542C181.742 169.505 181.703 169.456 181.677 169.4C181.652 169.343 181.642 169.281 181.647 169.22C181.647 169.22 181.814 168.03 182.142 165.77C182.257 164.994 182.326 164.511 182.355 164.304H180.727C180.669 164.301 180.611 164.291 180.555 164.275C180.498 164.262 180.448 164.23 180.412 164.184C180.377 164.138 180.358 164.081 180.359 164.022C180.36 163.964 180.376 163.906 180.405 163.856C180.436 163.808 180.478 163.769 180.529 163.744C180.58 163.718 180.636 163.707 180.693 163.712L184.718 163.752C184.756 163.745 184.795 163.745 184.833 163.752C184.885 163.772 184.931 163.808 184.964 163.854C184.996 163.9 185.015 163.954 185.017 164.011Z" fill="#263238"/>
<path d="M185.873 163.707L188.317 163.736C188.365 163.73 188.413 163.73 188.461 163.736C188.524 163.754 188.579 163.794 188.615 163.849C188.652 163.903 188.669 163.969 188.662 164.035C188.67 164.073 188.67 164.112 188.662 164.15C188.631 164.206 188.587 164.254 188.532 164.288C188.478 164.322 188.416 164.342 188.351 164.345H186.155L185.862 166.421H187.443C187.502 166.421 187.561 166.433 187.616 166.455C187.672 166.478 187.719 166.518 187.751 166.57C187.783 166.622 187.798 166.682 187.794 166.743C187.799 166.777 187.799 166.812 187.794 166.846C187.764 166.905 187.719 166.956 187.664 166.991C187.608 167.026 187.544 167.046 187.478 167.048H185.799L185.523 168.991H187.696C187.751 168.989 187.806 168.998 187.857 169.02C187.916 169.04 187.968 169.079 188.003 169.13C188.038 169.182 188.056 169.244 188.052 169.307C188.058 169.339 188.058 169.372 188.052 169.405C188.026 169.467 187.983 169.521 187.926 169.559C187.87 169.597 187.804 169.617 187.736 169.618H185.201C185.14 169.617 185.081 169.602 185.028 169.572C184.979 169.534 184.94 169.485 184.915 169.429C184.89 169.373 184.88 169.311 184.884 169.25C184.884 169.215 185.128 167.467 185.615 164.006C185.619 163.97 185.631 163.934 185.649 163.903C185.665 163.853 185.695 163.808 185.734 163.774C185.774 163.739 185.822 163.716 185.873 163.707Z" fill="#263238"/>
<path d="M152.664 177.672C152.664 177.672 151.94 184.98 153.711 184.945C156.804 184.893 168.66 181.846 169.493 184.129C170.327 186.411 166.463 188.55 166.463 188.55C166.463 188.55 170.246 189.263 168.384 191.235C166.521 193.207 160.167 202.924 156.08 203.125C150.204 203.413 142.631 201.429 142.631 201.429L145.725 180.018L152.664 177.672Z" fill="#FFBE9D"/>
<path d="M167.9 187.469C167.745 187.607 167.576 187.726 167.394 187.826C167.061 188.044 166.566 188.332 165.945 188.671C162.688 190.431 159.177 191.676 155.539 192.362C154.843 192.494 154.274 192.581 153.883 192.621C153.68 192.659 153.474 192.672 153.268 192.661C153.268 192.615 154.124 192.466 155.498 192.155C159.084 191.352 162.558 190.118 165.848 188.481C167.112 187.86 167.9 187.429 167.9 187.469Z" fill="#EB996E"/>
<path d="M167.573 192.627C167.455 192.794 167.316 192.944 167.159 193.075C166.755 193.464 166.331 193.831 165.888 194.174C162.955 196.46 159.478 197.946 155.798 198.486C155.245 198.571 154.689 198.625 154.13 198.647C153.926 198.672 153.719 198.672 153.515 198.647C153.515 198.595 154.383 198.532 155.763 198.284C159.376 197.635 162.795 196.174 165.762 194.013C166.894 193.179 167.538 192.587 167.573 192.627Z" fill="#EB996E"/>
<path d="M201.61 177.506C201.61 177.506 202.271 183.606 199.954 184.405C197.033 185.434 185.005 181.306 184.166 183.583C183.326 185.86 187.202 188.01 187.202 188.01C187.202 188.01 183.413 188.723 185.276 190.695C187.138 192.667 193.492 202.378 197.58 202.58C201.61 202.704 205.643 202.427 209.619 201.752L207.935 179.478L201.61 177.506Z" fill="#FFBE9D"/>
<path d="M185.764 186.946C185.764 186.906 186.552 187.331 187.811 187.958C191.1 189.595 194.575 190.829 198.16 191.632C199.54 191.942 200.403 192.086 200.391 192.138C200.185 192.149 199.979 192.135 199.776 192.098C199.385 192.052 198.816 191.965 198.12 191.839C194.483 191.146 190.974 189.901 187.713 188.148C187.092 187.808 186.598 187.521 186.264 187.302C186.083 187.206 185.915 187.086 185.764 186.946Z" fill="#EB996E"/>
<path d="M186.425 192.104C186.46 192.063 187.092 192.638 188.196 193.46C189.626 194.531 191.169 195.443 192.796 196.18C194.436 196.905 196.155 197.433 197.919 197.755C199.276 198.003 200.126 198.06 200.126 198.112C199.936 198.136 199.742 198.136 199.552 198.112C199.003 198.092 198.456 198.04 197.913 197.957C196.117 197.689 194.364 197.18 192.704 196.444C191.048 195.702 189.493 194.754 188.075 193.621C187.535 193.179 187.115 192.811 186.839 192.535C186.685 192.408 186.546 192.263 186.425 192.104Z" fill="#EB996E"/>
<path d="M80.8065 149.54C79.149 149.739 77.4735 149.739 75.8159 149.54C77.4735 149.341 79.149 149.341 80.8065 149.54Z" fill="#455A64"/>
<path d="M83.4572 141.607C83.6567 143.574 83.6567 145.557 83.4572 147.524C83.2578 145.557 83.2578 143.574 83.4572 141.607Z" fill="#455A64"/>
<path d="M86.2573 149.351C87.9149 149.151 89.5904 149.151 91.2479 149.351C89.5904 149.55 87.9149 149.55 86.2573 149.351Z" fill="#455A64"/>
<path d="M83.6295 157.285C83.4301 155.316 83.4301 153.332 83.6295 151.363C83.8288 153.332 83.8288 155.316 83.6295 157.285Z" fill="#455A64"/>
<path d="M87.6658 153.881C87.5968 153.927 87.1426 153.41 86.6539 152.731C86.3162 152.342 86.0566 151.891 85.8892 151.403C85.9582 151.357 86.4066 151.869 86.9011 152.553C87.2378 152.943 87.4973 153.394 87.6658 153.881Z" fill="#455A64"/>
<path d="M87.4071 144.883C87.4703 144.935 87.1081 145.458 86.6022 146.068C86.0962 146.677 85.6305 147.108 85.5672 147.056C85.504 147.005 85.8662 146.481 86.3722 145.872C86.8781 145.263 87.3668 144.831 87.4071 144.883Z" fill="#455A64"/>
<path d="M81.7092 147.177C81.6517 147.234 81.2147 146.901 80.726 146.43C80.2373 145.958 79.8981 145.527 79.9556 145.469C80.0131 145.412 80.4558 145.745 80.9387 146.217C81.4217 146.688 81.7667 147.114 81.7092 147.177Z" fill="#455A64"/>
<path d="M81.4851 151.139C81.5484 151.191 81.2322 151.714 80.7664 152.289C80.3007 152.864 79.881 153.318 79.812 153.266C79.9703 152.838 80.2149 152.446 80.5307 152.116C80.9907 151.53 81.4219 151.087 81.4851 151.139Z" fill="#455A64"/>
<path d="M242.783 121.362C241.68 121.562 240.551 121.562 239.448 121.362C240.551 121.163 241.68 121.163 242.783 121.362Z" fill="#455A64"/>
<path d="M244.56 116.82C244.759 117.94 244.759 119.087 244.56 120.207C244.36 119.087 244.36 117.94 244.56 116.82Z" fill="#455A64"/>
<path d="M246.445 121.253C247.55 121.054 248.681 121.054 249.786 121.253C248.681 121.452 247.55 121.452 246.445 121.253Z" fill="#455A64"/>
<path d="M244.675 125.789C244.476 124.669 244.476 123.522 244.675 122.402C244.874 123.522 244.874 124.669 244.675 125.789Z" fill="#455A64"/>
<path d="M247.371 123.846C247.308 123.898 246.992 123.622 246.664 123.231C246.336 122.84 246.124 122.478 246.187 122.426C246.25 122.375 246.566 122.645 246.894 123.036C247.222 123.427 247.435 123.795 247.371 123.846Z" fill="#455A64"/>
<path d="M247.244 118.694C247.302 118.752 247.072 119.08 246.733 119.425C246.393 119.77 246.071 120 246.014 119.936C245.956 119.873 246.181 119.557 246.52 119.212C246.859 118.867 247.158 118.637 247.244 118.694Z" fill="#455A64"/>
<path d="M243.386 120.005C243.335 120.068 243.03 119.901 242.708 119.637C242.386 119.372 242.162 119.096 242.213 119.033C242.265 118.97 242.576 119.136 242.898 119.401C243.22 119.665 243.444 119.959 243.386 120.005Z" fill="#455A64"/>
<path d="M243.22 122.259C243.283 122.316 243.082 122.632 242.772 122.972C242.461 123.311 242.162 123.547 242.105 123.489C242.047 123.432 242.243 123.11 242.553 122.77C242.864 122.431 243.18 122.219 243.22 122.259Z" fill="#455A64"/>
<path d="M266.362 117.48L266.523 117.877C266.813 118.564 267.363 119.107 268.053 119.389L268.478 119.562L268.07 119.729C267.723 119.869 267.408 120.078 267.143 120.343C266.878 120.607 266.669 120.922 266.529 121.269L266.414 121.557L266.241 121.195C265.925 120.539 265.366 120.032 264.683 119.78L264.31 119.648L264.798 119.412C265.411 119.115 265.894 118.604 266.155 117.975L266.362 117.48Z" fill="#455A64"/>
<path d="M105.932 124.721L106.093 125.112C106.234 125.452 106.442 125.761 106.703 126.02C106.965 126.28 107.275 126.485 107.617 126.624L108.048 126.796L107.634 126.963C107.288 127.105 106.975 127.314 106.711 127.579C106.447 127.843 106.239 128.158 106.099 128.504L105.984 128.791L105.811 128.429C105.496 127.774 104.937 127.268 104.253 127.021L103.879 126.883L104.368 126.647C104.979 126.346 105.46 125.836 105.725 125.209L105.932 124.721Z" fill="#455A64"/>
<path d="M85.5731 179.709L85.6536 179.904C85.7984 180.248 86.0733 180.521 86.4183 180.663L86.631 180.75L86.424 180.83C86.2509 180.901 86.0936 181.006 85.9613 181.138C85.829 181.27 85.7244 181.427 85.6536 181.601L85.5961 181.744L85.5099 181.566C85.3529 181.238 85.0745 180.985 84.7337 180.859L84.5439 180.79L84.7912 180.675C85.0958 180.524 85.3364 180.269 85.4696 179.956L85.5731 179.709Z" fill="#455A64"/>
<path d="M224.959 100.457L225.12 100.848C225.261 101.188 225.469 101.497 225.73 101.757C225.992 102.016 226.302 102.221 226.643 102.36L227.075 102.533L226.661 102.699C226.315 102.841 226.001 103.05 225.738 103.315C225.474 103.58 225.266 103.894 225.126 104.24L225.011 104.528L224.838 104.165C224.523 103.51 223.964 103.004 223.28 102.757L222.906 102.619L223.395 102.383C224.007 102.084 224.489 101.574 224.752 100.946L224.959 100.457Z" fill="#455A64"/>
</svg>
