<svg width="25" height="25" viewBox="0 0 25 25" fill="none" xmlns="http://www.w3.org/2000/svg">
<path fill-rule="evenodd" clip-rule="evenodd" d="M11.2562 4.21309e-08C9.45802 0.000194744 7.68601 0.431141 6.08855 1.25676C4.49109 2.08239 3.11466 3.27866 2.07449 4.74544C1.03432 6.21222 0.360681 7.90683 0.109961 9.6874C-0.14076 11.468 0.0387353 13.2827 0.63342 14.9797C1.22811 16.6766 2.22067 18.2064 3.52804 19.441C4.8354 20.6757 6.41952 21.5791 8.14777 22.0758C9.87603 22.5725 11.6981 22.648 13.4616 22.296C15.225 21.9439 16.8784 21.1746 18.2834 20.0523L22.8802 24.6489C23.1161 24.8767 23.4321 25.0028 23.76 25C24.088 24.9971 24.4017 24.8656 24.6336 24.6337C24.8656 24.4018 24.9971 24.088 25 23.7601C25.0028 23.4322 24.8767 23.1162 24.6489 22.8803L20.0521 18.2837C21.3755 16.6275 22.2042 14.6313 22.443 12.5249C22.6818 10.4185 22.321 8.28742 21.4019 6.37704C20.4829 4.46666 19.0431 2.8546 17.2482 1.72643C15.4533 0.598253 13.3763 -0.000183334 11.2562 4.21309e-08ZM3.75127 11.2569C3.75127 10.2714 3.94539 9.29553 4.32255 8.38503C4.69971 7.47452 5.25253 6.64722 5.94943 5.95035C6.64633 5.25349 7.47367 4.7007 8.38422 4.32356C9.29476 3.94642 10.2707 3.75231 11.2562 3.75231C12.2418 3.75231 13.2177 3.94642 14.1283 4.32356C15.0388 4.7007 15.8662 5.25349 16.5631 5.95035C17.26 6.64722 17.8128 7.47452 18.1899 8.38503C18.5671 9.29553 18.7612 10.2714 18.7612 11.2569C18.7612 13.2473 17.9705 15.1561 16.5631 16.5635C15.1556 17.9709 13.2467 18.7615 11.2562 18.7615C9.2658 18.7615 7.35688 17.9709 5.94943 16.5635C4.54197 15.1561 3.75127 13.2473 3.75127 11.2569Z" fill="#A1A1A1"/>
</svg>
