<svg width="26" height="21" viewBox="0 0 26 21" fill="none" xmlns="http://www.w3.org/2000/svg">
<path d="M11.6431 3.93668H15.7138L20.1779 0.32384C20.304 0.221226 20.4541 0.139779 20.6195 0.0841976C20.7848 0.0286161 20.9622 0 21.1413 0C21.3204 0 21.4978 0.0286161 21.6631 0.0841976C21.8285 0.139779 21.9785 0.221226 22.1047 0.32384L25.6054 3.15937C25.8582 3.36449 26 3.64197 26 3.9312C26 4.22043 25.8582 4.49791 25.6054 4.70304L22.4982 7.22108H11.6431V9.41068C11.6431 9.70103 11.5002 9.9795 11.2457 10.1848C10.9912 10.3901 10.6461 10.5055 10.2862 10.5055C9.92637 10.5055 9.58124 10.3901 9.32678 10.1848C9.07231 9.9795 8.92936 9.70103 8.92936 9.41068V6.12628C8.92936 5.54556 9.21527 4.98863 9.7242 4.578C10.2331 4.16737 10.9234 3.93668 11.6431 3.93668ZM3.50183 9.41068V13.7899L0.394571 16.297C0.141851 16.5021 0 16.7796 0 17.0688C0 17.358 0.141851 17.6355 0.394571 17.8406L3.89533 20.6762C4.02147 20.7788 4.17154 20.8602 4.33689 20.9158C4.50223 20.9714 4.67959 21 4.85871 21C5.03784 21 5.21519 20.9714 5.38054 20.9158C5.54589 20.8602 5.69596 20.7788 5.8221 20.6762L11.6431 15.9795H17.0706C17.4305 15.9795 17.7756 15.8641 18.0301 15.6588C18.2846 15.4535 18.4275 15.175 18.4275 14.8847V13.7899H19.7844C20.1443 13.7899 20.4894 13.6745 20.7439 13.4692C20.9983 13.2639 21.1413 12.9854 21.1413 12.6951V11.6003H22.4982C22.858 11.6003 23.2032 11.4849 23.4576 11.2796C23.7121 11.0743 23.8551 10.7958 23.8551 10.5055V9.41068H14.3569V10.5055C14.3569 11.0862 14.071 11.6431 13.562 12.0538C13.0531 12.4644 12.3629 12.6951 11.6431 12.6951H8.92936C8.20962 12.6951 7.51937 12.4644 7.01044 12.0538C6.50151 11.6431 6.21559 11.0862 6.21559 10.5055V7.22108L3.50183 9.41068Z" fill="#D9D9D9"/>
</svg>
