<svg width="27" height="21" viewBox="0 0 27 21" fill="none" xmlns="http://www.w3.org/2000/svg">
<path d="M12.1431 3.93668H16.2138L20.6779 0.32384C20.804 0.221226 20.9541 0.139779 21.1195 0.0841976C21.2848 0.0286161 21.4622 0 21.6413 0C21.8204 0 21.9978 0.0286161 22.1631 0.0841976C22.3285 0.139779 22.4785 0.221226 22.6047 0.32384L26.1054 3.15937C26.3582 3.36449 26.5 3.64197 26.5 3.9312C26.5 4.22043 26.3582 4.49791 26.1054 4.70304L22.9982 7.22108H12.1431V9.41067C12.1431 9.70103 12.0002 9.9795 11.7457 10.1848C11.4912 10.3901 11.1461 10.5055 10.7862 10.5055C10.4264 10.5055 10.0812 10.3901 9.82678 10.1848C9.57231 9.9795 9.42936 9.70103 9.42936 9.41067V6.12628C9.42936 5.54556 9.71527 4.98863 10.2242 4.578C10.7331 4.16737 11.4234 3.93668 12.1431 3.93668ZM4.00183 9.41067V13.7899L0.894571 16.297C0.641851 16.5021 0.5 16.7796 0.5 17.0688C0.5 17.358 0.641851 17.6355 0.894571 17.8406L4.39533 20.6762C4.52147 20.7788 4.67154 20.8602 4.83689 20.9158C5.00223 20.9714 5.17959 21 5.35871 21C5.53784 21 5.71519 20.9714 5.88054 20.9158C6.04589 20.8602 6.19596 20.7788 6.3221 20.6762L12.1431 15.9795H17.5706C17.9305 15.9795 18.2756 15.8641 18.5301 15.6588C18.7846 15.4535 18.9275 15.175 18.9275 14.8847V13.7899H20.2844C20.6443 13.7899 20.9894 13.6745 21.2439 13.4692C21.4983 13.2639 21.6413 12.9854 21.6413 12.6951V11.6003H22.9982C23.358 11.6003 23.7032 11.4849 23.9576 11.2796C24.2121 11.0743 24.3551 10.7958 24.3551 10.5055V9.41067H14.8569V10.5055C14.8569 11.0862 14.571 11.6431 14.062 12.0538C13.5531 12.4644 12.8629 12.6951 12.1431 12.6951H9.42936C8.70962 12.6951 8.01937 12.4644 7.51044 12.0538C7.00151 11.6431 6.71559 11.0862 6.71559 10.5055V7.22108L4.00183 9.41067Z" fill="#D99D29"/>
</svg>
