<svg width="11" height="6" viewBox="0 0 11 6" fill="none" xmlns="http://www.w3.org/2000/svg">
<path d="M10.4068 1.60295L6.08524 5.46921C5.75757 5.76236 5.22632 5.76236 4.89865 5.46921L4.88681 5.45862C4.55914 5.16548 4.55914 4.69019 4.88681 4.39705L9.20838 0.530787C9.53605 0.237642 10.0673 0.237642 10.395 0.530787L10.4068 0.541381C10.7345 0.834526 10.7345 1.30981 10.4068 1.60295Z" fill="#D99D29"/>
<path d="M6.11319 5.45862L6.10135 5.46921C5.77368 5.76236 5.24243 5.76236 4.91476 5.46921L0.59319 1.60295C0.265522 1.30981 0.265522 0.834525 0.59319 0.54138L0.605031 0.530786C0.932698 0.237642 1.46395 0.237642 1.79162 0.530787L6.11319 4.39705C6.44086 4.69019 6.44086 5.16548 6.11319 5.45862Z" fill="#D99D29"/>
</svg>
