<svg width="11" height="7" viewBox="0 0 11 7" fill="none" xmlns="http://www.w3.org/2000/svg">
<path d="M10.4066 2.10295L6.08499 5.96921C5.75733 6.26236 5.22607 6.26236 4.89841 5.96921L4.88656 5.95862C4.5589 5.66548 4.5589 5.19019 4.88656 4.89705L9.20814 1.03079C9.5358 0.737642 10.0671 0.737642 10.3947 1.03079L10.4066 1.04138C10.7342 1.33453 10.7342 1.80981 10.4066 2.10295Z" fill="#D9D9D9"/>
<path d="M6.11344 5.95862L6.10159 5.96921C5.77393 6.26236 5.24267 6.26236 4.91501 5.96921L0.593434 2.10295C0.265767 1.80981 0.265767 1.33453 0.593434 1.04138L0.605275 1.03079C0.932943 0.737642 1.4642 0.737642 1.79186 1.03079L6.11344 4.89705C6.4411 5.19019 6.4411 5.66548 6.11344 5.95862Z" fill="#D9D9D9"/>
</svg>
