<svg width="12" height="7" viewBox="0 0 12 7" fill="none" xmlns="http://www.w3.org/2000/svg">
<path d="M1.09331 4.89705L5.41488 1.03079C5.74255 0.737641 6.27381 0.737641 6.60147 1.03079L6.61331 1.04138C6.94098 1.33452 6.94098 1.80981 6.61331 2.10295L2.29174 5.96921C1.96407 6.26236 1.43282 6.26236 1.10515 5.96921L1.09331 5.95862C0.765644 5.66547 0.765644 5.19019 1.09331 4.89705Z" fill="#542D0A"/>
<path d="M5.38681 1.04138L5.39865 1.03079C5.72632 0.737641 6.25757 0.737641 6.58524 1.03079L10.9068 4.89705C11.2345 5.19019 11.2345 5.66547 10.9068 5.95862L10.895 5.96921C10.5673 6.26236 10.036 6.26236 9.70838 5.96921L5.38681 2.10295C5.05914 1.80981 5.05914 1.33452 5.38681 1.04138Z" fill="#542D0A"/>
</svg>
