<svg width="26" height="25" viewBox="0 0 26 25" fill="none" xmlns="http://www.w3.org/2000/svg">
<path d="M11.1553 10.5109C14.2453 10.5109 16.7502 8.15796 16.7502 5.25546C16.7502 2.35295 14.2453 0 11.1553 0C8.06535 0 5.56042 2.35295 5.56042 5.25546C5.56042 8.15796 8.06535 10.5109 11.1553 10.5109Z" fill="#D99D29"/>
<path d="M14.7408 20.1187H20.8034V21.2576H14.7408V20.1187Z" fill="#D99D29"/>
<path d="M9.5444 21.746V24.1867C9.5444 24.4024 9.63565 24.6094 9.79807 24.7619C9.96049 24.9145 10.1808 25.0002 10.4105 25.0002H25.1339C25.3636 25.0002 25.5839 24.9145 25.7463 24.7619C25.9088 24.6094 26 24.4024 26 24.1867V16.0513C26 15.8355 25.9088 15.6286 25.7463 15.476C25.5839 15.3235 25.3636 15.2377 25.1339 15.2377H19.0713V14.0418C19.0713 13.8261 18.9801 13.6192 18.8177 13.4666C18.6552 13.314 18.4349 13.2283 18.2052 13.2283C17.9755 13.2283 17.7552 13.314 17.5928 13.4666C17.4304 13.6192 17.3392 13.8261 17.3392 14.0418V15.2377H15.607V12.3253C14.1353 12.0991 12.6466 11.9848 11.1553 11.9836C7.86662 11.9704 4.61477 12.6341 1.62839 13.9279C1.13687 14.1458 0.72221 14.4916 0.433605 14.9242C0.144999 15.3568 -0.00543546 15.8581 0.000150074 16.3686V21.746H9.5444ZM24.2678 23.3731H11.2766V16.8648H17.3392V17.2065C17.3392 17.4223 17.4304 17.6292 17.5928 17.7818C17.7552 17.9343 17.9755 18.02 18.2052 18.02C18.4349 18.02 18.6552 17.9343 18.8177 17.7818C18.9801 17.6292 19.0713 17.4223 19.0713 17.2065V16.8648H24.2678V23.3731Z" fill="#D99D29"/>
</svg>
