<svg width="493" height="127" viewBox="0 0 493 127" fill="none" xmlns="http://www.w3.org/2000/svg">
<path d="M300.755 0.365846C303.657 -0.39697 306.894 0.0389242 309.517 1.61904C313.312 3.79852 315.377 8.4299 314.54 12.6254C313.758 17.5837 308.959 21.6157 303.824 21.4523C298.188 21.7247 293.053 16.9843 292.718 11.5357C292.216 6.52286 295.788 1.61904 300.755 0.365846Z" fill="#FBB03B"/>
<path d="M278.32 32.2406C286.189 25.2118 297.518 23.3047 307.787 24.34C314.763 25.1028 322.13 27.7727 326.204 33.6572C323.413 37.1989 320.679 40.795 317.832 44.2822C311.359 36.4906 298.243 35.6733 290.43 41.9937C285.296 46.0802 283.008 52.7276 282.561 58.9936C281.891 65.8045 282.45 72.9968 285.686 79.1538C283.956 84.8204 281.836 90.3236 279.882 95.9357C284.235 92.7755 288.644 89.6697 293.109 86.6185C302.206 90.9774 313.089 89.7787 322.186 86.1281C323.023 90.5415 323.971 94.9005 324.753 99.3139C314.986 103.074 304.103 103.891 293.835 102.093C285.91 100.731 278.208 96.753 273.576 90.1601C267.437 81.4422 266.265 70.4359 266.656 60.1379C267.102 49.8943 270.283 39.2149 278.32 32.2406Z" fill="#FBB03B"/>
<path d="M291.825 60.1924C294.895 58.5033 299.025 61.609 298.188 64.9327C297.797 68.093 293.5 69.6186 291.044 67.6026C288.421 65.8045 288.868 61.3911 291.825 60.1924Z" fill="#FBB03B"/>
<path d="M311.917 60.1925C314.986 58.5579 319.06 61.5547 318.279 64.8784C317.944 68.0386 313.591 69.6732 311.135 67.6027C308.512 65.8047 308.959 61.3912 311.917 60.1925Z" fill="#FBB03B"/>
<path d="M300.141 106.07C305.499 104.218 311.917 107.106 313.87 112.282C315.489 116.205 314.428 121 311.359 123.942C308.401 126.666 303.936 127.756 300.085 126.448C295.676 125.032 292.439 120.673 292.607 116.096C292.607 111.628 295.844 107.433 300.141 106.07Z" fill="#FBB03B"/>
<path d="M301.872 60.2468C304.551 58.7757 308.29 60.7917 308.401 63.7885C308.848 67.1122 304.774 69.673 301.816 67.9839C298.635 66.5673 298.691 61.609 301.872 60.2468Z" fill="#F9E097"/>
<path d="M242.769 23.0965C247.513 22.9875 252.257 23.0965 257.056 23.042C257.056 48.7598 257.056 74.4231 257.056 100.086C252.312 100.032 247.513 100.195 242.769 99.9775C242.769 74.3686 242.769 48.7598 242.769 23.0965Z" fill="#8EAFB4"/>
<path d="M0 25.2761C4.74376 25.1126 9.48752 25.2216 14.2871 25.2216C14.2871 46.526 14.2871 67.8303 14.2871 89.0802C25.6163 89.0802 36.9455 89.0802 48.2748 89.0802C48.2748 92.7853 48.2748 96.436 48.2748 100.141C32.2018 100.087 16.073 100.25 0 100.087C0 75.1316 0 50.1766 0 25.2761Z" fill="#8EAFB4"/>
<path d="M465.224 32.7409C469.465 32.8498 473.651 32.5229 477.892 32.9043C477.837 37.5902 477.892 42.2761 477.892 46.9074C482.804 46.9074 487.659 46.9074 492.57 46.9074C492.57 50.776 492.57 54.6991 492.57 58.5676C487.659 58.5676 482.804 58.5676 477.892 58.5676C477.892 66.5227 477.837 74.4778 477.892 82.4329C477.892 84.5034 478.73 86.9553 481.018 87.6091C484.589 88.5899 488.384 88.045 492.012 88.154C492.403 92.0771 492.068 96.0546 492.179 100.032C486.487 99.9777 480.683 100.631 475.102 99.1603C471.363 98.1251 467.735 96.0001 465.893 92.5674C463.717 88.6444 463.605 84.122 463.494 79.763C463.494 72.6797 463.494 65.6509 463.494 58.5676C460.424 58.5676 457.355 58.5676 454.285 58.5676C454.285 54.6991 454.285 50.8305 454.285 47.0164C457.355 46.853 460.424 46.9619 463.494 46.9619C464.219 42.2761 464.666 37.4812 465.224 32.7409Z" fill="#FBB03B"/>
<path d="M184.281 53.5549C189.416 47.8882 197.508 45.5453 205.098 45.6543C211.851 45.6543 219.05 47.3978 223.906 52.1927C227.924 55.8978 229.654 61.4554 229.71 66.7407C229.71 77.856 229.71 89.0258 229.71 100.141C225.636 100.087 221.506 100.305 217.432 100.032C217.153 97.3078 216.706 94.638 216.204 91.9681C213.19 97.3623 207.275 101.067 200.968 101.34C196.28 101.558 191.202 101.394 187.016 99.0514C178.756 95.8367 175.743 84.9938 180.096 77.6925C182.998 72.6253 188.802 69.9554 194.55 69.1381C201.526 68.1573 208.558 68.8112 215.534 68.5932C215.534 65.6509 215.255 62.3272 213.023 60.1478C209.228 56.4427 202.977 56.2247 198.289 58.4042C195.611 59.5484 193.88 62.1093 193.267 64.8336C188.634 64.8336 184.002 64.8336 179.37 64.8336C179.761 60.6926 181.379 56.6061 184.281 53.5549ZM194.997 79.763C192.708 81.8335 192.429 85.7021 194.55 87.9906C196.28 89.7341 198.847 90.388 201.247 90.497C204.317 90.6059 207.554 89.8431 209.898 87.7726C212.911 85.1028 214.474 81.2342 215.199 77.4201C210.958 77.4201 206.661 77.3656 202.419 77.4201C199.796 77.5836 196.894 77.9105 194.997 79.763Z" fill="#8EAFB4"/>
<path d="M409.917 48.76C414.884 45.9267 420.8 45.4363 426.437 45.7632C431.738 46.0901 437.208 47.8337 440.947 51.7023C443.849 54.5356 445.412 58.4041 446.025 62.3272C441.505 62.3272 437.04 62.3817 432.52 62.3272C432.073 60.7471 431.404 59.058 429.952 58.0772C427.274 56.2792 423.814 56.2792 420.744 56.6606C418.177 57.042 415.219 58.8945 415.498 61.7823C415.665 64.1798 418.288 65.0515 420.242 65.8144C426.716 68.0483 433.692 68.8111 440.054 71.59C443.291 73.1156 446.416 75.6765 447.365 79.2726C448.704 84.122 448.035 89.6796 444.798 93.6572C440.668 98.8334 433.803 101.067 427.274 101.34C419.516 101.776 411.145 100.032 405.452 94.5834C402.16 91.5867 400.206 87.3912 399.648 83.0867C404.448 83.0867 409.192 83.0867 413.991 83.0867C414.94 87.0642 418.679 90.061 422.809 90.4424C426.102 90.7694 430.064 90.7149 432.352 88.045C434.529 85.92 434.082 81.67 431.18 80.4713C426.883 78.5643 422.195 78.0194 417.73 76.7662C412.819 75.404 407.517 73.7694 404.169 69.7374C401.657 66.7951 401.322 62.5996 402.104 59.0035C402.941 54.6446 406.122 51.0484 409.917 48.76Z" fill="#FBB03B"/>
<path d="M61.8921 55.5163C67.0823 49.2503 75.3979 45.2182 83.7134 45.8721C88.4014 45.3817 93.1451 46.7984 97.275 48.8689C104.195 52.465 109.33 59.2214 110.837 66.7406C112.734 75.7854 110.892 86.0834 104.139 92.8942C94.7636 103.029 77.3512 104.173 66.4126 95.8365C59.9946 91.1507 56.1996 83.5225 55.8089 75.7309C55.2508 68.6476 57.1483 61.1284 61.8921 55.5163ZM79.751 58.3496C75.3979 59.7118 71.8819 63.5258 70.9332 67.8848C70.096 71.6989 70.096 75.7309 71.0448 79.545C72.2726 84.6122 76.9605 88.8077 82.374 89.2436C86.169 89.625 90.0756 88.2629 92.7545 85.593C96.103 82.5417 97.1076 77.8014 96.9959 73.4969C97.0518 69.0835 95.9914 64.2342 92.4196 61.1829C89.1269 58.0227 84.1041 57.0419 79.751 58.3496Z" fill="#8EAFB4"/>
<path d="M113.739 47.0708C118.873 46.7984 124.008 47.0163 129.142 46.9618C134.221 59.2214 139.188 71.5354 144.21 83.8494C149.68 71.6444 154.703 59.2214 160.004 46.9618C165.027 47.0163 170.05 46.9618 175.129 46.9618C163.855 72.5162 152.08 97.907 140.806 123.461C137.681 123.788 134.556 123.516 131.43 123.625C129.477 123.516 127.412 123.897 125.514 123.352C129.756 114.526 133.83 105.59 138.016 96.7083C136.955 96.7083 135.951 96.7083 134.946 96.7083C127.858 80.1443 120.715 63.6348 113.739 47.0708Z" fill="#8EAFB4"/>
<path d="M335.3 47.0707C340.044 46.8527 344.788 46.8527 349.476 47.0707C349.42 56.3335 349.476 65.5962 349.476 74.859C349.42 79.0545 349.922 83.6859 352.992 86.8461C356.061 89.7339 360.861 90.0608 364.823 89.1346C370.46 87.6634 374.032 82.0513 374.144 76.5481C374.199 66.686 374.144 56.8238 374.144 46.9617C378.999 46.9617 383.798 46.9617 388.654 46.9617C388.654 64.6699 388.654 82.4327 388.654 100.141C384.412 100.141 380.115 100.141 375.874 100.141C375.65 97.1986 375.092 94.3108 374.925 91.3685C371.52 97.798 363.93 101.884 356.564 101.285C348.918 101.993 340.937 97.7435 337.868 90.7692C335.914 86.6826 335.3 82.1057 335.245 77.6378C335.3 67.4488 335.356 57.2597 335.3 47.0707Z" fill="#FBB03B"/>
</svg>
