<svg width="100" height="26" viewBox="0 0 100 26" fill="none" xmlns="http://www.w3.org/2000/svg">
<path d="M61.0581 0.0748976C61.6473 -0.0812695 62.3044 0.00796874 62.8369 0.331458C63.6074 0.77765 64.0266 1.72581 63.8566 2.58473C63.698 3.59981 62.7236 4.42527 61.6813 4.3918C60.5369 4.44758 59.4945 3.47711 59.4266 2.36163C59.3246 1.33539 60.0497 0.331458 61.0581 0.0748976Z" fill="#EF8220"/>
<path d="M56.5038 6.60035C58.1014 5.16139 60.4014 4.77097 62.4861 4.98291C63.9024 5.13908 65.398 5.68566 66.2251 6.89038C65.6586 7.61544 65.1034 8.35166 64.5256 9.06556C63.2113 7.47043 60.5487 7.30311 58.9625 8.59706C57.9201 9.43367 57.4555 10.7946 57.3649 12.0774C57.2289 13.4717 57.3422 14.9441 57.9994 16.2046C57.6482 17.3647 57.2176 18.4914 56.8211 19.6403C57.7048 18.9933 58.5999 18.3575 59.5063 17.7328C61.3531 18.6252 63.5625 18.3798 65.4093 17.6324C65.5793 18.536 65.7719 19.4284 65.9305 20.3319C63.9477 21.1016 61.7383 21.2689 59.6536 20.9008C58.0447 20.6219 56.4812 19.8076 55.5408 18.4579C54.2944 16.6731 54.0565 14.4199 54.1358 12.3116C54.2265 10.2145 54.8723 8.02817 56.5038 6.60035Z" fill="#EF8220"/>
<path d="M59.2456 12.3228C59.8688 11.9771 60.7072 12.6129 60.5373 13.2933C60.458 13.9403 59.5855 14.2526 59.087 13.8399C58.5545 13.4718 58.6451 12.5683 59.2456 12.3228Z" fill="#EF8220"/>
<path d="M63.3247 12.3229C63.9479 11.9883 64.775 12.6018 64.6164 13.2822C64.5484 13.9292 63.6646 14.2638 63.1661 13.84C62.6336 13.4718 62.7242 12.5683 63.3247 12.3229Z" fill="#EF8220"/>
<path d="M60.9342 21.7151C62.0218 21.3358 63.3248 21.927 63.7214 22.9867C64.05 23.7899 63.8347 24.7715 63.2115 25.3738C62.611 25.9316 61.7046 26.1547 60.9228 25.887C60.0277 25.5969 59.3706 24.7046 59.4046 23.7676C59.4046 22.8529 60.0617 21.9939 60.9342 21.7151Z" fill="#EF8220"/>
<path d="M61.285 12.3339C61.8288 12.0327 62.588 12.4455 62.6106 13.059C62.7013 13.7394 61.8742 14.2637 61.2737 13.9179C60.6278 13.6279 60.6392 12.6128 61.285 12.3339Z" fill="#FBB03B"/>
<path d="M49.2861 4.72844C50.2492 4.70613 51.2123 4.72844 52.1867 4.71729C52.1867 9.98235 52.1867 15.2363 52.1867 20.4902C51.2236 20.479 50.2492 20.5125 49.2861 20.4679C49.2861 15.2251 49.2861 9.98235 49.2861 4.72844Z" fill="#FBB03B"/>
<path d="M0 5.17469C0.963064 5.14123 1.92613 5.16353 2.90052 5.16353C2.90052 9.52506 2.90052 13.8866 2.90052 18.237C5.20054 18.237 7.50057 18.237 9.80059 18.237C9.80059 18.9955 9.80059 19.7428 9.80059 20.5014C6.5375 20.4902 3.26309 20.5237 0 20.4902C0 15.3813 0 10.2724 0 5.17469Z" fill="#FBB03B"/>
<path d="M94.4482 6.70289C95.3093 6.7252 96.1591 6.65827 97.0202 6.73636C97.0089 7.69567 97.0202 8.65498 97.0202 9.60314C98.0173 9.60314 99.003 9.60314 100 9.60314C100 10.3951 100 11.1983 100 11.9903C99.003 11.9903 98.0173 11.9903 97.0202 11.9903C97.0202 13.6189 97.0089 15.2475 97.0202 16.8761C97.0202 17.2999 97.1902 17.8019 97.6547 17.9358C98.3798 18.1366 99.1503 18.025 99.8867 18.0473C99.966 18.8505 99.8981 19.6648 99.9207 20.4791C98.765 20.4679 97.5867 20.6018 96.4537 20.3006C95.6946 20.0886 94.9581 19.6536 94.5842 18.9509C94.1423 18.1477 94.1197 17.2219 94.097 16.3295C94.097 14.8794 94.097 13.4404 94.097 11.9903C93.4739 11.9903 92.8507 11.9903 92.2275 11.9903C92.2275 11.1983 92.2275 10.4063 92.2275 9.62545C92.8507 9.59198 93.4739 9.61429 94.097 9.61429C94.2443 8.65498 94.3349 7.67336 94.4482 6.70289Z" fill="#EF8220"/>
<path d="M37.4125 10.9639C38.4549 9.80379 40.0977 9.32414 41.6386 9.34644C43.0096 9.34644 44.4712 9.7034 45.4569 10.685C46.2727 11.4435 46.6239 12.5813 46.6352 13.6633C46.6352 15.9389 46.6352 18.2257 46.6352 20.5012C45.8081 20.4901 44.9697 20.5347 44.1426 20.4789C44.0859 19.9212 43.9953 19.3746 43.8933 18.828C43.2815 19.9323 42.0805 20.6909 40.8002 20.7466C39.8485 20.7913 38.8174 20.7578 37.9677 20.2781C36.2908 19.62 35.679 17.4002 36.5627 15.9055C37.1519 14.8681 38.3302 14.3215 39.4972 14.1542C40.9135 13.9534 42.3411 14.0872 43.7574 14.0426C43.7574 13.4403 43.7007 12.7598 43.2475 12.3136C42.4771 11.5551 41.2081 11.5105 40.2564 11.9567C39.7125 12.1909 39.3613 12.7152 39.2366 13.2729C38.2962 13.2729 37.3558 13.2729 36.4154 13.2729C36.4947 12.4252 36.8233 11.5886 37.4125 10.9639ZM39.5879 16.3293C39.1233 16.7532 39.0667 17.5452 39.4972 18.0137C39.8485 18.3707 40.3697 18.5045 40.8569 18.5268C41.48 18.5491 42.1372 18.393 42.613 17.9691C43.2249 17.4225 43.5421 16.6305 43.6894 15.8497C42.8283 15.8497 41.9559 15.8385 41.0948 15.8497C40.5623 15.8832 39.9731 15.9501 39.5879 16.3293Z" fill="#FBB03B"/>
<path d="M83.2205 9.98244C84.2289 9.40239 85.4299 9.302 86.5742 9.36893C87.6506 9.43585 88.7609 9.79281 89.5201 10.5848C90.1092 11.1648 90.4265 11.9568 90.5511 12.76C89.6334 12.76 88.727 12.7711 87.8092 12.76C87.7186 12.4365 87.5826 12.0907 87.288 11.8899C86.7442 11.5218 86.0417 11.5218 85.4185 11.5999C84.8974 11.678 84.2969 12.0572 84.3535 12.6484C84.3875 13.1392 84.92 13.3177 85.3166 13.4739C86.6309 13.9312 88.0471 14.0874 89.3388 14.6563C89.9959 14.9686 90.6304 15.4929 90.823 16.2291C91.095 17.2219 90.959 18.3597 90.3018 19.174C89.4634 20.2337 88.0698 20.691 86.7442 20.7468C85.1693 20.8361 83.4698 20.4791 82.3141 19.3636C81.6456 18.7501 81.249 17.8912 81.1357 17.01C82.1101 17.01 83.0732 17.01 84.0476 17.01C84.2402 17.8243 84.9993 18.4378 85.8378 18.5159C86.5062 18.5828 87.3107 18.5716 87.7752 18.025C88.2171 17.59 88.1265 16.7199 87.5373 16.4745C86.6649 16.0841 85.7131 15.9726 84.8067 15.716C83.8097 15.4371 82.7333 15.1025 82.0535 14.277C81.5436 13.6747 81.4756 12.8158 81.6343 12.0795C81.8042 11.1872 82.45 10.4509 83.2205 9.98244Z" fill="#EF8220"/>
<path d="M12.5647 11.3654C13.6184 10.0826 15.3066 9.25718 16.9948 9.39104C17.9466 9.29065 18.9096 9.58067 19.7481 10.0046C21.153 10.7408 22.1954 12.124 22.5013 13.6633C22.8865 15.515 22.5126 17.6233 21.1417 19.0176C19.2382 21.0924 15.7032 21.3267 13.4825 19.62C12.1795 18.6607 11.4091 17.099 11.3297 15.5039C11.2164 14.0537 11.6017 12.5144 12.5647 11.3654ZM16.1904 11.9455C15.3066 12.2244 14.5928 13.0052 14.4002 13.8976C14.2303 14.6784 14.2303 15.5039 14.4229 16.2847C14.6721 17.3221 15.6239 18.181 16.7229 18.2703C17.4934 18.3483 18.2865 18.0695 18.8303 17.5229C19.5101 16.8982 19.7141 15.9277 19.6914 15.0465C19.7027 14.143 19.4875 13.1502 18.7623 12.5255C18.0939 11.8786 17.0741 11.6778 16.1904 11.9455Z" fill="#FBB03B"/>
<path d="M23.0908 9.63665C24.1332 9.58088 25.1756 9.62549 26.2179 9.61434C27.249 12.1242 28.2574 14.6451 29.2771 17.1661C30.3874 14.6675 31.4072 12.1242 32.4835 9.61434C33.5032 9.62549 34.523 9.61434 35.554 9.61434C33.2653 14.8459 30.8746 20.0441 28.5859 25.2757C27.9515 25.3426 27.317 25.2868 26.6825 25.3091C26.2859 25.2868 25.8667 25.3649 25.4815 25.2534C26.3426 23.4463 27.1697 21.6169 28.0194 19.7987C27.8042 19.7987 27.6002 19.7987 27.3963 19.7987C25.9573 16.4076 24.5071 13.0277 23.0908 9.63665Z" fill="#FBB03B"/>
<path d="M68.0719 9.63649C69.0349 9.59187 69.998 9.59187 70.9497 9.63649C70.9384 11.5328 70.9497 13.4291 70.9497 15.3254C70.9384 16.1844 71.0404 17.1325 71.6635 17.7795C72.2867 18.3707 73.2611 18.4376 74.0655 18.248C75.2099 17.9468 75.935 16.7979 75.9577 15.6712C75.969 13.6522 75.9577 11.6332 75.9577 9.61418C76.9434 9.61418 77.9178 9.61418 78.9035 9.61418C78.9035 13.2395 78.9035 16.876 78.9035 20.5013C78.0424 20.5013 77.17 20.5013 76.3089 20.5013C76.2636 19.8989 76.1503 19.3077 76.1163 18.7053C75.4251 20.0216 73.8843 20.8582 72.3887 20.7355C70.8364 20.8805 69.2162 20.0104 68.5931 18.5826C68.1965 17.746 68.0719 16.809 68.0605 15.8943C68.0719 13.8084 68.0832 11.7224 68.0719 9.63649Z" fill="#EF8220"/>
</svg>
