<svg width="26" height="25" viewBox="0 0 26 25" fill="none" xmlns="http://www.w3.org/2000/svg">
<path fill-rule="evenodd" clip-rule="evenodd" d="M0 0V25H26V24.9604V22.9152V2.08476V0H0ZM3.6851 3.0875H22.0997V5.16941H3.6851V3.0875ZM3.6851 7.25417H15.5024V9.33608H3.6851V7.25417ZM3.6851 11.4208H10.7748V13.5027H3.6851V11.4208ZM20.1385 15.7471C20.1385 16.4358 19.8796 17.0671 19.4472 17.5676C21.2193 18.4077 22.4359 20.0996 22.4359 22.044H20.5985C20.5985 20.1914 18.9495 18.6855 16.921 18.6855C14.8925 18.6855 13.2435 20.1914 13.2435 22.044H11.406C11.406 20.0973 12.6201 18.4055 14.3948 17.5676C13.9624 17.0671 13.7035 16.4335 13.7035 15.7471C13.7035 14.1242 15.1438 12.8088 16.921 12.8088C18.6981 12.8088 20.1385 14.1242 20.1385 15.7471ZM18.301 15.7494C18.301 15.0539 17.6801 14.4892 16.921 14.4892C16.1594 14.4892 15.541 15.0539 15.541 15.7494C15.541 16.445 16.1619 17.0097 16.921 17.0097C17.6826 17.0097 18.301 16.4427 18.301 15.7494Z" fill="#D9D9D9"/>
</svg>
