<svg width="27" height="25" viewBox="0 0 27 25" fill="none" xmlns="http://www.w3.org/2000/svg">
<path fill-rule="evenodd" clip-rule="evenodd" d="M0.5 0V25H26.5V24.9604V22.9152V2.08476V0H0.5ZM4.1851 3.0875H22.5997V5.16941H4.1851V3.0875ZM4.1851 7.25417H16.0024V9.33608H4.1851V7.25417ZM4.1851 11.4208H11.2748V13.5027H4.1851V11.4208ZM20.6385 15.7471C20.6385 16.4358 20.3796 17.0671 19.9472 17.5676C21.7193 18.4077 22.9359 20.0996 22.9359 22.044H21.0985C21.0985 20.1914 19.4495 18.6855 17.421 18.6855C15.3925 18.6855 13.7435 20.1914 13.7435 22.044H11.906C11.906 20.0973 13.1201 18.4055 14.8948 17.5676C14.4624 17.0671 14.2035 16.4335 14.2035 15.7471C14.2035 14.1242 15.6438 12.8088 17.421 12.8088C19.1981 12.8088 20.6385 14.1242 20.6385 15.7471ZM18.801 15.7494C18.801 15.0539 18.1801 14.4892 17.421 14.4892C16.6594 14.4892 16.041 15.0539 16.041 15.7494C16.041 16.445 16.6619 17.0097 17.421 17.0097C18.1826 17.0097 18.801 16.4427 18.801 15.7494Z" fill="#542D0A"/>
</svg>
