<svg width="24" height="24" viewBox="0 0 24 24" fill="none" xmlns="http://www.w3.org/2000/svg">
<path d="M21.6687 5.8898C18.2725 0.6248 11.3175 -0.9352 5.93873 2.33105C0.689983 5.5973 -1.00002 12.7148 2.39623 17.9636L2.67248 18.3861L1.53498 22.6436L5.79248 21.5061L6.21498 21.7823C8.05123 22.7736 10.05 23.3423 12.0325 23.3423C14.1612 23.3423 16.29 22.7736 18.1262 21.6361C23.375 18.2236 24.935 11.2523 21.6687 5.8573V5.8898ZM18.695 16.8423C18.1262 17.6873 17.4112 18.256 16.42 18.4023C15.8512 18.4023 15.1362 18.6786 12.3087 17.5573C9.90373 16.4198 7.90498 14.5673 6.49123 12.4386C5.64623 11.4473 5.20748 10.1636 5.07748 8.8798C5.07748 7.7423 5.49998 6.75105 6.21498 6.03605C6.49123 5.7598 6.78373 5.61355 7.05998 5.61355H7.77498C8.05123 5.61355 8.34373 5.61355 8.48998 6.1823C8.76623 6.8973 9.48123 8.60355 9.48123 8.7498C9.62748 8.89605 9.56248 9.9848 8.91248 10.6023C8.55498 11.0086 8.48998 11.0248 8.63623 11.3173C9.20498 12.1623 9.91998 13.0236 10.6187 13.7386C11.4637 14.4536 12.325 15.0223 13.3162 15.4448C13.5925 15.5911 13.885 15.5911 14.0312 15.2986C14.1775 15.0223 14.8762 14.3073 15.1687 14.0148C15.445 13.7386 15.5912 13.7385 15.8837 13.8685L18.1587 15.0061C18.435 15.1523 18.7275 15.2823 18.8737 15.4286C19.02 15.851 19.02 16.4198 18.7275 16.8423H18.695Z" fill="#28A745"/>
</svg>
