<svg width="19" height="19" viewBox="0 0 19 19" fill="none" xmlns="http://www.w3.org/2000/svg">
<path d="M8.55 14.25H10.45V8.54999H8.55V14.25ZM9.49999 6.65C9.76916 6.65 9.99494 6.5588 10.1773 6.3764C10.3597 6.194 10.4506 5.96853 10.45 5.7C10.4494 5.43146 10.3582 5.206 10.1764 5.0236C9.99463 4.8412 9.76916 4.75 9.49999 4.75C9.23083 4.75 9.00536 4.8412 8.8236 5.0236C8.64183 5.206 8.55063 5.43146 8.55 5.7C8.54936 5.96853 8.64056 6.19431 8.8236 6.37735C9.00663 6.56038 9.23209 6.65126 9.49999 6.65ZM9.49999 19C8.18583 19 6.95083 18.7505 5.795 18.2514C4.63917 17.7523 3.63375 17.0756 2.77875 16.2212C1.92375 15.3669 1.24703 14.3615 0.748601 13.205C0.250168 12.0485 0.000634535 10.8135 1.20253e-06 9.49999C-0.00063213 8.18646 0.248901 6.95146 0.748601 5.795C1.2483 4.63853 1.92502 3.63311 2.77875 2.77875C3.63248 1.92438 4.6379 1.24767 5.795 0.7486C6.9521 0.249533 8.1871 0 9.49999 0C10.8129 0 12.0479 0.249533 13.205 0.7486C14.3621 1.24767 15.3675 1.92438 16.2212 2.77875C17.075 3.63311 17.752 4.63853 18.2523 5.795C18.7527 6.95146 19.0019 8.18646 19 9.49999C18.9981 10.8135 18.7486 12.0485 18.2514 13.205C17.7542 14.3615 17.0775 15.3669 16.2212 16.2212C15.365 17.0756 14.3596 17.7526 13.205 18.2523C12.0504 18.752 10.8154 19.0013 9.49999 19Z" fill="#D9D9D9"/>
</svg>
