<svg width="23" height="23" viewBox="0 0 23 23" fill="none" xmlns="http://www.w3.org/2000/svg">
<path d="M11.5008 8.29999C11.8894 8.29981 12.227 8.16529 12.4967 7.89557C12.7667 7.62563 12.9009 7.28793 12.9 6.89941C12.8991 6.51153 12.7646 6.17442 12.4959 5.90473C12.2266 5.63453 11.8889 5.5 11.5 5.5C11.1111 5.5 10.7734 5.63453 10.5041 5.90473C10.2354 6.17442 10.1009 6.51153 10.1 6.89941C10.0991 7.2882 10.2339 7.6262 10.5044 7.89672C10.7749 8.16719 11.1126 8.30174 11.5008 8.29999ZM11.5008 8.29999C11.5005 8.29999 11.5003 8.29999 11.5 8.29999V8.04999L11.5008 8.29999ZM10.1 17.25V17.5H10.35H12.65H12.9V17.25V10.35V10.1H12.65H10.35H10.1V10.35V17.25ZM11.5002 22.75H11.5C9.94172 22.75 8.4806 22.4543 7.1141 21.8643C5.74267 21.2721 4.55222 20.4704 3.54046 19.4594C2.52879 18.4485 1.72715 17.2581 1.13579 15.886C0.54645 14.5187 0.250752 13.0574 0.250001 11.4999C0.249251 9.94247 0.544916 8.48141 1.13569 7.11416C1.72864 5.7419 2.53036 4.55144 3.54059 3.54046C4.55073 2.52957 5.74108 1.72791 7.11401 1.13576C8.48213 0.545675 9.94329 0.25 11.5 0.25C13.0567 0.25 14.5179 0.545675 15.886 1.13576C17.2589 1.72791 18.4493 2.52957 19.4594 3.54046C20.4697 4.55146 21.2718 5.74196 21.8655 7.11426C22.457 8.48141 22.7522 9.94235 22.75 11.4996C22.7477 13.0574 22.452 14.5187 21.8641 15.8862C21.2743 17.2582 20.4728 18.4484 19.4597 19.4593C18.4463 20.4704 17.2557 21.2726 15.8857 21.8655C14.5209 22.4562 13.06 22.7515 11.5002 22.75Z" fill="#D9D9D9" stroke="#374952" stroke-width="0.5"/>
</svg>
