<svg width="256" height="182" viewBox="0 0 256 182" fill="none" xmlns="http://www.w3.org/2000/svg">
<circle cx="128" cy="91" r="91" fill="#FFFB95"/>
<ellipse cx="90.4197" cy="39.1175" rx="7.78886" ry="7.89648" transform="rotate(57.9557 90.4197 39.1175)" fill="#FFFB95"/>
<ellipse cx="80.6023" cy="52.6523" rx="4.00664" ry="3.9265" transform="rotate(57.9557 80.6023 52.6523)" fill="#FFFB95"/>
<rect x="23.4912" y="142.848" width="4.37027" height="13.3809" rx="2.18514" transform="rotate(44.3663 23.4912 142.848)" fill="#AE7A19"/>
<rect x="11.4863" y="155.286" width="4.37027" height="13.3809" rx="2.18514" transform="rotate(44.3663 11.4863 155.286)" fill="#AE7A19"/>
<rect x="14.3105" y="152.313" width="4.37027" height="13.3809" rx="2.18514" transform="rotate(134.366 14.3105 152.313)" fill="#AE7A19"/>
<rect x="25.8994" y="165.826" width="4.37027" height="13.3809" rx="2.18514" transform="rotate(139.179 25.8994 165.826)" fill="#AE7A19"/>
<rect x="234.463" y="10.2393" width="4.37027" height="13.3809" rx="2.18514" transform="rotate(-3.16954 234.463 10.2393)" fill="#AE7A19"/>
<rect x="235.534" y="27.4927" width="4.37027" height="13.3809" rx="2.18514" transform="rotate(-3.16954 235.534 27.4927)" fill="#AE7A19"/>
<rect x="235.248" y="23.4023" width="4.37027" height="13.3809" rx="2.18514" transform="rotate(86.8305 235.248 23.4023)" fill="#AE7A19"/>
<rect x="253.04" y="23.9756" width="4.37027" height="13.3809" rx="2.18514" transform="rotate(91.6429 253.04 23.9756)" fill="#AE7A19"/>
<path fill-rule="evenodd" clip-rule="evenodd" d="M128 173C173.287 173 210 136.287 210 91C210 45.7127 173.287 9 128 9C82.7127 9 46 45.7127 46 91C46 136.287 82.7127 173 128 173ZM105.974 60.8774C103.856 64.0226 105.356 68.3474 108.887 69.8326C111.579 70.9247 114.801 70.1384 116.345 67.6484C118.42 64.4595 121.774 61.7947 126.937 61.7947C138.323 61.7947 140.574 72.3226 136.558 77.9579C134.869 80.3486 132.639 82.3848 130.384 84.4434C127.571 87.0116 124.719 89.6149 122.833 92.9853C121.597 95.1695 121.068 97.4847 120.803 99.7126C120.361 103.513 123.495 106.789 127.334 106.789C130.6 106.789 133.248 104.299 133.645 101.111C133.91 99.1447 134.307 98.1837 134.969 97.0042C136.296 94.5886 138.174 92.7897 140.36 90.6952C142.681 88.4716 145.349 85.9148 148.077 81.9332C152.843 74.9437 151.033 65.5516 147.944 60.5279C144.325 54.6742 137.22 50 126.849 50C117.405 50 110.255 54.5868 105.974 60.8774ZM126.893 133C131.748 133 135.719 129.068 135.719 124.263C135.719 119.458 131.748 115.526 126.893 115.526C122.038 115.526 118.067 119.458 118.067 124.263C118.067 129.068 122.038 133 126.893 133Z" fill="#AE7A19"/>
<ellipse cx="82.2713" cy="45.7918" rx="7.78886" ry="7.89648" transform="rotate(57.9557 82.2713 45.7918)" fill="#FFFB95"/>
<ellipse cx="72.4538" cy="59.3262" rx="4.00664" ry="3.9265" transform="rotate(57.9557 72.4538 59.3262)" fill="#FFFB95"/>
</svg>
