<svg width="17" height="30" viewBox="0 0 17 30" fill="none" xmlns="http://www.w3.org/2000/svg">
<path d="M12.4583 2.44871L1.50389 13.5033C0.673316 14.3414 0.673316 15.7004 1.50389 16.5385L1.53391 16.5688C2.36449 17.407 3.71112 17.407 4.5417 16.5688L15.4961 5.51429C16.3267 4.67612 16.3267 3.31717 15.4961 2.479L15.4661 2.44871C14.6355 1.61054 13.2889 1.61054 12.4583 2.44871Z" fill="#FDFDFD"/>
<path d="M1.53391 13.4313L1.50389 13.4615C0.673316 14.2997 0.673316 15.6587 1.50389 16.4968L12.4583 27.5514C13.2889 28.3895 14.6355 28.3896 15.4661 27.5514L15.4961 27.5211C16.3267 26.6829 16.3267 25.324 15.4961 24.4858L4.5417 13.4313C3.71112 12.5931 2.36449 12.5931 1.53391 13.4313Z" fill="#FDFDFD"/>
</svg>
