<svg width="17" height="30" viewBox="0 0 17 30" fill="none" xmlns="http://www.w3.org/2000/svg">
<path d="M12.4583 2.4488L1.50389 13.5034C0.673316 14.3415 0.673316 15.7005 1.50389 16.5386L1.53391 16.5689C2.36449 17.4071 3.71112 17.4071 4.5417 16.5689L15.4961 5.51438C16.3267 4.67621 16.3267 3.31726 15.4961 2.47909L15.4661 2.4488C14.6355 1.61063 13.2889 1.61063 12.4583 2.4488Z" fill="#1A1A1A"/>
<path d="M1.53391 13.4313L1.50389 13.4616C0.673316 14.2998 0.673316 15.6587 1.50389 16.4969L12.4583 27.5514C13.2889 28.3896 14.6355 28.3896 15.4661 27.5514L15.4961 27.5212C16.3267 26.683 16.3267 25.324 15.4961 24.4859L4.5417 13.4313C3.71112 12.5931 2.36449 12.5931 1.53391 13.4313Z" fill="#1A1A1A"/>
</svg>
