<svg width="70" height="70" viewBox="0 0 70 70" fill="none" xmlns="http://www.w3.org/2000/svg">
<g filter="url(#filter0_d_3780_16930)">
<circle cx="35" cy="31" r="15" fill="#D9D9D9"/>
<path d="M38.4844 26.2727L40.8333 28.7396C40.9323 28.8435 40.9323 29.0131 40.8333 29.117L35.1458 35.0901L32.7292 35.3718C32.4062 35.41 32.1328 35.1229 32.1693 34.7837L32.4375 32.2458L38.125 26.2727C38.224 26.1688 38.3854 26.1688 38.4844 26.2727ZM42.7031 25.6464L41.4323 24.3118C41.0365 23.8961 40.3932 23.8961 39.9948 24.3118L39.0729 25.2799C38.974 25.3839 38.974 25.5534 39.0729 25.6574L41.4219 28.1242C41.5208 28.2282 41.6823 28.2282 41.7813 28.1242L42.7031 27.1561C43.099 26.7376 43.099 26.0621 42.7031 25.6464ZM38 33.4655V36.2497H29.6667V27.4979H35.651C35.7344 27.4979 35.8125 27.4624 35.8724 27.4022L36.9141 26.3083C37.112 26.1004 36.9714 25.7476 36.6927 25.7476H29.25C28.5599 25.7476 28 26.3356 28 27.0604V36.6872C28 37.412 28.5599 38 29.25 38H38.4167C39.1068 38 39.6667 37.412 39.6667 36.6872V32.3716C39.6667 32.0789 39.3307 31.934 39.1328 32.1391L38.0911 33.2331C38.0339 33.296 38 33.378 38 33.4655Z" fill="#193442"/>
</g>
<defs>
<filter id="filter0_d_3780_16930" x="0" y="0" width="70" height="70" filterUnits="userSpaceOnUse" color-interpolation-filters="sRGB">
<feFlood flood-opacity="0" result="BackgroundImageFix"/>
<feColorMatrix in="SourceAlpha" type="matrix" values="0 0 0 0 0 0 0 0 0 0 0 0 0 0 0 0 0 0 127 0" result="hardAlpha"/>
<feOffset dy="4"/>
<feGaussianBlur stdDeviation="10"/>
<feComposite in2="hardAlpha" operator="out"/>
<feColorMatrix type="matrix" values="0 0 0 0 0.101961 0 0 0 0 0.101961 0 0 0 0 0.101961 0 0 0 0.1 0"/>
<feBlend mode="normal" in2="BackgroundImageFix" result="effect1_dropShadow_3780_16930"/>
<feBlend mode="normal" in="SourceGraphic" in2="effect1_dropShadow_3780_16930" result="shape"/>
</filter>
</defs>
</svg>
