<svg width="32" height="26" viewBox="0 0 32 26" fill="none" xmlns="http://www.w3.org/2000/svg">
<path d="M32 1.625V8.125L16 14.625L0 8.125V1.625C0 1.19402 0.168571 0.780698 0.468629 0.475952C0.768687 0.171205 1.17565 0 1.6 0H30.4C30.8243 0 31.2313 0.171205 31.5314 0.475952C31.8314 0.780698 32 1.19402 32 1.625ZM0 11.6253V24.375C0 24.806 0.168571 25.2193 0.468629 25.524C0.768687 25.8288 1.17565 26 1.6 26H30.4C30.8243 26 31.2313 25.8288 31.5314 25.524C31.8314 25.2193 32 24.806 32 24.375V11.6253L16 18.1252L0 11.6253Z" fill="#374952"/>
</svg>
