<svg width="27" height="26" viewBox="0 0 27 26" fill="none" xmlns="http://www.w3.org/2000/svg">
<path fill-rule="evenodd" clip-rule="evenodd" d="M21.3584 18.3574C21.033 19.2443 19.7397 19.978 18.7083 20.1925C18.0023 20.3369 17.0815 20.4511 13.9792 19.2131C10.4949 17.823 5.6565 12.8713 5.6565 9.57607C5.6565 7.89857 6.6609 5.94521 8.41725 5.94521C9.26235 5.94521 9.44865 5.96108 9.72675 6.60347C10.0521 7.3603 10.8459 9.22496 10.9404 9.41611C11.3306 10.2002 10.5435 10.6593 9.97244 11.342C9.79019 11.5474 9.58366 11.7696 9.81451 12.152C10.044 12.5265 10.8378 13.7723 12.0042 14.7723C13.5108 16.0649 14.7325 16.4775 15.1699 16.6531C15.4953 16.7831 15.8841 16.7528 16.1217 16.5083C16.4228 16.195 16.7967 15.675 17.1774 15.1626C17.446 14.7959 17.7876 14.7501 18.1454 14.8802C18.387 14.9608 21.4582 16.3343 21.5878 16.5541C21.6837 16.714 21.6837 17.4705 21.3584 18.3574ZM13.5027 0H13.4959C6.05339 0 0 5.83096 0 13C0 15.8427 0.951759 18.4799 2.57041 20.6191L0.888306 25.4497L6.07636 23.8532C8.21071 25.2134 10.7581 26 13.5027 26C20.9452 26 27 20.169 27 13C27 5.83096 20.9452 0 13.5027 0Z" fill="#374952"/>
</svg>
