<svg width="50" height="50" viewBox="0 0 50 50" fill="none" xmlns="http://www.w3.org/2000/svg">
<path fill-rule="evenodd" clip-rule="evenodd" d="M50 25C50 38.807 38.807 50 25 50C11.1929 50 0 38.807 0 25C0 11.1929 11.1929 0 25 0C38.807 0 50 11.1929 50 25ZM25.5492 22.871H22.9175V26.7335H25.5322C28.2665 26.7335 29.6338 27.9753 29.6338 30.459C29.6338 31.4845 29.2978 32.3105 28.6255 32.937C27.9648 33.5522 27.0475 33.8597 25.874 33.8597C24.8487 33.8597 23.9827 33.5638 23.2763 32.9713C22.5815 32.3787 22.234 31.6155 22.234 30.6812H17.2949C17.2949 32.8345 18.0811 34.5662 19.6533 35.8765C21.237 37.1867 23.2708 37.8418 25.7545 37.8418C28.409 37.8418 30.5395 37.1753 32.146 35.8423C33.7638 34.5093 34.5728 32.7378 34.5728 30.5273C34.5728 29.1603 34.2253 27.9752 33.5303 26.9727C32.8467 25.97 31.8043 25.218 30.4028 24.7167C31.5308 24.204 32.4422 23.4692 33.1372 22.5122C33.8322 21.5553 34.1797 20.507 34.1797 19.3677C34.1797 17.1574 33.4335 15.4256 31.941 14.1724C30.4485 12.9077 28.3862 12.2754 25.7545 12.2754C24.239 12.2754 22.849 12.5659 21.5845 13.147C20.3312 13.728 19.3514 14.537 18.645 15.5737C17.95 16.5991 17.6026 17.7612 17.6026 19.06H22.5415C22.5415 18.2283 22.8605 17.5562 23.4985 17.0434C24.1365 16.5194 24.9285 16.2573 25.874 16.2573C26.9222 16.2573 27.7425 16.5364 28.335 17.0947C28.9387 17.653 29.2407 18.4334 29.2407 19.436C29.2407 20.4727 28.9387 21.3045 28.335 21.9312C27.731 22.5578 26.8025 22.871 25.5492 22.871Z" fill="#A1A1A1"/>
</svg>
