<svg width="92" height="75" viewBox="0 0 92 75" fill="none" xmlns="http://www.w3.org/2000/svg">
<rect x="4" y="4" width="84" height="67" rx="16" fill="white"/>
<path d="M46.001 29.125V45.875M38.7249 33.3125L53.2741 41.6875M53.2729 33.3125L38.7236 41.6875" stroke="#542D0A" stroke-width="3.75" stroke-linecap="round"/>
<path d="M23.8758 29.125V45.875M16.5996 33.3125L31.1488 41.6875M31.1479 33.3125L16.5986 41.6875" stroke="#542D0A" stroke-width="3.75" stroke-linecap="round"/>
<path d="M68.126 29.125V45.875M60.8495 33.3125L75.3987 41.6875M75.3979 33.3125L60.8486 41.6875" stroke="#542D0A" stroke-width="3.75" stroke-linecap="round"/>
<path d="M88 37.5C88 53.2919 88 61.1883 83.0793 66.0939C78.159 71 70.239 71 54.4 71H37.6C21.7608 71 13.8412 71 8.92059 66.0939C4 61.1883 4 53.2919 4 37.5C4 21.7079 4 13.8119 8.92059 8.90595C13.8412 4 21.7608 4 37.6 4H54.4C70.239 4 78.159 4 83.0793 8.90595C85.8227 11.6411 87.0365 15.3058 87.5737 20.75" stroke="#D99D29" stroke-width="8" stroke-linecap="round"/>
</svg>
