<svg width="18" height="18" viewBox="0 0 18 18" fill="none" xmlns="http://www.w3.org/2000/svg">
<path fill-rule="evenodd" clip-rule="evenodd" d="M9 18C13.9706 18 18 13.9706 18 9C18 4.02944 13.9706 0 9 0C4.02944 0 0 4.02944 0 9C0 13.9706 4.02944 18 9 18ZM12.96 6.6876C12.96 6.53711 12.9003 6.39278 12.7939 6.28635C12.7412 6.23362 12.6787 6.19178 12.6098 6.16324C12.541 6.13469 12.4672 6.12 12.3926 6.12C12.3181 6.12 12.2443 6.13469 12.1754 6.16324C12.1066 6.19178 12.044 6.23362 11.9913 6.28635L8.1136 10.166L6.37537 8.42707C6.32303 8.37286 6.26044 8.32963 6.19122 8.29988C6.12201 8.27014 6.04757 8.25448 5.97224 8.25383C5.89691 8.25317 5.82221 8.26753 5.75249 8.29607C5.68277 8.32461 5.61943 8.36675 5.56616 8.42003C5.5129 8.47332 5.47077 8.53668 5.44225 8.60643C5.41372 8.67618 5.39937 8.75091 5.40002 8.82627C5.40068 8.90162 5.41633 8.97609 5.44606 9.04533C5.47579 9.11457 5.51901 9.1772 5.57319 9.22955L7.68585 11.3426C7.74204 11.3989 7.80876 11.4435 7.88219 11.4739C7.95561 11.5043 8.03431 11.52 8.11379 11.52C8.19327 11.52 8.27197 11.5043 8.3454 11.4739C8.41882 11.4435 8.48554 11.3989 8.54173 11.3426L12.7939 7.08884C12.9003 6.98241 12.96 6.83808 12.96 6.6876Z" fill="#28A745"/>
</svg>
