<svg width="50" height="50" viewBox="0 0 50 50" fill="none" xmlns="http://www.w3.org/2000/svg">
<path fill-rule="evenodd" clip-rule="evenodd" d="M25 50C38.8071 50 50 38.8071 50 25C50 11.1929 38.8071 0 25 0C11.1929 0 0 11.1929 0 25C0 38.8071 11.1929 50 25 50ZM36 18.5767C36 18.1586 35.834 17.7577 35.5386 17.4621C35.3923 17.3156 35.2185 17.1994 35.0272 17.1201C34.836 17.0408 34.631 17 34.424 17C34.2169 17 34.0119 17.0408 33.8207 17.1201C33.6294 17.1994 33.4556 17.3156 33.3093 17.4621L22.5378 28.2388L17.7094 23.4085C17.564 23.258 17.3901 23.1379 17.1978 23.0552C17.0056 22.9726 16.7988 22.9291 16.5896 22.9273C16.3803 22.9255 16.1728 22.9654 15.9791 23.0446C15.7855 23.1239 15.6095 23.241 15.4616 23.389C15.3136 23.537 15.1966 23.713 15.1173 23.9068C15.0381 24.1005 14.9982 24.3081 15.0001 24.5174C15.0019 24.7267 15.0454 24.9336 15.1279 25.1259C15.2105 25.3183 15.3306 25.4922 15.4811 25.6376L21.3496 31.5073C21.5057 31.6635 21.691 31.7874 21.895 31.872C22.0989 31.9565 22.3175 32 22.5383 32C22.7591 32 22.9777 31.9565 23.1817 31.872C23.3856 31.7874 23.5709 31.6635 23.727 31.5073L35.5386 19.6912C35.834 19.3956 36 18.9947 36 18.5767Z" fill="#E6A92F"/>
</svg>
