<svg width="249" height="182" viewBox="0 0 249 182" fill="none" xmlns="http://www.w3.org/2000/svg">
<circle cx="127" cy="91" r="91" fill="#FFCACA"/>
<path fill-rule="evenodd" clip-rule="evenodd" d="M126.998 174.087C172.012 174.087 208.503 137.596 208.503 92.5825C208.503 47.5689 172.012 11.0781 126.998 11.0781C81.9849 11.0781 45.4941 47.5689 45.4941 92.5825C45.4941 137.596 81.9849 174.087 126.998 174.087ZM162.6 123.098C162.6 121.747 162.063 120.451 161.108 119.496L134.203 92.5847L161.116 65.6693C162.072 64.714 162.608 63.4184 162.608 62.0675C162.608 60.7166 162.072 59.421 161.116 58.4658C160.161 57.5106 158.865 56.9739 157.514 56.9739C156.163 56.9739 154.868 57.5106 153.912 58.4658L127 85.3813L100.095 58.47C99.1399 57.5148 97.8443 56.9782 96.4933 56.9782C95.1423 56.9782 93.8467 57.5148 92.8914 58.47C91.9361 59.4253 91.3994 60.7209 91.3994 62.0718C91.3994 63.4227 91.9361 64.7183 92.8914 65.6735L119.796 92.5847L92.8829 119.488C91.9276 120.443 91.3909 121.738 91.3909 123.089C91.3909 124.44 91.9276 125.736 92.8829 126.691C93.8382 127.646 95.1338 128.183 96.4848 128.183C97.8358 128.183 99.1315 127.646 100.087 126.691L127 99.7882L153.904 126.699C154.859 127.655 156.155 128.191 157.506 128.191C158.857 128.191 160.153 127.655 161.108 126.699C162.063 125.744 162.6 124.449 162.6 123.098Z" fill="#BD2F3D"/>
<ellipse cx="89.4197" cy="39.1175" rx="7.78886" ry="7.89648" transform="rotate(57.9557 89.4197 39.1175)" fill="#FFCACA"/>
<ellipse cx="76.4538" cy="51.4795" rx="4.00664" ry="3.9265" transform="rotate(57.9557 76.4538 51.4795)" fill="#FFCACA"/>
<rect x="21.5547" y="142.177" width="4.37027" height="13.3809" rx="2.18514" transform="rotate(40.1876 21.5547 142.177)" fill="#BD2F3D"/>
<rect x="10.4883" y="155.458" width="4.37027" height="13.3809" rx="2.18514" transform="rotate(40.1876 10.4883 155.458)" fill="#BD2F3D"/>
<rect x="13.0879" y="152.288" width="4.37027" height="13.3809" rx="2.18514" transform="rotate(130.188 13.0879 152.288)" fill="#BD2F3D"/>
<rect x="25.6309" y="164.919" width="4.37027" height="13.3809" rx="2.18514" transform="rotate(135 25.6309 164.919)" fill="#BD2F3D"/>
<rect x="244.877" y="12.6311" width="4.37027" height="13.3809" rx="2.18514" transform="rotate(40.1876 244.877 12.6311)" fill="#BD2F3D"/>
<rect x="233.811" y="25.9114" width="4.37027" height="13.3809" rx="2.18514" transform="rotate(40.1876 233.811 25.9114)" fill="#BD2F3D"/>
<rect x="236.41" y="22.7412" width="4.37027" height="13.3809" rx="2.18514" transform="rotate(130.188 236.41 22.7412)" fill="#BD2F3D"/>
<rect x="248.953" y="35.3728" width="4.37027" height="13.3809" rx="2.18514" transform="rotate(135 248.953 35.3728)" fill="#BD2F3D"/>
</svg>
