<svg width="15" height="15" viewBox="0 0 15 15" fill="none" xmlns="http://www.w3.org/2000/svg">
<path d="M14.3638 6.12905H13.8V6.1H7.5V8.9H11.4561C10.8789 10.5299 9.32805 11.7 7.5 11.7C5.18055 11.7 3.3 9.81945 3.3 7.5C3.3 5.18055 5.18055 3.3 7.5 3.3C8.57065 3.3 9.5447 3.7039 10.2863 4.36365L12.2663 2.3837C11.0161 1.21855 9.3438 0.5 7.5 0.5C3.63425 0.5 0.5 3.63425 0.5 7.5C0.5 11.3657 3.63425 14.5 7.5 14.5C11.3657 14.5 14.5 11.3657 14.5 7.5C14.5 7.03065 14.4517 6.5725 14.3638 6.12905Z" fill="#FFC107"/>
<path d="M1.30698 4.24185L3.60683 5.9285C4.22913 4.3878 5.73623 3.3 7.49988 3.3C8.57053 3.3 9.54458 3.7039 10.2862 4.36365L12.2662 2.3837C11.016 1.21855 9.34368 0.5 7.49988 0.5C4.81118 0.5 2.47948 2.01795 1.30698 4.24185Z" fill="#FF3D00"/>
<path d="M7.50011 14.5C9.30821 14.5 10.9511 13.808 12.1933 12.6828L10.0268 10.8495C9.30047 11.4022 8.41276 11.701 7.50011 11.7C5.67941 11.7 4.13346 10.539 3.55106 8.91888L1.26836 10.6776C2.42686 12.9446 4.77956 14.5 7.50011 14.5Z" fill="#4CAF50"/>
<path d="M14.3638 6.12903H13.8V6.09998H7.5V8.89998H11.4561C11.18 9.67572 10.6827 10.3536 10.0256 10.8498L10.0266 10.8491L12.1932 12.6824C12.0399 12.8217 14.5 11 14.5 7.49998C14.5 7.03063 14.4517 6.57248 14.3638 6.12903Z" fill="#1976D2"/>
</svg>
