<svg width="520" height="135" viewBox="0 0 520 135" fill="none" xmlns="http://www.w3.org/2000/svg">
<path d="M317.038 0.388891C320.097 -0.421976 323.509 0.0413762 326.274 1.72103C330.274 4.0378 332.451 8.96092 331.569 13.4207C330.745 18.6913 325.686 22.9773 320.273 22.8036C314.332 23.0932 308.919 18.0542 308.566 12.2623C308.037 6.93375 311.802 1.72103 317.038 0.388891Z" fill="#EF8220"/>
<path d="M293.385 34.2709C301.68 26.7993 313.623 24.7722 324.447 25.8726C331.801 26.6835 339.567 29.5215 343.861 35.7768C340.92 39.5415 338.037 43.3642 335.037 47.071C328.212 38.7886 314.388 37.9198 306.151 44.6384C300.739 48.9824 298.327 56.0485 297.856 62.7092C297.15 69.9491 297.739 77.5944 301.151 84.1393C299.327 90.1628 297.092 96.0127 295.033 101.978C299.621 98.619 304.269 95.3176 308.975 92.0742C318.564 96.7077 330.036 95.4335 339.625 91.5529C340.508 96.2444 341.508 100.878 342.332 105.569C332.036 109.566 320.565 110.435 309.74 108.523C301.386 107.075 293.268 102.847 288.385 95.8389C281.914 86.5719 280.678 74.8722 281.09 63.9255C281.561 53.0367 284.914 41.6845 293.385 34.2709Z" fill="#EF8220"/>
<path d="M307.622 63.984C310.858 62.1885 315.211 65.4899 314.329 69.023C313.917 72.3823 309.387 74.004 306.798 71.861C304.033 69.9497 304.504 65.2582 307.622 63.984Z" fill="#EF8220"/>
<path d="M328.802 63.983C332.037 62.2454 336.332 65.4309 335.508 68.964C335.155 72.3233 330.567 74.0609 327.978 71.86C325.213 69.9486 325.684 65.2572 328.802 63.983Z" fill="#EF8220"/>
<path d="M316.389 112.753C322.037 110.783 328.802 113.853 330.861 119.355C332.567 123.526 331.449 128.622 328.214 131.75C325.096 134.646 320.389 135.804 316.33 134.414C311.683 132.908 308.27 128.275 308.447 123.41C308.447 118.66 311.859 114.201 316.389 112.753Z" fill="#EF8220"/>
<path d="M318.211 64.0427C321.034 62.4789 324.976 64.6219 325.094 67.8075C325.564 71.3405 321.27 74.0627 318.152 72.2672C314.798 70.7613 314.857 65.4907 318.211 64.0427Z" fill="#FBB03B"/>
<path d="M255.909 24.5516C260.91 24.4357 265.91 24.5516 270.97 24.4937C270.97 51.8315 270.97 79.1114 270.97 106.391C265.969 106.333 260.91 106.507 255.909 106.275C255.909 79.0535 255.909 51.8315 255.909 24.5516Z" fill="#FBB03B"/>
<path d="M0 26.8687C5.00052 26.6949 10.001 26.8108 15.0604 26.8108C15.0604 49.4571 15.0604 72.1035 15.0604 94.692C27.0028 94.692 38.9452 94.692 50.8877 94.692C50.8877 98.6305 50.8877 102.511 50.8877 106.45C33.9447 106.392 16.9429 106.565 0 106.392C0 79.8647 0 53.3377 0 26.8687Z" fill="#FBB03B"/>
<path d="M490.405 34.8036C494.876 34.9195 499.288 34.5719 503.759 34.9774C503.7 39.9584 503.759 44.9395 503.759 49.8626C508.936 49.8626 514.054 49.8626 519.231 49.8626C519.231 53.9748 519.231 58.145 519.231 62.2573C514.054 62.2573 508.936 62.2573 503.759 62.2573C503.759 70.7135 503.7 79.1697 503.759 87.6259C503.759 89.8268 504.641 92.4331 507.053 93.1282C510.819 94.1707 514.819 93.5915 518.643 93.7074C519.055 97.8775 518.702 102.106 518.819 106.334C512.819 106.276 506.7 106.971 500.817 105.407C496.876 104.307 493.052 102.048 491.111 98.3988C488.816 94.2286 488.699 89.4213 488.581 84.7878C488.581 77.2583 488.581 69.7868 488.581 62.2573C485.345 62.2573 482.11 62.2573 478.874 62.2573C478.874 58.145 478.874 54.0328 478.874 49.9784C482.11 49.8047 485.345 49.9205 488.581 49.9205C489.346 44.9395 489.816 39.8426 490.405 34.8036Z" fill="#EF8220"/>
<path d="M194.257 56.928C199.669 50.9044 208.199 48.4139 216.2 48.5297C223.318 48.5297 230.907 50.3831 236.026 55.48C240.261 59.4185 242.085 65.3263 242.144 70.9444C242.144 82.7599 242.144 94.6333 242.144 106.449C237.849 106.391 233.496 106.623 229.201 106.333C228.907 103.437 228.437 100.599 227.907 97.761C224.73 103.495 218.494 107.433 211.847 107.723C206.905 107.955 201.551 107.781 197.139 105.29C188.432 101.873 185.256 90.3473 189.844 82.5862C192.903 77.1997 199.022 74.3616 205.081 73.4929C212.435 72.4503 219.847 73.1453 227.201 72.9137C227.201 69.786 226.907 66.253 224.554 63.9362C220.553 59.9977 213.964 59.766 209.023 62.0828C206.199 63.2991 204.375 66.0213 203.728 68.9173C198.845 68.9173 193.962 68.9173 189.08 68.9173C189.491 64.5154 191.197 60.1715 194.257 56.928ZM205.552 84.7871C203.14 86.988 202.846 91.1003 205.081 93.5329C206.905 95.3863 209.611 96.0813 212.141 96.1972C215.376 96.313 218.789 95.5021 221.259 93.3012C224.436 90.4632 226.083 86.3509 226.848 82.2966C222.377 82.2966 217.847 82.2387 213.376 82.2966C210.611 82.4703 207.552 82.8178 205.552 84.7871Z" fill="#FBB03B"/>
<path d="M432.106 51.8308C437.342 48.819 443.578 48.2977 449.519 48.6452C455.108 48.9927 460.874 50.8462 464.815 54.9584C467.874 57.9702 469.522 62.0825 470.169 66.2526C465.404 66.2526 460.697 66.3106 455.932 66.2526C455.461 64.573 454.755 62.7775 453.226 61.735C450.402 59.8236 446.755 59.8236 443.519 60.2291C440.813 60.6345 437.695 62.6037 437.989 65.6734C438.165 68.2219 440.93 69.1486 442.989 69.9595C449.814 72.3341 457.167 73.145 463.874 76.0989C467.286 77.7206 470.581 80.4428 471.581 84.2655C472.993 89.4203 472.287 95.328 468.874 99.5561C464.521 105.058 457.285 107.433 450.402 107.723C442.225 108.186 433.4 106.333 427.4 100.541C423.929 97.3552 421.87 92.8954 421.281 88.3198C426.341 88.3198 431.341 88.3198 436.4 88.3198C437.401 92.5479 441.342 95.7335 445.696 96.1389C449.167 96.4864 453.343 96.4285 455.755 93.5905C458.05 91.3316 457.579 86.8139 454.52 85.5397C449.99 83.5125 445.048 82.9333 440.342 81.6012C435.165 80.1532 429.576 78.4157 426.046 74.1296C423.399 71.002 423.046 66.5422 423.87 62.7196C424.752 58.086 428.106 54.2634 432.106 51.8308Z" fill="#EF8220"/>
<path d="M65.2406 59.013C70.7118 52.3523 79.4774 48.0662 88.243 48.7613C93.1847 48.24 98.1852 49.7459 102.539 51.9468C109.834 55.7695 115.246 62.9515 116.834 70.9443C118.834 80.5589 116.893 91.5056 109.775 98.7455C99.8913 109.518 81.5365 110.735 70.0058 101.873C63.2404 96.8921 59.24 88.7834 58.8282 80.501C58.2399 72.9715 60.2401 64.9786 65.2406 59.013ZM84.0661 62.0248C79.4774 63.4727 75.7711 67.5271 74.771 72.1606C73.8886 76.2149 73.8886 80.501 74.8887 84.5553C76.183 89.9418 81.1246 94.4015 86.8311 94.8649C90.8315 95.2703 94.9496 93.8223 97.7734 90.9843C101.303 87.7408 102.362 82.7019 102.244 78.1263C102.303 73.4348 101.186 68.28 97.4205 65.0365C93.9495 61.6772 88.6548 60.6347 84.0661 62.0248Z" fill="#FBB03B"/>
<path d="M119.895 50.0364C125.307 49.7468 130.719 49.9785 136.132 49.9206C141.485 62.9524 146.721 76.0421 152.016 89.1318C157.781 76.1579 163.076 62.9524 168.664 49.9206C173.959 49.9785 179.254 49.9206 184.607 49.9206C172.724 77.0847 160.311 104.075 148.427 131.239C145.132 131.587 141.838 131.297 138.544 131.413C136.485 131.297 134.308 131.702 132.308 131.123C136.779 121.74 141.073 112.242 145.485 102.801C144.368 102.801 143.309 102.801 142.25 102.801C134.778 85.1933 127.248 67.6438 119.895 50.0364Z" fill="#FBB03B"/>
<path d="M353.45 50.0356C358.451 49.8039 363.451 49.8039 368.393 50.0356C368.334 59.8818 368.393 69.7281 368.393 79.5743C368.334 84.0341 368.864 88.9572 372.099 92.3165C375.335 95.3862 380.394 95.7338 384.571 94.7491C390.513 93.1853 394.278 87.2196 394.396 81.3698C394.455 70.8865 394.396 60.4031 394.396 49.9197C399.514 49.9197 404.573 49.9197 409.692 49.9197C409.692 68.7434 409.692 87.6251 409.692 106.449C405.221 106.449 400.691 106.449 396.22 106.449C395.984 103.321 395.396 100.251 395.219 97.1238C391.631 103.958 383.63 108.302 375.865 107.665C367.805 108.418 359.392 103.9 356.157 96.4867C354.098 92.1428 353.45 87.2776 353.392 82.5282C353.45 71.6973 353.509 60.8664 353.45 50.0356Z" fill="#EF8220"/>
</svg>
