<svg width="23" height="14" viewBox="0 0 23 14" fill="none" xmlns="http://www.w3.org/2000/svg">
<path d="M11.5 4.2C10.6682 4.2 9.87044 4.495 9.28226 5.0201C8.69407 5.5452 8.36364 6.25739 8.36364 7C8.36364 7.74261 8.69407 8.4548 9.28226 8.9799C9.87044 9.505 10.6682 9.8 11.5 9.8C12.3318 9.8 13.1296 9.505 13.7177 8.9799C14.3059 8.4548 14.6364 7.74261 14.6364 7C14.6364 6.25739 14.3059 5.5452 13.7177 5.0201C13.1296 4.495 12.3318 4.2 11.5 4.2ZM11.5 11.6667C10.1136 11.6667 8.78406 11.175 7.80376 10.2998C6.82346 9.42466 6.27273 8.23768 6.27273 7C6.27273 5.76232 6.82346 4.57534 7.80376 3.70017C8.78406 2.825 10.1136 2.33333 11.5 2.33333C12.8864 2.33333 14.2159 2.825 15.1962 3.70017C16.1765 4.57534 16.7273 5.76232 16.7273 7C16.7273 8.23768 16.1765 9.42466 15.1962 10.2998C14.2159 11.175 12.8864 11.6667 11.5 11.6667ZM11.5 0C6.27273 0 1.80864 2.90267 0 7C1.80864 11.0973 6.27273 14 11.5 14C16.7273 14 21.1914 11.0973 23 7C21.1914 2.90267 16.7273 0 11.5 0Z" fill="#8B8B8B"/>
</svg>
