<svg width="15" height="15" viewBox="0 0 15 15" fill="none" xmlns="http://www.w3.org/2000/svg">
<path fill-rule="evenodd" clip-rule="evenodd" d="M7.5 15C11.6421 15 15 11.6421 15 7.5C15 3.35786 11.6421 0 7.5 0C3.35786 0 0 3.35786 0 7.5C0 11.6421 3.35786 15 7.5 15ZM4.82448 4.59723C4.77355 4.61836 4.7273 4.64933 4.68836 4.68836C4.64933 4.7273 4.61836 4.77355 4.59723 4.82448C4.57609 4.8754 4.56522 4.93 4.56522 4.98513C4.56522 5.04026 4.57609 5.09486 4.59723 5.14578C4.61836 5.19671 4.64933 5.24296 4.68836 5.2819L6.90741 7.50011L4.68836 9.71832C4.64939 9.75729 4.61848 9.80356 4.59738 9.85448C4.57629 9.9054 4.56544 9.95998 4.56544 10.0151C4.56544 10.0702 4.57629 10.1248 4.59738 10.1757C4.61848 10.2266 4.64939 10.2729 4.68836 10.3119C4.72733 10.3508 4.7736 10.3817 4.82452 10.4028C4.87544 10.4239 4.93002 10.4348 4.98513 10.4348C5.04025 10.4348 5.09482 10.4239 5.14574 10.4028C5.19666 10.3817 5.24293 10.3508 5.2819 10.3119L7.50011 8.09281L9.71832 10.3119C9.75729 10.3508 9.80356 10.3817 9.85448 10.4028C9.9054 10.4239 9.95998 10.4348 10.0151 10.4348C10.0702 10.4348 10.1248 10.4239 10.1757 10.4028C10.2266 10.3817 10.2729 10.3508 10.3119 10.3119C10.3508 10.2729 10.3817 10.2266 10.4028 10.1757C10.4239 10.1248 10.4348 10.0702 10.4348 10.0151C10.4348 9.95998 10.4239 9.9054 10.4028 9.85448C10.3817 9.80356 10.3508 9.75729 10.3119 9.71832L8.09281 7.50011L10.3119 5.2819C10.3508 5.24293 10.3817 5.19666 10.4028 5.14574C10.4239 5.09482 10.4348 5.04025 10.4348 4.98513C10.4348 4.93002 10.4239 4.87544 10.4028 4.82452C10.3817 4.7736 10.3508 4.72733 10.3119 4.68836C10.2729 4.64939 10.2266 4.61848 10.1757 4.59738C10.1248 4.57629 10.0702 4.56544 10.0151 4.56544C9.95998 4.56544 9.9054 4.57629 9.85448 4.59738C9.80356 4.61848 9.75729 4.64939 9.71832 4.68836L7.50011 6.90741L5.2819 4.68836C5.24296 4.64933 5.19671 4.61836 5.14578 4.59723C5.09486 4.57609 5.04026 4.56522 4.98513 4.56522C4.93 4.56522 4.8754 4.57609 4.82448 4.59723Z" fill="#CB1627"/>
</svg>
