<svg width="231" height="230" viewBox="0 0 231 230" fill="none" xmlns="http://www.w3.org/2000/svg">
<circle cx="115.5" cy="115" r="115" fill="#C5F9D7"/>
<path fill-rule="evenodd" clip-rule="evenodd" d="M116 218C172.885 218 219 171.885 219 115C219 58.1147 172.885 12 116 12C59.1147 12 13 58.1147 13 115C13 171.885 59.1147 218 116 218ZM161.32 88.5358C161.32 86.8136 160.636 85.1618 159.419 83.9438C158.816 83.3403 158.1 82.8615 157.312 82.5348C156.524 82.2081 155.68 82.04 154.827 82.04C153.974 82.04 153.129 82.2081 152.341 82.5348C151.553 82.8615 150.837 83.3403 150.234 83.9438L105.856 128.344L85.9625 108.443C85.3636 107.823 84.6472 107.328 83.8551 106.988C83.063 106.647 82.211 106.468 81.349 106.46C80.4869 106.453 79.6319 106.617 78.834 106.944C78.0361 107.27 77.3112 107.753 76.7016 108.363C76.092 108.972 75.6099 109.698 75.2835 110.496C74.957 111.294 74.7928 112.149 74.8002 113.012C74.8077 113.874 74.9868 114.726 75.3271 115.519C75.6674 116.311 76.162 117.028 76.7821 117.627L100.96 141.81C101.603 142.454 102.367 142.964 103.207 143.312C104.048 143.661 104.948 143.84 105.858 143.84C106.767 143.84 107.668 143.661 108.508 143.312C109.349 142.964 110.112 142.454 110.755 141.81L159.419 93.1278C160.636 91.9098 161.32 90.2581 161.32 88.5358Z" fill="#2D9D47"/>
</svg>
