<svg width="12" height="7" viewBox="0 0 12 7" fill="none" xmlns="http://www.w3.org/2000/svg">
<path d="M1.09295 4.89705L5.41452 1.03079C5.74219 0.737641 6.27344 0.737641 6.60111 1.03079L6.61295 1.04138C6.94062 1.33452 6.94062 1.80981 6.61295 2.10295L2.29137 5.96921C1.96371 6.26236 1.43245 6.26236 1.10479 5.96921L1.09295 5.95862C0.765278 5.66547 0.765278 5.19019 1.09295 4.89705Z" fill="#D99D29"/>
<path d="M5.38608 1.04138L5.39792 1.03079C5.72558 0.737641 6.25684 0.737641 6.5845 1.03079L10.9061 4.89705C11.2337 5.19019 11.2337 5.66547 10.9061 5.95862L10.8942 5.96921C10.5666 6.26236 10.0353 6.26236 9.70765 5.96921L5.38608 2.10295C5.05841 1.80981 5.05841 1.33452 5.38608 1.04138Z" fill="#D99D29"/>
</svg>
