<svg width="26" height="25" viewBox="0 0 26 25" fill="none" xmlns="http://www.w3.org/2000/svg">
<path d="M11.1555 10.5109C14.2454 10.5109 16.7504 8.15796 16.7504 5.25546C16.7504 2.35295 14.2454 0 11.1555 0C8.06547 0 5.56055 2.35295 5.56055 5.25546C5.56055 8.15796 8.06547 10.5109 11.1555 10.5109Z" fill="#D9D9D9"/>
<path d="M14.7407 20.1189H20.8033V21.2579H14.7407V20.1189Z" fill="#D9D9D9"/>
<path d="M9.5444 21.7458V24.1864C9.5444 24.4022 9.63565 24.6091 9.79807 24.7617C9.96049 24.9142 10.1808 25 10.4105 25H25.1339C25.3636 25 25.5839 24.9142 25.7463 24.7617C25.9088 24.6091 26 24.4022 26 24.1864V16.051C26 15.8353 25.9088 15.6283 25.7463 15.4758C25.5839 15.3232 25.3636 15.2375 25.1339 15.2375H19.0713V14.0416C19.0713 13.8258 18.9801 13.6189 18.8177 13.4663C18.6552 13.3138 18.4349 13.2281 18.2052 13.2281C17.9755 13.2281 17.7552 13.3138 17.5928 13.4663C17.4304 13.6189 17.3392 13.8258 17.3392 14.0416V15.2375H15.607V12.325C14.1353 12.0988 12.6466 11.9846 11.1553 11.9833C7.86662 11.9702 4.61477 12.6339 1.62839 13.9277C1.13687 14.1456 0.72221 14.4913 0.433605 14.9239C0.144999 15.3565 -0.00543546 15.8578 0.000150074 16.3683V21.7458H9.5444ZM24.2678 23.3729H11.2766V16.8646H17.3392V17.2063C17.3392 17.422 17.4304 17.629 17.5928 17.7815C17.7552 17.9341 17.9755 18.0198 18.2052 18.0198C18.4349 18.0198 18.6552 17.9341 18.8177 17.7815C18.9801 17.629 19.0713 17.422 19.0713 17.2063V16.8646H24.2678V23.3729Z" fill="#D9D9D9"/>
</svg>
