<svg width="26" height="26" viewBox="0 0 26 26" fill="none" xmlns="http://www.w3.org/2000/svg">
<path d="M22.6687 6.89004C19.2725 1.62504 12.3175 0.0650443 6.93873 3.33129C1.68998 6.59754 -1.66893e-05 13.715 3.39623 18.9638L3.67248 19.3863L2.53498 23.6438L6.79248 22.5063L7.21498 22.7825C9.05123 23.7738 11.05 24.3425 13.0325 24.3425C15.1612 24.3425 17.29 23.7738 19.1262 22.6363C24.375 19.2238 25.935 12.2525 22.6687 6.85754V6.89004ZM19.695 17.8425C19.1262 18.6875 18.4112 19.2563 17.42 19.4025C16.8512 19.4025 16.1362 19.6788 13.3087 18.5575C10.9037 17.42 8.90498 15.5675 7.49123 13.4388C6.64623 12.4475 6.20748 11.1638 6.07748 9.88004C6.07748 8.74254 6.49998 7.75129 7.21498 7.03629C7.49123 6.76004 7.78373 6.61379 8.05998 6.61379H8.77498C9.05123 6.61379 9.34373 6.61379 9.48998 7.18254C9.76623 7.89754 10.4812 9.60379 10.4812 9.75004C10.6275 9.89629 10.5625 10.985 9.91248 11.6025C9.55498 12.0088 9.48998 12.025 9.63623 12.3175C10.205 13.1625 10.92 14.0238 11.6187 14.7388C12.4637 15.4538 13.325 16.0225 14.3162 16.445C14.5925 16.5913 14.885 16.5913 15.0312 16.2988C15.1775 16.0225 15.8762 15.3075 16.1687 15.015C16.445 14.7388 16.5912 14.7388 16.8837 14.8688L19.1587 16.0063C19.435 16.1525 19.7275 16.2825 19.8737 16.4288C20.02 16.8513 20.02 17.42 19.7275 17.8425H19.695Z" fill="#D9D9D9"/>
</svg>
