<svg width="70" height="70" viewBox="0 0 70 70" fill="none" xmlns="http://www.w3.org/2000/svg">
<g filter="url(#filter0_d_3780_16930)">
<circle cx="35" cy="31" r="15" fill="#D9D9D9"/>
<path d="M41.2767 26.171H38.4403V25H31.3492V26.171H28.5128C28.1116 26.171 27.7268 26.3355 27.4431 26.6284C27.1594 26.9212 27 27.3183 27 27.7324V35.8321C27 36.2462 27.1594 36.6434 27.4431 36.9362C27.7268 37.229 28.1116 37.3935 28.5128 37.3935H41.2767C41.6779 37.3935 42.0627 37.229 42.3464 36.9362C42.6301 36.6434 42.7895 36.2462 42.7895 35.8321V27.7324C42.7895 27.3183 42.6301 26.9212 42.3464 26.6284C42.0627 26.3355 41.6779 26.171 41.2767 26.171ZM34.8944 36.5152C32.3665 36.5152 30.3107 34.3917 30.3107 31.7827C30.3107 29.1736 32.3665 27.0501 34.8944 27.0501C37.4222 27.0501 39.4795 29.1736 39.4795 31.7827C39.4795 34.3917 37.4222 36.5137 34.8944 36.5137V36.5152ZM34.8944 28.6107C34.4907 28.6108 34.0911 28.6929 33.7182 28.8523C33.3453 29.0118 33.0065 29.2455 32.7211 29.5401C32.4358 29.8348 32.2094 30.1845 32.055 30.5694C31.9006 30.9543 31.8211 31.3668 31.8212 31.7834C31.8212 32.2 31.9008 32.6126 32.0553 32.9974C32.2098 33.3823 32.4362 33.732 32.7217 34.0265C33.0071 34.3211 33.346 34.5547 33.7189 34.7141C34.0918 34.8735 34.4915 34.9555 34.8951 34.9554C35.7104 34.9553 36.4922 34.6209 37.0686 34.0259C37.645 33.4308 37.9688 32.6237 37.9687 31.7823C37.9686 30.9408 37.6446 30.1339 37.0681 29.5389C36.4915 28.944 35.7096 28.6106 34.8944 28.6107Z" fill="#193442"/>
</g>
<defs>
<filter id="filter0_d_3780_16930" x="0" y="0" width="70" height="70" filterUnits="userSpaceOnUse" color-interpolation-filters="sRGB">
<feFlood flood-opacity="0" result="BackgroundImageFix"/>
<feColorMatrix in="SourceAlpha" type="matrix" values="0 0 0 0 0 0 0 0 0 0 0 0 0 0 0 0 0 0 127 0" result="hardAlpha"/>
<feOffset dy="4"/>
<feGaussianBlur stdDeviation="10"/>
<feComposite in2="hardAlpha" operator="out"/>
<feColorMatrix type="matrix" values="0 0 0 0 0.101961 0 0 0 0 0.101961 0 0 0 0 0.101961 0 0 0 0.1 0"/>
<feBlend mode="normal" in2="BackgroundImageFix" result="effect1_dropShadow_3780_16930"/>
<feBlend mode="normal" in="SourceGraphic" in2="effect1_dropShadow_3780_16930" result="shape"/>
</filter>
</defs>
</svg>
