<svg width="20" height="15" viewBox="0 0 20 15" fill="none" xmlns="http://www.w3.org/2000/svg">
<path d="M18.0858 1.41732H14.493V0H5.51093V1.41732H1.91812C1.40992 1.41732 0.922537 1.61642 0.563186 1.97082C0.203834 2.32522 0.00195313 2.80589 0.00195312 3.30709V13.1102C0.00195313 13.6114 0.203834 14.0921 0.563186 14.4465C0.922537 14.8009 1.40992 15 1.91812 15H18.0858C18.594 15 19.0814 14.8009 19.4407 14.4465C19.8001 14.0921 20.002 13.6114 20.002 13.1102V3.30709C20.002 2.80589 19.8001 2.32522 19.4407 1.97082C19.0814 1.61642 18.594 1.41732 18.0858 1.41732ZM10.0015 13.937C6.79956 13.937 4.19549 11.3669 4.19549 8.20913C4.19549 5.05134 6.79956 2.48126 10.0015 2.48126C13.2034 2.48126 15.8094 5.05134 15.8094 8.20913C15.8094 11.3669 13.2034 13.9351 10.0015 13.9351V13.937ZM10.0015 4.37008C9.49022 4.37014 8.98397 4.46951 8.51166 4.66253C8.03934 4.85554 7.61019 5.13841 7.24872 5.49498C6.88725 5.85156 6.60054 6.27486 6.40495 6.74072C6.20935 7.20658 6.10872 7.70586 6.10878 8.21008C6.10884 8.71429 6.2096 9.21356 6.40531 9.67937C6.60102 10.1452 6.88784 10.5684 7.2494 10.9249C7.61096 11.2814 8.04018 11.5642 8.51254 11.757C8.98491 11.9499 9.49117 12.0492 10.0024 12.0491C11.0351 12.049 12.0254 11.6443 12.7555 10.9241C13.4856 10.2039 13.8957 9.22709 13.8956 8.20866C13.8955 7.19023 13.4851 6.21356 12.7548 5.49351C12.0246 4.77346 11.0341 4.36901 10.0015 4.36913V4.37008Z" fill="#193442"/>
</svg>
