<svg width="16" height="26" viewBox="0 0 16 26" fill="none" xmlns="http://www.w3.org/2000/svg">
<path d="M4.27454 1.8484L14.5846 11.6702C15.3663 12.4149 15.3663 13.6223 14.5846 14.367L14.5563 14.3939C13.7746 15.1386 12.5072 15.1386 11.7255 14.3939L1.41543 4.57211C0.63371 3.82741 0.633711 2.62001 1.41543 1.87532L1.44368 1.8484C2.2254 1.1037 3.49282 1.1037 4.27454 1.8484Z" fill="#A1A1A1"/>
<path d="M14.5563 11.6061L14.5846 11.633C15.3663 12.3777 15.3663 13.5851 14.5846 14.3298L4.27454 24.1516C3.49282 24.8963 2.2254 24.8963 1.44368 24.1516L1.41543 24.1247C0.633712 23.38 0.633711 22.1726 1.41543 21.4279L11.7255 11.6061C12.5072 10.8614 13.7746 10.8614 14.5563 11.6061Z" fill="#A1A1A1"/>
</svg>
