<svg width="16" height="26" viewBox="0 0 16 26" fill="none" xmlns="http://www.w3.org/2000/svg">
<path d="M11.7255 1.8484L1.41543 11.6702C0.633709 12.4149 0.633709 13.6223 1.41543 14.367L1.44368 14.3939C2.2254 15.1386 3.49282 15.1386 4.27454 14.3939L14.5846 4.57211C15.3663 3.82741 15.3663 2.62001 14.5846 1.87532L14.5563 1.8484C13.7746 1.1037 12.5072 1.1037 11.7255 1.8484Z" fill="#A1A1A1"/>
<path d="M1.44368 11.6061L1.41543 11.633C0.633709 12.3777 0.633709 13.5851 1.41543 14.3298L11.7255 24.1516C12.5072 24.8963 13.7746 24.8963 14.5563 24.1516L14.5846 24.1247C15.3663 23.38 15.3663 22.1726 14.5846 21.4279L4.27454 11.6061C3.49282 10.8614 2.2254 10.8614 1.44368 11.6061Z" fill="#A1A1A1"/>
</svg>
