<svg width="24" height="28" viewBox="0 0 24 28" fill="none" xmlns="http://www.w3.org/2000/svg">
<path d="M23.4955 19.3319C23.3918 19.2069 23.29 19.0819 23.1901 18.9613C21.8162 17.2981 20.9851 16.2944 20.9851 11.5863C20.9851 9.14875 20.4024 7.14875 19.254 5.64875C18.4072 4.54062 17.2626 3.7 15.7539 3.07875C15.7344 3.06794 15.7171 3.05376 15.7027 3.03687C15.16 1.21812 13.675 0 12.0002 0C10.3253 0 8.84094 1.21812 8.29828 3.035C8.28382 3.05129 8.26672 3.06503 8.24769 3.07562C4.72691 4.52625 3.01586 7.30938 3.01586 11.5844C3.01586 16.2944 2.18593 17.2981 0.810843 18.9594C0.710927 19.08 0.609138 19.2025 0.505476 19.33C0.237702 19.6532 0.0680456 20.0464 0.0165842 20.4631C-0.0348772 20.8798 0.0340108 21.3025 0.215096 21.6812C0.600396 22.4937 1.42158 22.9981 2.35891 22.9981H21.6483C22.5812 22.9981 23.3968 22.4944 23.7833 21.6856C23.9652 21.3068 24.0347 20.8837 23.9837 20.4666C23.9327 20.0494 23.7633 19.6556 23.4955 19.3319ZM12.0002 28C12.9025 27.9993 13.7879 27.7541 14.5623 27.2905C15.3368 26.827 15.9714 26.1622 16.3989 25.3669C16.4191 25.3288 16.429 25.2861 16.4278 25.243C16.4266 25.1999 16.4143 25.1578 16.392 25.1209C16.3698 25.084 16.3384 25.0534 16.3008 25.0322C16.2633 25.0111 16.221 25 16.1779 25H7.82368C7.78054 24.9998 7.7381 25.0109 7.70049 25.032C7.66288 25.0532 7.63138 25.0837 7.60906 25.1206C7.58674 25.1576 7.57435 25.1997 7.57311 25.2428C7.57188 25.286 7.58182 25.3287 7.60199 25.3669C8.02946 26.1621 8.664 26.8268 9.43832 27.2904C10.2126 27.7539 11.0979 27.9992 12.0002 28Z" fill="#D9D9D9"/>
</svg>
